<?xml version="1.0" encoding="UTF-8" standalone="no"?>
<!DOCTYPE svg PUBLIC "-//W3C//DTD SVG 1.1//EN"
 "http://www.w3.org/Graphics/SVG/1.1/DTD/svg11.dtd">
<!-- Generated by graphviz version 2.36.0 (20140111.2315)
 -->
<!-- Title: webthree Pages: 1 -->
<svg width="1509pt" height="930pt"
 viewBox="0.00 0.00 1509.00 930.00" xmlns="http://www.w3.org/2000/svg" xmlns:xlink="http://www.w3.org/1999/xlink">
<g id="graph0" class="graph" transform="scale(1 1) rotate(0) translate(4 926)">
<title>webthree</title>
<polygon fill="white" stroke="none" points="-4,4 -4,-926 1505,-926 1505,4 -4,4"/>
<text text-anchor="middle" x="750.5" y="-6.8" font-family="Times,serif" font-size="14.00">webthree dependencies</text>
<g id="clust1" class="cluster"><title>cluster_solidity</title>
<polygon fill="WhiteSmoke" stroke="black" points="58,-466 58,-612 288,-612 288,-466 58,-466"/>
<text text-anchor="start" x="112.543" y="-596.8" font-family="Times,serif" font-size="14.00">solidity dependencies</text>
</g>
<g id="clust3" class="cluster"><title>cluster_webthree</title>
<polygon fill="Honeydew" stroke="black" points="296,-538 296,-840 576,-840 576,-538 296,-538"/>
<text text-anchor="middle" x="436" y="-824.8" font-family="Times,serif" font-size="14.00">webthree dependencies</text>
</g>
<g id="clust4" class="cluster"><title>cluster_webthree_helpers</title>
<polygon fill="LemonChiffon" stroke="black" points="1035,-86 1035,-160 1493,-160 1493,-86 1035,-86"/>
<text text-anchor="start" x="1176.35" y="-144.8" font-family="Times,serif" font-size="14.00">webthree&#45;helpers dependencies</text>
</g>
<g id="clust6" class="cluster"><title>cluster_alethzero</title>
<polygon fill="LightGray" stroke="black" points="708,-766 708,-914 876,-914 876,-766 708,-766"/>
<text text-anchor="start" x="726.898" y="-898.8" font-family="Times,serif" font-size="14.00">alethzero dependencies</text>
</g>
<g id="clust10" class="cluster"><title>cluster_libethereum</title>
<polygon fill="LavenderBlush" stroke="black" points="738,-240 738,-758 1030,-758 1030,-240 738,-240"/>
<text text-anchor="start" x="811.115" y="-742.8" font-family="Times,serif" font-size="14.00">libethereum dependencies</text>
</g>
<g id="clust11" class="cluster"><title>cluster_libweb3core</title>
<polygon fill="AliceBlue" stroke="black" points="1038,-168 1038,-458 1252,-458 1252,-168 1038,-168"/>
<text text-anchor="start" x="1070.95" y="-442.8" font-family="Times,serif" font-size="14.00">libweb3core dependencies</text>
</g>
<g id="clust12" class="cluster"><title>cluster_mix</title>
<polygon fill="LightGray" stroke="black" points="584,-766 584,-840 700,-840 700,-766 584,-766"/>
<text text-anchor="start" x="591.657" y="-824.8" font-family="Times,serif" font-size="14.00">mix dependencies</text>
</g>
<!-- soljson -->
<g id="node1" class="node"><title>soljson</title>
<ellipse fill="none" stroke="black" cx="99" cy="-564" rx="33.2355" ry="18"/>
<text text-anchor="middle" x="99" y="-561" font-family="Courier,monospace" font-size="10.00">soljson</text>
</g>
<!-- solidity -->
<g id="node2" class="node"><title>solidity</title>
<ellipse fill="none" stroke="black" cx="177" cy="-492" rx="36.433" ry="18"/>
<text text-anchor="middle" x="177" y="-489" font-family="Courier,monospace" font-size="10.00">solidity</text>
</g>
<!-- soljson&#45;&gt;solidity -->
<g id="edge1" class="edge"><title>soljson&#45;&gt;solidity</title>
<path fill="none" stroke="black" d="M115.542,-548.155C126.327,-538.476 140.588,-525.678 152.657,-514.846"/>
<polygon fill="black" stroke="black" points="155.108,-517.349 160.213,-508.065 150.433,-512.139 155.108,-517.349"/>
</g>
<!-- evmasm -->
<g id="node32" class="node"><title>evmasm</title>
<ellipse fill="none" stroke="black" cx="776" cy="-338" rx="30.0384" ry="18"/>
<text text-anchor="middle" x="776" y="-335" font-family="Courier,monospace" font-size="10.00">evmasm</text>
</g>
<!-- solidity&#45;&gt;evmasm -->
<g id="edge21" class="edge"><title>solidity&#45;&gt;evmasm</title>
<path fill="none" stroke="black" d="M208.782,-482.935C310.823,-457.042 629.832,-376.091 738.959,-348.399"/>
<polygon fill="black" stroke="black" points="740.018,-351.742 748.85,-345.89 738.296,-344.957 740.018,-351.742"/>
</g>
<!-- solc -->
<g id="node3" class="node"><title>solc</title>
<polygon fill="none" stroke="black" stroke-width="2" points="204,-582 150,-582 150,-546 204,-546 204,-582"/>
<text text-anchor="middle" x="177" y="-561" font-family="Courier,monospace" font-size="10.00">solc</text>
</g>
<!-- solc&#45;&gt;solidity -->
<g id="edge54" class="edge"><title>solc&#45;&gt;solidity</title>
<path fill="none" stroke="black" d="M177,-545.697C177,-537.983 177,-528.712 177,-520.112"/>
<polygon fill="black" stroke="black" points="180.5,-520.104 177,-510.104 173.5,-520.104 180.5,-520.104"/>
</g>
<!-- soltest -->
<g id="node4" class="node"><title>soltest</title>
<polygon fill="none" stroke="black" stroke-width="2" points="280.005,-582 221.995,-582 221.995,-546 280.005,-546 280.005,-582"/>
<text text-anchor="middle" x="251" y="-561" font-family="Courier,monospace" font-size="10.00">soltest</text>
</g>
<!-- soltest&#45;&gt;solidity -->
<g id="edge56" class="edge"><title>soltest&#45;&gt;solidity</title>
<path fill="none" stroke="black" d="M232.708,-545.697C223.022,-536.534 211.014,-525.176 200.63,-515.353"/>
<polygon fill="black" stroke="black" points="202.741,-512.532 193.071,-508.202 197.931,-517.617 202.741,-512.532"/>
</g>
<!-- ethereum -->
<g id="node21" class="node"><title>ethereum</title>
<ellipse fill="none" stroke="black" cx="815" cy="-492" rx="36.433" ry="18"/>
<text text-anchor="middle" x="815" y="-489" font-family="Courier,monospace" font-size="10.00">ethereum</text>
</g>
<!-- soltest&#45;&gt;ethereum -->
<g id="edge55" class="edge"><title>soltest&#45;&gt;ethereum</title>
<path fill="none" stroke="black" d="M274.814,-545.972C280.238,-542.821 286.137,-539.921 292,-538 379.881,-509.199 657.131,-497.781 768.257,-494.286"/>
<polygon fill="black" stroke="black" points="768.593,-497.777 778.481,-493.972 768.378,-490.781 768.593,-497.777"/>
</g>
<!-- web3jsonrpc -->
<g id="node5" class="node"><title>web3jsonrpc</title>
<ellipse fill="none" stroke="black" cx="351" cy="-710" rx="47.0244" ry="18"/>
<text text-anchor="middle" x="351" y="-707" font-family="Courier,monospace" font-size="10.00">web3jsonrpc</text>
</g>
<!-- web3jsonrpc&#45;&gt;solidity -->
<g id="edge18" class="edge"><title>web3jsonrpc&#45;&gt;solidity</title>
<path fill="none" stroke="black" stroke-dasharray="1,5" d="M303.639,-709.158C236.008,-706.504 113.689,-690.398 57,-612 37.7287,-585.349 38.2667,-565.032 57,-538 73.6882,-513.919 104.957,-502.705 131.392,-497.493"/>
<polygon fill="black" stroke="black" points="131.997,-500.94 141.247,-495.775 130.794,-494.044 131.997,-500.94"/>
</g>
<!-- webthree -->
<g id="node6" class="node"><title>webthree</title>
<ellipse fill="none" stroke="black" cx="433" cy="-638" rx="36.433" ry="18"/>
<text text-anchor="middle" x="433" y="-635" font-family="Courier,monospace" font-size="10.00">webthree</text>
</g>
<!-- web3jsonrpc&#45;&gt;webthree -->
<g id="edge19" class="edge"><title>web3jsonrpc&#45;&gt;webthree</title>
<path fill="none" stroke="black" d="M369.607,-693.116C380.926,-683.454 395.528,-670.988 407.865,-660.456"/>
<polygon fill="black" stroke="black" points="410.255,-663.019 415.588,-653.864 405.71,-657.695 410.255,-663.019"/>
</g>
<!-- JsonRpc* -->
<g id="node52" class="node"><title>JsonRpc*</title>
<ellipse fill="none" stroke="black" cx="693" cy="-564" rx="36.433" ry="18"/>
<text text-anchor="middle" x="693" y="-561" font-family="Courier,monospace" font-size="10.00">JsonRpc*</text>
</g>
<!-- web3jsonrpc&#45;&gt;JsonRpc* -->
<g id="edge20" class="edge"><title>web3jsonrpc&#45;&gt;JsonRpc*</title>
<path fill="none" stroke="black" d="M386.132,-697.881C393.024,-695.829 400.218,-693.776 407,-692 478.772,-673.21 505.457,-692.584 570,-656 589.146,-645.148 584.675,-630.531 604,-620 621.069,-610.698 629.849,-621.149 647,-612 657.382,-606.462 666.861,-597.765 674.48,-589.351"/>
<polygon fill="black" stroke="black" points="677.363,-591.364 681.184,-581.482 672.035,-586.824 677.363,-591.364"/>
</g>
<!-- whisper -->
<g id="node11" class="node"><title>whisper</title>
<ellipse fill="none" stroke="black" cx="483" cy="-564" rx="33.2355" ry="18"/>
<text text-anchor="middle" x="483" y="-561" font-family="Courier,monospace" font-size="10.00">whisper</text>
</g>
<!-- webthree&#45;&gt;whisper -->
<g id="edge23" class="edge"><title>webthree&#45;&gt;whisper</title>
<path fill="none" stroke="black" d="M444.346,-620.662C450.739,-611.456 458.85,-599.776 465.989,-589.495"/>
<polygon fill="black" stroke="black" points="468.87,-591.483 471.699,-581.273 463.12,-587.491 468.87,-591.483"/>
</g>
<!-- ethashseal -->
<g id="node22" class="node"><title>ethashseal</title>
<ellipse fill="none" stroke="black" cx="870" cy="-564" rx="43.3279" ry="18"/>
<text text-anchor="middle" x="870" y="-561" font-family="Courier,monospace" font-size="10.00">ethashseal</text>
</g>
<!-- webthree&#45;&gt;ethashseal -->
<g id="edge22" class="edge"><title>webthree&#45;&gt;ethashseal</title>
<path fill="none" stroke="black" d="M459.825,-625.441C466.014,-623.239 472.649,-621.238 479,-620 592.04,-597.974 624.83,-633.351 738,-612 770.854,-605.802 806.479,-592.711 832.429,-581.916"/>
<polygon fill="black" stroke="black" points="834.035,-585.037 841.875,-577.911 831.302,-578.593 834.035,-585.037"/>
</g>
<!-- eth -->
<g id="node7" class="node"><title>eth</title>
<polygon fill="none" stroke="black" stroke-width="2" points="505,-810 451,-810 451,-774 505,-774 505,-810"/>
<text text-anchor="middle" x="478" y="-789" font-family="Courier,monospace" font-size="10.00">eth</text>
</g>
<!-- eth&#45;&gt;web3jsonrpc -->
<g id="edge57" class="edge"><title>eth&#45;&gt;web3jsonrpc</title>
<path fill="none" stroke="black" d="M450.828,-780.369C437.223,-774.554 420.762,-766.756 407,-758 395.957,-750.973 384.723,-741.981 375.245,-733.747"/>
<polygon fill="black" stroke="black" points="377.536,-731.101 367.739,-727.068 372.883,-736.33 377.536,-731.101"/>
</g>
<!-- jsconsole -->
<g id="node9" class="node"><title>jsconsole</title>
<ellipse fill="none" stroke="black" cx="528" cy="-710" rx="40.13" ry="18"/>
<text text-anchor="middle" x="528" y="-707" font-family="Courier,monospace" font-size="10.00">jsconsole</text>
</g>
<!-- eth&#45;&gt;jsconsole -->
<g id="edge58" class="edge"><title>eth&#45;&gt;jsconsole</title>
<path fill="none" stroke="black" d="M488.849,-773.641C495.67,-762.728 504.585,-748.463 512.186,-736.303"/>
<polygon fill="black" stroke="black" points="515.352,-737.84 517.685,-727.505 509.416,-734.13 515.352,-737.84"/>
</g>
<!-- exp -->
<g id="node8" class="node"><title>exp</title>
<polygon fill="none" stroke="black" stroke-width="2" points="470,-728 416,-728 416,-692 470,-692 470,-728"/>
<text text-anchor="middle" x="443" y="-707" font-family="Courier,monospace" font-size="10.00">exp</text>
</g>
<!-- exp&#45;&gt;webthree -->
<g id="edge59" class="edge"><title>exp&#45;&gt;webthree</title>
<path fill="none" stroke="black" d="M440.528,-691.697C439.426,-683.983 438.102,-674.712 436.873,-666.112"/>
<polygon fill="black" stroke="black" points="440.323,-665.509 435.443,-656.104 433.393,-666.499 440.323,-665.509"/>
</g>
<!-- jsengine -->
<g id="node10" class="node"><title>jsengine</title>
<ellipse fill="none" stroke="black" cx="525" cy="-638" rx="36.433" ry="18"/>
<text text-anchor="middle" x="525" y="-635" font-family="Courier,monospace" font-size="10.00">jsengine</text>
</g>
<!-- jsconsole&#45;&gt;jsengine -->
<g id="edge62" class="edge"><title>jsconsole&#45;&gt;jsengine</title>
<path fill="none" stroke="black" d="M527.258,-691.697C526.928,-683.983 526.531,-674.712 526.162,-666.112"/>
<polygon fill="black" stroke="black" points="529.658,-665.945 525.733,-656.104 522.665,-666.245 529.658,-665.945"/>
</g>
<!-- devcore -->
<g id="node40" class="node"><title>devcore</title>
<ellipse fill="none" stroke="black" cx="1079" cy="-194" rx="33.2355" ry="18"/>
<text text-anchor="middle" x="1079" y="-191" font-family="Courier,monospace" font-size="10.00">devcore</text>
</g>
<!-- jsconsole&#45;&gt;devcore -->
<g id="edge60" class="edge"><title>jsconsole&#45;&gt;devcore</title>
<path fill="none" stroke="black" d="M498.158,-697.861C491.882,-695.741 485.265,-693.667 479,-692 293.254,-642.587 205.199,-730.668 54,-612 8.31164,-576.142 0,-551.08 0,-493 0,-493 0,-493 0,-337 0,-230.674 834.224,-201.544 1035.63,-196.06"/>
<polygon fill="black" stroke="black" points="1035.92,-199.554 1045.82,-195.788 1035.73,-192.556 1035.92,-199.554"/>
</g>
<!-- jsconsole&#45;&gt;JsonRpc* -->
<g id="edge61" class="edge"><title>jsconsole&#45;&gt;JsonRpc*</title>
<path fill="none" stroke="black" d="M550.422,-694.963C565.998,-684.834 586.938,-670.451 604,-656 629.083,-634.755 655.066,-607.475 672.434,-588.346"/>
<polygon fill="black" stroke="black" points="675.236,-590.464 679.322,-580.689 670.032,-585.783 675.236,-590.464"/>
</g>
<!-- Readline -->
<g id="node56" class="node"><title>Readline</title>
<ellipse fill="none" stroke="black" cx="693" cy="-638" rx="36.433" ry="18"/>
<text text-anchor="middle" x="693" y="-635" font-family="Courier,monospace" font-size="10.00">Readline</text>
</g>
<!-- jsconsole&#45;&gt;Readline -->
<g id="edge63" class="edge"><title>jsconsole&#45;&gt;Readline</title>
<path fill="none" stroke="black" stroke-dasharray="1,5" d="M556.365,-696.967C584.134,-685.186 626.555,-667.189 656.756,-654.376"/>
<polygon fill="black" stroke="black" points="658.259,-657.54 666.098,-650.413 655.525,-651.096 658.259,-657.54"/>
</g>
<!-- V8 -->
<g id="node57" class="node"><title>V8</title>
<ellipse fill="none" stroke="black" cx="611" cy="-564" rx="27" ry="18"/>
<text text-anchor="middle" x="611" y="-561" font-family="Courier,monospace" font-size="10.00">V8</text>
</g>
<!-- jsengine&#45;&gt;V8 -->
<g id="edge64" class="edge"><title>jsengine&#45;&gt;V8</title>
<path fill="none" stroke="black" d="M554.479,-627.209C563.298,-623.37 572.585,-618.337 580,-612 587.05,-605.975 593.132,-597.96 597.996,-590.258"/>
<polygon fill="black" stroke="black" points="601.093,-591.896 603.13,-581.499 595.054,-588.356 601.093,-591.896"/>
</g>
<!-- p2p -->
<g id="node38" class="node"><title>p2p</title>
<ellipse fill="none" stroke="black" cx="1217" cy="-338" rx="27" ry="18"/>
<text text-anchor="middle" x="1217" y="-335" font-family="Courier,monospace" font-size="10.00">p2p</text>
</g>
<!-- whisper&#45;&gt;p2p -->
<g id="edge65" class="edge"><title>whisper&#45;&gt;p2p</title>
<path fill="none" stroke="black" d="M498.661,-547.856C535.835,-512.994 633.807,-427.352 734,-392 921.953,-325.682 988.428,-407.387 1181,-356 1182.95,-355.479 1184.93,-354.855 1186.9,-354.158"/>
<polygon fill="black" stroke="black" points="1188.62,-357.238 1196.54,-350.211 1185.96,-350.759 1188.62,-357.238"/>
</g>
<!-- testweb3 -->
<g id="node12" class="node"><title>testweb3</title>
<polygon fill="none" stroke="black" stroke-width="2" points="383.006,-810 318.994,-810 318.994,-774 383.006,-774 383.006,-810"/>
<text text-anchor="middle" x="351" y="-789" font-family="Courier,monospace" font-size="10.00">testweb3</text>
</g>
<!-- testweb3&#45;&gt;web3jsonrpc -->
<g id="edge66" class="edge"><title>testweb3&#45;&gt;web3jsonrpc</title>
<path fill="none" stroke="black" d="M351,-773.641C351,-763.297 351,-749.941 351,-738.221"/>
<polygon fill="black" stroke="black" points="354.5,-738.05 351,-728.05 347.5,-738.05 354.5,-738.05"/>
</g>
<!-- buildinfo -->
<g id="node13" class="node"><title>buildinfo</title>
<ellipse fill="none" stroke="black" cx="1346" cy="-112" rx="40.13" ry="18"/>
<text text-anchor="middle" x="1346" y="-109" font-family="Courier,monospace" font-size="10.00">buildinfo</text>
</g>
<!-- base -->
<g id="node14" class="node"><title>base</title>
<ellipse fill="none" stroke="black" cx="1070" cy="-112" rx="27" ry="18"/>
<text text-anchor="middle" x="1070" y="-109" font-family="Courier,monospace" font-size="10.00">base</text>
</g>
<!-- boost -->
<g id="node45" class="node"><title>boost</title>
<ellipse fill="none" stroke="black" cx="1196" cy="-40" rx="27" ry="18"/>
<text text-anchor="middle" x="1196" y="-37" font-family="Courier,monospace" font-size="10.00">boost</text>
</g>
<!-- base&#45;&gt;boost -->
<g id="edge2" class="edge"><title>base&#45;&gt;boost</title>
<path fill="none" stroke="black" d="M1087.61,-98.02C1093.36,-93.9885 1099.85,-89.6487 1106,-86 1125.02,-74.7216 1147.23,-63.5962 1164.83,-55.2292"/>
<polygon fill="black" stroke="black" points="1166.52,-58.3017 1174.08,-50.8811 1163.54,-51.9663 1166.52,-58.3017"/>
</g>
<!-- Jsoncpp -->
<g id="node46" class="node"><title>Jsoncpp</title>
<ellipse fill="none" stroke="black" cx="941" cy="-40" rx="33.2355" ry="18"/>
<text text-anchor="middle" x="941" y="-37" font-family="Courier,monospace" font-size="10.00">Jsoncpp</text>
</g>
<!-- base&#45;&gt;Jsoncpp -->
<g id="edge3" class="edge"><title>base&#45;&gt;Jsoncpp</title>
<path fill="none" stroke="black" d="M1049.56,-99.9083C1028.99,-88.7454 996.962,-71.3671 973.018,-58.3742"/>
<polygon fill="black" stroke="black" points="974.414,-55.1498 963.956,-53.4566 971.076,-61.3023 974.414,-55.1498"/>
</g>
<!-- LevelDB -->
<g id="node47" class="node"><title>LevelDB</title>
<ellipse fill="none" stroke="black" cx="1026" cy="-40" rx="33.2355" ry="18"/>
<text text-anchor="middle" x="1026" y="-37" font-family="Courier,monospace" font-size="10.00">LevelDB</text>
</g>
<!-- base&#45;&gt;LevelDB -->
<g id="edge4" class="edge"><title>base&#45;&gt;LevelDB</title>
<path fill="none" stroke="black" d="M1060.02,-95.1159C1054.58,-86.4685 1047.73,-75.5754 1041.61,-65.833"/>
<polygon fill="black" stroke="black" points="1044.54,-63.9108 1036.25,-57.307 1038.61,-67.636 1044.54,-63.9108"/>
</g>
<!-- pthreads -->
<g id="node48" class="node"><title>pthreads</title>
<ellipse fill="none" stroke="black" cx="1114" cy="-40" rx="36.433" ry="18"/>
<text text-anchor="middle" x="1114" y="-37" font-family="Courier,monospace" font-size="10.00">pthreads</text>
</g>
<!-- base&#45;&gt;pthreads -->
<g id="edge5" class="edge"><title>base&#45;&gt;pthreads</title>
<path fill="none" stroke="black" d="M1079.98,-95.1159C1085.42,-86.4685 1092.27,-75.5754 1098.39,-65.833"/>
<polygon fill="black" stroke="black" points="1101.39,-67.636 1103.75,-57.307 1095.46,-63.9108 1101.39,-67.636"/>
</g>
<!-- json_spirit -->
<g id="node15" class="node"><title>json_spirit</title>
<ellipse fill="none" stroke="black" cx="1240" cy="-112" rx="47.0244" ry="18"/>
<text text-anchor="middle" x="1240" y="-109" font-family="Courier,monospace" font-size="10.00">json_spirit</text>
</g>
<!-- scrypt -->
<g id="node16" class="node"><title>scrypt</title>
<ellipse fill="none" stroke="black" cx="1145" cy="-112" rx="30.0384" ry="18"/>
<text text-anchor="middle" x="1145" y="-109" font-family="Courier,monospace" font-size="10.00">scrypt</text>
</g>
<!-- secp256k1 -->
<g id="node17" class="node"><title>secp256k1</title>
<ellipse fill="none" stroke="black" cx="1445" cy="-112" rx="40.13" ry="18"/>
<text text-anchor="middle" x="1445" y="-109" font-family="Courier,monospace" font-size="10.00">secp256k1</text>
</g>
<!-- gmp -->
<g id="node49" class="node"><title>gmp</title>
<ellipse fill="none" stroke="black" cx="1445" cy="-40" rx="27" ry="18"/>
<text text-anchor="middle" x="1445" y="-37" font-family="Courier,monospace" font-size="10.00">gmp</text>
</g>
<!-- secp256k1&#45;&gt;gmp -->
<g id="edge6" class="edge"><title>secp256k1&#45;&gt;gmp</title>
<path fill="none" stroke="black" d="M1445,-93.6966C1445,-85.9827 1445,-76.7125 1445,-68.1124"/>
<polygon fill="black" stroke="black" points="1448.5,-68.1043 1445,-58.1043 1441.5,-68.1044 1448.5,-68.1043"/>
</g>
<!-- AlethZero -->
<g id="node18" class="node"><title>AlethZero</title>
<polygon fill="none" stroke="black" stroke-width="2" points="868.007,-884 797.993,-884 797.993,-848 868.007,-848 868.007,-884"/>
<text text-anchor="middle" x="833" y="-863" font-family="Courier,monospace" font-size="10.00">AlethZero</text>
</g>
<!-- aleth -->
<g id="node19" class="node"><title>aleth</title>
<ellipse fill="none" stroke="black" cx="748" cy="-792" rx="27" ry="18"/>
<text text-anchor="middle" x="748" y="-789" font-family="Courier,monospace" font-size="10.00">aleth</text>
</g>
<!-- AlethZero&#45;&gt;aleth -->
<g id="edge7" class="edge"><title>AlethZero&#45;&gt;aleth</title>
<path fill="none" stroke="black" d="M812.856,-847.937C800.497,-837.468 784.612,-824.012 771.656,-813.038"/>
<polygon fill="black" stroke="black" points="773.918,-810.367 764.025,-806.574 769.394,-815.709 773.918,-810.367"/>
</g>
<!-- aleth&#45;&gt;web3jsonrpc -->
<g id="edge9" class="edge"><title>aleth&#45;&gt;web3jsonrpc</title>
<path fill="none" stroke="black" d="M730.051,-778.148C722.4,-773.395 713.14,-768.548 704,-766 672.2,-757.137 437.866,-769.709 407,-758 393.89,-753.027 381.667,-743.594 372.006,-734.476"/>
<polygon fill="black" stroke="black" points="374.39,-731.91 364.84,-727.323 369.445,-736.865 374.39,-731.91"/>
</g>
<!-- natspec -->
<g id="node23" class="node"><title>natspec</title>
<ellipse fill="none" stroke="black" cx="902" cy="-710" rx="33.2355" ry="18"/>
<text text-anchor="middle" x="902" y="-707" font-family="Courier,monospace" font-size="10.00">natspec</text>
</g>
<!-- aleth&#45;&gt;natspec -->
<g id="edge10" class="edge"><title>aleth&#45;&gt;natspec</title>
<path fill="none" stroke="black" d="M774.145,-787.487C797.989,-783.351 833.447,-774.797 860,-758 869.433,-752.033 878.017,-743.36 884.93,-735.084"/>
<polygon fill="black" stroke="black" points="887.816,-737.076 891.257,-727.055 882.318,-732.743 887.816,-737.076"/>
</g>
<!-- Qt* -->
<g id="node50" class="node"><title>Qt*</title>
<ellipse fill="none" stroke="black" cx="672" cy="-710" rx="27" ry="18"/>
<text text-anchor="middle" x="672" y="-707" font-family="Courier,monospace" font-size="10.00">Qt*</text>
</g>
<!-- aleth&#45;&gt;Qt* -->
<g id="edge8" class="edge"><title>aleth&#45;&gt;Qt*</title>
<path fill="none" stroke="black" d="M734.06,-776.327C722.597,-764.26 706.172,-746.97 693.098,-733.209"/>
<polygon fill="black" stroke="black" points="695.276,-730.42 685.851,-725.58 690.201,-735.241 695.276,-730.42"/>
</g>
<!-- AlethOne -->
<g id="node20" class="node"><title>AlethOne</title>
<polygon fill="none" stroke="black" stroke-width="2" points="780.006,-884 715.994,-884 715.994,-848 780.006,-848 780.006,-884"/>
<text text-anchor="middle" x="748" y="-863" font-family="Courier,monospace" font-size="10.00">AlethOne</text>
</g>
<!-- AlethOne&#45;&gt;aleth -->
<g id="edge11" class="edge"><title>AlethOne&#45;&gt;aleth</title>
<path fill="none" stroke="black" d="M748,-847.937C748,-839.807 748,-829.876 748,-820.705"/>
<polygon fill="black" stroke="black" points="751.5,-820.441 748,-810.441 744.5,-820.441 751.5,-820.441"/>
</g>
<!-- evm -->
<g id="node31" class="node"><title>evm</title>
<ellipse fill="none" stroke="black" cx="845" cy="-410" rx="27" ry="18"/>
<text text-anchor="middle" x="845" y="-407" font-family="Courier,monospace" font-size="10.00">evm</text>
</g>
<!-- ethereum&#45;&gt;evm -->
<g id="edge13" class="edge"><title>ethereum&#45;&gt;evm</title>
<path fill="none" stroke="black" d="M821.362,-474.034C825.367,-463.356 830.617,-449.356 835.152,-437.262"/>
<polygon fill="black" stroke="black" points="838.516,-438.259 838.75,-427.667 831.961,-435.802 838.516,-438.259"/>
</g>
<!-- lll -->
<g id="node34" class="node"><title>lll</title>
<ellipse fill="none" stroke="black" cx="773" cy="-410" rx="27" ry="18"/>
<text text-anchor="middle" x="773" y="-407" font-family="Courier,monospace" font-size="10.00">lll</text>
</g>
<!-- ethereum&#45;&gt;lll -->
<g id="edge14" class="edge"><title>ethereum&#45;&gt;lll</title>
<path fill="none" stroke="black" d="M806.298,-474.424C800.515,-463.41 792.812,-448.738 786.272,-436.279"/>
<polygon fill="black" stroke="black" points="789.295,-434.508 781.548,-427.281 783.097,-437.762 789.295,-434.508"/>
</g>
<!-- ethereum&#45;&gt;p2p -->
<g id="edge12" class="edge"><title>ethereum&#45;&gt;p2p</title>
<path fill="none" stroke="black" d="M835.643,-477.075C843.278,-472.671 852.218,-468.344 861,-466 879.094,-461.171 1183.9,-470.322 1198,-458 1223.59,-435.64 1224.36,-393.744 1221.5,-366.107"/>
<polygon fill="black" stroke="black" points="1224.94,-365.418 1220.22,-355.934 1217.99,-366.293 1224.94,-365.418"/>
</g>
<!-- ethashseal&#45;&gt;ethereum -->
<g id="edge15" class="edge"><title>ethashseal&#45;&gt;ethereum</title>
<path fill="none" stroke="black" d="M857.244,-546.765C850.302,-537.93 841.581,-526.83 833.868,-517.014"/>
<polygon fill="black" stroke="black" points="836.618,-514.848 827.687,-509.147 831.113,-519.173 836.618,-514.848"/>
</g>
<!-- ethash&#45;cl -->
<g id="node30" class="node"><title>ethash&#45;cl</title>
<ellipse fill="none" stroke="black" cx="982" cy="-492" rx="40.13" ry="18"/>
<text text-anchor="middle" x="982" y="-489" font-family="Courier,monospace" font-size="10.00">ethash&#45;cl</text>
</g>
<!-- ethashseal&#45;&gt;ethash&#45;cl -->
<g id="edge16" class="edge"><title>ethashseal&#45;&gt;ethash&#45;cl</title>
<path fill="none" stroke="black" stroke-dasharray="1,5" d="M892.935,-548.666C909.655,-538.216 932.501,-523.937 950.868,-512.458"/>
<polygon fill="black" stroke="black" points="952.853,-515.344 959.478,-507.076 949.143,-509.408 952.853,-515.344"/>
</g>
<!-- Cpuid -->
<g id="node51" class="node"><title>Cpuid</title>
<ellipse fill="none" stroke="black" cx="1067" cy="-492" rx="27" ry="18"/>
<text text-anchor="middle" x="1067" y="-489" font-family="Courier,monospace" font-size="10.00">Cpuid</text>
</g>
<!-- ethashseal&#45;&gt;Cpuid -->
<g id="edge17" class="edge"><title>ethashseal&#45;&gt;Cpuid</title>
<path fill="none" stroke="black" stroke-dasharray="1,5" d="M905.471,-553.354C939.099,-543.786 990.762,-527.982 1034,-510 1035.17,-509.513 1036.36,-509 1037.55,-508.468"/>
<polygon fill="black" stroke="black" points="1039.12,-511.596 1046.65,-504.138 1036.12,-505.275 1039.12,-511.596"/>
</g>
<!-- ethcore -->
<g id="node24" class="node"><title>ethcore</title>
<ellipse fill="none" stroke="black" cx="949" cy="-338" rx="33.2355" ry="18"/>
<text text-anchor="middle" x="949" y="-335" font-family="Courier,monospace" font-size="10.00">ethcore</text>
</g>
<!-- ethcore&#45;&gt;buildinfo -->
<g id="edge24" class="edge"><title>ethcore&#45;&gt;buildinfo</title>
<path fill="none" stroke="black" d="M919.491,-329.135C897.431,-321.535 868.797,-307.618 855,-284 845.136,-267.114 844.052,-256.204 855,-240 903.006,-168.947 950.071,-185.58 1034,-168 1062.51,-162.029 1269.09,-171.14 1296,-160 1307.92,-155.066 1318.7,-145.897 1327.17,-136.959"/>
<polygon fill="black" stroke="black" points="1329.97,-139.077 1334,-129.275 1324.74,-134.428 1329.97,-139.077"/>
</g>
<!-- devcrypto -->
<g id="node39" class="node"><title>devcrypto</title>
<ellipse fill="none" stroke="black" cx="1145" cy="-266" rx="40.13" ry="18"/>
<text text-anchor="middle" x="1145" y="-263" font-family="Courier,monospace" font-size="10.00">devcrypto</text>
</g>
<!-- ethcore&#45;&gt;devcrypto -->
<g id="edge25" class="edge"><title>ethcore&#45;&gt;devcrypto</title>
<path fill="none" stroke="black" d="M976.253,-327.267C1009.57,-315.369 1066.23,-295.132 1104.61,-281.424"/>
<polygon fill="black" stroke="black" points="1106.2,-284.575 1114.44,-277.916 1103.84,-277.983 1106.2,-284.575"/>
</g>
<!-- ethkey -->
<g id="node25" class="node"><title>ethkey</title>
<polygon fill="none" stroke="black" stroke-width="2" points="944,-428 890,-428 890,-392 944,-392 944,-428"/>
<text text-anchor="middle" x="917" y="-407" font-family="Courier,monospace" font-size="10.00">ethkey</text>
</g>
<!-- ethkey&#45;&gt;ethcore -->
<g id="edge32" class="edge"><title>ethkey&#45;&gt;ethcore</title>
<path fill="none" stroke="black" d="M924.91,-391.697C928.607,-383.609 933.086,-373.812 937.174,-364.869"/>
<polygon fill="black" stroke="black" points="940.427,-366.172 941.401,-355.622 934.06,-363.262 940.427,-366.172"/>
</g>
<!-- ethminer -->
<g id="node26" class="node"><title>ethminer</title>
<polygon fill="none" stroke="black" stroke-width="2" points="812.006,-656 747.994,-656 747.994,-620 812.006,-620 812.006,-656"/>
<text text-anchor="middle" x="780" y="-635" font-family="Courier,monospace" font-size="10.00">ethminer</text>
</g>
<!-- ethminer&#45;&gt;ethashseal -->
<g id="edge33" class="edge"><title>ethminer&#45;&gt;ethashseal</title>
<path fill="none" stroke="black" d="M801.329,-619.937C813.812,-609.95 829.693,-597.245 843.038,-586.569"/>
<polygon fill="black" stroke="black" points="845.344,-589.207 850.967,-580.227 840.971,-583.741 845.344,-589.207"/>
</g>
<!-- ethminer&#45;&gt;JsonRpc* -->
<g id="edge34" class="edge"><title>ethminer&#45;&gt;JsonRpc*</title>
<path fill="none" stroke="black" d="M747.88,-621.474C743.043,-618.596 738.255,-615.411 734,-612 725.81,-605.435 717.943,-597.103 711.33,-589.283"/>
<polygon fill="black" stroke="black" points="713.711,-586.663 704.689,-581.107 708.277,-591.076 713.711,-586.663"/>
</g>
<!-- ethvm -->
<g id="node27" class="node"><title>ethvm</title>
<polygon fill="none" stroke="black" stroke-width="2" points="982,-656 928,-656 928,-620 982,-620 982,-656"/>
<text text-anchor="middle" x="955" y="-635" font-family="Courier,monospace" font-size="10.00">ethvm</text>
</g>
<!-- ethvm&#45;&gt;ethashseal -->
<g id="edge35" class="edge"><title>ethvm&#45;&gt;ethashseal</title>
<path fill="none" stroke="black" d="M934.856,-619.937C923.258,-610.113 908.554,-597.658 896.081,-587.092"/>
<polygon fill="black" stroke="black" points="898.153,-584.261 888.261,-580.468 893.629,-589.602 898.153,-584.261"/>
</g>
<!-- evmjit -->
<g id="node28" class="node"><title>evmjit</title>
<polygon fill="none" stroke="black" stroke-width="2" points="878,-356 824,-356 824,-320 878,-320 878,-356"/>
<text text-anchor="middle" x="851" y="-335" font-family="Courier,monospace" font-size="10.00">evmjit</text>
</g>
<!-- ethash -->
<g id="node29" class="node"><title>ethash</title>
<ellipse fill="none" stroke="black" cx="992" cy="-410" rx="30.0384" ry="18"/>
<text text-anchor="middle" x="992" y="-407" font-family="Courier,monospace" font-size="10.00">ethash</text>
</g>
<!-- ethash&#45;cl&#45;&gt;ethash -->
<g id="edge36" class="edge"><title>ethash&#45;cl&#45;&gt;ethash</title>
<path fill="none" stroke="black" d="M984.17,-473.641C985.463,-463.297 987.132,-449.941 988.597,-438.221"/>
<polygon fill="black" stroke="black" points="992.101,-438.407 989.869,-428.05 985.155,-437.539 992.101,-438.407"/>
</g>
<!-- OpenCL -->
<g id="node55" class="node"><title>OpenCL</title>
<ellipse fill="none" stroke="black" cx="1426" cy="-410" rx="30.0384" ry="18"/>
<text text-anchor="middle" x="1426" y="-407" font-family="Courier,monospace" font-size="10.00">OpenCL</text>
</g>
<!-- ethash&#45;cl&#45;&gt;OpenCL -->
<g id="edge37" class="edge"><title>ethash&#45;cl&#45;&gt;OpenCL</title>
<path fill="none" stroke="black" d="M1004.59,-476.804C1012.62,-472.491 1021.93,-468.291 1031,-466 1068.82,-456.451 1346.39,-473.927 1382,-458 1392.94,-453.108 1402.43,-444.074 1409.77,-435.222"/>
<polygon fill="black" stroke="black" points="1412.56,-437.331 1415.88,-427.27 1407.01,-433.064 1412.56,-437.331"/>
</g>
<!-- evm&#45;&gt;ethcore -->
<g id="edge38" class="edge"><title>evm&#45;&gt;ethcore</title>
<path fill="none" stroke="black" d="M863.593,-396.485C879.359,-385.874 902.23,-370.48 920.337,-358.292"/>
<polygon fill="black" stroke="black" points="922.45,-361.089 928.792,-352.602 918.541,-355.282 922.45,-361.089"/>
</g>
<!-- evm&#45;&gt;evmjit -->
<g id="edge39" class="edge"><title>evm&#45;&gt;evmjit</title>
<path fill="none" stroke="black" stroke-dasharray="1,5" d="M846.483,-391.697C847.144,-383.983 847.939,-374.712 848.676,-366.112"/>
<polygon fill="black" stroke="black" points="852.167,-366.367 849.534,-356.104 845.193,-365.769 852.167,-366.367"/>
</g>
<!-- evmcore -->
<g id="node33" class="node"><title>evmcore</title>
<ellipse fill="none" stroke="black" cx="897" cy="-266" rx="33.2355" ry="18"/>
<text text-anchor="middle" x="897" y="-263" font-family="Courier,monospace" font-size="10.00">evmcore</text>
</g>
<!-- evm&#45;&gt;evmcore -->
<g id="edge40" class="edge"><title>evm&#45;&gt;evmcore</title>
<path fill="none" stroke="black" d="M860.023,-394.712C869.442,-384.797 880.915,-370.762 887,-356 895.086,-336.385 897.393,-312.394 897.785,-294.266"/>
<polygon fill="black" stroke="black" points="901.285,-294.099 897.819,-284.087 894.285,-294.075 901.285,-294.099"/>
</g>
<!-- evmasm&#45;&gt;evmcore -->
<g id="edge41" class="edge"><title>evmasm&#45;&gt;evmcore</title>
<path fill="none" stroke="black" d="M796.801,-324.967C815.838,-313.953 844.266,-297.507 865.984,-284.943"/>
<polygon fill="black" stroke="black" points="867.931,-287.86 874.834,-279.823 864.426,-281.801 867.931,-287.86"/>
</g>
<!-- evmcore&#45;&gt;devcore -->
<g id="edge42" class="edge"><title>evmcore&#45;&gt;devcore</title>
<path fill="none" stroke="black" d="M923.464,-254.821C955.005,-242.69 1007.86,-222.363 1043.07,-208.819"/>
<polygon fill="black" stroke="black" points="1044.43,-212.047 1052.5,-205.191 1041.91,-205.514 1044.43,-212.047"/>
</g>
<!-- lll&#45;&gt;evmasm -->
<g id="edge43" class="edge"><title>lll&#45;&gt;evmasm</title>
<path fill="none" stroke="black" d="M773.742,-391.697C774.072,-383.983 774.469,-374.712 774.838,-366.112"/>
<polygon fill="black" stroke="black" points="778.335,-366.245 775.267,-356.104 771.342,-365.945 778.335,-366.245"/>
</g>
<!-- testutils -->
<g id="node35" class="node"><title>testutils</title>
<ellipse fill="none" stroke="black" cx="870" cy="-638" rx="40.13" ry="18"/>
<text text-anchor="middle" x="870" y="-635" font-family="Courier,monospace" font-size="10.00">testutils</text>
</g>
<!-- testutils&#45;&gt;ethashseal -->
<g id="edge44" class="edge"><title>testutils&#45;&gt;ethashseal</title>
<path fill="none" stroke="black" d="M870,-619.937C870,-611.807 870,-601.876 870,-592.705"/>
<polygon fill="black" stroke="black" points="873.5,-592.441 870,-582.441 866.5,-592.441 873.5,-592.441"/>
</g>
<!-- lllc -->
<g id="node36" class="node"><title>lllc</title>
<polygon fill="none" stroke="black" stroke-width="2" points="924,-510 870,-510 870,-474 924,-474 924,-510"/>
<text text-anchor="middle" x="897" y="-489" font-family="Courier,monospace" font-size="10.00">lllc</text>
</g>
<!-- lllc&#45;&gt;buildinfo -->
<g id="edge45" class="edge"><title>lllc&#45;&gt;buildinfo</title>
<path fill="none" stroke="black" d="M917.213,-473.966C922.097,-470.73 927.503,-467.796 933,-466 967.124,-454.848 1223.22,-472.646 1256,-458 1322.31,-428.369 1368,-411.63 1368,-339 1368,-339 1368,-339 1368,-265 1368,-220.874 1358.81,-170.28 1352.31,-140.019"/>
<polygon fill="black" stroke="black" points="1355.71,-139.217 1350.14,-130.207 1348.88,-140.727 1355.71,-139.217"/>
</g>
<!-- lllc&#45;&gt;lll -->
<g id="edge46" class="edge"><title>lllc&#45;&gt;lll</title>
<path fill="none" stroke="black" d="M875.184,-473.988C870.393,-470.916 865.194,-468.044 860,-466 838.65,-457.598 828.722,-469.725 809,-458 800.082,-452.698 792.6,-444.271 786.808,-436.006"/>
<polygon fill="black" stroke="black" points="789.748,-434.107 781.394,-427.591 783.861,-437.895 789.748,-434.107"/>
</g>
<!-- testeth -->
<g id="node37" class="node"><title>testeth</title>
<polygon fill="none" stroke="black" stroke-width="2" points="851.005,-728 792.995,-728 792.995,-692 851.005,-692 851.005,-728"/>
<text text-anchor="middle" x="822" y="-707" font-family="Courier,monospace" font-size="10.00">testeth</text>
</g>
<!-- testeth&#45;&gt;testutils -->
<g id="edge47" class="edge"><title>testeth&#45;&gt;testutils</title>
<path fill="none" stroke="black" d="M833.865,-691.697C839.588,-683.351 846.559,-673.185 852.846,-664.016"/>
<polygon fill="black" stroke="black" points="855.833,-665.849 858.602,-655.622 850.06,-661.89 855.833,-665.849"/>
</g>
<!-- p2p&#45;&gt;devcrypto -->
<g id="edge26" class="edge"><title>p2p&#45;&gt;devcrypto</title>
<path fill="none" stroke="black" d="M1202.43,-322.834C1192.68,-313.356 1179.64,-300.673 1168.44,-289.791"/>
<polygon fill="black" stroke="black" points="1170.66,-287.067 1161.05,-282.606 1165.78,-292.086 1170.66,-287.067"/>
</g>
<!-- Miniupnpc -->
<g id="node53" class="node"><title>Miniupnpc</title>
<ellipse fill="none" stroke="black" cx="1300" cy="-266" rx="40.13" ry="18"/>
<text text-anchor="middle" x="1300" y="-263" font-family="Courier,monospace" font-size="10.00">Miniupnpc</text>
</g>
<!-- p2p&#45;&gt;Miniupnpc -->
<g id="edge27" class="edge"><title>p2p&#45;&gt;Miniupnpc</title>
<path fill="none" stroke="black" stroke-dasharray="1,5" d="M1233.4,-323.17C1244.98,-313.403 1260.74,-300.114 1274.02,-288.913"/>
<polygon fill="black" stroke="black" points="1276.52,-291.382 1281.91,-282.259 1272.01,-286.031 1276.52,-291.382"/>
</g>
<!-- devcrypto&#45;&gt;scrypt -->
<g id="edge28" class="edge"><title>devcrypto&#45;&gt;scrypt</title>
<path fill="none" stroke="black" d="M1145,-247.859C1145,-221.745 1145,-171.743 1145,-140.507"/>
<polygon fill="black" stroke="black" points="1148.5,-140.311 1145,-130.311 1141.5,-140.311 1148.5,-140.311"/>
</g>
<!-- devcrypto&#45;&gt;secp256k1 -->
<g id="edge29" class="edge"><title>devcrypto&#45;&gt;secp256k1</title>
<path fill="none" stroke="black" d="M1179.62,-256.683C1232.25,-243.887 1327.81,-220.013 1342,-212 1376.04,-192.769 1407.22,-159.683 1426.15,-137.097"/>
<polygon fill="black" stroke="black" points="1428.91,-139.246 1432.55,-129.296 1423.5,-134.805 1428.91,-139.246"/>
</g>
<!-- devcrypto&#45;&gt;devcore -->
<g id="edge30" class="edge"><title>devcrypto&#45;&gt;devcore</title>
<path fill="none" stroke="black" d="M1130.02,-249.116C1121.3,-239.858 1110.14,-228.027 1100.49,-217.789"/>
<polygon fill="black" stroke="black" points="1102.87,-215.215 1093.46,-210.34 1097.78,-220.017 1102.87,-215.215"/>
</g>
<!-- Cryptopp -->
<g id="node54" class="node"><title>Cryptopp</title>
<ellipse fill="none" stroke="black" cx="1297" cy="-194" rx="36.433" ry="18"/>
<text text-anchor="middle" x="1297" y="-191" font-family="Courier,monospace" font-size="10.00">Cryptopp</text>
</g>
<!-- devcrypto&#45;&gt;Cryptopp -->
<g id="edge31" class="edge"><title>devcrypto&#45;&gt;Cryptopp</title>
<path fill="none" stroke="black" d="M1172.17,-252.485C1197.23,-240.947 1234.56,-223.755 1261.87,-211.178"/>
<polygon fill="black" stroke="black" points="1263.46,-214.301 1271.08,-206.939 1260.53,-207.943 1263.46,-214.301"/>
</g>
<!-- devcore&#45;&gt;base -->
<g id="edge48" class="edge"><title>devcore&#45;&gt;base</title>
<path fill="none" stroke="black" d="M1077.05,-175.641C1075.88,-165.297 1074.38,-151.941 1073.06,-140.221"/>
<polygon fill="black" stroke="black" points="1076.51,-139.596 1071.92,-130.05 1069.56,-140.379 1076.51,-139.596"/>
</g>
<!-- bench -->
<g id="node41" class="node"><title>bench</title>
<polygon fill="none" stroke="black" stroke-width="2" points="1172,-356 1118,-356 1118,-320 1172,-320 1172,-356"/>
<text text-anchor="middle" x="1145" y="-335" font-family="Courier,monospace" font-size="10.00">bench</text>
</g>
<!-- bench&#45;&gt;devcrypto -->
<g id="edge49" class="edge"><title>bench&#45;&gt;devcrypto</title>
<path fill="none" stroke="black" d="M1145,-319.697C1145,-311.983 1145,-302.712 1145,-294.112"/>
<polygon fill="black" stroke="black" points="1148.5,-294.104 1145,-284.104 1141.5,-294.104 1148.5,-294.104"/>
</g>
<!-- rlp -->
<g id="node42" class="node"><title>rlp</title>
<polygon fill="none" stroke="black" stroke-width="2" points="1100,-356 1046,-356 1046,-320 1100,-320 1100,-356"/>
<text text-anchor="middle" x="1073" y="-335" font-family="Courier,monospace" font-size="10.00">rlp</text>
</g>
<!-- rlp&#45;&gt;devcrypto -->
<g id="edge50" class="edge"><title>rlp&#45;&gt;devcrypto</title>
<path fill="none" stroke="black" d="M1090.8,-319.697C1100.09,-310.663 1111.58,-299.495 1121.58,-289.769"/>
<polygon fill="black" stroke="black" points="1124.15,-292.152 1128.88,-282.671 1119.27,-287.133 1124.15,-292.152"/>
</g>
<!-- testweb3core -->
<g id="node43" class="node"><title>testweb3core</title>
<polygon fill="none" stroke="black" stroke-width="2" points="1189.01,-428 1100.99,-428 1100.99,-392 1189.01,-392 1189.01,-428"/>
<text text-anchor="middle" x="1145" y="-407" font-family="Courier,monospace" font-size="10.00">testweb3core</text>
</g>
<!-- testweb3core&#45;&gt;p2p -->
<g id="edge51" class="edge"><title>testweb3core&#45;&gt;p2p</title>
<path fill="none" stroke="black" d="M1162.8,-391.697C1172.49,-382.276 1184.56,-370.534 1194.86,-360.527"/>
<polygon fill="black" stroke="black" points="1197.58,-362.759 1202.31,-353.279 1192.7,-357.74 1197.58,-362.759"/>
</g>
<!-- Mix -->
<g id="node44" class="node"><title>Mix</title>
<ellipse fill="none" stroke="black" cx="642" cy="-792" rx="27" ry="18"/>
<text text-anchor="middle" x="642" y="-789" font-family="Courier,monospace" font-size="10.00">Mix</text>
</g>
<!-- Mix&#45;&gt;web3jsonrpc -->
<g id="edge53" class="edge"><title>Mix&#45;&gt;web3jsonrpc</title>
<path fill="none" stroke="black" d="M621.045,-780.489C609.288,-775.124 594.174,-769.092 580,-766 542.398,-757.799 442.85,-771.997 407,-758 393.939,-752.901 381.722,-743.45 372.053,-734.354"/>
<polygon fill="black" stroke="black" points="374.439,-731.79 364.878,-727.224 369.505,-736.755 374.439,-731.79"/>
</g>
<!-- Mix&#45;&gt;Qt* -->
<g id="edge52" class="edge"><title>Mix&#45;&gt;Qt*</title>
<path fill="none" stroke="black" d="M648.216,-774.424C652.238,-763.697 657.562,-749.501 662.153,-737.259"/>
<polygon fill="black" stroke="black" points="665.558,-738.147 665.792,-727.555 659.003,-735.689 665.558,-738.147"/>
</g>
</g>
</svg>
