<?xml version="1.0" encoding="UTF-8" standalone="no"?>
<!DOCTYPE svg PUBLIC "-//W3C//DTD SVG 1.1//EN"
 "http://www.w3.org/Graphics/SVG/1.1/DTD/svg11.dtd">
<!-- Generated by graphviz version 2.36.0 (20140111.2315)
 -->
<!-- Title: webthree Pages: 1 -->
<svg width="1294pt" height="946pt"
 viewBox="0.00 0.00 1294.00 946.00" xmlns="http://www.w3.org/2000/svg" xmlns:xlink="http://www.w3.org/1999/xlink">
<g id="graph0" class="graph" transform="scale(1 1) rotate(0) translate(4 942)">
<title>webthree</title>
<polygon fill="white" stroke="none" points="-4,4 -4,-942 1290,-942 1290,4 -4,4"/>
<text text-anchor="middle" x="643" y="-6.8" font-family="Times,serif" font-size="14.00">webthree dependencies</text>
<g id="clust1" class="cluster"><title>cluster_webthree_helpers</title>
<polygon fill="LemonChiffon" stroke="black" points="548,-30 548,-176 892,-176 892,-30 548,-30"/>
<text text-anchor="start" x="632.35" y="-160.8" font-family="Times,serif" font-size="14.00">webthree&#45;helpers dependencies</text>
</g>
<g id="clust3" class="cluster"><title>cluster_alethzero</title>
<polygon fill="LightGray" stroke="black" points="316,-782 316,-930 484,-930 484,-782 316,-782"/>
<text text-anchor="start" x="334.898" y="-914.8" font-family="Times,serif" font-size="14.00">alethzero dependencies</text>
</g>
<g id="clust7" class="cluster"><title>cluster_libethereum</title>
<polygon fill="LavenderBlush" stroke="black" points="296,-256 296,-774 588,-774 588,-256 296,-256"/>
<text text-anchor="start" x="369.115" y="-758.8" font-family="Times,serif" font-size="14.00">libethereum dependencies</text>
</g>
<g id="clust8" class="cluster"><title>cluster_libweb3core</title>
<polygon fill="AliceBlue" stroke="black" points="704,-184 704,-474 918,-474 918,-184 704,-184"/>
<text text-anchor="start" x="736.95" y="-458.8" font-family="Times,serif" font-size="14.00">libweb3core dependencies</text>
</g>
<g id="clust9" class="cluster"><title>cluster_mix</title>
<polygon fill="LightGray" stroke="black" points="188,-782 188,-856 304,-856 304,-782 188,-782"/>
<text text-anchor="start" x="195.657" y="-840.8" font-family="Times,serif" font-size="14.00">mix dependencies</text>
</g>
<g id="clust11" class="cluster"><title>cluster_solidity</title>
<polygon fill="WhiteSmoke" stroke="black" points="58,-482 58,-628 288,-628 288,-482 58,-482"/>
<text text-anchor="start" x="112.543" y="-612.8" font-family="Times,serif" font-size="14.00">solidity dependencies</text>
</g>
<g id="clust13" class="cluster"><title>cluster_webthree</title>
<polygon fill="Honeydew" stroke="black" points="678,-554 678,-856 830,-856 830,-554 678,-554"/>
<text text-anchor="middle" x="754" y="-840.8" font-family="Times,serif" font-size="14.00">webthree dependencies</text>
</g>
<!-- buildinfo -->
<g id="node1" class="node"><title>buildinfo</title>
<ellipse fill="none" stroke="black" cx="596" cy="-128" rx="40.13" ry="18"/>
<text text-anchor="middle" x="596" y="-125" font-family="Courier,monospace" font-size="10.00">buildinfo</text>
</g>
<!-- base -->
<g id="node2" class="node"><title>base</title>
<ellipse fill="none" stroke="black" cx="681" cy="-128" rx="27" ry="18"/>
<text text-anchor="middle" x="681" y="-125" font-family="Courier,monospace" font-size="10.00">base</text>
</g>
<!-- json_spirit -->
<g id="node3" class="node"><title>json_spirit</title>
<ellipse fill="none" stroke="black" cx="681" cy="-56" rx="47.0244" ry="18"/>
<text text-anchor="middle" x="681" y="-53" font-family="Courier,monospace" font-size="10.00">json_spirit</text>
</g>
<!-- base&#45;&gt;json_spirit -->
<g id="edge2" class="edge"><title>base&#45;&gt;json_spirit</title>
<path fill="none" stroke="black" d="M681,-109.697C681,-101.983 681,-92.7125 681,-84.1124"/>
<polygon fill="black" stroke="black" points="684.5,-84.1043 681,-74.1043 677.5,-84.1044 684.5,-84.1043"/>
</g>
<!-- boost -->
<g id="node42" class="node"><title>boost</title>
<ellipse fill="none" stroke="black" cx="1103" cy="-56" rx="27" ry="18"/>
<text text-anchor="middle" x="1103" y="-53" font-family="Courier,monospace" font-size="10.00">boost</text>
</g>
<!-- base&#45;&gt;boost -->
<g id="edge3" class="edge"><title>base&#45;&gt;boost</title>
<path fill="none" stroke="black" d="M701.479,-115.873C706.436,-113.592 711.807,-111.448 717,-110 867.202,-68.1094 915.58,-115.102 1066,-74 1068.3,-73.3711 1070.64,-72.6126 1072.96,-71.7695"/>
<polygon fill="black" stroke="black" points="1074.39,-74.969 1082.32,-67.9434 1071.74,-68.4901 1074.39,-74.969"/>
</g>
<!-- Jsoncpp -->
<g id="node43" class="node"><title>Jsoncpp</title>
<ellipse fill="none" stroke="black" cx="1181" cy="-56" rx="33.2355" ry="18"/>
<text text-anchor="middle" x="1181" y="-53" font-family="Courier,monospace" font-size="10.00">Jsoncpp</text>
</g>
<!-- base&#45;&gt;Jsoncpp -->
<g id="edge4" class="edge"><title>base&#45;&gt;Jsoncpp</title>
<path fill="none" stroke="black" d="M701.46,-115.807C706.419,-113.528 711.794,-111.402 717,-110 898.757,-61.0369 955.931,-117.803 1139,-74 1141.63,-73.3696 1144.32,-72.6012 1147,-71.7433"/>
<polygon fill="black" stroke="black" points="1148.29,-74.9961 1156.53,-68.3314 1145.94,-68.4053 1148.29,-74.9961"/>
</g>
<!-- LevelDB -->
<g id="node44" class="node"><title>LevelDB</title>
<ellipse fill="none" stroke="black" cx="933" cy="-56" rx="33.2355" ry="18"/>
<text text-anchor="middle" x="933" y="-53" font-family="Courier,monospace" font-size="10.00">LevelDB</text>
</g>
<!-- base&#45;&gt;LevelDB -->
<g id="edge5" class="edge"><title>base&#45;&gt;LevelDB</title>
<path fill="none" stroke="black" d="M701.588,-116.231C706.541,-113.935 711.882,-111.695 717,-110 794.034,-84.4869 818.834,-99.1088 896,-74 897.248,-73.594 898.509,-73.1575 899.776,-72.697"/>
<polygon fill="black" stroke="black" points="901.471,-75.7875 909.442,-68.8071 898.858,-69.2936 901.471,-75.7875"/>
</g>
<!-- pthreads -->
<g id="node45" class="node"><title>pthreads</title>
<ellipse fill="none" stroke="black" cx="1021" cy="-56" rx="36.433" ry="18"/>
<text text-anchor="middle" x="1021" y="-53" font-family="Courier,monospace" font-size="10.00">pthreads</text>
</g>
<!-- base&#45;&gt;pthreads -->
<g id="edge6" class="edge"><title>base&#45;&gt;pthreads</title>
<path fill="none" stroke="black" d="M701.517,-116.008C706.474,-113.721 711.834,-111.541 717,-110 827.946,-76.9032 862.717,-102.231 975,-74 977.96,-73.2559 980.992,-72.3869 984.019,-71.4425"/>
<polygon fill="black" stroke="black" points="985.21,-74.7347 993.574,-68.2304 982.98,-68.0996 985.21,-74.7347"/>
</g>
<!-- scrypt -->
<g id="node4" class="node"><title>scrypt</title>
<ellipse fill="none" stroke="black" cx="756" cy="-128" rx="30.0384" ry="18"/>
<text text-anchor="middle" x="756" y="-125" font-family="Courier,monospace" font-size="10.00">scrypt</text>
</g>
<!-- secp256k1 -->
<g id="node5" class="node"><title>secp256k1</title>
<ellipse fill="none" stroke="black" cx="844" cy="-128" rx="40.13" ry="18"/>
<text text-anchor="middle" x="844" y="-125" font-family="Courier,monospace" font-size="10.00">secp256k1</text>
</g>
<!-- gmp -->
<g id="node46" class="node"><title>gmp</title>
<ellipse fill="none" stroke="black" cx="1259" cy="-56" rx="27" ry="18"/>
<text text-anchor="middle" x="1259" y="-53" font-family="Courier,monospace" font-size="10.00">gmp</text>
</g>
<!-- secp256k1&#45;&gt;gmp -->
<g id="edge7" class="edge"><title>secp256k1&#45;&gt;gmp</title>
<path fill="none" stroke="black" d="M883.844,-125.375C953.835,-121.656 1102.84,-109.867 1223,-74 1224.94,-73.4218 1226.9,-72.7537 1228.86,-72.024"/>
<polygon fill="black" stroke="black" points="1230.61,-75.0851 1238.48,-67.9908 1227.91,-68.6294 1230.61,-75.0851"/>
</g>
<!-- AlethZero -->
<g id="node6" class="node"><title>AlethZero</title>
<polygon fill="none" stroke="black" stroke-width="2" points="394.007,-900 323.993,-900 323.993,-864 394.007,-864 394.007,-900"/>
<text text-anchor="middle" x="359" y="-879" font-family="Courier,monospace" font-size="10.00">AlethZero</text>
</g>
<!-- aleth -->
<g id="node7" class="node"><title>aleth</title>
<ellipse fill="none" stroke="black" cx="444" cy="-808" rx="27" ry="18"/>
<text text-anchor="middle" x="444" y="-805" font-family="Courier,monospace" font-size="10.00">aleth</text>
</g>
<!-- AlethZero&#45;&gt;aleth -->
<g id="edge8" class="edge"><title>AlethZero&#45;&gt;aleth</title>
<path fill="none" stroke="black" d="M379.144,-863.937C391.503,-853.468 407.388,-840.012 420.344,-829.038"/>
<polygon fill="black" stroke="black" points="422.606,-831.709 427.975,-822.574 418.082,-826.367 422.606,-831.709"/>
</g>
<!-- solidity -->
<g id="node34" class="node"><title>solidity</title>
<ellipse fill="none" stroke="black" cx="137" cy="-508" rx="36.433" ry="18"/>
<text text-anchor="middle" x="137" y="-505" font-family="Courier,monospace" font-size="10.00">solidity</text>
</g>
<!-- AlethZero&#45;&gt;solidity -->
<g id="edge9" class="edge"><title>AlethZero&#45;&gt;solidity</title>
<path fill="none" stroke="black" stroke-dasharray="1,5" d="M323.924,-881.661C233.59,-881.361 0,-867.046 0,-727 0,-727 0,-727 0,-653 0,-605.204 8.90562,-588.485 42,-554 56.7421,-538.638 77.7773,-527.932 96.3081,-520.829"/>
<polygon fill="black" stroke="black" points="97.5018,-524.119 105.724,-517.437 95.1293,-517.534 97.5018,-524.119"/>
</g>
<!-- natspec -->
<g id="node11" class="node"><title>natspec</title>
<ellipse fill="none" stroke="black" cx="446" cy="-726" rx="33.2355" ry="18"/>
<text text-anchor="middle" x="446" y="-723" font-family="Courier,monospace" font-size="10.00">natspec</text>
</g>
<!-- aleth&#45;&gt;natspec -->
<g id="edge12" class="edge"><title>aleth&#45;&gt;natspec</title>
<path fill="none" stroke="black" d="M444.434,-789.641C444.693,-779.297 445.026,-765.941 445.319,-754.221"/>
<polygon fill="black" stroke="black" points="448.823,-754.134 445.574,-744.05 441.825,-753.959 448.823,-754.134"/>
</g>
<!-- web3jsonrpc -->
<g id="node37" class="node"><title>web3jsonrpc</title>
<ellipse fill="none" stroke="black" cx="733" cy="-726" rx="47.0244" ry="18"/>
<text text-anchor="middle" x="733" y="-723" font-family="Courier,monospace" font-size="10.00">web3jsonrpc</text>
</g>
<!-- aleth&#45;&gt;web3jsonrpc -->
<g id="edge11" class="edge"><title>aleth&#45;&gt;web3jsonrpc</title>
<path fill="none" stroke="black" d="M469.599,-802.121C499.262,-796.276 549.509,-785.786 592,-774 625.439,-764.725 662.657,-752.224 690.455,-742.447"/>
<polygon fill="black" stroke="black" points="691.989,-745.617 700.246,-738.978 689.651,-739.018 691.989,-745.617"/>
</g>
<!-- Qt* -->
<g id="node47" class="node"><title>Qt*</title>
<ellipse fill="none" stroke="black" cx="261" cy="-726" rx="27" ry="18"/>
<text text-anchor="middle" x="261" y="-723" font-family="Courier,monospace" font-size="10.00">Qt*</text>
</g>
<!-- aleth&#45;&gt;Qt* -->
<g id="edge10" class="edge"><title>aleth&#45;&gt;Qt*</title>
<path fill="none" stroke="black" d="M417.696,-803.719C379.796,-798.591 312.159,-787.814 292,-774 284.15,-768.621 277.787,-760.535 272.915,-752.58"/>
<polygon fill="black" stroke="black" points="275.96,-750.852 268.049,-743.804 269.838,-754.247 275.96,-750.852"/>
</g>
<!-- AlethOne -->
<g id="node8" class="node"><title>AlethOne</title>
<polygon fill="none" stroke="black" stroke-width="2" points="476.006,-900 411.994,-900 411.994,-864 476.006,-864 476.006,-900"/>
<text text-anchor="middle" x="444" y="-879" font-family="Courier,monospace" font-size="10.00">AlethOne</text>
</g>
<!-- AlethOne&#45;&gt;aleth -->
<g id="edge13" class="edge"><title>AlethOne&#45;&gt;aleth</title>
<path fill="none" stroke="black" d="M444,-863.937C444,-855.807 444,-845.876 444,-836.705"/>
<polygon fill="black" stroke="black" points="447.5,-836.441 444,-826.441 440.5,-836.441 447.5,-836.441"/>
</g>
<!-- ethereum -->
<g id="node9" class="node"><title>ethereum</title>
<ellipse fill="none" stroke="black" cx="445" cy="-508" rx="36.433" ry="18"/>
<text text-anchor="middle" x="445" y="-505" font-family="Courier,monospace" font-size="10.00">ethereum</text>
</g>
<!-- evm -->
<g id="node19" class="node"><title>evm</title>
<ellipse fill="none" stroke="black" cx="475" cy="-426" rx="27" ry="18"/>
<text text-anchor="middle" x="475" y="-423" font-family="Courier,monospace" font-size="10.00">evm</text>
</g>
<!-- ethereum&#45;&gt;evm -->
<g id="edge15" class="edge"><title>ethereum&#45;&gt;evm</title>
<path fill="none" stroke="black" d="M451.362,-490.034C455.367,-479.356 460.617,-465.356 465.152,-453.262"/>
<polygon fill="black" stroke="black" points="468.516,-454.259 468.75,-443.667 461.961,-451.802 468.516,-454.259"/>
</g>
<!-- lll -->
<g id="node22" class="node"><title>lll</title>
<ellipse fill="none" stroke="black" cx="331" cy="-426" rx="27" ry="18"/>
<text text-anchor="middle" x="331" y="-423" font-family="Courier,monospace" font-size="10.00">lll</text>
</g>
<!-- ethereum&#45;&gt;lll -->
<g id="edge16" class="edge"><title>ethereum&#45;&gt;lll</title>
<path fill="none" stroke="black" d="M414.162,-498.099C398.964,-492.726 380.953,-484.8 367,-474 359.002,-467.809 351.833,-459.433 346.038,-451.466"/>
<polygon fill="black" stroke="black" points="348.851,-449.38 340.315,-443.105 343.075,-453.334 348.851,-449.38"/>
</g>
<!-- p2p -->
<g id="node26" class="node"><title>p2p</title>
<ellipse fill="none" stroke="black" cx="883" cy="-354" rx="27" ry="18"/>
<text text-anchor="middle" x="883" y="-351" font-family="Courier,monospace" font-size="10.00">p2p</text>
</g>
<!-- ethereum&#45;&gt;p2p -->
<g id="edge14" class="edge"><title>ethereum&#45;&gt;p2p</title>
<path fill="none" stroke="black" d="M466.183,-493.093C473.722,-488.804 482.463,-484.544 491,-482 511.94,-475.759 570.545,-485.698 589,-474 617.589,-455.88 599.166,-427.26 627,-408 708.475,-351.624 752.397,-401.439 847,-372 848.93,-371.399 850.89,-370.714 852.846,-369.971"/>
<polygon fill="black" stroke="black" points="854.611,-373.025 862.456,-365.904 851.882,-366.578 854.611,-373.025"/>
</g>
<!-- ethashseal -->
<g id="node10" class="node"><title>ethashseal</title>
<ellipse fill="none" stroke="black" cx="534" cy="-580" rx="43.3279" ry="18"/>
<text text-anchor="middle" x="534" y="-577" font-family="Courier,monospace" font-size="10.00">ethashseal</text>
</g>
<!-- ethashseal&#45;&gt;ethereum -->
<g id="edge17" class="edge"><title>ethashseal&#45;&gt;ethereum</title>
<path fill="none" stroke="black" d="M514.688,-563.811C502.156,-553.955 485.651,-540.973 471.849,-530.117"/>
<polygon fill="black" stroke="black" points="473.688,-527.111 463.664,-523.68 469.36,-532.613 473.688,-527.111"/>
</g>
<!-- ethash&#45;cl -->
<g id="node18" class="node"><title>ethash&#45;cl</title>
<ellipse fill="none" stroke="black" cx="540" cy="-508" rx="40.13" ry="18"/>
<text text-anchor="middle" x="540" y="-505" font-family="Courier,monospace" font-size="10.00">ethash&#45;cl</text>
</g>
<!-- ethashseal&#45;&gt;ethash&#45;cl -->
<g id="edge18" class="edge"><title>ethashseal&#45;&gt;ethash&#45;cl</title>
<path fill="none" stroke="black" stroke-dasharray="1,5" d="M535.483,-561.697C536.144,-553.983 536.939,-544.712 537.676,-536.112"/>
<polygon fill="black" stroke="black" points="541.167,-536.367 538.534,-526.104 534.193,-535.769 541.167,-536.367"/>
</g>
<!-- Cpuid -->
<g id="node48" class="node"><title>Cpuid</title>
<ellipse fill="none" stroke="black" cx="625" cy="-508" rx="27" ry="18"/>
<text text-anchor="middle" x="625" y="-505" font-family="Courier,monospace" font-size="10.00">Cpuid</text>
</g>
<!-- ethashseal&#45;&gt;Cpuid -->
<g id="edge19" class="edge"><title>ethashseal&#45;&gt;Cpuid</title>
<path fill="none" stroke="black" stroke-dasharray="1,5" d="M553.746,-563.811C567.292,-553.391 585.379,-539.478 599.94,-528.277"/>
<polygon fill="black" stroke="black" points="602.253,-530.913 608.045,-522.042 597.985,-525.365 602.253,-530.913"/>
</g>
<!-- ethcore -->
<g id="node12" class="node"><title>ethcore</title>
<ellipse fill="none" stroke="black" cx="439" cy="-354" rx="33.2355" ry="18"/>
<text text-anchor="middle" x="439" y="-351" font-family="Courier,monospace" font-size="10.00">ethcore</text>
</g>
<!-- ethcore&#45;&gt;buildinfo -->
<g id="edge25" class="edge"><title>ethcore&#45;&gt;buildinfo</title>
<path fill="none" stroke="black" d="M439.185,-335.775C440.094,-315.475 443.838,-281.308 458,-256 483.941,-209.64 532.872,-170.786 564.951,-148.702"/>
<polygon fill="black" stroke="black" points="567.183,-151.418 573.518,-142.926 563.27,-145.614 567.183,-151.418"/>
</g>
<!-- devcrypto -->
<g id="node27" class="node"><title>devcrypto</title>
<ellipse fill="none" stroke="black" cx="808" cy="-282" rx="40.13" ry="18"/>
<text text-anchor="middle" x="808" y="-279" font-family="Courier,monospace" font-size="10.00">devcrypto</text>
</g>
<!-- ethcore&#45;&gt;devcrypto -->
<g id="edge26" class="edge"><title>ethcore&#45;&gt;devcrypto</title>
<path fill="none" stroke="black" d="M467.562,-344.547C478.026,-341.616 489.997,-338.452 501,-336 591.827,-315.758 699.232,-298.785 759.909,-289.83"/>
<polygon fill="black" stroke="black" points="760.572,-293.271 769.959,-288.358 759.557,-286.345 760.572,-293.271"/>
</g>
<!-- ethkey -->
<g id="node13" class="node"><title>ethkey</title>
<polygon fill="none" stroke="black" stroke-width="2" points="430,-444 376,-444 376,-408 430,-408 430,-444"/>
<text text-anchor="middle" x="403" y="-423" font-family="Courier,monospace" font-size="10.00">ethkey</text>
</g>
<!-- ethkey&#45;&gt;ethcore -->
<g id="edge33" class="edge"><title>ethkey&#45;&gt;ethcore</title>
<path fill="none" stroke="black" d="M411.899,-407.697C416.102,-399.523 421.204,-389.603 425.843,-380.584"/>
<polygon fill="black" stroke="black" points="428.99,-382.116 430.451,-371.622 422.765,-378.914 428.99,-382.116"/>
</g>
<!-- ethminer -->
<g id="node14" class="node"><title>ethminer</title>
<polygon fill="none" stroke="black" stroke-width="2" points="580.006,-672 515.994,-672 515.994,-636 580.006,-636 580.006,-672"/>
<text text-anchor="middle" x="548" y="-651" font-family="Courier,monospace" font-size="10.00">ethminer</text>
</g>
<!-- ethminer&#45;&gt;ethashseal -->
<g id="edge34" class="edge"><title>ethminer&#45;&gt;ethashseal</title>
<path fill="none" stroke="black" d="M544.682,-635.937C543.084,-627.719 541.128,-617.66 539.329,-608.406"/>
<polygon fill="black" stroke="black" points="542.736,-607.589 537.391,-598.441 535.864,-608.925 542.736,-607.589"/>
</g>
<!-- JsonRpc* -->
<g id="node49" class="node"><title>JsonRpc*</title>
<ellipse fill="none" stroke="black" cx="633" cy="-580" rx="36.433" ry="18"/>
<text text-anchor="middle" x="633" y="-577" font-family="Courier,monospace" font-size="10.00">JsonRpc*</text>
</g>
<!-- ethminer&#45;&gt;JsonRpc* -->
<g id="edge35" class="edge"><title>ethminer&#45;&gt;JsonRpc*</title>
<path fill="none" stroke="black" d="M580.09,-636.475C584.244,-633.85 588.326,-631.002 592,-628 600.005,-621.459 607.741,-613.26 614.296,-605.55"/>
<polygon fill="black" stroke="black" points="617.278,-607.432 620.902,-597.476 611.861,-602.999 617.278,-607.432"/>
</g>
<!-- ethvm -->
<g id="node15" class="node"><title>ethvm</title>
<polygon fill="none" stroke="black" stroke-width="2" points="498,-672 444,-672 444,-636 498,-636 498,-672"/>
<text text-anchor="middle" x="471" y="-651" font-family="Courier,monospace" font-size="10.00">ethvm</text>
</g>
<!-- ethvm&#45;&gt;ethashseal -->
<g id="edge36" class="edge"><title>ethvm&#45;&gt;ethashseal</title>
<path fill="none" stroke="black" d="M485.93,-635.937C493.969,-626.749 504.021,-615.261 512.852,-605.169"/>
<polygon fill="black" stroke="black" points="515.66,-607.275 519.611,-597.445 510.392,-602.666 515.66,-607.275"/>
</g>
<!-- evmjit -->
<g id="node16" class="node"><title>evmjit</title>
<polygon fill="none" stroke="black" stroke-width="2" points="564,-372 510,-372 510,-336 564,-336 564,-372"/>
<text text-anchor="middle" x="537" y="-351" font-family="Courier,monospace" font-size="10.00">evmjit</text>
</g>
<!-- ethash -->
<g id="node17" class="node"><title>ethash</title>
<ellipse fill="none" stroke="black" cx="550" cy="-426" rx="30.0384" ry="18"/>
<text text-anchor="middle" x="550" y="-423" font-family="Courier,monospace" font-size="10.00">ethash</text>
</g>
<!-- ethash&#45;cl&#45;&gt;ethash -->
<g id="edge37" class="edge"><title>ethash&#45;cl&#45;&gt;ethash</title>
<path fill="none" stroke="black" d="M542.17,-489.641C543.463,-479.297 545.132,-465.941 546.597,-454.221"/>
<polygon fill="black" stroke="black" points="550.101,-454.407 547.869,-444.05 543.155,-453.539 550.101,-454.407"/>
</g>
<!-- OpenCL -->
<g id="node52" class="node"><title>OpenCL</title>
<ellipse fill="none" stroke="black" cx="666" cy="-426" rx="30.0384" ry="18"/>
<text text-anchor="middle" x="666" y="-423" font-family="Courier,monospace" font-size="10.00">OpenCL</text>
</g>
<!-- ethash&#45;cl&#45;&gt;OpenCL -->
<g id="edge38" class="edge"><title>ethash&#45;cl&#45;&gt;OpenCL</title>
<path fill="none" stroke="black" d="M563.919,-493.383C571.739,-489.318 580.582,-485.119 589,-482 603.151,-476.757 608.964,-481.604 622,-474 632.097,-468.11 641.287,-459.189 648.626,-450.696"/>
<polygon fill="black" stroke="black" points="651.459,-452.76 655.065,-442.798 646.034,-448.337 651.459,-452.76"/>
</g>
<!-- evm&#45;&gt;ethcore -->
<g id="edge39" class="edge"><title>evm&#45;&gt;ethcore</title>
<path fill="none" stroke="black" d="M466.65,-408.765C462.351,-400.404 457.008,-390.016 452.169,-380.606"/>
<polygon fill="black" stroke="black" points="455.24,-378.926 447.554,-371.633 449.015,-382.127 455.24,-378.926"/>
</g>
<!-- evm&#45;&gt;evmjit -->
<g id="edge40" class="edge"><title>evm&#45;&gt;evmjit</title>
<path fill="none" stroke="black" stroke-dasharray="1,5" d="M488.149,-410.155C496.023,-401.264 506.229,-389.742 515.274,-379.529"/>
<polygon fill="black" stroke="black" points="517.897,-381.847 521.907,-372.04 512.657,-377.205 517.897,-381.847"/>
</g>
<!-- evmcore -->
<g id="node21" class="node"><title>evmcore</title>
<ellipse fill="none" stroke="black" cx="500" cy="-282" rx="33.2355" ry="18"/>
<text text-anchor="middle" x="500" y="-279" font-family="Courier,monospace" font-size="10.00">evmcore</text>
</g>
<!-- evm&#45;&gt;evmcore -->
<g id="edge41" class="edge"><title>evm&#45;&gt;evmcore</title>
<path fill="none" stroke="black" d="M478.016,-407.871C482.276,-383.67 490.104,-339.211 495.177,-310.393"/>
<polygon fill="black" stroke="black" points="498.687,-310.645 496.974,-300.189 491.793,-309.431 498.687,-310.645"/>
</g>
<!-- evmasm -->
<g id="node20" class="node"><title>evmasm</title>
<ellipse fill="none" stroke="black" cx="334" cy="-354" rx="30.0384" ry="18"/>
<text text-anchor="middle" x="334" y="-351" font-family="Courier,monospace" font-size="10.00">evmasm</text>
</g>
<!-- evmasm&#45;&gt;evmcore -->
<g id="edge42" class="edge"><title>evmasm&#45;&gt;evmcore</title>
<path fill="none" stroke="black" d="M357.784,-342.971C385.894,-331.117 432.914,-311.289 465.139,-297.7"/>
<polygon fill="black" stroke="black" points="466.773,-300.81 474.627,-293.699 464.053,-294.36 466.773,-300.81"/>
</g>
<!-- devcore -->
<g id="node28" class="node"><title>devcore</title>
<ellipse fill="none" stroke="black" cx="745" cy="-210" rx="33.2355" ry="18"/>
<text text-anchor="middle" x="745" y="-207" font-family="Courier,monospace" font-size="10.00">devcore</text>
</g>
<!-- evmcore&#45;&gt;devcore -->
<g id="edge43" class="edge"><title>evmcore&#45;&gt;devcore</title>
<path fill="none" stroke="black" d="M529.067,-272.695C573.299,-260.058 657.543,-235.988 706.712,-221.939"/>
<polygon fill="black" stroke="black" points="707.696,-225.298 716.35,-219.186 705.773,-218.568 707.696,-225.298"/>
</g>
<!-- lll&#45;&gt;evmasm -->
<g id="edge44" class="edge"><title>lll&#45;&gt;evmasm</title>
<path fill="none" stroke="black" d="M331.742,-407.697C332.072,-399.983 332.469,-390.712 332.838,-382.112"/>
<polygon fill="black" stroke="black" points="336.335,-382.245 333.267,-372.104 329.342,-381.945 336.335,-382.245"/>
</g>
<!-- testutils -->
<g id="node23" class="node"><title>testutils</title>
<ellipse fill="none" stroke="black" cx="369" cy="-654" rx="40.13" ry="18"/>
<text text-anchor="middle" x="369" y="-651" font-family="Courier,monospace" font-size="10.00">testutils</text>
</g>
<!-- testutils&#45;&gt;ethashseal -->
<g id="edge45" class="edge"><title>testutils&#45;&gt;ethashseal</title>
<path fill="none" stroke="black" d="M396.99,-640.786C424.12,-628.948 465.484,-610.898 495.665,-597.728"/>
<polygon fill="black" stroke="black" points="497.274,-600.845 505.039,-593.637 494.474,-594.429 497.274,-600.845"/>
</g>
<!-- lllc -->
<g id="node24" class="node"><title>lllc</title>
<polygon fill="none" stroke="black" stroke-width="2" points="358,-526 304,-526 304,-490 358,-490 358,-526"/>
<text text-anchor="middle" x="331" y="-505" font-family="Courier,monospace" font-size="10.00">lllc</text>
</g>
<!-- lllc&#45;&gt;buildinfo -->
<g id="edge46" class="edge"><title>lllc&#45;&gt;buildinfo</title>
<path fill="none" stroke="black" d="M307.534,-489.771C302.699,-485.162 298.133,-479.824 295,-474 269.624,-426.834 276,-408.559 276,-355 276,-355 276,-355 276,-281 276,-163 455.73,-136.496 545.797,-130.622"/>
<polygon fill="black" stroke="black" points="546.02,-134.115 555.796,-130.03 545.607,-127.127 546.02,-134.115"/>
</g>
<!-- lllc&#45;&gt;lll -->
<g id="edge47" class="edge"><title>lllc&#45;&gt;lll</title>
<path fill="none" stroke="black" d="M331,-489.641C331,-479.297 331,-465.941 331,-454.221"/>
<polygon fill="black" stroke="black" points="334.5,-454.05 331,-444.05 327.5,-454.05 334.5,-454.05"/>
</g>
<!-- testeth -->
<g id="node25" class="node"><title>testeth</title>
<polygon fill="none" stroke="black" stroke-width="2" points="395.005,-744 336.995,-744 336.995,-708 395.005,-708 395.005,-744"/>
<text text-anchor="middle" x="366" y="-723" font-family="Courier,monospace" font-size="10.00">testeth</text>
</g>
<!-- testeth&#45;&gt;testutils -->
<g id="edge48" class="edge"><title>testeth&#45;&gt;testutils</title>
<path fill="none" stroke="black" d="M366.742,-707.697C367.072,-699.983 367.469,-690.712 367.838,-682.112"/>
<polygon fill="black" stroke="black" points="371.335,-682.245 368.267,-672.104 364.342,-681.945 371.335,-682.245"/>
</g>
<!-- p2p&#45;&gt;devcrypto -->
<g id="edge27" class="edge"><title>p2p&#45;&gt;devcrypto</title>
<path fill="none" stroke="black" d="M867.823,-338.834C857.57,-329.265 843.817,-316.429 832.083,-305.477"/>
<polygon fill="black" stroke="black" points="834.419,-302.87 824.721,-298.606 829.643,-307.988 834.419,-302.87"/>
</g>
<!-- Miniupnpc -->
<g id="node50" class="node"><title>Miniupnpc</title>
<ellipse fill="none" stroke="black" cx="966" cy="-282" rx="40.13" ry="18"/>
<text text-anchor="middle" x="966" y="-279" font-family="Courier,monospace" font-size="10.00">Miniupnpc</text>
</g>
<!-- p2p&#45;&gt;Miniupnpc -->
<g id="edge28" class="edge"><title>p2p&#45;&gt;Miniupnpc</title>
<path fill="none" stroke="black" stroke-dasharray="1,5" d="M899.398,-339.17C910.979,-329.403 926.737,-316.114 940.017,-304.913"/>
<polygon fill="black" stroke="black" points="942.519,-307.382 947.907,-298.259 938.006,-302.031 942.519,-307.382"/>
</g>
<!-- devcrypto&#45;&gt;scrypt -->
<g id="edge29" class="edge"><title>devcrypto&#45;&gt;scrypt</title>
<path fill="none" stroke="black" d="M805.857,-263.733C803.045,-243.981 797.224,-210.897 787,-184 783.086,-173.703 777.468,-163.014 772.086,-153.828"/>
<polygon fill="black" stroke="black" points="775.037,-151.945 766.855,-145.214 769.054,-155.578 775.037,-151.945"/>
</g>
<!-- devcrypto&#45;&gt;secp256k1 -->
<g id="edge30" class="edge"><title>devcrypto&#45;&gt;secp256k1</title>
<path fill="none" stroke="black" d="M812.06,-263.859C818.272,-237.631 830.191,-187.306 837.582,-156.099"/>
<polygon fill="black" stroke="black" points="841.001,-156.849 839.9,-146.311 834.189,-155.236 841.001,-156.849"/>
</g>
<!-- devcrypto&#45;&gt;devcore -->
<g id="edge31" class="edge"><title>devcrypto&#45;&gt;devcore</title>
<path fill="none" stroke="black" d="M793.704,-265.116C785.569,-256.076 775.225,-244.583 766.164,-234.515"/>
<polygon fill="black" stroke="black" points="768.53,-231.913 759.239,-226.821 763.327,-236.596 768.53,-231.913"/>
</g>
<!-- Cryptopp -->
<g id="node51" class="node"><title>Cryptopp</title>
<ellipse fill="none" stroke="black" cx="963" cy="-210" rx="36.433" ry="18"/>
<text text-anchor="middle" x="963" y="-207" font-family="Courier,monospace" font-size="10.00">Cryptopp</text>
</g>
<!-- devcrypto&#45;&gt;Cryptopp -->
<g id="edge32" class="edge"><title>devcrypto&#45;&gt;Cryptopp</title>
<path fill="none" stroke="black" d="M835.354,-268.647C861.009,-257.06 899.513,-239.672 927.521,-227.023"/>
<polygon fill="black" stroke="black" points="929.278,-230.07 936.951,-222.764 926.397,-223.69 929.278,-230.07"/>
</g>
<!-- devcore&#45;&gt;base -->
<g id="edge49" class="edge"><title>devcore&#45;&gt;base</title>
<path fill="none" stroke="black" d="M731.45,-193.356C726.809,-187.911 721.622,-181.732 717,-176 710.971,-168.524 704.548,-160.244 698.821,-152.743"/>
<polygon fill="black" stroke="black" points="701.315,-150.241 692.483,-144.39 695.739,-154.472 701.315,-150.241"/>
</g>
<!-- bench -->
<g id="node29" class="node"><title>bench</title>
<polygon fill="none" stroke="black" stroke-width="2" points="838,-372 784,-372 784,-336 838,-336 838,-372"/>
<text text-anchor="middle" x="811" y="-351" font-family="Courier,monospace" font-size="10.00">bench</text>
</g>
<!-- bench&#45;&gt;devcrypto -->
<g id="edge50" class="edge"><title>bench&#45;&gt;devcrypto</title>
<path fill="none" stroke="black" d="M810.258,-335.697C809.928,-327.983 809.531,-318.712 809.162,-310.112"/>
<polygon fill="black" stroke="black" points="812.658,-309.945 808.733,-300.104 805.665,-310.245 812.658,-309.945"/>
</g>
<!-- rlp -->
<g id="node30" class="node"><title>rlp</title>
<polygon fill="none" stroke="black" stroke-width="2" points="766,-372 712,-372 712,-336 766,-336 766,-372"/>
<text text-anchor="middle" x="739" y="-351" font-family="Courier,monospace" font-size="10.00">rlp</text>
</g>
<!-- rlp&#45;&gt;devcrypto -->
<g id="edge51" class="edge"><title>rlp&#45;&gt;devcrypto</title>
<path fill="none" stroke="black" d="M756.056,-335.697C764.873,-326.752 775.753,-315.714 785.274,-306.055"/>
<polygon fill="black" stroke="black" points="788.025,-308.25 792.553,-298.671 783.04,-303.336 788.025,-308.25"/>
</g>
<!-- testweb3core -->
<g id="node31" class="node"><title>testweb3core</title>
<polygon fill="none" stroke="black" stroke-width="2" points="855.009,-444 766.991,-444 766.991,-408 855.009,-408 855.009,-444"/>
<text text-anchor="middle" x="811" y="-423" font-family="Courier,monospace" font-size="10.00">testweb3core</text>
</g>
<!-- testweb3core&#45;&gt;p2p -->
<g id="edge52" class="edge"><title>testweb3core&#45;&gt;p2p</title>
<path fill="none" stroke="black" d="M828.798,-407.697C838.488,-398.276 850.565,-386.534 860.858,-376.527"/>
<polygon fill="black" stroke="black" points="863.583,-378.759 868.313,-369.279 858.703,-373.74 863.583,-378.759"/>
</g>
<!-- Mix -->
<g id="node32" class="node"><title>Mix</title>
<ellipse fill="none" stroke="black" cx="261" cy="-808" rx="27" ry="18"/>
<text text-anchor="middle" x="261" y="-805" font-family="Courier,monospace" font-size="10.00">Mix</text>
</g>
<!-- Mix&#45;&gt;solidity -->
<g id="edge55" class="edge"><title>Mix&#45;&gt;solidity</title>
<path fill="none" stroke="black" stroke-dasharray="1,5" d="M239.925,-796.51C195.966,-773.28 95.3941,-712.768 57,-628 43.4305,-598.041 40.3962,-582.39 57,-554 65.7275,-539.077 81.4244,-528.721 96.6167,-521.741"/>
<polygon fill="black" stroke="black" points="98.0815,-524.922 105.944,-517.82 95.369,-518.469 98.0815,-524.922"/>
</g>
<!-- Mix&#45;&gt;web3jsonrpc -->
<g id="edge54" class="edge"><title>Mix&#45;&gt;web3jsonrpc</title>
<path fill="none" stroke="black" d="M280.112,-795.208C289.383,-790.133 300.895,-784.743 312,-782 372.431,-767.072 530.705,-784.847 592,-774 627.229,-767.765 665.659,-754.497 693.488,-743.643"/>
<polygon fill="black" stroke="black" points="694.863,-746.863 702.866,-739.92 692.281,-740.357 694.863,-746.863"/>
</g>
<!-- Mix&#45;&gt;Qt* -->
<g id="edge53" class="edge"><title>Mix&#45;&gt;Qt*</title>
<path fill="none" stroke="black" d="M261,-789.641C261,-779.297 261,-765.941 261,-754.221"/>
<polygon fill="black" stroke="black" points="264.5,-754.05 261,-744.05 257.5,-754.05 264.5,-754.05"/>
</g>
<!-- soljson -->
<g id="node33" class="node"><title>soljson</title>
<ellipse fill="none" stroke="black" cx="171" cy="-580" rx="33.2355" ry="18"/>
<text text-anchor="middle" x="171" y="-577" font-family="Courier,monospace" font-size="10.00">soljson</text>
</g>
<!-- soljson&#45;&gt;solidity -->
<g id="edge1" class="edge"><title>soljson&#45;&gt;solidity</title>
<path fill="none" stroke="black" d="M162.942,-562.411C158.978,-554.249 154.107,-544.22 149.66,-535.065"/>
<polygon fill="black" stroke="black" points="152.753,-533.422 145.236,-525.956 146.457,-536.48 152.753,-533.422"/>
</g>
<!-- solidity&#45;&gt;evmasm -->
<g id="edge22" class="edge"><title>solidity&#45;&gt;evmasm</title>
<path fill="none" stroke="black" d="M155.889,-492.426C191.403,-465.024 268.157,-405.803 308.32,-374.814"/>
<polygon fill="black" stroke="black" points="310.528,-377.531 316.308,-368.651 306.252,-371.989 310.528,-377.531"/>
</g>
<!-- solc -->
<g id="node35" class="node"><title>solc</title>
<polygon fill="none" stroke="black" stroke-width="2" points="120,-598 66,-598 66,-562 120,-562 120,-598"/>
<text text-anchor="middle" x="93" y="-577" font-family="Courier,monospace" font-size="10.00">solc</text>
</g>
<!-- solc&#45;&gt;solidity -->
<g id="edge56" class="edge"><title>solc&#45;&gt;solidity</title>
<path fill="none" stroke="black" d="M103.876,-561.697C109.068,-553.437 115.381,-543.394 121.097,-534.299"/>
<polygon fill="black" stroke="black" points="124.193,-535.951 126.552,-525.622 118.267,-532.226 124.193,-535.951"/>
</g>
<!-- soltest -->
<g id="node36" class="node"><title>soltest</title>
<polygon fill="none" stroke="black" stroke-width="2" points="280.005,-598 221.995,-598 221.995,-562 280.005,-562 280.005,-598"/>
<text text-anchor="middle" x="251" y="-577" font-family="Courier,monospace" font-size="10.00">soltest</text>
</g>
<!-- soltest&#45;&gt;ethereum -->
<g id="edge57" class="edge"><title>soltest&#45;&gt;ethereum</title>
<path fill="none" stroke="black" d="M276.915,-561.809C281.806,-558.968 286.969,-556.228 292,-554 327.825,-538.139 370.792,-526.063 402.06,-518.434"/>
<polygon fill="black" stroke="black" points="403.273,-521.743 412.188,-516.019 401.648,-514.934 403.273,-521.743"/>
</g>
<!-- soltest&#45;&gt;solidity -->
<g id="edge58" class="edge"><title>soltest&#45;&gt;solidity</title>
<path fill="none" stroke="black" d="M225.351,-561.89C221.241,-559.216 217.019,-556.51 213,-554 198.49,-544.938 182.193,-535.229 168.423,-527.157"/>
<polygon fill="black" stroke="black" points="170.183,-524.131 159.782,-522.112 166.654,-530.176 170.183,-524.131"/>
</g>
<!-- webthree -->
<g id="node38" class="node"><title>webthree</title>
<ellipse fill="none" stroke="black" cx="733" cy="-654" rx="36.433" ry="18"/>
<text text-anchor="middle" x="733" y="-651" font-family="Courier,monospace" font-size="10.00">webthree</text>
</g>
<!-- web3jsonrpc&#45;&gt;webthree -->
<g id="edge20" class="edge"><title>web3jsonrpc&#45;&gt;webthree</title>
<path fill="none" stroke="black" d="M733,-707.697C733,-699.983 733,-690.712 733,-682.112"/>
<polygon fill="black" stroke="black" points="736.5,-682.104 733,-672.104 729.5,-682.104 736.5,-682.104"/>
</g>
<!-- web3jsonrpc&#45;&gt;JsonRpc* -->
<g id="edge21" class="edge"><title>web3jsonrpc&#45;&gt;JsonRpc*</title>
<path fill="none" stroke="black" d="M717.703,-708.921C708.348,-698.724 696.412,-685.041 687,-672 671.732,-650.846 656.787,-625.16 646.504,-606.478"/>
<polygon fill="black" stroke="black" points="649.564,-604.779 641.712,-597.665 643.414,-608.122 649.564,-604.779"/>
</g>
<!-- webthree&#45;&gt;ethashseal -->
<g id="edge23" class="edge"><title>webthree&#45;&gt;ethashseal</title>
<path fill="none" stroke="black" d="M696.521,-652.277C665.923,-650.407 621.775,-644.693 587,-628 575.338,-622.402 564.311,-613.469 555.367,-604.887"/>
<polygon fill="black" stroke="black" points="557.603,-602.171 548.079,-597.529 552.629,-607.097 557.603,-602.171"/>
</g>
<!-- whisper -->
<g id="node40" class="node"><title>whisper</title>
<ellipse fill="none" stroke="black" cx="761" cy="-580" rx="33.2355" ry="18"/>
<text text-anchor="middle" x="761" y="-577" font-family="Courier,monospace" font-size="10.00">whisper</text>
</g>
<!-- webthree&#45;&gt;whisper -->
<g id="edge24" class="edge"><title>webthree&#45;&gt;whisper</title>
<path fill="none" stroke="black" d="M739.636,-635.937C742.948,-627.419 747.03,-616.923 750.735,-607.395"/>
<polygon fill="black" stroke="black" points="754.05,-608.529 754.412,-597.941 747.525,-605.992 754.05,-608.529"/>
</g>
<!-- eth -->
<g id="node39" class="node"><title>eth</title>
<polygon fill="none" stroke="black" stroke-width="2" points="822,-826 768,-826 768,-790 822,-790 822,-826"/>
<text text-anchor="middle" x="795" y="-805" font-family="Courier,monospace" font-size="10.00">eth</text>
</g>
<!-- eth&#45;&gt;web3jsonrpc -->
<g id="edge59" class="edge"><title>eth&#45;&gt;web3jsonrpc</title>
<path fill="none" stroke="black" d="M781.547,-789.641C772.924,-778.514 761.6,-763.903 752.057,-751.59"/>
<polygon fill="black" stroke="black" points="754.683,-749.265 745.791,-743.505 749.151,-753.553 754.683,-749.265"/>
</g>
<!-- whisper&#45;&gt;p2p -->
<g id="edge60" class="edge"><title>whisper&#45;&gt;p2p</title>
<path fill="none" stroke="black" d="M780.604,-565.171C804.526,-547.135 844.224,-513.217 864,-474 878.606,-445.035 882.489,-407.502 883.28,-382.406"/>
<polygon fill="black" stroke="black" points="886.784,-382.207 883.453,-372.149 879.785,-382.089 886.784,-382.207"/>
</g>
<!-- testweb3 -->
<g id="node41" class="node"><title>testweb3</title>
<polygon fill="none" stroke="black" stroke-width="2" points="750.006,-826 685.994,-826 685.994,-790 750.006,-790 750.006,-826"/>
<text text-anchor="middle" x="718" y="-805" font-family="Courier,monospace" font-size="10.00">testweb3</text>
</g>
<!-- testweb3&#45;&gt;web3jsonrpc -->
<g id="edge61" class="edge"><title>testweb3&#45;&gt;web3jsonrpc</title>
<path fill="none" stroke="black" d="M721.255,-789.641C723.194,-779.297 725.699,-765.941 727.896,-754.221"/>
<polygon fill="black" stroke="black" points="731.4,-754.524 729.803,-744.05 724.52,-753.234 731.4,-754.524"/>
</g>
</g>
</svg>
