<?xml version="1.0" encoding="UTF-8" standalone="no"?>
<!DOCTYPE svg PUBLIC "-//W3C//DTD SVG 1.1//EN"
 "http://www.w3.org/Graphics/SVG/1.1/DTD/svg11.dtd">
<!-- Generated by graphviz version 2.36.0 (20140111.2315)
 -->
<!-- Title: webthree Pages: 1 -->
<svg width="1102pt" height="714pt"
 viewBox="0.00 0.00 1102.00 714.00" xmlns="http://www.w3.org/2000/svg" xmlns:xlink="http://www.w3.org/1999/xlink">
<g id="graph0" class="graph" transform="scale(1 1) rotate(0) translate(4 710)">
<title>webthree</title>
<polygon fill="white" stroke="none" points="-4,4 -4,-710 1098,-710 1098,4 -4,4"/>
<text text-anchor="middle" x="547" y="-6.8" font-family="Times,serif" font-size="14.00">Ethereum C++ dependencies</text>
<!-- buildinfo -->
<g id="node1" class="node"><title>buildinfo</title>
<ellipse fill="deepskyblue" stroke="black" cx="386" cy="-184" rx="40.13" ry="18"/>
<text text-anchor="middle" x="386" y="-181" font-family="Courier,monospace" font-size="10.00">buildinfo</text>
</g>
<!-- base -->
<g id="node2" class="node"><title>base</title>
<ellipse fill="deepskyblue" stroke="black" cx="775" cy="-112" rx="27" ry="18"/>
<text text-anchor="middle" x="775" y="-109" font-family="Courier,monospace" font-size="10.00">base</text>
</g>
<!-- pthreads -->
<g id="node3" class="node"><title>pthreads</title>
<ellipse fill="none" stroke="black" cx="779" cy="-40" rx="36.433" ry="18"/>
<text text-anchor="middle" x="779" y="-37" font-family="Courier,monospace" font-size="10.00">pthreads</text>
</g>
<!-- base&#45;&gt;pthreads -->
<g id="edge1" class="edge"><title>base&#45;&gt;pthreads</title>
<path fill="none" stroke="black" stroke-dasharray="1,5" d="M775.989,-93.6966C776.43,-85.9827 776.959,-76.7125 777.451,-68.1124"/>
<polygon fill="black" stroke="black" points="780.946,-68.2878 778.023,-58.1043 773.958,-67.8883 780.946,-68.2878"/>
</g>
<!-- json_spirit -->
<g id="node4" class="node"><title>json_spirit</title>
<ellipse fill="none" stroke="red" cx="492" cy="-184" rx="47.0244" ry="18"/>
<text text-anchor="middle" x="492" y="-181" font-family="Courier,monospace" font-size="10.00">json_spirit</text>
</g>
<!-- scrypt -->
<g id="node5" class="node"><title>scrypt</title>
<ellipse fill="none" stroke="red" cx="673" cy="-184" rx="30.0384" ry="18"/>
<text text-anchor="middle" x="673" y="-181" font-family="Courier,monospace" font-size="10.00">scrypt</text>
</g>
<!-- secp256k1 -->
<g id="node6" class="node"><title>secp256k1</title>
<ellipse fill="none" stroke="red" cx="761" cy="-184" rx="40.13" ry="18"/>
<text text-anchor="middle" x="761" y="-181" font-family="Courier,monospace" font-size="10.00">secp256k1</text>
</g>
<!-- gmp -->
<g id="node7" class="node"><title>gmp</title>
<ellipse fill="none" stroke="black" cx="847" cy="-112" rx="27" ry="18"/>
<text text-anchor="middle" x="847" y="-109" font-family="Courier,monospace" font-size="10.00">gmp</text>
</g>
<!-- secp256k1&#45;&gt;gmp -->
<g id="edge2" class="edge"><title>secp256k1&#45;&gt;gmp</title>
<path fill="none" stroke="black" d="M779.661,-167.811C792.179,-157.622 808.801,-144.092 822.399,-133.024"/>
<polygon fill="black" stroke="black" points="824.864,-135.53 830.41,-126.503 820.445,-130.101 824.864,-135.53"/>
</g>
<!-- testeth -->
<g id="node8" class="node"><title>testeth</title>
<polygon fill="chartreuse" stroke="black" stroke-width="2" points="492.005,-562 433.995,-562 433.995,-526 492.005,-526 492.005,-562"/>
<text text-anchor="middle" x="463" y="-541" font-family="Courier,monospace" font-size="10.00">testeth</text>
</g>
<!-- ethashseal -->
<g id="node9" class="node"><title>ethashseal</title>
<ellipse fill="deepskyblue" stroke="black" cx="605" cy="-472" rx="43.3279" ry="18"/>
<text text-anchor="middle" x="605" y="-469" font-family="Courier,monospace" font-size="10.00">ethashseal</text>
</g>
<!-- testeth&#45;&gt;ethashseal -->
<g id="edge3" class="edge"><title>testeth&#45;&gt;ethashseal</title>
<path fill="none" stroke="black" d="M492.078,-528.666C514.284,-517.719 545.014,-502.571 568.811,-490.84"/>
<polygon fill="black" stroke="black" points="570.463,-493.928 577.885,-486.367 567.368,-487.649 570.463,-493.928"/>
</g>
<!-- boost::unit_test_framework -->
<g id="node10" class="node"><title>boost::unit_test_framework</title>
<ellipse fill="none" stroke="black" cx="406" cy="-472" rx="98.979" ry="18"/>
<text text-anchor="middle" x="406" y="-469" font-family="Courier,monospace" font-size="10.00">boost::unit_test_framework</text>
</g>
<!-- testeth&#45;&gt;boost::unit_test_framework -->
<g id="edge4" class="edge"><title>testeth&#45;&gt;boost::unit_test_framework</title>
<path fill="none" stroke="black" d="M448.91,-525.697C442.077,-517.305 433.743,-507.07 426.244,-497.861"/>
<polygon fill="black" stroke="black" points="428.956,-495.649 419.928,-490.104 423.528,-500.069 428.956,-495.649"/>
</g>
<!-- ethereum -->
<g id="node35" class="node"><title>ethereum</title>
<ellipse fill="deepskyblue" stroke="black" cx="423" cy="-400" rx="36.433" ry="18"/>
<text text-anchor="middle" x="423" y="-397" font-family="Courier,monospace" font-size="10.00">ethereum</text>
</g>
<!-- ethashseal&#45;&gt;ethereum -->
<g id="edge47" class="edge"><title>ethashseal&#45;&gt;ethereum</title>
<path fill="none" stroke="black" d="M574.126,-459.125C542.742,-447.055 494.089,-428.342 460.506,-415.425"/>
<polygon fill="black" stroke="black" points="461.622,-412.105 451.032,-411.782 459.109,-418.638 461.622,-412.105"/>
</g>
<!-- ethash&#45;cl -->
<g id="node44" class="node"><title>ethash&#45;cl</title>
<ellipse fill="deepskyblue" stroke="black" cx="605" cy="-400" rx="40.13" ry="18"/>
<text text-anchor="middle" x="605" y="-397" font-family="Courier,monospace" font-size="10.00">ethash&#45;cl</text>
</g>
<!-- ethashseal&#45;&gt;ethash&#45;cl -->
<g id="edge48" class="edge"><title>ethashseal&#45;&gt;ethash&#45;cl</title>
<path fill="none" stroke="black" stroke-dasharray="1,5" d="M605,-453.697C605,-445.983 605,-436.712 605,-428.112"/>
<polygon fill="black" stroke="black" points="608.5,-428.104 605,-418.104 601.5,-428.104 608.5,-428.104"/>
</g>
<!-- Cpuid -->
<g id="node46" class="node"><title>Cpuid</title>
<ellipse fill="none" stroke="black" cx="341" cy="-400" rx="27" ry="18"/>
<text text-anchor="middle" x="341" y="-397" font-family="Courier,monospace" font-size="10.00">Cpuid</text>
</g>
<!-- ethashseal&#45;&gt;Cpuid -->
<g id="edge49" class="edge"><title>ethashseal&#45;&gt;Cpuid</title>
<path fill="none" stroke="black" stroke-dasharray="1,5" d="M571.076,-460.585C563.203,-458.299 554.835,-455.975 547,-454 472.111,-435.125 450.19,-442.655 377,-418 375.084,-417.355 373.136,-416.635 371.188,-415.866"/>
<polygon fill="black" stroke="black" points="372.169,-412.477 361.6,-411.731 369.397,-418.905 372.169,-412.477"/>
</g>
<!-- testweb3 -->
<g id="node11" class="node"><title>testweb3</title>
<polygon fill="chartreuse" stroke="black" stroke-width="2" points="470.006,-706 405.994,-706 405.994,-670 470.006,-670 470.006,-706"/>
<text text-anchor="middle" x="438" y="-685" font-family="Courier,monospace" font-size="10.00">testweb3</text>
</g>
<!-- testweb3&#45;&gt;boost::unit_test_framework -->
<g id="edge6" class="edge"><title>testweb3&#45;&gt;boost::unit_test_framework</title>
<path fill="none" stroke="black" d="M435.435,-669.849C429.9,-632.832 416.793,-545.181 410.095,-500.386"/>
<polygon fill="black" stroke="black" points="413.517,-499.605 408.577,-490.232 406.594,-500.64 413.517,-499.605"/>
</g>
<!-- web3jsonrpc -->
<g id="node12" class="node"><title>web3jsonrpc</title>
<ellipse fill="deepskyblue" stroke="black" cx="547" cy="-616" rx="47.0244" ry="18"/>
<text text-anchor="middle" x="547" y="-613" font-family="Courier,monospace" font-size="10.00">web3jsonrpc</text>
</g>
<!-- testweb3&#45;&gt;web3jsonrpc -->
<g id="edge5" class="edge"><title>testweb3&#45;&gt;web3jsonrpc</title>
<path fill="none" stroke="black" d="M464.664,-669.876C479.98,-660.041 499.304,-647.631 515.382,-637.305"/>
<polygon fill="black" stroke="black" points="517.411,-640.162 523.934,-631.813 513.628,-634.272 517.411,-640.162"/>
</g>
<!-- json&#45;rpc&#45;cpp -->
<g id="node32" class="node"><title>json&#45;rpc&#45;cpp</title>
<ellipse fill="none" stroke="black" cx="779" cy="-472" rx="50.2226" ry="18"/>
<text text-anchor="middle" x="779" y="-469" font-family="Courier,monospace" font-size="10.00">json&#45;rpc&#45;cpp</text>
</g>
<!-- web3jsonrpc&#45;&gt;json&#45;rpc&#45;cpp -->
<g id="edge28" class="edge"><title>web3jsonrpc&#45;&gt;json&#45;rpc&#45;cpp</title>
<path fill="none" stroke="black" d="M590.931,-608.971C644.584,-600.746 731.048,-584.426 754,-562 770.369,-546.006 776.259,-520.217 778.265,-500.507"/>
<polygon fill="black" stroke="black" points="781.774,-500.514 779.022,-490.283 774.793,-499.997 781.774,-500.514"/>
</g>
<!-- webthree -->
<g id="node33" class="node"><title>webthree</title>
<ellipse fill="deepskyblue" stroke="black" cx="547" cy="-544" rx="36.433" ry="18"/>
<text text-anchor="middle" x="547" y="-541" font-family="Courier,monospace" font-size="10.00">webthree</text>
</g>
<!-- web3jsonrpc&#45;&gt;webthree -->
<g id="edge29" class="edge"><title>web3jsonrpc&#45;&gt;webthree</title>
<path fill="none" stroke="black" d="M547,-597.697C547,-589.983 547,-580.712 547,-572.112"/>
<polygon fill="black" stroke="black" points="550.5,-572.104 547,-562.104 543.5,-572.104 550.5,-572.104"/>
</g>
<!-- testweb3core -->
<g id="node13" class="node"><title>testweb3core</title>
<polygon fill="chartreuse" stroke="black" stroke-width="2" points="262.009,-562 173.991,-562 173.991,-526 262.009,-526 262.009,-562"/>
<text text-anchor="middle" x="218" y="-541" font-family="Courier,monospace" font-size="10.00">testweb3core</text>
</g>
<!-- testweb3core&#45;&gt;boost::unit_test_framework -->
<g id="edge9" class="edge"><title>testweb3core&#45;&gt;boost::unit_test_framework</title>
<path fill="none" stroke="black" d="M262.078,-526.588C289.867,-516.241 325.857,-502.84 354.895,-492.028"/>
<polygon fill="black" stroke="black" points="356.304,-495.239 364.454,-488.469 353.862,-488.679 356.304,-495.239"/>
</g>
<!-- boost::regex -->
<g id="node14" class="node"><title>boost::regex</title>
<ellipse fill="none" stroke="black" cx="177" cy="-328" rx="50.2226" ry="18"/>
<text text-anchor="middle" x="177" y="-325" font-family="Courier,monospace" font-size="10.00">boost::regex</text>
</g>
<!-- testweb3core&#45;&gt;boost::regex -->
<g id="edge7" class="edge"><title>testweb3core&#45;&gt;boost::regex</title>
<path fill="none" stroke="black" d="M210.164,-525.658C199.915,-501.935 182.502,-457.765 176,-418 173.418,-402.21 175.849,-397.999 176,-382 176.078,-373.682 176.226,-364.63 176.384,-356.4"/>
<polygon fill="black" stroke="black" points="179.888,-356.254 176.594,-346.185 172.89,-356.111 179.888,-356.254"/>
</g>
<!-- p2p -->
<g id="node15" class="node"><title>p2p</title>
<ellipse fill="deepskyblue" stroke="black" cx="273" cy="-328" rx="27" ry="18"/>
<text text-anchor="middle" x="273" y="-325" font-family="Courier,monospace" font-size="10.00">p2p</text>
</g>
<!-- testweb3core&#45;&gt;p2p -->
<g id="edge8" class="edge"><title>testweb3core&#45;&gt;p2p</title>
<path fill="none" stroke="black" d="M224.839,-525.895C234.109,-502.08 250.581,-457.412 260,-418 264.87,-397.625 268.206,-374.163 270.278,-356.445"/>
<polygon fill="black" stroke="black" points="273.787,-356.559 271.407,-346.235 266.829,-355.789 273.787,-356.559"/>
</g>
<!-- boost::date_time -->
<g id="node16" class="node"><title>boost::date_time</title>
<ellipse fill="none" stroke="black" cx="64" cy="-472" rx="64.5079" ry="18"/>
<text text-anchor="middle" x="64" y="-469" font-family="Courier,monospace" font-size="10.00">boost::date_time</text>
</g>
<!-- testweb3core&#45;&gt;boost::date_time -->
<g id="edge10" class="edge"><title>testweb3core&#45;&gt;boost::date_time</title>
<path fill="none" stroke="black" d="M180.327,-525.876C157.709,-515.595 128.903,-502.501 105.615,-491.916"/>
<polygon fill="black" stroke="black" points="106.886,-488.649 96.334,-487.697 103.989,-495.022 106.886,-488.649"/>
</g>
<!-- devcrypto -->
<g id="node18" class="node"><title>devcrypto</title>
<ellipse fill="deepskyblue" stroke="black" cx="659" cy="-256" rx="40.13" ry="18"/>
<text text-anchor="middle" x="659" y="-253" font-family="Courier,monospace" font-size="10.00">devcrypto</text>
</g>
<!-- p2p&#45;&gt;devcrypto -->
<g id="edge42" class="edge"><title>p2p&#45;&gt;devcrypto</title>
<path fill="none" stroke="black" d="M293.522,-316.022C298.478,-313.735 303.837,-311.551 309,-310 416.933,-277.578 448.676,-291.538 560,-274 577.119,-271.303 595.865,-268.138 612.396,-265.275"/>
<polygon fill="black" stroke="black" points="613.117,-268.702 622.368,-263.538 611.916,-261.806 613.117,-268.702"/>
</g>
<!-- Miniupnpc -->
<g id="node42" class="node"><title>Miniupnpc</title>
<ellipse fill="none" stroke="black" cx="185" cy="-256" rx="40.13" ry="18"/>
<text text-anchor="middle" x="185" y="-253" font-family="Courier,monospace" font-size="10.00">Miniupnpc</text>
</g>
<!-- p2p&#45;&gt;Miniupnpc -->
<g id="edge43" class="edge"><title>p2p&#45;&gt;Miniupnpc</title>
<path fill="none" stroke="black" d="M256.033,-313.503C243.591,-303.606 226.441,-289.964 212.11,-278.564"/>
<polygon fill="black" stroke="black" points="214.059,-275.643 204.054,-272.157 209.701,-281.121 214.059,-275.643"/>
</g>
<!-- bench -->
<g id="node17" class="node"><title>bench</title>
<polygon fill="chartreuse" stroke="black" stroke-width="2" points="828,-346 774,-346 774,-310 828,-310 828,-346"/>
<text text-anchor="middle" x="801" y="-325" font-family="Courier,monospace" font-size="10.00">bench</text>
</g>
<!-- bench&#45;&gt;devcrypto -->
<g id="edge11" class="edge"><title>bench&#45;&gt;devcrypto</title>
<path fill="none" stroke="black" d="M773.957,-313.669C751.266,-302.483 718.701,-286.43 694.02,-274.264"/>
<polygon fill="black" stroke="black" points="695.501,-271.091 684.984,-269.809 692.406,-277.37 695.501,-271.091"/>
</g>
<!-- devcrypto&#45;&gt;json_spirit -->
<g id="edge12" class="edge"><title>devcrypto&#45;&gt;json_spirit</title>
<path fill="none" stroke="black" d="M630.671,-243.125C603.548,-231.757 562.369,-214.496 531.925,-201.735"/>
<polygon fill="black" stroke="black" points="533.025,-198.401 522.45,-197.763 530.319,-204.857 533.025,-198.401"/>
</g>
<!-- devcrypto&#45;&gt;scrypt -->
<g id="edge13" class="edge"><title>devcrypto&#45;&gt;scrypt</title>
<path fill="none" stroke="black" d="M662.389,-238.055C663.931,-230.346 665.795,-221.027 667.527,-212.364"/>
<polygon fill="black" stroke="black" points="671.016,-212.768 669.545,-202.275 664.152,-211.395 671.016,-212.768"/>
</g>
<!-- devcrypto&#45;&gt;secp256k1 -->
<g id="edge14" class="edge"><title>devcrypto&#45;&gt;secp256k1</title>
<path fill="none" stroke="black" d="M680.134,-240.496C694.905,-230.359 714.836,-216.681 731.214,-205.441"/>
<polygon fill="black" stroke="black" points="733.628,-208.03 739.893,-199.485 729.667,-202.258 733.628,-208.03"/>
</g>
<!-- devcore -->
<g id="node19" class="node"><title>devcore</title>
<ellipse fill="deepskyblue" stroke="black" cx="591" cy="-184" rx="33.2355" ry="18"/>
<text text-anchor="middle" x="591" y="-181" font-family="Courier,monospace" font-size="10.00">devcore</text>
</g>
<!-- devcrypto&#45;&gt;devcore -->
<g id="edge15" class="edge"><title>devcrypto&#45;&gt;devcore</title>
<path fill="none" stroke="black" d="M643.57,-239.116C634.577,-229.858 623.083,-218.027 613.138,-207.789"/>
<polygon fill="black" stroke="black" points="615.38,-205.074 605.902,-200.34 610.359,-209.952 615.38,-205.074"/>
</g>
<!-- Cryptopp -->
<g id="node20" class="node"><title>Cryptopp</title>
<ellipse fill="none" stroke="black" cx="856" cy="-184" rx="36.433" ry="18"/>
<text text-anchor="middle" x="856" y="-181" font-family="Courier,monospace" font-size="10.00">Cryptopp</text>
</g>
<!-- devcrypto&#45;&gt;Cryptopp -->
<g id="edge16" class="edge"><title>devcrypto&#45;&gt;Cryptopp</title>
<path fill="none" stroke="black" d="M689.997,-244.287C720.558,-233.686 768.57,-216.925 810,-202 812.703,-201.026 815.494,-200.014 818.3,-198.989"/>
<polygon fill="black" stroke="black" points="819.624,-202.232 827.807,-195.502 817.214,-195.66 819.624,-202.232"/>
</g>
<!-- devcore&#45;&gt;base -->
<g id="edge20" class="edge"><title>devcore&#45;&gt;base</title>
<path fill="none" stroke="black" d="M616.848,-172.558C622.483,-170.344 628.427,-168.056 634,-166 680.285,-148.927 693.292,-148.561 739,-130 740.825,-129.259 742.69,-128.472 744.563,-127.659"/>
<polygon fill="black" stroke="black" points="746.18,-130.769 753.853,-123.463 743.299,-124.39 746.18,-130.769"/>
</g>
<!-- boost::filesystem -->
<g id="node25" class="node"><title>boost::filesystem</title>
<ellipse fill="none" stroke="black" cx="197" cy="-112" rx="68.2055" ry="18"/>
<text text-anchor="middle" x="197" y="-109" font-family="Courier,monospace" font-size="10.00">boost::filesystem</text>
</g>
<!-- devcore&#45;&gt;boost::filesystem -->
<g id="edge21" class="edge"><title>devcore&#45;&gt;boost::filesystem</title>
<path fill="none" stroke="black" d="M565.878,-171.875C560.095,-169.65 553.906,-167.53 548,-166 429.103,-135.189 394.97,-151.26 274,-130 268.213,-128.983 262.201,-127.829 256.204,-126.613"/>
<polygon fill="black" stroke="black" points="256.67,-123.135 246.166,-124.52 255.241,-129.987 256.67,-123.135"/>
</g>
<!-- boost::random -->
<g id="node26" class="node"><title>boost::random</title>
<ellipse fill="none" stroke="black" cx="337" cy="-112" rx="53.9189" ry="18"/>
<text text-anchor="middle" x="337" y="-109" font-family="Courier,monospace" font-size="10.00">boost::random</text>
</g>
<!-- devcore&#45;&gt;boost::random -->
<g id="edge22" class="edge"><title>devcore&#45;&gt;boost::random</title>
<path fill="none" stroke="black" d="M565.284,-172.174C559.641,-169.984 553.66,-167.803 548,-166 483.908,-145.588 466.175,-146.635 401,-130 396.621,-128.882 392.077,-127.707 387.523,-126.518"/>
<polygon fill="black" stroke="black" points="388.158,-123.066 377.597,-123.911 386.38,-129.836 388.158,-123.066"/>
</g>
<!-- boost::system -->
<g id="node27" class="node"><title>boost::system</title>
<ellipse fill="none" stroke="black" cx="464" cy="-112" rx="53.9189" ry="18"/>
<text text-anchor="middle" x="464" y="-109" font-family="Courier,monospace" font-size="10.00">boost::system</text>
</g>
<!-- devcore&#45;&gt;boost::system -->
<g id="edge23" class="edge"><title>devcore&#45;&gt;boost::system</title>
<path fill="none" stroke="black" d="M568.587,-170.647C549.561,-160.16 521.91,-144.919 499.818,-132.742"/>
<polygon fill="black" stroke="black" points="501.488,-129.666 491.04,-127.904 498.109,-135.797 501.488,-129.666"/>
</g>
<!-- boost::thread -->
<g id="node28" class="node"><title>boost::thread</title>
<ellipse fill="none" stroke="black" cx="591" cy="-112" rx="53.9189" ry="18"/>
<text text-anchor="middle" x="591" y="-109" font-family="Courier,monospace" font-size="10.00">boost::thread</text>
</g>
<!-- devcore&#45;&gt;boost::thread -->
<g id="edge24" class="edge"><title>devcore&#45;&gt;boost::thread</title>
<path fill="none" stroke="black" d="M591,-165.697C591,-157.983 591,-148.712 591,-140.112"/>
<polygon fill="black" stroke="black" points="594.5,-140.104 591,-130.104 587.5,-140.104 594.5,-140.104"/>
</g>
<!-- LevelDB -->
<g id="node29" class="node"><title>LevelDB</title>
<ellipse fill="none" stroke="black" cx="697" cy="-112" rx="33.2355" ry="18"/>
<text text-anchor="middle" x="697" y="-109" font-family="Courier,monospace" font-size="10.00">LevelDB</text>
</g>
<!-- devcore&#45;&gt;LevelDB -->
<g id="edge25" class="edge"><title>devcore&#45;&gt;LevelDB</title>
<path fill="none" stroke="black" d="M611.438,-169.503C627.569,-158.851 650.269,-143.86 668.235,-131.996"/>
<polygon fill="black" stroke="black" points="670.209,-134.887 676.625,-126.455 666.351,-129.045 670.209,-134.887"/>
</g>
<!-- curl -->
<g id="node21" class="node"><title>curl</title>
<ellipse fill="none" stroke="black" cx="982" cy="-400" rx="27" ry="18"/>
<text text-anchor="middle" x="982" y="-397" font-family="Courier,monospace" font-size="10.00">curl</text>
</g>
<!-- ssh2 -->
<g id="node22" class="node"><title>ssh2</title>
<ellipse fill="none" stroke="black" cx="983" cy="-328" rx="27" ry="18"/>
<text text-anchor="middle" x="983" y="-325" font-family="Courier,monospace" font-size="10.00">ssh2</text>
</g>
<!-- curl&#45;&gt;ssh2 -->
<g id="edge17" class="edge"><title>curl&#45;&gt;ssh2</title>
<path fill="none" stroke="black" stroke-dasharray="1,5" d="M982.247,-381.697C982.357,-373.983 982.49,-364.712 982.613,-356.112"/>
<polygon fill="black" stroke="black" points="986.112,-356.153 982.756,-346.104 979.113,-356.053 986.112,-356.153"/>
</g>
<!-- openssl -->
<g id="node23" class="node"><title>openssl</title>
<ellipse fill="none" stroke="black" cx="1061" cy="-328" rx="33.2355" ry="18"/>
<text text-anchor="middle" x="1061" y="-325" font-family="Courier,monospace" font-size="10.00">openssl</text>
</g>
<!-- curl&#45;&gt;openssl -->
<g id="edge18" class="edge"><title>curl&#45;&gt;openssl</title>
<path fill="none" stroke="black" stroke-dasharray="1,5" d="M997.608,-385.17C1008.78,-375.272 1024.03,-361.754 1036.78,-350.46"/>
<polygon fill="black" stroke="black" points="1039.17,-353.019 1044.33,-343.768 1034.53,-347.78 1039.17,-353.019"/>
</g>
<!-- zlib -->
<g id="node24" class="node"><title>zlib</title>
<ellipse fill="none" stroke="black" cx="911" cy="-328" rx="27" ry="18"/>
<text text-anchor="middle" x="911" y="-325" font-family="Courier,monospace" font-size="10.00">zlib</text>
</g>
<!-- curl&#45;&gt;zlib -->
<g id="edge19" class="edge"><title>curl&#45;&gt;zlib</title>
<path fill="none" stroke="black" stroke-dasharray="1,5" d="M967.289,-384.496C957.388,-374.735 944.157,-361.69 933.01,-350.7"/>
<polygon fill="black" stroke="black" points="935.271,-348.014 925.692,-343.485 930.356,-352.999 935.271,-348.014"/>
</g>
<!-- snappy -->
<g id="node30" class="node"><title>snappy</title>
<ellipse fill="none" stroke="black" cx="694" cy="-40" rx="30.0384" ry="18"/>
<text text-anchor="middle" x="694" y="-37" font-family="Courier,monospace" font-size="10.00">snappy</text>
</g>
<!-- LevelDB&#45;&gt;snappy -->
<g id="edge26" class="edge"><title>LevelDB&#45;&gt;snappy</title>
<path fill="none" stroke="black" stroke-dasharray="1,5" d="M696.258,-93.6966C695.928,-85.9827 695.531,-76.7125 695.162,-68.1124"/>
<polygon fill="black" stroke="black" points="698.658,-67.9453 694.733,-58.1043 691.665,-68.2451 698.658,-67.9453"/>
</g>
<!-- eth -->
<g id="node31" class="node"><title>eth</title>
<polygon fill="chartreuse" stroke="black" stroke-width="2" points="574,-706 520,-706 520,-670 574,-670 574,-706"/>
<text text-anchor="middle" x="547" y="-685" font-family="Courier,monospace" font-size="10.00">eth</text>
</g>
<!-- eth&#45;&gt;web3jsonrpc -->
<g id="edge27" class="edge"><title>eth&#45;&gt;web3jsonrpc</title>
<path fill="none" stroke="black" d="M547,-669.697C547,-661.983 547,-652.712 547,-644.112"/>
<polygon fill="black" stroke="black" points="550.5,-644.104 547,-634.104 543.5,-644.104 550.5,-644.104"/>
</g>
<!-- json&#45;rpc&#45;cpp&#45;&gt;curl -->
<g id="edge54" class="edge"><title>json&#45;rpc&#45;cpp&#45;&gt;curl</title>
<path fill="none" stroke="black" d="M813.897,-458.967C851.718,-445.925 911.628,-425.266 948.78,-412.455"/>
<polygon fill="black" stroke="black" points="950.305,-415.631 958.618,-409.063 948.023,-409.014 950.305,-415.631"/>
</g>
<!-- Jsoncpp -->
<g id="node38" class="node"><title>Jsoncpp</title>
<ellipse fill="none" stroke="black" cx="723" cy="-328" rx="33.2355" ry="18"/>
<text text-anchor="middle" x="723" y="-325" font-family="Courier,monospace" font-size="10.00">Jsoncpp</text>
</g>
<!-- json&#45;rpc&#45;cpp&#45;&gt;Jsoncpp -->
<g id="edge56" class="edge"><title>json&#45;rpc&#45;cpp&#45;&gt;Jsoncpp</title>
<path fill="none" stroke="black" d="M757.671,-455.625C746.38,-446.173 733.532,-433.012 727,-418 718.54,-398.556 717.994,-374.414 719.312,-356.182"/>
<polygon fill="black" stroke="black" points="722.798,-356.495 720.257,-346.21 715.829,-355.835 722.798,-356.495"/>
</g>
<!-- microhttpd -->
<g id="node50" class="node"><title>microhttpd</title>
<ellipse fill="none" stroke="black" cx="780" cy="-400" rx="43.3279" ry="18"/>
<text text-anchor="middle" x="780" y="-397" font-family="Courier,monospace" font-size="10.00">microhttpd</text>
</g>
<!-- json&#45;rpc&#45;cpp&#45;&gt;microhttpd -->
<g id="edge55" class="edge"><title>json&#45;rpc&#45;cpp&#45;&gt;microhttpd</title>
<path fill="none" stroke="black" d="M779.247,-453.697C779.357,-445.983 779.49,-436.712 779.613,-428.112"/>
<polygon fill="black" stroke="black" points="783.112,-428.153 779.756,-418.104 776.113,-428.053 783.112,-428.153"/>
</g>
<!-- argtable2 -->
<g id="node51" class="node"><title>argtable2</title>
<ellipse fill="none" stroke="black" cx="882" cy="-400" rx="40.13" ry="18"/>
<text text-anchor="middle" x="882" y="-397" font-family="Courier,monospace" font-size="10.00">argtable2</text>
</g>
<!-- json&#45;rpc&#45;cpp&#45;&gt;argtable2 -->
<g id="edge57" class="edge"><title>json&#45;rpc&#45;cpp&#45;&gt;argtable2</title>
<path fill="none" stroke="black" stroke-dasharray="1,5" d="M801.349,-455.811C816.226,-445.701 835.942,-432.302 852.156,-421.283"/>
<polygon fill="black" stroke="black" points="854.447,-423.957 860.75,-415.442 850.512,-418.168 854.447,-423.957"/>
</g>
<!-- webthree&#45;&gt;ethashseal -->
<g id="edge59" class="edge"><title>webthree&#45;&gt;ethashseal</title>
<path fill="none" stroke="black" d="M560.161,-527.116C567.472,-518.292 576.721,-507.13 584.917,-497.238"/>
<polygon fill="black" stroke="black" points="587.803,-499.24 591.488,-489.307 582.413,-494.774 587.803,-499.24"/>
</g>
<!-- whisper -->
<g id="node53" class="node"><title>whisper</title>
<ellipse fill="deepskyblue" stroke="black" cx="218" cy="-400" rx="33.2355" ry="18"/>
<text text-anchor="middle" x="218" y="-397" font-family="Courier,monospace" font-size="10.00">whisper</text>
</g>
<!-- webthree&#45;&gt;whisper -->
<g id="edge60" class="edge"><title>webthree&#45;&gt;whisper</title>
<path fill="none" stroke="black" d="M545.626,-525.677C543.031,-505.274 535.55,-471.9 514,-454 441.494,-393.773 397.704,-435.039 305,-418 289.897,-415.224 273.35,-412.029 258.78,-409.164"/>
<polygon fill="black" stroke="black" points="259.057,-405.651 248.568,-407.147 257.7,-412.519 259.057,-405.651"/>
</g>
<!-- ethcore -->
<g id="node34" class="node"><title>ethcore</title>
<ellipse fill="deepskyblue" stroke="black" cx="518" cy="-256" rx="33.2355" ry="18"/>
<text text-anchor="middle" x="518" y="-253" font-family="Courier,monospace" font-size="10.00">ethcore</text>
</g>
<!-- ethcore&#45;&gt;buildinfo -->
<g id="edge30" class="edge"><title>ethcore&#45;&gt;buildinfo</title>
<path fill="none" stroke="black" d="M495.007,-242.807C474.271,-231.81 443.502,-215.494 419.937,-202.997"/>
<polygon fill="black" stroke="black" points="421.448,-199.837 410.974,-198.244 418.169,-206.021 421.448,-199.837"/>
</g>
<!-- ethcore&#45;&gt;json_spirit -->
<g id="edge31" class="edge"><title>ethcore&#45;&gt;json_spirit</title>
<path fill="none" stroke="black" d="M511.706,-238.055C508.78,-230.176 505.229,-220.617 501.952,-211.794"/>
<polygon fill="black" stroke="black" points="505.179,-210.431 498.417,-202.275 498.617,-212.868 505.179,-210.431"/>
</g>
<!-- ethcore&#45;&gt;devcore -->
<g id="edge32" class="edge"><title>ethcore&#45;&gt;devcore</title>
<path fill="none" stroke="black" d="M533.84,-239.811C543.857,-230.206 556.969,-217.633 568.108,-206.951"/>
<polygon fill="black" stroke="black" points="570.646,-209.366 575.442,-199.919 565.802,-204.314 570.646,-209.366"/>
</g>
<!-- ethereum&#45;&gt;boost::regex -->
<g id="edge33" class="edge"><title>ethereum&#45;&gt;boost::regex</title>
<path fill="none" stroke="black" d="M394.937,-388.111C389.05,-385.973 382.851,-383.828 377,-382 315.677,-362.839 299.022,-362.758 237,-346 233.002,-344.92 228.859,-343.783 224.705,-342.63"/>
<polygon fill="black" stroke="black" points="225.623,-339.253 215.05,-339.932 223.739,-345.995 225.623,-339.253"/>
</g>
<!-- ethereum&#45;&gt;p2p -->
<g id="edge36" class="edge"><title>ethereum&#45;&gt;p2p</title>
<path fill="none" stroke="black" d="M397.172,-387.046C374.053,-376.333 339.239,-360.169 309,-346 307.216,-345.164 305.383,-344.304 303.535,-343.435"/>
<polygon fill="black" stroke="black" points="304.848,-340.185 294.31,-339.089 301.865,-346.517 304.848,-340.185"/>
</g>
<!-- evm -->
<g id="node36" class="node"><title>evm</title>
<ellipse fill="deepskyblue" stroke="black" cx="423" cy="-328" rx="27" ry="18"/>
<text text-anchor="middle" x="423" y="-325" font-family="Courier,monospace" font-size="10.00">evm</text>
</g>
<!-- ethereum&#45;&gt;evm -->
<g id="edge34" class="edge"><title>ethereum&#45;&gt;evm</title>
<path fill="none" stroke="black" d="M423,-381.697C423,-373.983 423,-364.712 423,-356.112"/>
<polygon fill="black" stroke="black" points="426.5,-356.104 423,-346.104 419.5,-356.104 426.5,-356.104"/>
</g>
<!-- evmjit -->
<g id="node37" class="node"><title>evmjit</title>
<ellipse fill="coral" stroke="black" cx="348" cy="-328" rx="30.0384" ry="18"/>
<text text-anchor="middle" x="348" y="-325" font-family="Courier,monospace" font-size="10.00">evmjit</text>
</g>
<!-- ethereum&#45;&gt;evmjit -->
<g id="edge35" class="edge"><title>ethereum&#45;&gt;evmjit</title>
<path fill="none" stroke="black" stroke-dasharray="1,5" d="M406.726,-383.811C396.295,-374.075 382.596,-361.29 371.053,-350.517"/>
<polygon fill="black" stroke="black" points="373.172,-347.706 363.473,-343.442 368.396,-352.824 373.172,-347.706"/>
</g>
<!-- ethereum&#45;&gt;Jsoncpp -->
<g id="edge37" class="edge"><title>ethereum&#45;&gt;Jsoncpp</title>
<path fill="none" stroke="black" d="M457.718,-393.929C507.73,-386.162 602.651,-369.688 681,-346 683.438,-345.263 685.931,-344.44 688.426,-343.566"/>
<polygon fill="black" stroke="black" points="689.807,-346.786 697.948,-340.005 687.356,-340.229 689.807,-346.786"/>
</g>
<!-- evm&#45;&gt;ethcore -->
<g id="edge38" class="edge"><title>evm&#45;&gt;ethcore</title>
<path fill="none" stroke="black" d="M440.424,-314.161C454.565,-303.742 474.746,-288.871 490.98,-276.909"/>
<polygon fill="black" stroke="black" points="493.083,-279.708 499.057,-270.958 488.93,-274.072 493.083,-279.708"/>
</g>
<!-- evmcore -->
<g id="node39" class="node"><title>evmcore</title>
<ellipse fill="deepskyblue" stroke="black" cx="433" cy="-256" rx="33.2355" ry="18"/>
<text text-anchor="middle" x="433" y="-253" font-family="Courier,monospace" font-size="10.00">evmcore</text>
</g>
<!-- evm&#45;&gt;evmcore -->
<g id="edge39" class="edge"><title>evm&#45;&gt;evmcore</title>
<path fill="none" stroke="black" d="M425.421,-310.055C426.522,-302.346 427.853,-293.027 429.091,-284.364"/>
<polygon fill="black" stroke="black" points="432.583,-284.67 430.532,-274.275 425.653,-283.68 432.583,-284.67"/>
</g>
<!-- libedit -->
<g id="node40" class="node"><title>libedit</title>
<ellipse fill="none" stroke="black" cx="348" cy="-256" rx="33.2355" ry="18"/>
<text text-anchor="middle" x="348" y="-253" font-family="Courier,monospace" font-size="10.00">libedit</text>
</g>
<!-- evmjit&#45;&gt;libedit -->
<g id="edge40" class="edge"><title>evmjit&#45;&gt;libedit</title>
<path fill="none" stroke="black" d="M348,-309.697C348,-301.983 348,-292.712 348,-284.112"/>
<polygon fill="black" stroke="black" points="351.5,-284.104 348,-274.104 344.5,-284.104 351.5,-284.104"/>
</g>
<!-- llvm -->
<g id="node41" class="node"><title>llvm</title>
<ellipse fill="none" stroke="black" cx="270" cy="-256" rx="27" ry="18"/>
<text text-anchor="middle" x="270" y="-253" font-family="Courier,monospace" font-size="10.00">llvm</text>
</g>
<!-- evmjit&#45;&gt;llvm -->
<g id="edge41" class="edge"><title>evmjit&#45;&gt;llvm</title>
<path fill="none" stroke="black" d="M331.838,-312.496C320.711,-302.51 305.753,-289.086 293.336,-277.942"/>
<polygon fill="black" stroke="black" points="295.389,-275.082 285.609,-271.008 290.713,-280.292 295.389,-275.082"/>
</g>
<!-- ethash -->
<g id="node43" class="node"><title>ethash</title>
<ellipse fill="deepskyblue" stroke="black" cx="856" cy="-256" rx="30.0384" ry="18"/>
<text text-anchor="middle" x="856" y="-253" font-family="Courier,monospace" font-size="10.00">ethash</text>
</g>
<!-- ethash&#45;&gt;Cryptopp -->
<g id="edge44" class="edge"><title>ethash&#45;&gt;Cryptopp</title>
<path fill="none" stroke="black" d="M856,-237.697C856,-229.983 856,-220.712 856,-212.112"/>
<polygon fill="black" stroke="black" points="859.5,-212.104 856,-202.104 852.5,-212.104 859.5,-212.104"/>
</g>
<!-- ethash&#45;cl&#45;&gt;ethash -->
<g id="edge45" class="edge"><title>ethash&#45;cl&#45;&gt;ethash</title>
<path fill="none" stroke="black" d="M642.031,-392.781C704.006,-382.047 823.331,-359.865 837,-346 852.816,-329.956 856.908,-304.173 857.429,-284.477"/>
<polygon fill="black" stroke="black" points="860.929,-284.253 857.403,-274.262 853.929,-284.271 860.929,-284.253"/>
</g>
<!-- OpenCL -->
<g id="node45" class="node"><title>OpenCL</title>
<ellipse fill="none" stroke="black" cx="498" cy="-328" rx="30.0384" ry="18"/>
<text text-anchor="middle" x="498" y="-325" font-family="Courier,monospace" font-size="10.00">OpenCL</text>
</g>
<!-- ethash&#45;cl&#45;&gt;OpenCL -->
<g id="edge46" class="edge"><title>ethash&#45;cl&#45;&gt;OpenCL</title>
<path fill="none" stroke="black" d="M583.089,-384.666C566.74,-373.97 544.26,-359.264 526.512,-347.653"/>
<polygon fill="black" stroke="black" points="528.004,-344.447 517.72,-341.901 524.172,-350.304 528.004,-344.447"/>
</g>
<!-- ethkey -->
<g id="node47" class="node"><title>ethkey</title>
<polygon fill="chartreuse" stroke="black" stroke-width="2" points="600,-346 546,-346 546,-310 600,-310 600,-346"/>
<text text-anchor="middle" x="573" y="-325" font-family="Courier,monospace" font-size="10.00">ethkey</text>
</g>
<!-- ethkey&#45;&gt;ethcore -->
<g id="edge50" class="edge"><title>ethkey&#45;&gt;ethcore</title>
<path fill="none" stroke="black" d="M559.404,-309.697C552.614,-301.054 544.288,-290.458 536.888,-281.039"/>
<polygon fill="black" stroke="black" points="539.615,-278.845 530.685,-273.145 534.111,-283.17 539.615,-278.845"/>
</g>
<!-- ethminer -->
<g id="node48" class="node"><title>ethminer</title>
<polygon fill="chartreuse" stroke="black" stroke-width="2" points="745.006,-562 680.994,-562 680.994,-526 745.006,-526 745.006,-562"/>
<text text-anchor="middle" x="713" y="-541" font-family="Courier,monospace" font-size="10.00">ethminer</text>
</g>
<!-- ethminer&#45;&gt;ethashseal -->
<g id="edge51" class="edge"><title>ethminer&#45;&gt;ethashseal</title>
<path fill="none" stroke="black" d="M686.58,-525.876C671.3,-515.972 651.992,-503.458 635.997,-493.09"/>
<polygon fill="black" stroke="black" points="637.793,-490.084 627.498,-487.582 633.985,-495.958 637.793,-490.084"/>
</g>
<!-- ethminer&#45;&gt;json&#45;rpc&#45;cpp -->
<g id="edge52" class="edge"><title>ethminer&#45;&gt;json&#45;rpc&#45;cpp</title>
<path fill="none" stroke="black" d="M729.315,-525.697C737.426,-517.093 747.363,-506.554 756.213,-497.168"/>
<polygon fill="black" stroke="black" points="759.014,-499.299 763.328,-489.622 753.921,-494.497 759.014,-499.299"/>
</g>
<!-- ethvm -->
<g id="node49" class="node"><title>ethvm</title>
<polygon fill="chartreuse" stroke="black" stroke-width="2" points="656,-562 602,-562 602,-526 656,-526 656,-562"/>
<text text-anchor="middle" x="629" y="-541" font-family="Courier,monospace" font-size="10.00">ethvm</text>
</g>
<!-- ethvm&#45;&gt;ethashseal -->
<g id="edge53" class="edge"><title>ethvm&#45;&gt;ethashseal</title>
<path fill="none" stroke="black" d="M623.067,-525.697C620.394,-517.898 617.174,-508.509 614.199,-499.829"/>
<polygon fill="black" stroke="black" points="617.418,-498.429 610.864,-490.104 610.797,-500.699 617.418,-498.429"/>
</g>
<!-- rlp -->
<g id="node52" class="node"><title>rlp</title>
<polygon fill="chartreuse" stroke="black" stroke-width="2" points="672,-346 618,-346 618,-310 672,-310 672,-346"/>
<text text-anchor="middle" x="645" y="-325" font-family="Courier,monospace" font-size="10.00">rlp</text>
</g>
<!-- rlp&#45;&gt;devcrypto -->
<g id="edge58" class="edge"><title>rlp&#45;&gt;devcrypto</title>
<path fill="none" stroke="black" d="M648.461,-309.697C650.003,-301.983 651.858,-292.712 653.578,-284.112"/>
<polygon fill="black" stroke="black" points="657.05,-284.597 655.579,-274.104 650.186,-283.224 657.05,-284.597"/>
</g>
<!-- whisper&#45;&gt;boost::regex -->
<g id="edge61" class="edge"><title>whisper&#45;&gt;boost::regex</title>
<path fill="none" stroke="black" d="M208.284,-382.411C203.453,-374.163 197.505,-364.009 192.098,-354.777"/>
<polygon fill="black" stroke="black" points="195.006,-352.816 186.931,-345.956 188.965,-356.354 195.006,-352.816"/>
</g>
<!-- whisper&#45;&gt;p2p -->
<g id="edge62" class="edge"><title>whisper&#45;&gt;p2p</title>
<path fill="none" stroke="black" d="M230.48,-383.116C237.611,-374.04 246.686,-362.49 254.619,-352.393"/>
<polygon fill="black" stroke="black" points="257.521,-354.366 260.947,-344.34 252.017,-350.041 257.521,-354.366"/>
</g>
</g>
</svg>
