<?xml version="1.0" encoding="UTF-8" standalone="no"?>
<!DOCTYPE svg PUBLIC "-//W3C//DTD SVG 1.1//EN"
 "http://www.w3.org/Graphics/SVG/1.1/DTD/svg11.dtd">
<!-- Generated by graphviz version 2.36.0 (20140111.2315)
 -->
<!-- Title: webthree Pages: 1 -->
<svg width="1016pt" height="914pt"
 viewBox="0.00 0.00 1016.00 914.00" xmlns="http://www.w3.org/2000/svg" xmlns:xlink="http://www.w3.org/1999/xlink">
<g id="graph0" class="graph" transform="scale(1 1) rotate(0) translate(4 910)">
<title>webthree</title>
<polygon fill="white" stroke="none" points="-4,4 -4,-910 1012,-910 1012,4 -4,4"/>
<text text-anchor="middle" x="504" y="-6.8" font-family="Times,serif" font-size="14.00">Ethereum C++ dependencies</text>
<g id="clust1" class="cluster"><title>cluster_external</title>
<polygon fill="HoneyDew" stroke="black" points="490,-30 490,-176 1000,-176 1000,-30 490,-30"/>
<text text-anchor="start" x="613.788" y="-160.8" font-family="Times,serif" font-size="14.00">https://github.com/ethereum/cpp&#45;dependencies</text>
</g>
<g id="clust2" class="cluster"><title>cluster_cppethereum</title>
<polygon fill="LavenderBlush" stroke="black" points="8,-102 8,-898 482,-898 482,-102 8,-102"/>
<text text-anchor="start" x="125.45" y="-882.8" font-family="Times,serif" font-size="14.00">https://github.com/ethereum/cpp&#45;ethereum</text>
</g>
<!-- boost -->
<g id="node1" class="node"><title>boost</title>
<ellipse fill="none" stroke="black" cx="609" cy="-128" rx="27" ry="18"/>
<text text-anchor="middle" x="609" y="-125" font-family="Courier,monospace" font-size="10.00">boost</text>
</g>
<!-- gmp -->
<g id="node2" class="node"><title>gmp</title>
<ellipse fill="none" stroke="black" cx="773" cy="-128" rx="27" ry="18"/>
<text text-anchor="middle" x="773" y="-125" font-family="Courier,monospace" font-size="10.00">gmp</text>
</g>
<!-- Jsoncpp -->
<g id="node3" class="node"><title>Jsoncpp</title>
<ellipse fill="none" stroke="black" cx="736" cy="-56" rx="33.2355" ry="18"/>
<text text-anchor="middle" x="736" y="-53" font-family="Courier,monospace" font-size="10.00">Jsoncpp</text>
</g>
<!-- json&#45;rpc&#45;cpp -->
<g id="node4" class="node"><title>json&#45;rpc&#45;cpp</title>
<ellipse fill="none" stroke="black" cx="941" cy="-128" rx="50.2226" ry="18"/>
<text text-anchor="middle" x="941" y="-125" font-family="Courier,monospace" font-size="10.00">json&#45;rpc&#45;cpp</text>
</g>
<!-- json&#45;rpc&#45;cpp&#45;&gt;Jsoncpp -->
<g id="edge33" class="edge"><title>json&#45;rpc&#45;cpp&#45;&gt;Jsoncpp</title>
<path fill="none" stroke="black" d="M910.386,-113.594C901.026,-109.671 890.654,-105.501 881,-102 845.424,-89.1 804.145,-76.5156 774.75,-67.9502"/>
<polygon fill="black" stroke="black" points="775.456,-64.5109 764.877,-65.0942 773.511,-71.2352 775.456,-64.5109"/>
</g>
<!-- LevelDB -->
<g id="node5" class="node"><title>LevelDB</title>
<ellipse fill="none" stroke="black" cx="531" cy="-128" rx="33.2355" ry="18"/>
<text text-anchor="middle" x="531" y="-125" font-family="Courier,monospace" font-size="10.00">LevelDB</text>
</g>
<!-- llvm -->
<g id="node6" class="node"><title>llvm</title>
<ellipse fill="none" stroke="black" cx="845" cy="-128" rx="27" ry="18"/>
<text text-anchor="middle" x="845" y="-125" font-family="Courier,monospace" font-size="10.00">llvm</text>
</g>
<!-- pthreads -->
<g id="node7" class="node"><title>pthreads</title>
<ellipse fill="none" stroke="black" cx="691" cy="-128" rx="36.433" ry="18"/>
<text text-anchor="middle" x="691" y="-125" font-family="Courier,monospace" font-size="10.00">pthreads</text>
</g>
<!-- json_spirit -->
<g id="node8" class="node"><title>json_spirit</title>
<ellipse fill="none" stroke="red" cx="395" cy="-128" rx="47.0244" ry="18"/>
<text text-anchor="middle" x="395" y="-125" font-family="Courier,monospace" font-size="10.00">json_spirit</text>
</g>
<!-- scrypt -->
<g id="node9" class="node"><title>scrypt</title>
<ellipse fill="none" stroke="red" cx="346" cy="-274" rx="30.0384" ry="18"/>
<text text-anchor="middle" x="346" y="-271" font-family="Courier,monospace" font-size="10.00">scrypt</text>
</g>
<!-- secp256k1 -->
<g id="node10" class="node"><title>secp256k1</title>
<ellipse fill="none" stroke="red" cx="434" cy="-274" rx="40.13" ry="18"/>
<text text-anchor="middle" x="434" y="-271" font-family="Courier,monospace" font-size="10.00">secp256k1</text>
</g>
<!-- secp256k1&#45;&gt;gmp -->
<g id="edge39" class="edge"><title>secp256k1&#45;&gt;gmp</title>
<path fill="none" stroke="black" d="M458.842,-259.728C497.878,-239.559 576.518,-201.674 648,-184 667.062,-179.287 718.742,-185.367 736,-176 745.348,-170.926 753.139,-162.389 759.122,-153.972"/>
<polygon fill="black" stroke="black" points="762.181,-155.687 764.692,-145.394 756.31,-151.875 762.181,-155.687"/>
</g>
<!-- libevmjit -->
<g id="node11" class="node"><title>libevmjit</title>
<ellipse fill="none" stroke="black" cx="434" cy="-490" rx="40.13" ry="18"/>
<text text-anchor="middle" x="434" y="-487" font-family="Courier,monospace" font-size="10.00">libevmjit</text>
</g>
<!-- libevmjit&#45;&gt;llvm -->
<g id="edge40" class="edge"><title>libevmjit&#45;&gt;llvm</title>
<path fill="none" stroke="black" d="M471.394,-483.267C536.077,-470.998 662,-435.719 662,-347 662,-347 662,-347 662,-273 662,-194.725 751.739,-229.368 809,-176 816.134,-169.351 822.924,-161.175 828.646,-153.517"/>
<polygon fill="black" stroke="black" points="831.85,-155.055 834.829,-144.888 826.16,-150.978 831.85,-155.055"/>
</g>
<!-- bench -->
<g id="node12" class="node"><title>bench</title>
<ellipse fill="none" stroke="black" cx="257" cy="-418" rx="27" ry="18"/>
<text text-anchor="middle" x="257" y="-415" font-family="Courier,monospace" font-size="10.00">bench</text>
</g>
<!-- devcrypto -->
<g id="node13" class="node"><title>devcrypto</title>
<ellipse fill="none" stroke="black" cx="297" cy="-346" rx="40.13" ry="18"/>
<text text-anchor="middle" x="297" y="-343" font-family="Courier,monospace" font-size="10.00">devcrypto</text>
</g>
<!-- bench&#45;&gt;devcrypto -->
<g id="edge1" class="edge"><title>bench&#45;&gt;devcrypto</title>
<path fill="none" stroke="black" d="M266.277,-400.765C271.055,-392.404 276.991,-382.016 282.368,-372.606"/>
<polygon fill="black" stroke="black" points="285.573,-374.052 287.495,-363.633 279.495,-370.579 285.573,-374.052"/>
</g>
<!-- devcrypto&#45;&gt;scrypt -->
<g id="edge2" class="edge"><title>devcrypto&#45;&gt;scrypt</title>
<path fill="none" stroke="black" d="M308.612,-328.411C314.679,-319.744 322.22,-308.971 328.937,-299.375"/>
<polygon fill="black" stroke="black" points="331.941,-301.188 334.808,-290.988 326.206,-297.173 331.941,-301.188"/>
</g>
<!-- devcrypto&#45;&gt;secp256k1 -->
<g id="edge3" class="edge"><title>devcrypto&#45;&gt;secp256k1</title>
<path fill="none" stroke="black" d="M322.448,-331.998C344.035,-320.968 375.215,-305.036 399.126,-292.819"/>
<polygon fill="black" stroke="black" points="400.911,-295.837 408.224,-288.17 397.726,-289.604 400.911,-295.837"/>
</g>
<!-- devcore -->
<g id="node14" class="node"><title>devcore</title>
<ellipse fill="none" stroke="black" cx="173" cy="-274" rx="33.2355" ry="18"/>
<text text-anchor="middle" x="173" y="-271" font-family="Courier,monospace" font-size="10.00">devcore</text>
</g>
<!-- devcrypto&#45;&gt;devcore -->
<g id="edge4" class="edge"><title>devcrypto&#45;&gt;devcore</title>
<path fill="none" stroke="black" d="M273.092,-331.503C253.386,-320.379 225.299,-304.524 203.891,-292.438"/>
<polygon fill="black" stroke="black" points="205.598,-289.383 195.169,-287.515 202.156,-295.478 205.598,-289.383"/>
</g>
<!-- Cryptopp -->
<g id="node15" class="node"><title>Cryptopp</title>
<ellipse fill="none" stroke="black" cx="261" cy="-274" rx="36.433" ry="18"/>
<text text-anchor="middle" x="261" y="-271" font-family="Courier,monospace" font-size="10.00">Cryptopp</text>
</g>
<!-- devcrypto&#45;&gt;Cryptopp -->
<g id="edge5" class="edge"><title>devcrypto&#45;&gt;Cryptopp</title>
<path fill="none" stroke="black" d="M288.285,-328.055C284.085,-319.887 278.955,-309.912 274.281,-300.824"/>
<polygon fill="black" stroke="black" points="277.32,-299.081 269.634,-291.789 271.095,-302.283 277.32,-299.081"/>
</g>
<!-- base -->
<g id="node30" class="node"><title>base</title>
<ellipse fill="none" stroke="black" cx="447" cy="-202" rx="27" ry="18"/>
<text text-anchor="middle" x="447" y="-199" font-family="Courier,monospace" font-size="10.00">base</text>
</g>
<!-- devcore&#45;&gt;base -->
<g id="edge21" class="edge"><title>devcore&#45;&gt;base</title>
<path fill="none" stroke="black" d="M198.08,-262.087C203.595,-259.903 209.447,-257.746 215,-256 283.194,-234.561 365.185,-217.891 411.172,-209.338"/>
<polygon fill="black" stroke="black" points="412.037,-212.738 421.24,-207.488 410.772,-205.853 412.037,-212.738"/>
</g>
<!-- eth -->
<g id="node16" class="node"><title>eth</title>
<ellipse fill="none" stroke="black" cx="386" cy="-850" rx="27" ry="18"/>
<text text-anchor="middle" x="386" y="-847" font-family="Courier,monospace" font-size="10.00">eth</text>
</g>
<!-- web3jsonrpc -->
<g id="node17" class="node"><title>web3jsonrpc</title>
<ellipse fill="none" stroke="black" cx="386" cy="-778" rx="47.0244" ry="18"/>
<text text-anchor="middle" x="386" y="-775" font-family="Courier,monospace" font-size="10.00">web3jsonrpc</text>
</g>
<!-- eth&#45;&gt;web3jsonrpc -->
<g id="edge6" class="edge"><title>eth&#45;&gt;web3jsonrpc</title>
<path fill="none" stroke="black" d="M386,-831.697C386,-823.983 386,-814.712 386,-806.112"/>
<polygon fill="black" stroke="black" points="389.5,-806.104 386,-796.104 382.5,-806.104 389.5,-806.104"/>
</g>
<!-- web3jsonrpc&#45;&gt;json&#45;rpc&#45;cpp -->
<g id="edge7" class="edge"><title>web3jsonrpc&#45;&gt;json&#45;rpc&#45;cpp</title>
<path fill="none" stroke="black" d="M432.455,-774.593C562.374,-766.604 920,-735.487 920,-635 920,-635 920,-635 920,-273 920,-232.004 928.437,-185.122 934.616,-156.289"/>
<polygon fill="black" stroke="black" points="938.111,-156.691 936.851,-146.171 931.276,-155.181 938.111,-156.691"/>
</g>
<!-- webthree -->
<g id="node18" class="node"><title>webthree</title>
<ellipse fill="none" stroke="black" cx="345" cy="-706" rx="36.433" ry="18"/>
<text text-anchor="middle" x="345" y="-703" font-family="Courier,monospace" font-size="10.00">webthree</text>
</g>
<!-- web3jsonrpc&#45;&gt;webthree -->
<g id="edge8" class="edge"><title>web3jsonrpc&#45;&gt;webthree</title>
<path fill="none" stroke="black" d="M376.075,-760.055C371.24,-751.801 365.325,-741.701 359.958,-732.538"/>
<polygon fill="black" stroke="black" points="362.908,-730.649 354.834,-723.789 356.868,-734.187 362.908,-730.649"/>
</g>
<!-- ethashseal -->
<g id="node19" class="node"><title>ethashseal</title>
<ellipse fill="none" stroke="black" cx="295" cy="-634" rx="43.3279" ry="18"/>
<text text-anchor="middle" x="295" y="-631" font-family="Courier,monospace" font-size="10.00">ethashseal</text>
</g>
<!-- webthree&#45;&gt;ethashseal -->
<g id="edge9" class="edge"><title>webthree&#45;&gt;ethashseal</title>
<path fill="none" stroke="black" d="M333.403,-688.765C327.307,-680.23 319.702,-669.582 312.871,-660.019"/>
<polygon fill="black" stroke="black" points="315.541,-657.736 306.881,-651.633 309.845,-661.805 315.541,-657.736"/>
</g>
<!-- whisper -->
<g id="node20" class="node"><title>whisper</title>
<ellipse fill="none" stroke="black" cx="399" cy="-634" rx="33.2355" ry="18"/>
<text text-anchor="middle" x="399" y="-631" font-family="Courier,monospace" font-size="10.00">whisper</text>
</g>
<!-- webthree&#45;&gt;whisper -->
<g id="edge10" class="edge"><title>webthree&#45;&gt;whisper</title>
<path fill="none" stroke="black" d="M357.524,-688.765C364.272,-680.018 372.731,-669.052 380.248,-659.308"/>
<polygon fill="black" stroke="black" points="383.207,-661.203 386.544,-651.147 377.664,-656.927 383.207,-661.203"/>
</g>
<!-- ethereum -->
<g id="node25" class="node"><title>ethereum</title>
<ellipse fill="none" stroke="black" cx="287" cy="-562" rx="36.433" ry="18"/>
<text text-anchor="middle" x="287" y="-559" font-family="Courier,monospace" font-size="10.00">ethereum</text>
</g>
<!-- ethashseal&#45;&gt;ethereum -->
<g id="edge17" class="edge"><title>ethashseal&#45;&gt;ethereum</title>
<path fill="none" stroke="black" d="M293.022,-615.697C292.141,-607.983 291.081,-598.712 290.099,-590.112"/>
<polygon fill="black" stroke="black" points="293.568,-589.642 288.955,-580.104 286.613,-590.437 293.568,-589.642"/>
</g>
<!-- ethash&#45;cl -->
<g id="node27" class="node"><title>ethash&#45;cl</title>
<ellipse fill="none" stroke="black" cx="192" cy="-562" rx="40.13" ry="18"/>
<text text-anchor="middle" x="192" y="-559" font-family="Courier,monospace" font-size="10.00">ethash&#45;cl</text>
</g>
<!-- ethashseal&#45;&gt;ethash&#45;cl -->
<g id="edge18" class="edge"><title>ethashseal&#45;&gt;ethash&#45;cl</title>
<path fill="none" stroke="black" stroke-dasharray="1,5" d="M273.156,-618.155C258.209,-607.996 238.205,-594.401 221.798,-583.251"/>
<polygon fill="black" stroke="black" points="223.346,-580.071 213.108,-577.345 219.411,-585.861 223.346,-580.071"/>
</g>
<!-- Cpuid -->
<g id="node28" class="node"><title>Cpuid</title>
<ellipse fill="none" stroke="black" cx="369" cy="-562" rx="27" ry="18"/>
<text text-anchor="middle" x="369" y="-559" font-family="Courier,monospace" font-size="10.00">Cpuid</text>
</g>
<!-- ethashseal&#45;&gt;Cpuid -->
<g id="edge19" class="edge"><title>ethashseal&#45;&gt;Cpuid</title>
<path fill="none" stroke="black" stroke-dasharray="1,5" d="M311.792,-617.116C322.047,-607.415 335.291,-594.887 346.453,-584.329"/>
<polygon fill="black" stroke="black" points="348.925,-586.807 353.785,-577.393 344.115,-581.722 348.925,-586.807"/>
</g>
<!-- p2p -->
<g id="node23" class="node"><title>p2p</title>
<ellipse fill="none" stroke="black" cx="349" cy="-490" rx="27" ry="18"/>
<text text-anchor="middle" x="349" y="-487" font-family="Courier,monospace" font-size="10.00">p2p</text>
</g>
<!-- whisper&#45;&gt;p2p -->
<g id="edge31" class="edge"><title>whisper&#45;&gt;p2p</title>
<path fill="none" stroke="black" d="M404.565,-616.155C409.69,-597.659 415.102,-567.471 405,-544 399.054,-530.185 387.539,-518.287 376.49,-509.285"/>
<polygon fill="black" stroke="black" points="378.304,-506.266 368.232,-502.981 374.057,-511.831 378.304,-506.266"/>
</g>
<!-- ethcore -->
<g id="node21" class="node"><title>ethcore</title>
<ellipse fill="none" stroke="black" cx="81" cy="-418" rx="33.2355" ry="18"/>
<text text-anchor="middle" x="81" y="-415" font-family="Courier,monospace" font-size="10.00">ethcore</text>
</g>
<!-- ethcore&#45;&gt;devcrypto -->
<g id="edge12" class="edge"><title>ethcore&#45;&gt;devcrypto</title>
<path fill="none" stroke="black" d="M108.796,-407.992C146.111,-395.899 212.689,-374.323 255.829,-360.342"/>
<polygon fill="black" stroke="black" points="257.025,-363.634 265.459,-357.222 254.867,-356.975 257.025,-363.634"/>
</g>
<!-- buildinfo -->
<g id="node22" class="node"><title>buildinfo</title>
<ellipse fill="none" stroke="black" cx="81" cy="-346" rx="40.13" ry="18"/>
<text text-anchor="middle" x="81" y="-343" font-family="Courier,monospace" font-size="10.00">buildinfo</text>
</g>
<!-- ethcore&#45;&gt;buildinfo -->
<g id="edge11" class="edge"><title>ethcore&#45;&gt;buildinfo</title>
<path fill="none" stroke="black" d="M81,-399.697C81,-391.983 81,-382.712 81,-374.112"/>
<polygon fill="black" stroke="black" points="84.5001,-374.104 81,-364.104 77.5001,-374.104 84.5001,-374.104"/>
</g>
<!-- p2p&#45;&gt;devcrypto -->
<g id="edge13" class="edge"><title>p2p&#45;&gt;devcrypto</title>
<path fill="none" stroke="black" d="M357.629,-472.75C366.192,-454.254 376.507,-423.557 365,-400 357.954,-385.576 344.877,-373.935 332.059,-365.277"/>
<polygon fill="black" stroke="black" points="333.63,-362.131 323.303,-359.763 329.899,-368.054 333.63,-362.131"/>
</g>
<!-- Miniupnpc -->
<g id="node24" class="node"><title>Miniupnpc</title>
<ellipse fill="none" stroke="black" cx="434" cy="-418" rx="40.13" ry="18"/>
<text text-anchor="middle" x="434" y="-415" font-family="Courier,monospace" font-size="10.00">Miniupnpc</text>
</g>
<!-- p2p&#45;&gt;Miniupnpc -->
<g id="edge14" class="edge"><title>p2p&#45;&gt;Miniupnpc</title>
<path fill="none" stroke="black" stroke-dasharray="1,5" d="M365.389,-475.503C377.406,-465.606 393.972,-451.964 407.815,-440.564"/>
<polygon fill="black" stroke="black" points="410.101,-443.215 415.596,-434.157 405.651,-437.812 410.101,-443.215"/>
</g>
<!-- ethereum&#45;&gt;libevmjit -->
<g id="edge41" class="edge"><title>ethereum&#45;&gt;libevmjit</title>
<path fill="none" stroke="black" stroke-dasharray="1,5" d="M312.27,-548.967C335.958,-537.687 371.612,-520.709 398.219,-508.039"/>
<polygon fill="black" stroke="black" points="400.05,-511.043 407.573,-503.584 397.04,-504.723 400.05,-511.043"/>
</g>
<!-- ethereum&#45;&gt;p2p -->
<g id="edge15" class="edge"><title>ethereum&#45;&gt;p2p</title>
<path fill="none" stroke="black" d="M301.069,-545.116C309.382,-535.73 320.039,-523.698 329.192,-513.364"/>
<polygon fill="black" stroke="black" points="331.824,-515.67 335.835,-505.864 326.584,-511.029 331.824,-515.67"/>
</g>
<!-- evm -->
<g id="node26" class="node"><title>evm</title>
<ellipse fill="none" stroke="black" cx="277" cy="-490" rx="27" ry="18"/>
<text text-anchor="middle" x="277" y="-487" font-family="Courier,monospace" font-size="10.00">evm</text>
</g>
<!-- ethereum&#45;&gt;evm -->
<g id="edge16" class="edge"><title>ethereum&#45;&gt;evm</title>
<path fill="none" stroke="black" d="M284.528,-543.697C283.426,-535.983 282.102,-526.712 280.873,-518.112"/>
<polygon fill="black" stroke="black" points="284.323,-517.509 279.443,-508.104 277.393,-518.499 284.323,-517.509"/>
</g>
<!-- evm&#45;&gt;ethcore -->
<g id="edge27" class="edge"><title>evm&#45;&gt;ethcore</title>
<path fill="none" stroke="black" d="M255.885,-478.457C251.047,-476.203 245.888,-473.923 241,-472 191.95,-452.704 177.904,-452.967 128,-436 124.509,-434.813 120.881,-433.551 117.259,-432.273"/>
<polygon fill="black" stroke="black" points="118.375,-428.955 107.78,-428.889 116.021,-435.547 118.375,-428.955"/>
</g>
<!-- evmjit -->
<g id="node35" class="node"><title>evmjit</title>
<ellipse fill="none" stroke="black" cx="182" cy="-418" rx="30.0384" ry="18"/>
<text text-anchor="middle" x="182" y="-415" font-family="Courier,monospace" font-size="10.00">evmjit</text>
</g>
<!-- evm&#45;&gt;evmjit -->
<g id="edge28" class="edge"><title>evm&#45;&gt;evmjit</title>
<path fill="none" stroke="black" stroke-dasharray="1,5" d="M259.576,-476.161C245.253,-465.607 224.732,-450.487 208.393,-438.448"/>
<polygon fill="black" stroke="black" points="210.412,-435.588 200.285,-432.473 206.26,-441.223 210.412,-435.588"/>
</g>
<!-- evmcore -->
<g id="node36" class="node"><title>evmcore</title>
<ellipse fill="none" stroke="black" cx="173" cy="-346" rx="33.2355" ry="18"/>
<text text-anchor="middle" x="173" y="-343" font-family="Courier,monospace" font-size="10.00">evmcore</text>
</g>
<!-- evm&#45;&gt;evmcore -->
<g id="edge29" class="edge"><title>evm&#45;&gt;evmcore</title>
<path fill="none" stroke="black" d="M255.821,-478.615C250.986,-476.352 245.845,-474.029 241,-472 198.201,-454.075 169.558,-474.049 143,-436 129.304,-416.378 141.17,-390.004 153.792,-371.069"/>
<polygon fill="black" stroke="black" points="156.807,-372.867 159.746,-362.688 151.101,-368.812 156.807,-372.867"/>
</g>
<!-- ethash -->
<g id="node33" class="node"><title>ethash</title>
<ellipse fill="none" stroke="black" cx="202" cy="-490" rx="30.0384" ry="18"/>
<text text-anchor="middle" x="202" y="-487" font-family="Courier,monospace" font-size="10.00">ethash</text>
</g>
<!-- ethash&#45;cl&#45;&gt;ethash -->
<g id="edge25" class="edge"><title>ethash&#45;cl&#45;&gt;ethash</title>
<path fill="none" stroke="black" d="M194.472,-543.697C195.574,-535.983 196.898,-526.712 198.127,-518.112"/>
<polygon fill="black" stroke="black" points="201.607,-518.499 199.557,-508.104 194.677,-517.509 201.607,-518.499"/>
</g>
<!-- OpenCL -->
<g id="node34" class="node"><title>OpenCL</title>
<ellipse fill="none" stroke="black" cx="46" cy="-490" rx="30.0384" ry="18"/>
<text text-anchor="middle" x="46" y="-487" font-family="Courier,monospace" font-size="10.00">OpenCL</text>
</g>
<!-- ethash&#45;cl&#45;&gt;OpenCL -->
<g id="edge26" class="edge"><title>ethash&#45;cl&#45;&gt;OpenCL</title>
<path fill="none" stroke="black" d="M165.561,-548.324C140.97,-536.534 104.281,-518.943 78.0373,-506.36"/>
<polygon fill="black" stroke="black" points="79.4131,-503.139 68.8827,-501.971 76.3867,-509.451 79.4131,-503.139"/>
</g>
<!-- ethkey -->
<g id="node29" class="node"><title>ethkey</title>
<ellipse fill="none" stroke="black" cx="124" cy="-490" rx="30.0384" ry="18"/>
<text text-anchor="middle" x="124" y="-487" font-family="Courier,monospace" font-size="10.00">ethkey</text>
</g>
<!-- ethkey&#45;&gt;ethcore -->
<g id="edge20" class="edge"><title>ethkey&#45;&gt;ethcore</title>
<path fill="none" stroke="black" d="M114.027,-472.765C108.838,-464.317 102.377,-453.799 96.5489,-444.312"/>
<polygon fill="black" stroke="black" points="99.4342,-442.322 91.2177,-435.633 93.4696,-445.986 99.4342,-442.322"/>
</g>
<!-- base&#45;&gt;boost -->
<g id="edge34" class="edge"><title>base&#45;&gt;boost</title>
<path fill="none" stroke="black" d="M474.085,-201.042C501.058,-199.902 542.702,-194.848 573,-176 581.716,-170.577 589.111,-162.232 594.889,-154.07"/>
<polygon fill="black" stroke="black" points="597.989,-155.723 600.509,-145.432 592.122,-151.905 597.989,-155.723"/>
</g>
<!-- base&#45;&gt;Jsoncpp -->
<g id="edge35" class="edge"><title>base&#45;&gt;Jsoncpp</title>
<path fill="none" stroke="black" d="M452.044,-184.045C459.931,-158.677 475.662,-112.674 489,-102 519.804,-77.3494 630.554,-65.0596 692.78,-59.9754"/>
<polygon fill="black" stroke="black" points="693.374,-63.4395 703.068,-59.1643 692.824,-56.4612 693.374,-63.4395"/>
</g>
<!-- base&#45;&gt;LevelDB -->
<g id="edge36" class="edge"><title>base&#45;&gt;LevelDB</title>
<path fill="none" stroke="black" d="M466.674,-189.66C473.064,-185.648 480.038,-180.906 486,-176 494.635,-168.893 503.322,-160.254 510.728,-152.331"/>
<polygon fill="black" stroke="black" points="513.508,-154.477 517.659,-144.729 508.335,-149.761 513.508,-154.477"/>
</g>
<!-- base&#45;&gt;pthreads -->
<g id="edge37" class="edge"><title>base&#45;&gt;pthreads</title>
<path fill="none" stroke="black" d="M473.145,-197.098C497.826,-193.476 535.886,-188.049 569,-184 585.857,-181.939 629.712,-183.395 645,-176 655.86,-170.747 665.591,-161.825 673.275,-153.156"/>
<polygon fill="black" stroke="black" points="676.037,-155.309 679.731,-145.379 670.651,-150.838 676.037,-155.309"/>
</g>
<!-- base&#45;&gt;json_spirit -->
<g id="edge38" class="edge"><title>base&#45;&gt;json_spirit</title>
<path fill="none" stroke="black" d="M435.717,-185.377C429.089,-176.201 420.56,-164.39 413.021,-153.952"/>
<polygon fill="black" stroke="black" points="415.677,-151.652 406.985,-145.595 410.002,-155.751 415.677,-151.652"/>
</g>
<!-- ethminer -->
<g id="node31" class="node"><title>ethminer</title>
<ellipse fill="none" stroke="black" cx="437" cy="-706" rx="36.433" ry="18"/>
<text text-anchor="middle" x="437" y="-703" font-family="Courier,monospace" font-size="10.00">ethminer</text>
</g>
<!-- ethminer&#45;&gt;json&#45;rpc&#45;cpp -->
<g id="edge22" class="edge"><title>ethminer&#45;&gt;json&#45;rpc&#45;cpp</title>
<path fill="none" stroke="black" d="M472.141,-700.942C573.966,-688.217 862,-644.976 862,-563 862,-563 862,-563 862,-273 862,-225.968 894.793,-179.765 918.123,-152.846"/>
<polygon fill="black" stroke="black" points="920.963,-154.921 925.013,-145.131 915.742,-150.259 920.963,-154.921"/>
</g>
<!-- ethminer&#45;&gt;ethashseal -->
<g id="edge23" class="edge"><title>ethminer&#45;&gt;ethashseal</title>
<path fill="none" stroke="black" d="M411.94,-692.647C389.63,-681.649 356.715,-665.423 331.485,-652.985"/>
<polygon fill="black" stroke="black" points="332.746,-649.705 322.229,-648.423 329.651,-655.984 332.746,-649.705"/>
</g>
<!-- ethvm -->
<g id="node32" class="node"><title>ethvm</title>
<ellipse fill="none" stroke="black" cx="263" cy="-706" rx="27" ry="18"/>
<text text-anchor="middle" x="263" y="-703" font-family="Courier,monospace" font-size="10.00">ethvm</text>
</g>
<!-- ethvm&#45;&gt;ethashseal -->
<g id="edge24" class="edge"><title>ethvm&#45;&gt;ethashseal</title>
<path fill="none" stroke="black" d="M270.584,-688.411C274.315,-680.249 278.899,-670.22 283.084,-661.065"/>
<polygon fill="black" stroke="black" points="286.274,-662.506 287.249,-651.956 279.908,-659.596 286.274,-662.506"/>
</g>
<!-- evmcore&#45;&gt;devcore -->
<g id="edge30" class="edge"><title>evmcore&#45;&gt;devcore</title>
<path fill="none" stroke="black" d="M173,-327.697C173,-319.983 173,-310.712 173,-302.112"/>
<polygon fill="black" stroke="black" points="176.5,-302.104 173,-292.104 169.5,-302.104 176.5,-302.104"/>
</g>
<!-- rlp -->
<g id="node37" class="node"><title>rlp</title>
<ellipse fill="none" stroke="black" cx="329" cy="-418" rx="27" ry="18"/>
<text text-anchor="middle" x="329" y="-415" font-family="Courier,monospace" font-size="10.00">rlp</text>
</g>
<!-- rlp&#45;&gt;devcrypto -->
<g id="edge32" class="edge"><title>rlp&#45;&gt;devcrypto</title>
<path fill="none" stroke="black" d="M321.416,-400.411C317.685,-392.249 313.101,-382.22 308.916,-373.065"/>
<polygon fill="black" stroke="black" points="312.092,-371.596 304.751,-363.956 305.726,-374.506 312.092,-371.596"/>
</g>
</g>
</svg>
