<?xml version="1.0" encoding="UTF-8" standalone="no"?>
<!DOCTYPE svg PUBLIC "-//W3C//DTD SVG 1.1//EN"
 "http://www.w3.org/Graphics/SVG/1.1/DTD/svg11.dtd">
<!-- Generated by graphviz version 2.36.0 (20140111.2315)
 -->
<!-- Title: webthree Pages: 1 -->
<svg width="1442pt" height="930pt"
 viewBox="0.00 0.00 1442.00 930.00" xmlns="http://www.w3.org/2000/svg" xmlns:xlink="http://www.w3.org/1999/xlink">
<g id="graph0" class="graph" transform="scale(1 1) rotate(0) translate(4 926)">
<title>webthree</title>
<polygon fill="white" stroke="none" points="-4,4 -4,-926 1438,-926 1438,4 -4,4"/>
<text text-anchor="middle" x="717" y="-6.8" font-family="Times,serif" font-size="14.00">webthree dependencies</text>
<g id="clust2" class="cluster"><title>cluster_webthree</title>
<polygon fill="Honeydew" stroke="black" points="296,-538 296,-840 505,-840 505,-538 296,-538"/>
<text text-anchor="middle" x="400.5" y="-824.8" font-family="Times,serif" font-size="14.00">webthree dependencies</text>
</g>
<g id="clust3" class="cluster"><title>cluster_webthree_helpers</title>
<polygon fill="LemonChiffon" stroke="black" points="968,-86 968,-160 1426,-160 1426,-86 968,-86"/>
<text text-anchor="start" x="1109.35" y="-144.8" font-family="Times,serif" font-size="14.00">webthree&#45;helpers dependencies</text>
</g>
<g id="clust5" class="cluster"><title>cluster_alethzero</title>
<polygon fill="LightGray" stroke="black" points="637,-766 637,-914 805,-914 805,-766 637,-766"/>
<text text-anchor="start" x="655.898" y="-898.8" font-family="Times,serif" font-size="14.00">alethzero dependencies</text>
</g>
<g id="clust9" class="cluster"><title>cluster_libethereum</title>
<polygon fill="LavenderBlush" stroke="black" points="671,-240 671,-758 963,-758 963,-240 671,-240"/>
<text text-anchor="start" x="744.115" y="-742.8" font-family="Times,serif" font-size="14.00">libethereum dependencies</text>
</g>
<g id="clust10" class="cluster"><title>cluster_libweb3core</title>
<polygon fill="AliceBlue" stroke="black" points="971,-168 971,-458 1185,-458 1185,-168 971,-168"/>
<text text-anchor="start" x="1003.95" y="-442.8" font-family="Times,serif" font-size="14.00">libweb3core dependencies</text>
</g>
<g id="clust11" class="cluster"><title>cluster_mix</title>
<polygon fill="LightGray" stroke="black" points="513,-766 513,-840 629,-840 629,-766 513,-766"/>
<text text-anchor="start" x="520.657" y="-824.8" font-family="Times,serif" font-size="14.00">mix dependencies</text>
</g>
<g id="clust13" class="cluster"><title>cluster_solidity</title>
<polygon fill="WhiteSmoke" stroke="black" points="58,-466 58,-612 288,-612 288,-466 58,-466"/>
<text text-anchor="start" x="112.543" y="-596.8" font-family="Times,serif" font-size="14.00">solidity dependencies</text>
</g>
<!-- web3jsonrpc -->
<g id="node1" class="node"><title>web3jsonrpc</title>
<ellipse fill="none" stroke="black" cx="450" cy="-710" rx="47.0244" ry="18"/>
<text text-anchor="middle" x="450" y="-707" font-family="Courier,monospace" font-size="10.00">web3jsonrpc</text>
</g>
<!-- webthree -->
<g id="node2" class="node"><title>webthree</title>
<ellipse fill="none" stroke="black" cx="458" cy="-638" rx="36.433" ry="18"/>
<text text-anchor="middle" x="458" y="-635" font-family="Courier,monospace" font-size="10.00">webthree</text>
</g>
<!-- web3jsonrpc&#45;&gt;webthree -->
<g id="edge19" class="edge"><title>web3jsonrpc&#45;&gt;webthree</title>
<path fill="none" stroke="black" d="M451.978,-691.697C452.859,-683.983 453.919,-674.712 454.901,-666.112"/>
<polygon fill="black" stroke="black" points="458.387,-666.437 456.045,-656.104 451.432,-665.642 458.387,-666.437"/>
</g>
<!-- solidity -->
<g id="node41" class="node"><title>solidity</title>
<ellipse fill="none" stroke="black" cx="171" cy="-492" rx="36.433" ry="18"/>
<text text-anchor="middle" x="171" y="-489" font-family="Courier,monospace" font-size="10.00">solidity</text>
</g>
<!-- web3jsonrpc&#45;&gt;solidity -->
<g id="edge18" class="edge"><title>web3jsonrpc&#45;&gt;solidity</title>
<path fill="none" stroke="black" stroke-dasharray="1,5" d="M414.512,-698.081C407.408,-695.99 399.982,-693.871 393,-692 244.723,-652.27 152.149,-732.463 57,-612 36.6145,-586.191 38.4997,-565.192 57,-538 72.3586,-515.426 100.963,-504.176 125.675,-498.569"/>
<polygon fill="black" stroke="black" points="126.515,-501.97 135.623,-496.559 125.128,-495.109 126.515,-501.97"/>
</g>
<!-- JsonRpc* -->
<g id="node51" class="node"><title>JsonRpc*</title>
<ellipse fill="none" stroke="black" cx="626" cy="-564" rx="36.433" ry="18"/>
<text text-anchor="middle" x="626" y="-561" font-family="Courier,monospace" font-size="10.00">JsonRpc*</text>
</g>
<!-- web3jsonrpc&#45;&gt;JsonRpc* -->
<g id="edge20" class="edge"><title>web3jsonrpc&#45;&gt;JsonRpc*</title>
<path fill="none" stroke="black" d="M492.714,-702.325C540.283,-693.917 612.661,-677.878 629,-656 642.55,-637.857 639.996,-611.524 635.118,-591.848"/>
<polygon fill="black" stroke="black" points="638.417,-590.651 632.342,-581.97 631.678,-592.544 638.417,-590.651"/>
</g>
<!-- whisper -->
<g id="node6" class="node"><title>whisper</title>
<ellipse fill="none" stroke="black" cx="460" cy="-564" rx="33.2355" ry="18"/>
<text text-anchor="middle" x="460" y="-561" font-family="Courier,monospace" font-size="10.00">whisper</text>
</g>
<!-- webthree&#45;&gt;whisper -->
<g id="edge23" class="edge"><title>webthree&#45;&gt;whisper</title>
<path fill="none" stroke="black" d="M458.474,-619.937C458.7,-611.807 458.976,-601.876 459.23,-592.705"/>
<polygon fill="black" stroke="black" points="462.736,-592.534 459.516,-582.441 455.739,-592.34 462.736,-592.534"/>
</g>
<!-- ethashseal -->
<g id="node17" class="node"><title>ethashseal</title>
<ellipse fill="none" stroke="black" cx="803" cy="-564" rx="43.3279" ry="18"/>
<text text-anchor="middle" x="803" y="-561" font-family="Courier,monospace" font-size="10.00">ethashseal</text>
</g>
<!-- webthree&#45;&gt;ethashseal -->
<g id="edge22" class="edge"><title>webthree&#45;&gt;ethashseal</title>
<path fill="none" stroke="black" d="M484.841,-625.521C491.03,-623.314 497.66,-621.291 504,-620 576.812,-605.17 598.1,-626.396 671,-612 703.801,-605.523 739.429,-592.453 765.394,-581.737"/>
<polygon fill="black" stroke="black" points="766.984,-584.865 774.847,-577.764 764.272,-578.412 766.984,-584.865"/>
</g>
<!-- eth -->
<g id="node3" class="node"><title>eth</title>
<polygon fill="none" stroke="black" stroke-width="2" points="385,-810 331,-810 331,-774 385,-774 385,-810"/>
<text text-anchor="middle" x="358" y="-789" font-family="Courier,monospace" font-size="10.00">eth</text>
</g>
<!-- eth&#45;&gt;web3jsonrpc -->
<g id="edge57" class="edge"><title>eth&#45;&gt;web3jsonrpc</title>
<path fill="none" stroke="black" d="M377.963,-773.641C391.518,-761.854 409.571,-746.155 424.214,-733.423"/>
<polygon fill="black" stroke="black" points="426.698,-735.901 431.947,-726.698 422.105,-730.619 426.698,-735.901"/>
</g>
<!-- jsconsole -->
<g id="node4" class="node"><title>jsconsole</title>
<ellipse fill="none" stroke="black" cx="344" cy="-710" rx="40.13" ry="18"/>
<text text-anchor="middle" x="344" y="-707" font-family="Courier,monospace" font-size="10.00">jsconsole</text>
</g>
<!-- eth&#45;&gt;jsconsole -->
<g id="edge58" class="edge"><title>eth&#45;&gt;jsconsole</title>
<path fill="none" stroke="black" d="M354.962,-773.641C353.152,-763.297 350.815,-749.941 348.764,-738.221"/>
<polygon fill="black" stroke="black" points="352.155,-737.297 346.984,-728.05 345.26,-738.504 352.155,-737.297"/>
</g>
<!-- jsengine -->
<g id="node5" class="node"><title>jsengine</title>
<ellipse fill="none" stroke="black" cx="355" cy="-638" rx="36.433" ry="18"/>
<text text-anchor="middle" x="355" y="-635" font-family="Courier,monospace" font-size="10.00">jsengine</text>
</g>
<!-- jsconsole&#45;&gt;jsengine -->
<g id="edge61" class="edge"><title>jsconsole&#45;&gt;jsengine</title>
<path fill="none" stroke="black" d="M346.719,-691.697C347.931,-683.983 349.388,-674.712 350.739,-666.112"/>
<polygon fill="black" stroke="black" points="354.217,-666.526 352.312,-656.104 347.302,-665.44 354.217,-666.526"/>
</g>
<!-- devcore -->
<g id="node35" class="node"><title>devcore</title>
<ellipse fill="none" stroke="black" cx="1012" cy="-194" rx="33.2355" ry="18"/>
<text text-anchor="middle" x="1012" y="-191" font-family="Courier,monospace" font-size="10.00">devcore</text>
</g>
<!-- jsconsole&#45;&gt;devcore -->
<g id="edge59" class="edge"><title>jsconsole&#45;&gt;devcore</title>
<path fill="none" stroke="black" d="M303.527,-709.937C212.594,-709.725 0,-695.297 0,-565 0,-565 0,-565 0,-337 0,-237.591 775.687,-203.405 968.843,-196.433"/>
<polygon fill="black" stroke="black" points="969.035,-199.928 978.904,-196.075 968.786,-192.932 969.035,-199.928"/>
</g>
<!-- jsconsole&#45;&gt;JsonRpc* -->
<g id="edge60" class="edge"><title>jsconsole&#45;&gt;JsonRpc*</title>
<path fill="none" stroke="black" d="M374.186,-697.922C380.669,-695.773 387.519,-693.672 394,-692 481.878,-669.329 526.166,-715.146 595,-656 613.433,-640.161 620.927,-612.898 623.961,-592.331"/>
<polygon fill="black" stroke="black" points="627.45,-592.631 625.176,-582.283 620.501,-591.791 627.45,-592.631"/>
</g>
<!-- Readline -->
<g id="node55" class="node"><title>Readline</title>
<ellipse fill="none" stroke="black" cx="550" cy="-638" rx="36.433" ry="18"/>
<text text-anchor="middle" x="550" y="-635" font-family="Courier,monospace" font-size="10.00">Readline</text>
</g>
<!-- jsconsole&#45;&gt;Readline -->
<g id="edge62" class="edge"><title>jsconsole&#45;&gt;Readline</title>
<path fill="none" stroke="black" stroke-dasharray="1,5" d="M374.9,-698.363C381.21,-696.228 387.812,-694.02 394,-692 444.912,-675.379 458.657,-674.275 509,-656 510.594,-655.422 512.216,-654.817 513.851,-654.195"/>
<polygon fill="black" stroke="black" points="515.205,-657.423 523.229,-650.504 512.642,-650.909 515.205,-657.423"/>
</g>
<!-- V8 -->
<g id="node56" class="node"><title>V8</title>
<ellipse fill="none" stroke="black" cx="540" cy="-564" rx="27" ry="18"/>
<text text-anchor="middle" x="540" y="-561" font-family="Courier,monospace" font-size="10.00">V8</text>
</g>
<!-- jsengine&#45;&gt;V8 -->
<g id="edge63" class="edge"><title>jsengine&#45;&gt;V8</title>
<path fill="none" stroke="black" d="M384.004,-627.084C392.893,-624.389 402.765,-621.738 412,-620 433.255,-615.999 490.394,-623.027 509,-612 517.309,-607.076 523.822,-598.95 528.688,-590.829"/>
<polygon fill="black" stroke="black" points="531.869,-592.302 533.49,-581.832 525.694,-589.006 531.869,-592.302"/>
</g>
<!-- p2p -->
<g id="node33" class="node"><title>p2p</title>
<ellipse fill="none" stroke="black" cx="1150" cy="-338" rx="27" ry="18"/>
<text text-anchor="middle" x="1150" y="-335" font-family="Courier,monospace" font-size="10.00">p2p</text>
</g>
<!-- whisper&#45;&gt;p2p -->
<g id="edge64" class="edge"><title>whisper&#45;&gt;p2p</title>
<path fill="none" stroke="black" d="M472.757,-547.328C502.473,-512.127 580.395,-427.135 667,-392 851.69,-317.073 921.428,-407.387 1114,-356 1115.95,-355.479 1117.93,-354.855 1119.9,-354.158"/>
<polygon fill="black" stroke="black" points="1121.62,-357.238 1129.54,-350.211 1118.96,-350.759 1121.62,-357.238"/>
</g>
<!-- testweb3 -->
<g id="node7" class="node"><title>testweb3</title>
<polygon fill="none" stroke="black" stroke-width="2" points="482.006,-810 417.994,-810 417.994,-774 482.006,-774 482.006,-810"/>
<text text-anchor="middle" x="450" y="-789" font-family="Courier,monospace" font-size="10.00">testweb3</text>
</g>
<!-- testweb3&#45;&gt;web3jsonrpc -->
<g id="edge65" class="edge"><title>testweb3&#45;&gt;web3jsonrpc</title>
<path fill="none" stroke="black" d="M450,-773.641C450,-763.297 450,-749.941 450,-738.221"/>
<polygon fill="black" stroke="black" points="453.5,-738.05 450,-728.05 446.5,-738.05 453.5,-738.05"/>
</g>
<!-- buildinfo -->
<g id="node8" class="node"><title>buildinfo</title>
<ellipse fill="none" stroke="black" cx="1279" cy="-112" rx="40.13" ry="18"/>
<text text-anchor="middle" x="1279" y="-109" font-family="Courier,monospace" font-size="10.00">buildinfo</text>
</g>
<!-- base -->
<g id="node9" class="node"><title>base</title>
<ellipse fill="none" stroke="black" cx="1003" cy="-112" rx="27" ry="18"/>
<text text-anchor="middle" x="1003" y="-109" font-family="Courier,monospace" font-size="10.00">base</text>
</g>
<!-- boost -->
<g id="node44" class="node"><title>boost</title>
<ellipse fill="none" stroke="black" cx="1044" cy="-40" rx="27" ry="18"/>
<text text-anchor="middle" x="1044" y="-37" font-family="Courier,monospace" font-size="10.00">boost</text>
</g>
<!-- base&#45;&gt;boost -->
<g id="edge2" class="edge"><title>base&#45;&gt;boost</title>
<path fill="none" stroke="black" d="M1012.51,-94.7646C1017.53,-86.1948 1023.8,-75.494 1029.42,-65.9004"/>
<polygon fill="black" stroke="black" points="1032.51,-67.5451 1034.54,-57.1473 1026.47,-64.0072 1032.51,-67.5451"/>
</g>
<!-- Jsoncpp -->
<g id="node45" class="node"><title>Jsoncpp</title>
<ellipse fill="none" stroke="black" cx="1122" cy="-40" rx="33.2355" ry="18"/>
<text text-anchor="middle" x="1122" y="-37" font-family="Courier,monospace" font-size="10.00">Jsoncpp</text>
</g>
<!-- base&#45;&gt;Jsoncpp -->
<g id="edge3" class="edge"><title>base&#45;&gt;Jsoncpp</title>
<path fill="none" stroke="black" d="M1020.69,-98.142C1026.44,-94.117 1032.91,-89.7502 1039,-86 1055.18,-76.0363 1073.73,-65.8678 1089.18,-57.7235"/>
<polygon fill="black" stroke="black" points="1091.11,-60.6652 1098.36,-52.9341 1087.87,-54.4602 1091.11,-60.6652"/>
</g>
<!-- LevelDB -->
<g id="node46" class="node"><title>LevelDB</title>
<ellipse fill="none" stroke="black" cx="874" cy="-40" rx="33.2355" ry="18"/>
<text text-anchor="middle" x="874" y="-37" font-family="Courier,monospace" font-size="10.00">LevelDB</text>
</g>
<!-- base&#45;&gt;LevelDB -->
<g id="edge4" class="edge"><title>base&#45;&gt;LevelDB</title>
<path fill="none" stroke="black" d="M982.56,-99.9083C961.988,-88.7454 929.962,-71.3671 906.018,-58.3742"/>
<polygon fill="black" stroke="black" points="907.414,-55.1498 896.956,-53.4566 904.076,-61.3023 907.414,-55.1498"/>
</g>
<!-- pthreads -->
<g id="node47" class="node"><title>pthreads</title>
<ellipse fill="none" stroke="black" cx="962" cy="-40" rx="36.433" ry="18"/>
<text text-anchor="middle" x="962" y="-37" font-family="Courier,monospace" font-size="10.00">pthreads</text>
</g>
<!-- base&#45;&gt;pthreads -->
<g id="edge5" class="edge"><title>base&#45;&gt;pthreads</title>
<path fill="none" stroke="black" d="M993.491,-94.7646C988.543,-86.3172 982.382,-75.7993 976.826,-66.3122"/>
<polygon fill="black" stroke="black" points="979.817,-64.4933 971.742,-57.6334 973.776,-68.0312 979.817,-64.4933"/>
</g>
<!-- json_spirit -->
<g id="node10" class="node"><title>json_spirit</title>
<ellipse fill="none" stroke="black" cx="1173" cy="-112" rx="47.0244" ry="18"/>
<text text-anchor="middle" x="1173" y="-109" font-family="Courier,monospace" font-size="10.00">json_spirit</text>
</g>
<!-- scrypt -->
<g id="node11" class="node"><title>scrypt</title>
<ellipse fill="none" stroke="black" cx="1078" cy="-112" rx="30.0384" ry="18"/>
<text text-anchor="middle" x="1078" y="-109" font-family="Courier,monospace" font-size="10.00">scrypt</text>
</g>
<!-- secp256k1 -->
<g id="node12" class="node"><title>secp256k1</title>
<ellipse fill="none" stroke="black" cx="1378" cy="-112" rx="40.13" ry="18"/>
<text text-anchor="middle" x="1378" y="-109" font-family="Courier,monospace" font-size="10.00">secp256k1</text>
</g>
<!-- gmp -->
<g id="node48" class="node"><title>gmp</title>
<ellipse fill="none" stroke="black" cx="1378" cy="-40" rx="27" ry="18"/>
<text text-anchor="middle" x="1378" y="-37" font-family="Courier,monospace" font-size="10.00">gmp</text>
</g>
<!-- secp256k1&#45;&gt;gmp -->
<g id="edge6" class="edge"><title>secp256k1&#45;&gt;gmp</title>
<path fill="none" stroke="black" d="M1378,-93.6966C1378,-85.9827 1378,-76.7125 1378,-68.1124"/>
<polygon fill="black" stroke="black" points="1381.5,-68.1043 1378,-58.1043 1374.5,-68.1044 1381.5,-68.1043"/>
</g>
<!-- AlethZero -->
<g id="node13" class="node"><title>AlethZero</title>
<polygon fill="none" stroke="black" stroke-width="2" points="797.007,-884 726.993,-884 726.993,-848 797.007,-848 797.007,-884"/>
<text text-anchor="middle" x="762" y="-863" font-family="Courier,monospace" font-size="10.00">AlethZero</text>
</g>
<!-- aleth -->
<g id="node14" class="node"><title>aleth</title>
<ellipse fill="none" stroke="black" cx="677" cy="-792" rx="27" ry="18"/>
<text text-anchor="middle" x="677" y="-789" font-family="Courier,monospace" font-size="10.00">aleth</text>
</g>
<!-- AlethZero&#45;&gt;aleth -->
<g id="edge7" class="edge"><title>AlethZero&#45;&gt;aleth</title>
<path fill="none" stroke="black" d="M741.856,-847.937C729.497,-837.468 713.612,-824.012 700.656,-813.038"/>
<polygon fill="black" stroke="black" points="702.918,-810.367 693.025,-806.574 698.394,-815.709 702.918,-810.367"/>
</g>
<!-- aleth&#45;&gt;web3jsonrpc -->
<g id="edge9" class="edge"><title>aleth&#45;&gt;web3jsonrpc</title>
<path fill="none" stroke="black" d="M658.921,-778.575C651.25,-773.887 642.011,-768.973 633,-766 604.94,-756.743 595.62,-765.348 567,-758 539.543,-750.951 509.925,-739.007 487.359,-728.923"/>
<polygon fill="black" stroke="black" points="488.698,-725.688 478.146,-724.736 485.801,-732.06 488.698,-725.688"/>
</g>
<!-- natspec -->
<g id="node18" class="node"><title>natspec</title>
<ellipse fill="none" stroke="black" cx="835" cy="-710" rx="33.2355" ry="18"/>
<text text-anchor="middle" x="835" y="-707" font-family="Courier,monospace" font-size="10.00">natspec</text>
</g>
<!-- aleth&#45;&gt;natspec -->
<g id="edge10" class="edge"><title>aleth&#45;&gt;natspec</title>
<path fill="none" stroke="black" d="M703.599,-787.762C728.295,-783.795 765.314,-775.332 793,-758 802.461,-752.077 811.05,-743.413 817.961,-735.132"/>
<polygon fill="black" stroke="black" points="820.851,-737.118 824.281,-727.094 815.349,-732.791 820.851,-737.118"/>
</g>
<!-- Qt* -->
<g id="node49" class="node"><title>Qt*</title>
<ellipse fill="none" stroke="black" cx="603" cy="-710" rx="27" ry="18"/>
<text text-anchor="middle" x="603" y="-707" font-family="Courier,monospace" font-size="10.00">Qt*</text>
</g>
<!-- aleth&#45;&gt;Qt* -->
<g id="edge8" class="edge"><title>aleth&#45;&gt;Qt*</title>
<path fill="none" stroke="black" d="M663.427,-776.327C652.336,-764.336 636.472,-747.186 623.782,-733.467"/>
<polygon fill="black" stroke="black" points="626.097,-730.815 616.737,-725.851 620.958,-735.569 626.097,-730.815"/>
</g>
<!-- AlethOne -->
<g id="node15" class="node"><title>AlethOne</title>
<polygon fill="none" stroke="black" stroke-width="2" points="709.006,-884 644.994,-884 644.994,-848 709.006,-848 709.006,-884"/>
<text text-anchor="middle" x="677" y="-863" font-family="Courier,monospace" font-size="10.00">AlethOne</text>
</g>
<!-- AlethOne&#45;&gt;aleth -->
<g id="edge11" class="edge"><title>AlethOne&#45;&gt;aleth</title>
<path fill="none" stroke="black" d="M677,-847.937C677,-839.807 677,-829.876 677,-820.705"/>
<polygon fill="black" stroke="black" points="680.5,-820.441 677,-810.441 673.5,-820.441 680.5,-820.441"/>
</g>
<!-- ethereum -->
<g id="node16" class="node"><title>ethereum</title>
<ellipse fill="none" stroke="black" cx="748" cy="-492" rx="36.433" ry="18"/>
<text text-anchor="middle" x="748" y="-489" font-family="Courier,monospace" font-size="10.00">ethereum</text>
</g>
<!-- evm -->
<g id="node26" class="node"><title>evm</title>
<ellipse fill="none" stroke="black" cx="778" cy="-410" rx="27" ry="18"/>
<text text-anchor="middle" x="778" y="-407" font-family="Courier,monospace" font-size="10.00">evm</text>
</g>
<!-- ethereum&#45;&gt;evm -->
<g id="edge13" class="edge"><title>ethereum&#45;&gt;evm</title>
<path fill="none" stroke="black" d="M754.362,-474.034C758.367,-463.356 763.617,-449.356 768.152,-437.262"/>
<polygon fill="black" stroke="black" points="771.516,-438.259 771.75,-427.667 764.961,-435.802 771.516,-438.259"/>
</g>
<!-- lll -->
<g id="node29" class="node"><title>lll</title>
<ellipse fill="none" stroke="black" cx="706" cy="-410" rx="27" ry="18"/>
<text text-anchor="middle" x="706" y="-407" font-family="Courier,monospace" font-size="10.00">lll</text>
</g>
<!-- ethereum&#45;&gt;lll -->
<g id="edge14" class="edge"><title>ethereum&#45;&gt;lll</title>
<path fill="none" stroke="black" d="M739.298,-474.424C733.515,-463.41 725.812,-448.738 719.272,-436.279"/>
<polygon fill="black" stroke="black" points="722.295,-434.508 714.548,-427.281 716.097,-437.762 722.295,-434.508"/>
</g>
<!-- ethereum&#45;&gt;p2p -->
<g id="edge12" class="edge"><title>ethereum&#45;&gt;p2p</title>
<path fill="none" stroke="black" d="M768.643,-477.075C776.278,-472.671 785.218,-468.344 794,-466 812.094,-461.171 1116.9,-470.322 1131,-458 1156.59,-435.64 1157.36,-393.744 1154.5,-366.107"/>
<polygon fill="black" stroke="black" points="1157.94,-365.418 1153.22,-355.934 1150.99,-366.293 1157.94,-365.418"/>
</g>
<!-- ethashseal&#45;&gt;ethereum -->
<g id="edge15" class="edge"><title>ethashseal&#45;&gt;ethereum</title>
<path fill="none" stroke="black" d="M790.244,-546.765C783.302,-537.93 774.581,-526.83 766.868,-517.014"/>
<polygon fill="black" stroke="black" points="769.618,-514.848 760.687,-509.147 764.113,-519.173 769.618,-514.848"/>
</g>
<!-- ethash&#45;cl -->
<g id="node25" class="node"><title>ethash&#45;cl</title>
<ellipse fill="none" stroke="black" cx="915" cy="-492" rx="40.13" ry="18"/>
<text text-anchor="middle" x="915" y="-489" font-family="Courier,monospace" font-size="10.00">ethash&#45;cl</text>
</g>
<!-- ethashseal&#45;&gt;ethash&#45;cl -->
<g id="edge16" class="edge"><title>ethashseal&#45;&gt;ethash&#45;cl</title>
<path fill="none" stroke="black" stroke-dasharray="1,5" d="M825.935,-548.666C842.655,-538.216 865.501,-523.937 883.868,-512.458"/>
<polygon fill="black" stroke="black" points="885.853,-515.344 892.478,-507.076 882.143,-509.408 885.853,-515.344"/>
</g>
<!-- Cpuid -->
<g id="node50" class="node"><title>Cpuid</title>
<ellipse fill="none" stroke="black" cx="1000" cy="-492" rx="27" ry="18"/>
<text text-anchor="middle" x="1000" y="-489" font-family="Courier,monospace" font-size="10.00">Cpuid</text>
</g>
<!-- ethashseal&#45;&gt;Cpuid -->
<g id="edge17" class="edge"><title>ethashseal&#45;&gt;Cpuid</title>
<path fill="none" stroke="black" stroke-dasharray="1,5" d="M838.471,-553.354C872.099,-543.786 923.762,-527.982 967,-510 968.172,-509.513 969.358,-509 970.55,-508.468"/>
<polygon fill="black" stroke="black" points="972.124,-511.596 979.649,-504.138 969.116,-505.275 972.124,-511.596"/>
</g>
<!-- ethcore -->
<g id="node19" class="node"><title>ethcore</title>
<ellipse fill="none" stroke="black" cx="882" cy="-338" rx="33.2355" ry="18"/>
<text text-anchor="middle" x="882" y="-335" font-family="Courier,monospace" font-size="10.00">ethcore</text>
</g>
<!-- ethcore&#45;&gt;buildinfo -->
<g id="edge24" class="edge"><title>ethcore&#45;&gt;buildinfo</title>
<path fill="none" stroke="black" d="M877.265,-319.93C872.635,-299.781 867.882,-265.758 880,-240 901.366,-194.584 920.043,-185.725 967,-168 1021.5,-147.43 1175.18,-182.28 1229,-160 1240.92,-155.066 1251.7,-145.897 1260.17,-136.959"/>
<polygon fill="black" stroke="black" points="1262.97,-139.077 1267,-129.275 1257.74,-134.428 1262.97,-139.077"/>
</g>
<!-- devcrypto -->
<g id="node34" class="node"><title>devcrypto</title>
<ellipse fill="none" stroke="black" cx="1078" cy="-266" rx="40.13" ry="18"/>
<text text-anchor="middle" x="1078" y="-263" font-family="Courier,monospace" font-size="10.00">devcrypto</text>
</g>
<!-- ethcore&#45;&gt;devcrypto -->
<g id="edge25" class="edge"><title>ethcore&#45;&gt;devcrypto</title>
<path fill="none" stroke="black" d="M909.253,-327.267C942.565,-315.369 999.231,-295.132 1037.61,-281.424"/>
<polygon fill="black" stroke="black" points="1039.2,-284.575 1047.44,-277.916 1036.84,-277.983 1039.2,-284.575"/>
</g>
<!-- ethkey -->
<g id="node20" class="node"><title>ethkey</title>
<polygon fill="none" stroke="black" stroke-width="2" points="877,-428 823,-428 823,-392 877,-392 877,-428"/>
<text text-anchor="middle" x="850" y="-407" font-family="Courier,monospace" font-size="10.00">ethkey</text>
</g>
<!-- ethkey&#45;&gt;ethcore -->
<g id="edge32" class="edge"><title>ethkey&#45;&gt;ethcore</title>
<path fill="none" stroke="black" d="M857.91,-391.697C861.607,-383.609 866.086,-373.812 870.174,-364.869"/>
<polygon fill="black" stroke="black" points="873.427,-366.172 874.401,-355.622 867.06,-363.262 873.427,-366.172"/>
</g>
<!-- ethminer -->
<g id="node21" class="node"><title>ethminer</title>
<polygon fill="none" stroke="black" stroke-width="2" points="745.006,-656 680.994,-656 680.994,-620 745.006,-620 745.006,-656"/>
<text text-anchor="middle" x="713" y="-635" font-family="Courier,monospace" font-size="10.00">ethminer</text>
</g>
<!-- ethminer&#45;&gt;ethashseal -->
<g id="edge33" class="edge"><title>ethminer&#45;&gt;ethashseal</title>
<path fill="none" stroke="black" d="M734.329,-619.937C746.812,-609.95 762.693,-597.245 776.038,-586.569"/>
<polygon fill="black" stroke="black" points="778.344,-589.207 783.967,-580.227 773.971,-583.741 778.344,-589.207"/>
</g>
<!-- ethminer&#45;&gt;JsonRpc* -->
<g id="edge34" class="edge"><title>ethminer&#45;&gt;JsonRpc*</title>
<path fill="none" stroke="black" d="M680.88,-621.474C676.043,-618.596 671.255,-615.411 667,-612 658.81,-605.435 650.943,-597.103 644.33,-589.283"/>
<polygon fill="black" stroke="black" points="646.711,-586.663 637.689,-581.107 641.277,-591.076 646.711,-586.663"/>
</g>
<!-- ethvm -->
<g id="node22" class="node"><title>ethvm</title>
<polygon fill="none" stroke="black" stroke-width="2" points="915,-656 861,-656 861,-620 915,-620 915,-656"/>
<text text-anchor="middle" x="888" y="-635" font-family="Courier,monospace" font-size="10.00">ethvm</text>
</g>
<!-- ethvm&#45;&gt;ethashseal -->
<g id="edge35" class="edge"><title>ethvm&#45;&gt;ethashseal</title>
<path fill="none" stroke="black" d="M867.856,-619.937C856.258,-610.113 841.554,-597.658 829.081,-587.092"/>
<polygon fill="black" stroke="black" points="831.153,-584.261 821.261,-580.468 826.629,-589.602 831.153,-584.261"/>
</g>
<!-- evmjit -->
<g id="node23" class="node"><title>evmjit</title>
<polygon fill="none" stroke="black" stroke-width="2" points="831,-356 777,-356 777,-320 831,-320 831,-356"/>
<text text-anchor="middle" x="804" y="-335" font-family="Courier,monospace" font-size="10.00">evmjit</text>
</g>
<!-- ethash -->
<g id="node24" class="node"><title>ethash</title>
<ellipse fill="none" stroke="black" cx="925" cy="-410" rx="30.0384" ry="18"/>
<text text-anchor="middle" x="925" y="-407" font-family="Courier,monospace" font-size="10.00">ethash</text>
</g>
<!-- ethash&#45;cl&#45;&gt;ethash -->
<g id="edge36" class="edge"><title>ethash&#45;cl&#45;&gt;ethash</title>
<path fill="none" stroke="black" d="M917.17,-473.641C918.463,-463.297 920.132,-449.941 921.597,-438.221"/>
<polygon fill="black" stroke="black" points="925.101,-438.407 922.869,-428.05 918.155,-437.539 925.101,-438.407"/>
</g>
<!-- OpenCL -->
<g id="node54" class="node"><title>OpenCL</title>
<ellipse fill="none" stroke="black" cx="1359" cy="-410" rx="30.0384" ry="18"/>
<text text-anchor="middle" x="1359" y="-407" font-family="Courier,monospace" font-size="10.00">OpenCL</text>
</g>
<!-- ethash&#45;cl&#45;&gt;OpenCL -->
<g id="edge37" class="edge"><title>ethash&#45;cl&#45;&gt;OpenCL</title>
<path fill="none" stroke="black" d="M937.586,-476.804C945.618,-472.491 954.926,-468.291 964,-466 1001.82,-456.451 1279.39,-473.927 1315,-458 1325.94,-453.108 1335.43,-444.074 1342.77,-435.222"/>
<polygon fill="black" stroke="black" points="1345.56,-437.331 1348.88,-427.27 1340.01,-433.064 1345.56,-437.331"/>
</g>
<!-- evm&#45;&gt;ethcore -->
<g id="edge38" class="edge"><title>evm&#45;&gt;ethcore</title>
<path fill="none" stroke="black" d="M796.593,-396.485C812.359,-385.874 835.23,-370.48 853.337,-358.292"/>
<polygon fill="black" stroke="black" points="855.45,-361.089 861.792,-352.602 851.541,-355.282 855.45,-361.089"/>
</g>
<!-- evm&#45;&gt;evmjit -->
<g id="edge39" class="edge"><title>evm&#45;&gt;evmjit</title>
<path fill="none" stroke="black" stroke-dasharray="1,5" d="M784.162,-392.411C787.086,-384.539 790.655,-374.929 793.956,-366.042"/>
<polygon fill="black" stroke="black" points="797.319,-367.04 797.52,-356.447 790.757,-364.602 797.319,-367.04"/>
</g>
<!-- evmcore -->
<g id="node28" class="node"><title>evmcore</title>
<ellipse fill="none" stroke="black" cx="922" cy="-266" rx="33.2355" ry="18"/>
<text text-anchor="middle" x="922" y="-263" font-family="Courier,monospace" font-size="10.00">evmcore</text>
</g>
<!-- evm&#45;&gt;evmcore -->
<g id="edge40" class="edge"><title>evm&#45;&gt;evmcore</title>
<path fill="none" stroke="black" d="M770.033,-392.561C761.985,-373.326 752.739,-341.391 768,-320 792.885,-285.118 842.272,-272.962 878.433,-268.849"/>
<polygon fill="black" stroke="black" points="879.103,-272.3 888.718,-267.851 878.427,-265.333 879.103,-272.3"/>
</g>
<!-- evmasm -->
<g id="node27" class="node"><title>evmasm</title>
<ellipse fill="none" stroke="black" cx="709" cy="-338" rx="30.0384" ry="18"/>
<text text-anchor="middle" x="709" y="-335" font-family="Courier,monospace" font-size="10.00">evmasm</text>
</g>
<!-- evmasm&#45;&gt;evmcore -->
<g id="edge41" class="edge"><title>evmasm&#45;&gt;evmcore</title>
<path fill="none" stroke="black" d="M733.563,-327.186C739.869,-324.757 746.661,-322.216 753,-320 797.516,-304.438 849.347,-288.501 883.752,-278.223"/>
<polygon fill="black" stroke="black" points="884.821,-281.556 893.408,-275.35 882.825,-274.847 884.821,-281.556"/>
</g>
<!-- evmcore&#45;&gt;devcore -->
<g id="edge42" class="edge"><title>evmcore&#45;&gt;devcore</title>
<path fill="none" stroke="black" d="M940.213,-250.834C953.266,-240.682 971.046,-226.853 985.646,-215.498"/>
<polygon fill="black" stroke="black" points="988.07,-218.047 993.814,-209.144 983.772,-212.521 988.07,-218.047"/>
</g>
<!-- lll&#45;&gt;evmasm -->
<g id="edge43" class="edge"><title>lll&#45;&gt;evmasm</title>
<path fill="none" stroke="black" d="M706.742,-391.697C707.072,-383.983 707.469,-374.712 707.838,-366.112"/>
<polygon fill="black" stroke="black" points="711.335,-366.245 708.267,-356.104 704.342,-365.945 711.335,-366.245"/>
</g>
<!-- testutils -->
<g id="node30" class="node"><title>testutils</title>
<ellipse fill="none" stroke="black" cx="803" cy="-638" rx="40.13" ry="18"/>
<text text-anchor="middle" x="803" y="-635" font-family="Courier,monospace" font-size="10.00">testutils</text>
</g>
<!-- testutils&#45;&gt;ethashseal -->
<g id="edge44" class="edge"><title>testutils&#45;&gt;ethashseal</title>
<path fill="none" stroke="black" d="M803,-619.937C803,-611.807 803,-601.876 803,-592.705"/>
<polygon fill="black" stroke="black" points="806.5,-592.441 803,-582.441 799.5,-592.441 806.5,-592.441"/>
</g>
<!-- lllc -->
<g id="node31" class="node"><title>lllc</title>
<polygon fill="none" stroke="black" stroke-width="2" points="857,-510 803,-510 803,-474 857,-474 857,-510"/>
<text text-anchor="middle" x="830" y="-489" font-family="Courier,monospace" font-size="10.00">lllc</text>
</g>
<!-- lllc&#45;&gt;buildinfo -->
<g id="edge45" class="edge"><title>lllc&#45;&gt;buildinfo</title>
<path fill="none" stroke="black" d="M850.213,-473.966C855.097,-470.73 860.503,-467.796 866,-466 900.124,-454.848 1156.22,-472.646 1189,-458 1255.31,-428.369 1301,-411.63 1301,-339 1301,-339 1301,-339 1301,-265 1301,-220.874 1291.81,-170.28 1285.31,-140.019"/>
<polygon fill="black" stroke="black" points="1288.71,-139.217 1283.14,-130.207 1281.88,-140.727 1288.71,-139.217"/>
</g>
<!-- lllc&#45;&gt;lll -->
<g id="edge46" class="edge"><title>lllc&#45;&gt;lll</title>
<path fill="none" stroke="black" d="M808.184,-473.988C803.393,-470.916 798.194,-468.044 793,-466 771.65,-457.598 761.722,-469.725 742,-458 733.082,-452.698 725.6,-444.271 719.808,-436.006"/>
<polygon fill="black" stroke="black" points="722.748,-434.107 714.394,-427.591 716.861,-437.895 722.748,-434.107"/>
</g>
<!-- testeth -->
<g id="node32" class="node"><title>testeth</title>
<polygon fill="none" stroke="black" stroke-width="2" points="784.005,-728 725.995,-728 725.995,-692 784.005,-692 784.005,-728"/>
<text text-anchor="middle" x="755" y="-707" font-family="Courier,monospace" font-size="10.00">testeth</text>
</g>
<!-- testeth&#45;&gt;testutils -->
<g id="edge47" class="edge"><title>testeth&#45;&gt;testutils</title>
<path fill="none" stroke="black" d="M766.865,-691.697C772.588,-683.351 779.559,-673.185 785.846,-664.016"/>
<polygon fill="black" stroke="black" points="788.833,-665.849 791.602,-655.622 783.06,-661.89 788.833,-665.849"/>
</g>
<!-- p2p&#45;&gt;devcrypto -->
<g id="edge26" class="edge"><title>p2p&#45;&gt;devcrypto</title>
<path fill="none" stroke="black" d="M1135.43,-322.834C1125.68,-313.356 1112.64,-300.673 1101.44,-289.791"/>
<polygon fill="black" stroke="black" points="1103.66,-287.067 1094.05,-282.606 1098.78,-292.086 1103.66,-287.067"/>
</g>
<!-- Miniupnpc -->
<g id="node52" class="node"><title>Miniupnpc</title>
<ellipse fill="none" stroke="black" cx="1233" cy="-266" rx="40.13" ry="18"/>
<text text-anchor="middle" x="1233" y="-263" font-family="Courier,monospace" font-size="10.00">Miniupnpc</text>
</g>
<!-- p2p&#45;&gt;Miniupnpc -->
<g id="edge27" class="edge"><title>p2p&#45;&gt;Miniupnpc</title>
<path fill="none" stroke="black" stroke-dasharray="1,5" d="M1166.4,-323.17C1177.98,-313.403 1193.74,-300.114 1207.02,-288.913"/>
<polygon fill="black" stroke="black" points="1209.52,-291.382 1214.91,-282.259 1205.01,-286.031 1209.52,-291.382"/>
</g>
<!-- devcrypto&#45;&gt;scrypt -->
<g id="edge28" class="edge"><title>devcrypto&#45;&gt;scrypt</title>
<path fill="none" stroke="black" d="M1078,-247.859C1078,-221.745 1078,-171.743 1078,-140.507"/>
<polygon fill="black" stroke="black" points="1081.5,-140.311 1078,-130.311 1074.5,-140.311 1081.5,-140.311"/>
</g>
<!-- devcrypto&#45;&gt;secp256k1 -->
<g id="edge29" class="edge"><title>devcrypto&#45;&gt;secp256k1</title>
<path fill="none" stroke="black" d="M1112.62,-256.683C1165.25,-243.887 1260.81,-220.013 1275,-212 1309.04,-192.769 1340.22,-159.683 1359.15,-137.097"/>
<polygon fill="black" stroke="black" points="1361.91,-139.246 1365.55,-129.296 1356.5,-134.805 1361.91,-139.246"/>
</g>
<!-- devcrypto&#45;&gt;devcore -->
<g id="edge30" class="edge"><title>devcrypto&#45;&gt;devcore</title>
<path fill="none" stroke="black" d="M1063.02,-249.116C1054.3,-239.858 1043.14,-228.027 1033.49,-217.789"/>
<polygon fill="black" stroke="black" points="1035.87,-215.215 1026.46,-210.34 1030.78,-220.017 1035.87,-215.215"/>
</g>
<!-- Cryptopp -->
<g id="node53" class="node"><title>Cryptopp</title>
<ellipse fill="none" stroke="black" cx="1230" cy="-194" rx="36.433" ry="18"/>
<text text-anchor="middle" x="1230" y="-191" font-family="Courier,monospace" font-size="10.00">Cryptopp</text>
</g>
<!-- devcrypto&#45;&gt;Cryptopp -->
<g id="edge31" class="edge"><title>devcrypto&#45;&gt;Cryptopp</title>
<path fill="none" stroke="black" d="M1105.17,-252.485C1130.23,-240.947 1167.56,-223.755 1194.87,-211.178"/>
<polygon fill="black" stroke="black" points="1196.46,-214.301 1204.08,-206.939 1193.53,-207.943 1196.46,-214.301"/>
</g>
<!-- devcore&#45;&gt;base -->
<g id="edge48" class="edge"><title>devcore&#45;&gt;base</title>
<path fill="none" stroke="black" d="M1010.05,-175.641C1008.88,-165.297 1007.38,-151.941 1006.06,-140.221"/>
<polygon fill="black" stroke="black" points="1009.51,-139.596 1004.92,-130.05 1002.56,-140.379 1009.51,-139.596"/>
</g>
<!-- bench -->
<g id="node36" class="node"><title>bench</title>
<polygon fill="none" stroke="black" stroke-width="2" points="1105,-356 1051,-356 1051,-320 1105,-320 1105,-356"/>
<text text-anchor="middle" x="1078" y="-335" font-family="Courier,monospace" font-size="10.00">bench</text>
</g>
<!-- bench&#45;&gt;devcrypto -->
<g id="edge49" class="edge"><title>bench&#45;&gt;devcrypto</title>
<path fill="none" stroke="black" d="M1078,-319.697C1078,-311.983 1078,-302.712 1078,-294.112"/>
<polygon fill="black" stroke="black" points="1081.5,-294.104 1078,-284.104 1074.5,-294.104 1081.5,-294.104"/>
</g>
<!-- rlp -->
<g id="node37" class="node"><title>rlp</title>
<polygon fill="none" stroke="black" stroke-width="2" points="1033,-356 979,-356 979,-320 1033,-320 1033,-356"/>
<text text-anchor="middle" x="1006" y="-335" font-family="Courier,monospace" font-size="10.00">rlp</text>
</g>
<!-- rlp&#45;&gt;devcrypto -->
<g id="edge50" class="edge"><title>rlp&#45;&gt;devcrypto</title>
<path fill="none" stroke="black" d="M1023.8,-319.697C1033.09,-310.663 1044.58,-299.495 1054.58,-289.769"/>
<polygon fill="black" stroke="black" points="1057.15,-292.152 1061.88,-282.671 1052.27,-287.133 1057.15,-292.152"/>
</g>
<!-- testweb3core -->
<g id="node38" class="node"><title>testweb3core</title>
<polygon fill="none" stroke="black" stroke-width="2" points="1122.01,-428 1033.99,-428 1033.99,-392 1122.01,-392 1122.01,-428"/>
<text text-anchor="middle" x="1078" y="-407" font-family="Courier,monospace" font-size="10.00">testweb3core</text>
</g>
<!-- testweb3core&#45;&gt;p2p -->
<g id="edge51" class="edge"><title>testweb3core&#45;&gt;p2p</title>
<path fill="none" stroke="black" d="M1095.8,-391.697C1105.49,-382.276 1117.56,-370.534 1127.86,-360.527"/>
<polygon fill="black" stroke="black" points="1130.58,-362.759 1135.31,-353.279 1125.7,-357.74 1130.58,-362.759"/>
</g>
<!-- Mix -->
<g id="node39" class="node"><title>Mix</title>
<ellipse fill="none" stroke="black" cx="571" cy="-792" rx="27" ry="18"/>
<text text-anchor="middle" x="571" y="-789" font-family="Courier,monospace" font-size="10.00">Mix</text>
</g>
<!-- Mix&#45;&gt;web3jsonrpc -->
<g id="edge53" class="edge"><title>Mix&#45;&gt;web3jsonrpc</title>
<path fill="none" stroke="black" d="M552.359,-778.675C533.397,-766.139 503.676,-746.488 481.135,-731.585"/>
<polygon fill="black" stroke="black" points="482.852,-728.524 472.58,-725.929 478.991,-734.363 482.852,-728.524"/>
</g>
<!-- Mix&#45;&gt;Qt* -->
<g id="edge52" class="edge"><title>Mix&#45;&gt;Qt*</title>
<path fill="none" stroke="black" d="M577.63,-774.424C581.964,-763.59 587.713,-749.217 592.643,-736.892"/>
<polygon fill="black" stroke="black" points="595.914,-738.139 596.378,-727.555 589.414,-735.54 595.914,-738.139"/>
</g>
<!-- soljson -->
<g id="node40" class="node"><title>soljson</title>
<ellipse fill="none" stroke="black" cx="171" cy="-564" rx="33.2355" ry="18"/>
<text text-anchor="middle" x="171" y="-561" font-family="Courier,monospace" font-size="10.00">soljson</text>
</g>
<!-- soljson&#45;&gt;solidity -->
<g id="edge1" class="edge"><title>soljson&#45;&gt;solidity</title>
<path fill="none" stroke="black" d="M171,-545.697C171,-537.983 171,-528.712 171,-520.112"/>
<polygon fill="black" stroke="black" points="174.5,-520.104 171,-510.104 167.5,-520.104 174.5,-520.104"/>
</g>
<!-- solidity&#45;&gt;evmasm -->
<g id="edge21" class="edge"><title>solidity&#45;&gt;evmasm</title>
<path fill="none" stroke="black" d="M201.858,-482.282C295.003,-455.966 573.044,-377.411 672.841,-349.216"/>
<polygon fill="black" stroke="black" points="673.805,-352.581 682.477,-346.493 671.902,-345.844 673.805,-352.581"/>
</g>
<!-- solc -->
<g id="node42" class="node"><title>solc</title>
<polygon fill="none" stroke="black" stroke-width="2" points="120,-582 66,-582 66,-546 120,-546 120,-582"/>
<text text-anchor="middle" x="93" y="-561" font-family="Courier,monospace" font-size="10.00">solc</text>
</g>
<!-- solc&#45;&gt;solidity -->
<g id="edge54" class="edge"><title>solc&#45;&gt;solidity</title>
<path fill="none" stroke="black" d="M112.281,-545.697C122.591,-536.444 135.395,-524.953 146.414,-515.064"/>
<polygon fill="black" stroke="black" points="148.955,-517.486 154.06,-508.202 144.28,-512.277 148.955,-517.486"/>
</g>
<!-- soltest -->
<g id="node43" class="node"><title>soltest</title>
<polygon fill="none" stroke="black" stroke-width="2" points="280.005,-582 221.995,-582 221.995,-546 280.005,-546 280.005,-582"/>
<text text-anchor="middle" x="251" y="-561" font-family="Courier,monospace" font-size="10.00">soltest</text>
</g>
<!-- soltest&#45;&gt;ethereum -->
<g id="edge55" class="edge"><title>soltest&#45;&gt;ethereum</title>
<path fill="none" stroke="black" d="M275.273,-545.773C280.574,-542.716 286.308,-539.905 292,-538 367.137,-512.853 601.441,-499.594 701.714,-494.949"/>
<polygon fill="black" stroke="black" points="702.013,-498.439 711.843,-494.488 701.694,-491.446 702.013,-498.439"/>
</g>
<!-- soltest&#45;&gt;solidity -->
<g id="edge56" class="edge"><title>soltest&#45;&gt;solidity</title>
<path fill="none" stroke="black" d="M231.225,-545.697C220.473,-536.289 207.075,-524.566 195.648,-514.567"/>
<polygon fill="black" stroke="black" points="197.939,-511.921 188.108,-507.97 193.329,-517.189 197.939,-511.921"/>
</g>
</g>
</svg>
