<?xml version="1.0" encoding="UTF-8" standalone="no"?>
<!DOCTYPE svg PUBLIC "-//W3C//DTD SVG 1.1//EN"
 "http://www.w3.org/Graphics/SVG/1.1/DTD/svg11.dtd">
<!-- Generated by graphviz version 2.36.0 (20140111.2315)
 -->
<!-- Title: webthree Pages: 1 -->
<svg width="1016pt" height="986pt"
 viewBox="0.00 0.00 1016.00 986.00" xmlns="http://www.w3.org/2000/svg" xmlns:xlink="http://www.w3.org/1999/xlink">
<g id="graph0" class="graph" transform="scale(1 1) rotate(0) translate(4 982)">
<title>webthree</title>
<polygon fill="white" stroke="none" points="-4,4 -4,-982 1012,-982 1012,4 -4,4"/>
<text text-anchor="middle" x="504" y="-6.8" font-family="Times,serif" font-size="14.00">Ethereum C++ dependencies</text>
<g id="clust1" class="cluster"><title>cluster_external</title>
<polygon fill="HoneyDew" stroke="black" points="490,-30 490,-248 1000,-248 1000,-30 490,-30"/>
<text text-anchor="start" x="613.788" y="-232.8" font-family="Times,serif" font-size="14.00">https://github.com/ethereum/cpp&#45;dependencies</text>
</g>
<g id="clust2" class="cluster"><title>cluster_cppethereum</title>
<polygon fill="LavenderBlush" stroke="black" points="8,-174 8,-970 482,-970 482,-174 8,-174"/>
<text text-anchor="start" x="125.45" y="-954.8" font-family="Times,serif" font-size="14.00">https://github.com/ethereum/cpp&#45;ethereum</text>
</g>
<!-- boost -->
<g id="node1" class="node"><title>boost</title>
<ellipse fill="none" stroke="black" cx="609" cy="-200" rx="27" ry="18"/>
<text text-anchor="middle" x="609" y="-197" font-family="Courier,monospace" font-size="10.00">boost</text>
</g>
<!-- curl -->
<g id="node2" class="node"><title>curl</title>
<ellipse fill="none" stroke="black" cx="941" cy="-128" rx="27" ry="18"/>
<text text-anchor="middle" x="941" y="-125" font-family="Courier,monospace" font-size="10.00">curl</text>
</g>
<!-- openssl -->
<g id="node8" class="node"><title>openssl</title>
<ellipse fill="none" stroke="black" cx="815" cy="-56" rx="33.2355" ry="18"/>
<text text-anchor="middle" x="815" y="-53" font-family="Courier,monospace" font-size="10.00">openssl</text>
</g>
<!-- curl&#45;&gt;openssl -->
<g id="edge33" class="edge"><title>curl&#45;&gt;openssl</title>
<path fill="none" stroke="black" stroke-dasharray="1,5" d="M920.756,-115.753C900.613,-104.563 869.427,-87.2375 846.133,-74.296"/>
<polygon fill="black" stroke="black" points="847.759,-71.1956 837.318,-69.3987 844.359,-77.3147 847.759,-71.1956"/>
</g>
<!-- ssh2 -->
<g id="node11" class="node"><title>ssh2</title>
<ellipse fill="none" stroke="black" cx="893" cy="-56" rx="27" ry="18"/>
<text text-anchor="middle" x="893" y="-53" font-family="Courier,monospace" font-size="10.00">ssh2</text>
</g>
<!-- curl&#45;&gt;ssh2 -->
<g id="edge34" class="edge"><title>curl&#45;&gt;ssh2</title>
<path fill="none" stroke="black" stroke-dasharray="1,5" d="M930.108,-111.116C924.032,-102.255 916.34,-91.0373 909.536,-81.1152"/>
<polygon fill="black" stroke="black" points="912.391,-79.0892 903.849,-72.8212 906.618,-83.0479 912.391,-79.0892"/>
</g>
<!-- zlib -->
<g id="node12" class="node"><title>zlib</title>
<ellipse fill="none" stroke="black" cx="965" cy="-56" rx="27" ry="18"/>
<text text-anchor="middle" x="965" y="-53" font-family="Courier,monospace" font-size="10.00">zlib</text>
</g>
<!-- curl&#45;&gt;zlib -->
<g id="edge35" class="edge"><title>curl&#45;&gt;zlib</title>
<path fill="none" stroke="black" stroke-dasharray="1,5" d="M946.81,-110.055C949.551,-102.059 952.887,-92.3308 955.949,-83.3995"/>
<polygon fill="black" stroke="black" points="959.311,-84.3836 959.244,-73.789 952.69,-82.1133 959.311,-84.3836"/>
</g>
<!-- gmp -->
<g id="node3" class="node"><title>gmp</title>
<ellipse fill="none" stroke="black" cx="773" cy="-200" rx="27" ry="18"/>
<text text-anchor="middle" x="773" y="-197" font-family="Courier,monospace" font-size="10.00">gmp</text>
</g>
<!-- Jsoncpp -->
<g id="node4" class="node"><title>Jsoncpp</title>
<ellipse fill="none" stroke="black" cx="644" cy="-128" rx="33.2355" ry="18"/>
<text text-anchor="middle" x="644" y="-125" font-family="Courier,monospace" font-size="10.00">Jsoncpp</text>
</g>
<!-- json&#45;rpc&#45;cpp -->
<g id="node5" class="node"><title>json&#45;rpc&#45;cpp</title>
<ellipse fill="none" stroke="black" cx="941" cy="-200" rx="50.2226" ry="18"/>
<text text-anchor="middle" x="941" y="-197" font-family="Courier,monospace" font-size="10.00">json&#45;rpc&#45;cpp</text>
</g>
<!-- json&#45;rpc&#45;cpp&#45;&gt;curl -->
<g id="edge36" class="edge"><title>json&#45;rpc&#45;cpp&#45;&gt;curl</title>
<path fill="none" stroke="black" d="M941,-181.697C941,-173.983 941,-164.712 941,-156.112"/>
<polygon fill="black" stroke="black" points="944.5,-156.104 941,-146.104 937.5,-156.104 944.5,-156.104"/>
</g>
<!-- json&#45;rpc&#45;cpp&#45;&gt;Jsoncpp -->
<g id="edge37" class="edge"><title>json&#45;rpc&#45;cpp&#45;&gt;Jsoncpp</title>
<path fill="none" stroke="black" d="M911.535,-185.296C901.95,-181.225 891.161,-177.046 881,-174 814.285,-154.003 734.237,-140.997 686.33,-134.338"/>
<polygon fill="black" stroke="black" points="686.703,-130.856 676.322,-132.974 685.758,-137.792 686.703,-130.856"/>
</g>
<!-- microhttpd -->
<g id="node9" class="node"><title>microhttpd</title>
<ellipse fill="none" stroke="black" cx="852" cy="-128" rx="43.3279" ry="18"/>
<text text-anchor="middle" x="852" y="-125" font-family="Courier,monospace" font-size="10.00">microhttpd</text>
</g>
<!-- json&#45;rpc&#45;cpp&#45;&gt;microhttpd -->
<g id="edge38" class="edge"><title>json&#45;rpc&#45;cpp&#45;&gt;microhttpd</title>
<path fill="none" stroke="black" d="M920.805,-183.116C908.573,-173.495 892.807,-161.095 879.453,-150.593"/>
<polygon fill="black" stroke="black" points="881.528,-147.771 871.504,-144.34 877.2,-153.273 881.528,-147.771"/>
</g>
<!-- LevelDB -->
<g id="node6" class="node"><title>LevelDB</title>
<ellipse fill="none" stroke="black" cx="531" cy="-200" rx="33.2355" ry="18"/>
<text text-anchor="middle" x="531" y="-197" font-family="Courier,monospace" font-size="10.00">LevelDB</text>
</g>
<!-- llvm -->
<g id="node7" class="node"><title>llvm</title>
<ellipse fill="none" stroke="black" cx="845" cy="-200" rx="27" ry="18"/>
<text text-anchor="middle" x="845" y="-197" font-family="Courier,monospace" font-size="10.00">llvm</text>
</g>
<!-- pthreads -->
<g id="node10" class="node"><title>pthreads</title>
<ellipse fill="none" stroke="black" cx="691" cy="-200" rx="36.433" ry="18"/>
<text text-anchor="middle" x="691" y="-197" font-family="Courier,monospace" font-size="10.00">pthreads</text>
</g>
<!-- json_spirit -->
<g id="node13" class="node"><title>json_spirit</title>
<ellipse fill="none" stroke="red" cx="395" cy="-200" rx="47.0244" ry="18"/>
<text text-anchor="middle" x="395" y="-197" font-family="Courier,monospace" font-size="10.00">json_spirit</text>
</g>
<!-- scrypt -->
<g id="node14" class="node"><title>scrypt</title>
<ellipse fill="none" stroke="red" cx="346" cy="-346" rx="30.0384" ry="18"/>
<text text-anchor="middle" x="346" y="-343" font-family="Courier,monospace" font-size="10.00">scrypt</text>
</g>
<!-- secp256k1 -->
<g id="node15" class="node"><title>secp256k1</title>
<ellipse fill="none" stroke="red" cx="434" cy="-346" rx="40.13" ry="18"/>
<text text-anchor="middle" x="434" y="-343" font-family="Courier,monospace" font-size="10.00">secp256k1</text>
</g>
<!-- secp256k1&#45;&gt;gmp -->
<g id="edge44" class="edge"><title>secp256k1&#45;&gt;gmp</title>
<path fill="none" stroke="black" d="M458.842,-331.728C497.878,-311.559 576.518,-273.674 648,-256 667.062,-251.287 718.742,-257.367 736,-248 745.348,-242.926 753.139,-234.389 759.122,-225.972"/>
<polygon fill="black" stroke="black" points="762.181,-227.687 764.692,-217.394 756.31,-223.875 762.181,-227.687"/>
</g>
<!-- libevmjit -->
<g id="node16" class="node"><title>libevmjit</title>
<ellipse fill="none" stroke="black" cx="434" cy="-562" rx="40.13" ry="18"/>
<text text-anchor="middle" x="434" y="-559" font-family="Courier,monospace" font-size="10.00">libevmjit</text>
</g>
<!-- libevmjit&#45;&gt;llvm -->
<g id="edge45" class="edge"><title>libevmjit&#45;&gt;llvm</title>
<path fill="none" stroke="black" d="M471.394,-555.267C536.077,-542.998 662,-507.719 662,-419 662,-419 662,-419 662,-345 662,-266.725 751.739,-301.368 809,-248 816.134,-241.351 822.924,-233.175 828.646,-225.517"/>
<polygon fill="black" stroke="black" points="831.85,-227.055 834.829,-216.888 826.16,-222.978 831.85,-227.055"/>
</g>
<!-- bench -->
<g id="node17" class="node"><title>bench</title>
<ellipse fill="none" stroke="black" cx="257" cy="-490" rx="27" ry="18"/>
<text text-anchor="middle" x="257" y="-487" font-family="Courier,monospace" font-size="10.00">bench</text>
</g>
<!-- devcrypto -->
<g id="node18" class="node"><title>devcrypto</title>
<ellipse fill="none" stroke="black" cx="297" cy="-418" rx="40.13" ry="18"/>
<text text-anchor="middle" x="297" y="-415" font-family="Courier,monospace" font-size="10.00">devcrypto</text>
</g>
<!-- bench&#45;&gt;devcrypto -->
<g id="edge1" class="edge"><title>bench&#45;&gt;devcrypto</title>
<path fill="none" stroke="black" d="M266.277,-472.765C271.055,-464.404 276.991,-454.016 282.368,-444.606"/>
<polygon fill="black" stroke="black" points="285.573,-446.052 287.495,-435.633 279.495,-442.579 285.573,-446.052"/>
</g>
<!-- devcrypto&#45;&gt;scrypt -->
<g id="edge2" class="edge"><title>devcrypto&#45;&gt;scrypt</title>
<path fill="none" stroke="black" d="M308.612,-400.411C314.679,-391.744 322.22,-380.971 328.937,-371.375"/>
<polygon fill="black" stroke="black" points="331.941,-373.188 334.808,-362.988 326.206,-369.173 331.941,-373.188"/>
</g>
<!-- devcrypto&#45;&gt;secp256k1 -->
<g id="edge3" class="edge"><title>devcrypto&#45;&gt;secp256k1</title>
<path fill="none" stroke="black" d="M322.448,-403.998C344.035,-392.968 375.215,-377.036 399.126,-364.819"/>
<polygon fill="black" stroke="black" points="400.911,-367.837 408.224,-360.17 397.726,-361.604 400.911,-367.837"/>
</g>
<!-- devcore -->
<g id="node19" class="node"><title>devcore</title>
<ellipse fill="none" stroke="black" cx="173" cy="-346" rx="33.2355" ry="18"/>
<text text-anchor="middle" x="173" y="-343" font-family="Courier,monospace" font-size="10.00">devcore</text>
</g>
<!-- devcrypto&#45;&gt;devcore -->
<g id="edge4" class="edge"><title>devcrypto&#45;&gt;devcore</title>
<path fill="none" stroke="black" d="M273.092,-403.503C253.386,-392.379 225.299,-376.524 203.891,-364.438"/>
<polygon fill="black" stroke="black" points="205.598,-361.383 195.169,-359.515 202.156,-367.478 205.598,-361.383"/>
</g>
<!-- Cryptopp -->
<g id="node20" class="node"><title>Cryptopp</title>
<ellipse fill="none" stroke="black" cx="261" cy="-346" rx="36.433" ry="18"/>
<text text-anchor="middle" x="261" y="-343" font-family="Courier,monospace" font-size="10.00">Cryptopp</text>
</g>
<!-- devcrypto&#45;&gt;Cryptopp -->
<g id="edge5" class="edge"><title>devcrypto&#45;&gt;Cryptopp</title>
<path fill="none" stroke="black" d="M288.285,-400.055C284.085,-391.887 278.955,-381.912 274.281,-372.824"/>
<polygon fill="black" stroke="black" points="277.32,-371.081 269.634,-363.789 271.095,-374.283 277.32,-371.081"/>
</g>
<!-- base -->
<g id="node35" class="node"><title>base</title>
<ellipse fill="none" stroke="black" cx="447" cy="-274" rx="27" ry="18"/>
<text text-anchor="middle" x="447" y="-271" font-family="Courier,monospace" font-size="10.00">base</text>
</g>
<!-- devcore&#45;&gt;base -->
<g id="edge21" class="edge"><title>devcore&#45;&gt;base</title>
<path fill="none" stroke="black" d="M198.08,-334.087C203.595,-331.903 209.447,-329.746 215,-328 283.194,-306.561 365.185,-289.891 411.172,-281.338"/>
<polygon fill="black" stroke="black" points="412.037,-284.738 421.24,-279.488 410.772,-277.853 412.037,-284.738"/>
</g>
<!-- eth -->
<g id="node21" class="node"><title>eth</title>
<ellipse fill="none" stroke="black" cx="386" cy="-922" rx="27" ry="18"/>
<text text-anchor="middle" x="386" y="-919" font-family="Courier,monospace" font-size="10.00">eth</text>
</g>
<!-- web3jsonrpc -->
<g id="node22" class="node"><title>web3jsonrpc</title>
<ellipse fill="none" stroke="black" cx="386" cy="-850" rx="47.0244" ry="18"/>
<text text-anchor="middle" x="386" y="-847" font-family="Courier,monospace" font-size="10.00">web3jsonrpc</text>
</g>
<!-- eth&#45;&gt;web3jsonrpc -->
<g id="edge6" class="edge"><title>eth&#45;&gt;web3jsonrpc</title>
<path fill="none" stroke="black" d="M386,-903.697C386,-895.983 386,-886.712 386,-878.112"/>
<polygon fill="black" stroke="black" points="389.5,-878.104 386,-868.104 382.5,-878.104 389.5,-878.104"/>
</g>
<!-- web3jsonrpc&#45;&gt;json&#45;rpc&#45;cpp -->
<g id="edge7" class="edge"><title>web3jsonrpc&#45;&gt;json&#45;rpc&#45;cpp</title>
<path fill="none" stroke="black" d="M432.455,-846.593C562.374,-838.604 920,-807.487 920,-707 920,-707 920,-707 920,-345 920,-304.004 928.437,-257.122 934.616,-228.289"/>
<polygon fill="black" stroke="black" points="938.111,-228.691 936.851,-218.171 931.276,-227.181 938.111,-228.691"/>
</g>
<!-- webthree -->
<g id="node23" class="node"><title>webthree</title>
<ellipse fill="none" stroke="black" cx="345" cy="-778" rx="36.433" ry="18"/>
<text text-anchor="middle" x="345" y="-775" font-family="Courier,monospace" font-size="10.00">webthree</text>
</g>
<!-- web3jsonrpc&#45;&gt;webthree -->
<g id="edge8" class="edge"><title>web3jsonrpc&#45;&gt;webthree</title>
<path fill="none" stroke="black" d="M376.075,-832.055C371.24,-823.801 365.325,-813.701 359.958,-804.538"/>
<polygon fill="black" stroke="black" points="362.908,-802.649 354.834,-795.789 356.868,-806.187 362.908,-802.649"/>
</g>
<!-- ethashseal -->
<g id="node24" class="node"><title>ethashseal</title>
<ellipse fill="none" stroke="black" cx="295" cy="-706" rx="43.3279" ry="18"/>
<text text-anchor="middle" x="295" y="-703" font-family="Courier,monospace" font-size="10.00">ethashseal</text>
</g>
<!-- webthree&#45;&gt;ethashseal -->
<g id="edge9" class="edge"><title>webthree&#45;&gt;ethashseal</title>
<path fill="none" stroke="black" d="M333.403,-760.765C327.307,-752.23 319.702,-741.582 312.871,-732.019"/>
<polygon fill="black" stroke="black" points="315.541,-729.736 306.881,-723.633 309.845,-733.805 315.541,-729.736"/>
</g>
<!-- whisper -->
<g id="node25" class="node"><title>whisper</title>
<ellipse fill="none" stroke="black" cx="399" cy="-706" rx="33.2355" ry="18"/>
<text text-anchor="middle" x="399" y="-703" font-family="Courier,monospace" font-size="10.00">whisper</text>
</g>
<!-- webthree&#45;&gt;whisper -->
<g id="edge10" class="edge"><title>webthree&#45;&gt;whisper</title>
<path fill="none" stroke="black" d="M357.524,-760.765C364.272,-752.018 372.731,-741.052 380.248,-731.308"/>
<polygon fill="black" stroke="black" points="383.207,-733.203 386.544,-723.147 377.664,-728.927 383.207,-733.203"/>
</g>
<!-- ethereum -->
<g id="node30" class="node"><title>ethereum</title>
<ellipse fill="none" stroke="black" cx="287" cy="-634" rx="36.433" ry="18"/>
<text text-anchor="middle" x="287" y="-631" font-family="Courier,monospace" font-size="10.00">ethereum</text>
</g>
<!-- ethashseal&#45;&gt;ethereum -->
<g id="edge17" class="edge"><title>ethashseal&#45;&gt;ethereum</title>
<path fill="none" stroke="black" d="M293.022,-687.697C292.141,-679.983 291.081,-670.712 290.099,-662.112"/>
<polygon fill="black" stroke="black" points="293.568,-661.642 288.955,-652.104 286.613,-662.437 293.568,-661.642"/>
</g>
<!-- ethash&#45;cl -->
<g id="node32" class="node"><title>ethash&#45;cl</title>
<ellipse fill="none" stroke="black" cx="192" cy="-634" rx="40.13" ry="18"/>
<text text-anchor="middle" x="192" y="-631" font-family="Courier,monospace" font-size="10.00">ethash&#45;cl</text>
</g>
<!-- ethashseal&#45;&gt;ethash&#45;cl -->
<g id="edge18" class="edge"><title>ethashseal&#45;&gt;ethash&#45;cl</title>
<path fill="none" stroke="black" stroke-dasharray="1,5" d="M273.156,-690.155C258.209,-679.996 238.205,-666.401 221.798,-655.251"/>
<polygon fill="black" stroke="black" points="223.346,-652.071 213.108,-649.345 219.411,-657.861 223.346,-652.071"/>
</g>
<!-- Cpuid -->
<g id="node33" class="node"><title>Cpuid</title>
<ellipse fill="none" stroke="black" cx="369" cy="-634" rx="27" ry="18"/>
<text text-anchor="middle" x="369" y="-631" font-family="Courier,monospace" font-size="10.00">Cpuid</text>
</g>
<!-- ethashseal&#45;&gt;Cpuid -->
<g id="edge19" class="edge"><title>ethashseal&#45;&gt;Cpuid</title>
<path fill="none" stroke="black" stroke-dasharray="1,5" d="M311.792,-689.116C322.047,-679.415 335.291,-666.887 346.453,-656.329"/>
<polygon fill="black" stroke="black" points="348.925,-658.807 353.785,-649.393 344.115,-653.722 348.925,-658.807"/>
</g>
<!-- p2p -->
<g id="node28" class="node"><title>p2p</title>
<ellipse fill="none" stroke="black" cx="349" cy="-562" rx="27" ry="18"/>
<text text-anchor="middle" x="349" y="-559" font-family="Courier,monospace" font-size="10.00">p2p</text>
</g>
<!-- whisper&#45;&gt;p2p -->
<g id="edge31" class="edge"><title>whisper&#45;&gt;p2p</title>
<path fill="none" stroke="black" d="M404.565,-688.155C409.69,-669.659 415.102,-639.471 405,-616 399.054,-602.185 387.539,-590.287 376.49,-581.285"/>
<polygon fill="black" stroke="black" points="378.304,-578.266 368.232,-574.981 374.057,-583.831 378.304,-578.266"/>
</g>
<!-- ethcore -->
<g id="node26" class="node"><title>ethcore</title>
<ellipse fill="none" stroke="black" cx="81" cy="-490" rx="33.2355" ry="18"/>
<text text-anchor="middle" x="81" y="-487" font-family="Courier,monospace" font-size="10.00">ethcore</text>
</g>
<!-- ethcore&#45;&gt;devcrypto -->
<g id="edge12" class="edge"><title>ethcore&#45;&gt;devcrypto</title>
<path fill="none" stroke="black" d="M108.796,-479.992C146.111,-467.899 212.689,-446.323 255.829,-432.342"/>
<polygon fill="black" stroke="black" points="257.025,-435.634 265.459,-429.222 254.867,-428.975 257.025,-435.634"/>
</g>
<!-- buildinfo -->
<g id="node27" class="node"><title>buildinfo</title>
<ellipse fill="none" stroke="black" cx="81" cy="-418" rx="40.13" ry="18"/>
<text text-anchor="middle" x="81" y="-415" font-family="Courier,monospace" font-size="10.00">buildinfo</text>
</g>
<!-- ethcore&#45;&gt;buildinfo -->
<g id="edge11" class="edge"><title>ethcore&#45;&gt;buildinfo</title>
<path fill="none" stroke="black" d="M81,-471.697C81,-463.983 81,-454.712 81,-446.112"/>
<polygon fill="black" stroke="black" points="84.5001,-446.104 81,-436.104 77.5001,-446.104 84.5001,-446.104"/>
</g>
<!-- p2p&#45;&gt;devcrypto -->
<g id="edge13" class="edge"><title>p2p&#45;&gt;devcrypto</title>
<path fill="none" stroke="black" d="M357.629,-544.75C366.192,-526.254 376.507,-495.557 365,-472 357.954,-457.576 344.877,-445.935 332.059,-437.277"/>
<polygon fill="black" stroke="black" points="333.63,-434.131 323.303,-431.763 329.899,-440.054 333.63,-434.131"/>
</g>
<!-- Miniupnpc -->
<g id="node29" class="node"><title>Miniupnpc</title>
<ellipse fill="none" stroke="black" cx="434" cy="-490" rx="40.13" ry="18"/>
<text text-anchor="middle" x="434" y="-487" font-family="Courier,monospace" font-size="10.00">Miniupnpc</text>
</g>
<!-- p2p&#45;&gt;Miniupnpc -->
<g id="edge14" class="edge"><title>p2p&#45;&gt;Miniupnpc</title>
<path fill="none" stroke="black" stroke-dasharray="1,5" d="M365.389,-547.503C377.406,-537.606 393.972,-523.964 407.815,-512.564"/>
<polygon fill="black" stroke="black" points="410.101,-515.215 415.596,-506.157 405.651,-509.812 410.101,-515.215"/>
</g>
<!-- ethereum&#45;&gt;libevmjit -->
<g id="edge46" class="edge"><title>ethereum&#45;&gt;libevmjit</title>
<path fill="none" stroke="black" stroke-dasharray="1,5" d="M312.27,-620.967C335.958,-609.687 371.612,-592.709 398.219,-580.039"/>
<polygon fill="black" stroke="black" points="400.05,-583.043 407.573,-575.584 397.04,-576.723 400.05,-583.043"/>
</g>
<!-- ethereum&#45;&gt;p2p -->
<g id="edge15" class="edge"><title>ethereum&#45;&gt;p2p</title>
<path fill="none" stroke="black" d="M301.069,-617.116C309.382,-607.73 320.039,-595.698 329.192,-585.364"/>
<polygon fill="black" stroke="black" points="331.824,-587.67 335.835,-577.864 326.584,-583.029 331.824,-587.67"/>
</g>
<!-- evm -->
<g id="node31" class="node"><title>evm</title>
<ellipse fill="none" stroke="black" cx="277" cy="-562" rx="27" ry="18"/>
<text text-anchor="middle" x="277" y="-559" font-family="Courier,monospace" font-size="10.00">evm</text>
</g>
<!-- ethereum&#45;&gt;evm -->
<g id="edge16" class="edge"><title>ethereum&#45;&gt;evm</title>
<path fill="none" stroke="black" d="M284.528,-615.697C283.426,-607.983 282.102,-598.712 280.873,-590.112"/>
<polygon fill="black" stroke="black" points="284.323,-589.509 279.443,-580.104 277.393,-590.499 284.323,-589.509"/>
</g>
<!-- evm&#45;&gt;ethcore -->
<g id="edge27" class="edge"><title>evm&#45;&gt;ethcore</title>
<path fill="none" stroke="black" d="M255.885,-550.457C251.047,-548.203 245.888,-545.923 241,-544 191.95,-524.704 177.904,-524.967 128,-508 124.509,-506.813 120.881,-505.551 117.259,-504.273"/>
<polygon fill="black" stroke="black" points="118.375,-500.955 107.78,-500.889 116.021,-507.547 118.375,-500.955"/>
</g>
<!-- evmjit -->
<g id="node40" class="node"><title>evmjit</title>
<ellipse fill="none" stroke="black" cx="182" cy="-490" rx="30.0384" ry="18"/>
<text text-anchor="middle" x="182" y="-487" font-family="Courier,monospace" font-size="10.00">evmjit</text>
</g>
<!-- evm&#45;&gt;evmjit -->
<g id="edge28" class="edge"><title>evm&#45;&gt;evmjit</title>
<path fill="none" stroke="black" stroke-dasharray="1,5" d="M259.576,-548.161C245.253,-537.607 224.732,-522.487 208.393,-510.448"/>
<polygon fill="black" stroke="black" points="210.412,-507.588 200.285,-504.473 206.26,-513.223 210.412,-507.588"/>
</g>
<!-- evmcore -->
<g id="node41" class="node"><title>evmcore</title>
<ellipse fill="none" stroke="black" cx="173" cy="-418" rx="33.2355" ry="18"/>
<text text-anchor="middle" x="173" y="-415" font-family="Courier,monospace" font-size="10.00">evmcore</text>
</g>
<!-- evm&#45;&gt;evmcore -->
<g id="edge29" class="edge"><title>evm&#45;&gt;evmcore</title>
<path fill="none" stroke="black" d="M255.821,-550.615C250.986,-548.352 245.845,-546.029 241,-544 198.201,-526.075 169.558,-546.049 143,-508 129.304,-488.378 141.17,-462.004 153.792,-443.069"/>
<polygon fill="black" stroke="black" points="156.807,-444.867 159.746,-434.688 151.101,-440.812 156.807,-444.867"/>
</g>
<!-- ethash -->
<g id="node38" class="node"><title>ethash</title>
<ellipse fill="none" stroke="black" cx="202" cy="-562" rx="30.0384" ry="18"/>
<text text-anchor="middle" x="202" y="-559" font-family="Courier,monospace" font-size="10.00">ethash</text>
</g>
<!-- ethash&#45;cl&#45;&gt;ethash -->
<g id="edge25" class="edge"><title>ethash&#45;cl&#45;&gt;ethash</title>
<path fill="none" stroke="black" d="M194.472,-615.697C195.574,-607.983 196.898,-598.712 198.127,-590.112"/>
<polygon fill="black" stroke="black" points="201.607,-590.499 199.557,-580.104 194.677,-589.509 201.607,-590.499"/>
</g>
<!-- OpenCL -->
<g id="node39" class="node"><title>OpenCL</title>
<ellipse fill="none" stroke="black" cx="46" cy="-562" rx="30.0384" ry="18"/>
<text text-anchor="middle" x="46" y="-559" font-family="Courier,monospace" font-size="10.00">OpenCL</text>
</g>
<!-- ethash&#45;cl&#45;&gt;OpenCL -->
<g id="edge26" class="edge"><title>ethash&#45;cl&#45;&gt;OpenCL</title>
<path fill="none" stroke="black" d="M165.561,-620.324C140.97,-608.534 104.281,-590.943 78.0373,-578.36"/>
<polygon fill="black" stroke="black" points="79.4131,-575.139 68.8827,-573.971 76.3867,-581.451 79.4131,-575.139"/>
</g>
<!-- ethkey -->
<g id="node34" class="node"><title>ethkey</title>
<ellipse fill="none" stroke="black" cx="124" cy="-562" rx="30.0384" ry="18"/>
<text text-anchor="middle" x="124" y="-559" font-family="Courier,monospace" font-size="10.00">ethkey</text>
</g>
<!-- ethkey&#45;&gt;ethcore -->
<g id="edge20" class="edge"><title>ethkey&#45;&gt;ethcore</title>
<path fill="none" stroke="black" d="M114.027,-544.765C108.838,-536.317 102.377,-525.799 96.5489,-516.312"/>
<polygon fill="black" stroke="black" points="99.4342,-514.322 91.2177,-507.633 93.4696,-517.986 99.4342,-514.322"/>
</g>
<!-- base&#45;&gt;boost -->
<g id="edge39" class="edge"><title>base&#45;&gt;boost</title>
<path fill="none" stroke="black" d="M474.085,-273.042C501.058,-271.902 542.702,-266.848 573,-248 581.716,-242.577 589.111,-234.232 594.889,-226.07"/>
<polygon fill="black" stroke="black" points="597.989,-227.723 600.509,-217.432 592.122,-223.905 597.989,-227.723"/>
</g>
<!-- base&#45;&gt;Jsoncpp -->
<g id="edge40" class="edge"><title>base&#45;&gt;Jsoncpp</title>
<path fill="none" stroke="black" d="M449.615,-256.053C453.912,-233.99 464.567,-195.693 489,-174 519.953,-146.519 566.793,-135.769 600.88,-131.592"/>
<polygon fill="black" stroke="black" points="601.452,-135.051 611.017,-130.495 600.699,-128.091 601.452,-135.051"/>
</g>
<!-- base&#45;&gt;LevelDB -->
<g id="edge41" class="edge"><title>base&#45;&gt;LevelDB</title>
<path fill="none" stroke="black" d="M466.674,-261.66C473.064,-257.648 480.038,-252.906 486,-248 494.635,-240.893 503.322,-232.254 510.728,-224.331"/>
<polygon fill="black" stroke="black" points="513.508,-226.477 517.659,-216.729 508.335,-221.761 513.508,-226.477"/>
</g>
<!-- base&#45;&gt;pthreads -->
<g id="edge42" class="edge"><title>base&#45;&gt;pthreads</title>
<path fill="none" stroke="black" d="M473.145,-269.098C497.826,-265.476 535.886,-260.049 569,-256 585.857,-253.939 629.712,-255.395 645,-248 655.86,-242.747 665.591,-233.825 673.275,-225.156"/>
<polygon fill="black" stroke="black" points="676.037,-227.309 679.731,-217.379 670.651,-222.838 676.037,-227.309"/>
</g>
<!-- base&#45;&gt;json_spirit -->
<g id="edge43" class="edge"><title>base&#45;&gt;json_spirit</title>
<path fill="none" stroke="black" d="M435.717,-257.377C429.089,-248.201 420.56,-236.39 413.021,-225.952"/>
<polygon fill="black" stroke="black" points="415.677,-223.652 406.985,-217.595 410.002,-227.751 415.677,-223.652"/>
</g>
<!-- ethminer -->
<g id="node36" class="node"><title>ethminer</title>
<ellipse fill="none" stroke="black" cx="437" cy="-778" rx="36.433" ry="18"/>
<text text-anchor="middle" x="437" y="-775" font-family="Courier,monospace" font-size="10.00">ethminer</text>
</g>
<!-- ethminer&#45;&gt;json&#45;rpc&#45;cpp -->
<g id="edge22" class="edge"><title>ethminer&#45;&gt;json&#45;rpc&#45;cpp</title>
<path fill="none" stroke="black" d="M472.141,-772.942C573.966,-760.217 862,-716.976 862,-635 862,-635 862,-635 862,-345 862,-297.968 894.793,-251.765 918.123,-224.846"/>
<polygon fill="black" stroke="black" points="920.963,-226.921 925.013,-217.131 915.742,-222.259 920.963,-226.921"/>
</g>
<!-- ethminer&#45;&gt;ethashseal -->
<g id="edge23" class="edge"><title>ethminer&#45;&gt;ethashseal</title>
<path fill="none" stroke="black" d="M411.94,-764.647C389.63,-753.649 356.715,-737.423 331.485,-724.985"/>
<polygon fill="black" stroke="black" points="332.746,-721.705 322.229,-720.423 329.651,-727.984 332.746,-721.705"/>
</g>
<!-- ethvm -->
<g id="node37" class="node"><title>ethvm</title>
<ellipse fill="none" stroke="black" cx="263" cy="-778" rx="27" ry="18"/>
<text text-anchor="middle" x="263" y="-775" font-family="Courier,monospace" font-size="10.00">ethvm</text>
</g>
<!-- ethvm&#45;&gt;ethashseal -->
<g id="edge24" class="edge"><title>ethvm&#45;&gt;ethashseal</title>
<path fill="none" stroke="black" d="M270.584,-760.411C274.315,-752.249 278.899,-742.22 283.084,-733.065"/>
<polygon fill="black" stroke="black" points="286.274,-734.506 287.249,-723.956 279.908,-731.596 286.274,-734.506"/>
</g>
<!-- evmcore&#45;&gt;devcore -->
<g id="edge30" class="edge"><title>evmcore&#45;&gt;devcore</title>
<path fill="none" stroke="black" d="M173,-399.697C173,-391.983 173,-382.712 173,-374.112"/>
<polygon fill="black" stroke="black" points="176.5,-374.104 173,-364.104 169.5,-374.104 176.5,-374.104"/>
</g>
<!-- rlp -->
<g id="node42" class="node"><title>rlp</title>
<ellipse fill="none" stroke="black" cx="329" cy="-490" rx="27" ry="18"/>
<text text-anchor="middle" x="329" y="-487" font-family="Courier,monospace" font-size="10.00">rlp</text>
</g>
<!-- rlp&#45;&gt;devcrypto -->
<g id="edge32" class="edge"><title>rlp&#45;&gt;devcrypto</title>
<path fill="none" stroke="black" d="M321.416,-472.411C317.685,-464.249 313.101,-454.22 308.916,-445.065"/>
<polygon fill="black" stroke="black" points="312.092,-443.596 304.751,-435.956 305.726,-446.506 312.092,-443.596"/>
</g>
</g>
</svg>
