<?xml version="1.0" encoding="UTF-8" standalone="no"?>
<!DOCTYPE svg PUBLIC "-//W3C//DTD SVG 1.1//EN"
 "http://www.w3.org/Graphics/SVG/1.1/DTD/svg11.dtd">
<!-- Generated by graphviz version 2.36.0 (20140111.2315)
 -->
<!-- Title: webthree Pages: 1 -->
<svg width="1032pt" height="856pt"
 viewBox="0.00 0.00 1032.00 856.00" xmlns="http://www.w3.org/2000/svg" xmlns:xlink="http://www.w3.org/1999/xlink">
<g id="graph0" class="graph" transform="scale(1 1) rotate(0) translate(4 852)">
<title>webthree</title>
<polygon fill="white" stroke="none" points="-4,4 -4,-852 1028,-852 1028,4 -4,4"/>
<text text-anchor="middle" x="512" y="-6.8" font-family="Times,serif" font-size="14.00">webthree dependencies</text>
<g id="clust1" class="cluster"><title>cluster_webthree_helpers</title>
<polygon fill="LemonChiffon" stroke="black" points="253,-86 253,-160 711,-160 711,-86 253,-86"/>
<text text-anchor="start" x="394.35" y="-144.8" font-family="Times,serif" font-size="14.00">webthree&#45;helpers dependencies</text>
</g>
<g id="clust3" class="cluster"><title>cluster_alethzero</title>
<polygon fill="LightGray" stroke="black" points="420,-766 420,-840 748,-840 748,-766 420,-766"/>
<text text-anchor="start" x="518.898" y="-824.8" font-family="Times,serif" font-size="14.00">alethzero dependencies</text>
</g>
<g id="clust8" class="cluster"><title>cluster_libethereum</title>
<polygon fill="LavenderBlush" stroke="black" points="624,-240 624,-758 916,-758 916,-240 624,-240"/>
<text text-anchor="start" x="697.115" y="-742.8" font-family="Times,serif" font-size="14.00">libethereum dependencies</text>
</g>
<g id="clust9" class="cluster"><title>cluster_libweb3core</title>
<polygon fill="AliceBlue" stroke="black" points="184,-168 184,-458 398,-458 398,-168 184,-168"/>
<text text-anchor="start" x="216.95" y="-442.8" font-family="Times,serif" font-size="14.00">libweb3core dependencies</text>
</g>
<g id="clust10" class="cluster"><title>cluster_mix</title>
<polygon fill="LightGray" stroke="black" points="296,-766 296,-840 412,-840 412,-766 296,-766"/>
<text text-anchor="start" x="303.657" y="-824.8" font-family="Times,serif" font-size="14.00">mix dependencies</text>
</g>
<g id="clust12" class="cluster"><title>cluster_solidity</title>
<polygon fill="WhiteSmoke" stroke="black" points="322,-466 322,-612 552,-612 552,-466 322,-466"/>
<text text-anchor="start" x="376.543" y="-596.8" font-family="Times,serif" font-size="14.00">solidity dependencies</text>
</g>
<g id="clust14" class="cluster"><title>cluster_webthree</title>
<polygon fill="Honeydew" stroke="black" points="8,-538 8,-840 288,-840 288,-538 8,-538"/>
<text text-anchor="middle" x="148" y="-824.8" font-family="Times,serif" font-size="14.00">webthree dependencies</text>
</g>
<!-- buildinfo -->
<g id="node1" class="node"><title>buildinfo</title>
<ellipse fill="none" stroke="black" cx="663" cy="-112" rx="40.13" ry="18"/>
<text text-anchor="middle" x="663" y="-109" font-family="Courier,monospace" font-size="10.00">buildinfo</text>
</g>
<!-- base -->
<g id="node2" class="node"><title>base</title>
<ellipse fill="none" stroke="black" cx="366" cy="-112" rx="27" ry="18"/>
<text text-anchor="middle" x="366" y="-109" font-family="Courier,monospace" font-size="10.00">base</text>
</g>
<!-- boost -->
<g id="node47" class="node"><title>boost</title>
<ellipse fill="none" stroke="black" cx="387" cy="-40" rx="27" ry="18"/>
<text text-anchor="middle" x="387" y="-37" font-family="Courier,monospace" font-size="10.00">boost</text>
</g>
<!-- base&#45;&gt;boost -->
<g id="edge2" class="edge"><title>base&#45;&gt;boost</title>
<path fill="none" stroke="black" d="M371.084,-94.055C373.482,-86.0586 376.401,-76.3308 379.08,-67.3995"/>
<polygon fill="black" stroke="black" points="382.442,-68.373 381.963,-57.789 375.737,-66.3615 382.442,-68.373"/>
</g>
<!-- Jsoncpp -->
<g id="node48" class="node"><title>Jsoncpp</title>
<ellipse fill="none" stroke="black" cx="465" cy="-40" rx="33.2355" ry="18"/>
<text text-anchor="middle" x="465" y="-37" font-family="Courier,monospace" font-size="10.00">Jsoncpp</text>
</g>
<!-- base&#45;&gt;Jsoncpp -->
<g id="edge3" class="edge"><title>base&#45;&gt;Jsoncpp</title>
<path fill="none" stroke="black" d="M384.158,-98.1609C398.989,-87.6744 420.197,-72.679 437.17,-60.678"/>
<polygon fill="black" stroke="black" points="439.459,-63.3461 445.603,-54.715 435.417,-57.6305 439.459,-63.3461"/>
</g>
<!-- LevelDB -->
<g id="node49" class="node"><title>LevelDB</title>
<ellipse fill="none" stroke="black" cx="217" cy="-40" rx="33.2355" ry="18"/>
<text text-anchor="middle" x="217" y="-37" font-family="Courier,monospace" font-size="10.00">LevelDB</text>
</g>
<!-- base&#45;&gt;LevelDB -->
<g id="edge4" class="edge"><title>base&#45;&gt;LevelDB</title>
<path fill="none" stroke="black" d="M348.938,-97.9488C343.114,-93.8235 336.441,-89.4463 330,-86 300.092,-69.9967 290.499,-70.5858 259,-58 256.781,-57.1135 254.498,-56.198 252.196,-55.2729"/>
<polygon fill="black" stroke="black" points="253.334,-51.9581 242.751,-51.4654 250.717,-58.4505 253.334,-51.9581"/>
</g>
<!-- pthreads -->
<g id="node50" class="node"><title>pthreads</title>
<ellipse fill="none" stroke="black" cx="305" cy="-40" rx="36.433" ry="18"/>
<text text-anchor="middle" x="305" y="-37" font-family="Courier,monospace" font-size="10.00">pthreads</text>
</g>
<!-- base&#45;&gt;pthreads -->
<g id="edge5" class="edge"><title>base&#45;&gt;pthreads</title>
<path fill="none" stroke="black" d="M353.063,-96.1548C345.037,-86.9444 334.549,-74.9092 325.419,-64.4322"/>
<polygon fill="black" stroke="black" points="327.974,-62.0363 318.766,-56.7966 322.697,-66.6352 327.974,-62.0363"/>
</g>
<!-- json_spirit -->
<g id="node3" class="node"><title>json_spirit</title>
<ellipse fill="none" stroke="black" cx="458" cy="-112" rx="47.0244" ry="18"/>
<text text-anchor="middle" x="458" y="-109" font-family="Courier,monospace" font-size="10.00">json_spirit</text>
</g>
<!-- scrypt -->
<g id="node4" class="node"><title>scrypt</title>
<ellipse fill="none" stroke="black" cx="291" cy="-112" rx="30.0384" ry="18"/>
<text text-anchor="middle" x="291" y="-109" font-family="Courier,monospace" font-size="10.00">scrypt</text>
</g>
<!-- secp256k1 -->
<g id="node5" class="node"><title>secp256k1</title>
<ellipse fill="none" stroke="black" cx="564" cy="-112" rx="40.13" ry="18"/>
<text text-anchor="middle" x="564" y="-109" font-family="Courier,monospace" font-size="10.00">secp256k1</text>
</g>
<!-- gmp -->
<g id="node51" class="node"><title>gmp</title>
<ellipse fill="none" stroke="black" cx="564" cy="-40" rx="27" ry="18"/>
<text text-anchor="middle" x="564" y="-37" font-family="Courier,monospace" font-size="10.00">gmp</text>
</g>
<!-- secp256k1&#45;&gt;gmp -->
<g id="edge6" class="edge"><title>secp256k1&#45;&gt;gmp</title>
<path fill="none" stroke="black" d="M564,-93.6966C564,-85.9827 564,-76.7125 564,-68.1124"/>
<polygon fill="black" stroke="black" points="567.5,-68.1043 564,-58.1043 560.5,-68.1044 567.5,-68.1043"/>
</g>
<!-- AlethFive -->
<g id="node6" class="node"><title>AlethFive</title>
<polygon fill="none" stroke="black" stroke-width="2" points="658.007,-810 587.993,-810 587.993,-774 658.007,-774 658.007,-810"/>
<text text-anchor="middle" x="623" y="-789" font-family="Courier,monospace" font-size="10.00">AlethFive</text>
</g>
<!-- ethereum -->
<g id="node10" class="node"><title>ethereum</title>
<ellipse fill="none" stroke="black" cx="669" cy="-492" rx="36.433" ry="18"/>
<text text-anchor="middle" x="669" y="-489" font-family="Courier,monospace" font-size="10.00">ethereum</text>
</g>
<!-- AlethFive&#45;&gt;ethereum -->
<g id="edge8" class="edge"><title>AlethFive&#45;&gt;ethereum</title>
<path fill="none" stroke="black" d="M625.03,-773.973C628.759,-743.182 637.133,-676.219 646,-620 651.437,-585.527 658.772,-545.992 663.683,-520.314"/>
<polygon fill="black" stroke="black" points="667.173,-520.694 665.626,-510.213 660.3,-519.371 667.173,-520.694"/>
</g>
<!-- Qt* -->
<g id="node52" class="node"><title>Qt*</title>
<ellipse fill="none" stroke="black" cx="543" cy="-710" rx="27" ry="18"/>
<text text-anchor="middle" x="543" y="-707" font-family="Courier,monospace" font-size="10.00">Qt*</text>
</g>
<!-- AlethFive&#45;&gt;Qt* -->
<g id="edge7" class="edge"><title>AlethFive&#45;&gt;Qt*</title>
<path fill="none" stroke="black" d="M605.641,-773.641C593.579,-761.579 577.421,-745.421 564.537,-732.537"/>
<polygon fill="black" stroke="black" points="566.931,-729.981 557.385,-725.385 561.981,-734.931 566.931,-729.981"/>
</g>
<!-- AlethOne -->
<g id="node7" class="node"><title>AlethOne</title>
<polygon fill="none" stroke="black" stroke-width="2" points="740.006,-810 675.994,-810 675.994,-774 740.006,-774 740.006,-810"/>
<text text-anchor="middle" x="708" y="-789" font-family="Courier,monospace" font-size="10.00">AlethOne</text>
</g>
<!-- ethashseal -->
<g id="node11" class="node"><title>ethashseal</title>
<ellipse fill="none" stroke="black" cx="747" cy="-564" rx="43.3279" ry="18"/>
<text text-anchor="middle" x="747" y="-561" font-family="Courier,monospace" font-size="10.00">ethashseal</text>
</g>
<!-- AlethOne&#45;&gt;ethashseal -->
<g id="edge10" class="edge"><title>AlethOne&#45;&gt;ethashseal</title>
<path fill="none" stroke="black" d="M677.935,-773.781C672.709,-769.346 667.996,-764.077 665,-758 637.875,-702.991 636.135,-674.117 665,-620 674.037,-603.058 690.865,-590.412 706.936,-581.546"/>
<polygon fill="black" stroke="black" points="708.953,-584.444 716.246,-576.759 705.752,-578.219 708.953,-584.444"/>
</g>
<!-- AlethOne&#45;&gt;Qt* -->
<g id="edge9" class="edge"><title>AlethOne&#45;&gt;Qt*</title>
<path fill="none" stroke="black" d="M683.176,-773.825C678.008,-770.841 672.466,-768.045 667,-766 647.155,-758.574 639.844,-765.431 620,-758 601.659,-751.132 582.864,-739.759 568.435,-729.922"/>
<polygon fill="black" stroke="black" points="570.255,-726.923 560.057,-724.049 566.236,-732.655 570.255,-726.923"/>
</g>
<!-- AlethZero -->
<g id="node8" class="node"><title>AlethZero</title>
<polygon fill="none" stroke="black" stroke-width="2" points="498.007,-810 427.993,-810 427.993,-774 498.007,-774 498.007,-810"/>
<text text-anchor="middle" x="463" y="-789" font-family="Courier,monospace" font-size="10.00">AlethZero</text>
</g>
<!-- natspec -->
<g id="node12" class="node"><title>natspec</title>
<ellipse fill="none" stroke="black" cx="783" cy="-710" rx="33.2355" ry="18"/>
<text text-anchor="middle" x="783" y="-707" font-family="Courier,monospace" font-size="10.00">natspec</text>
</g>
<!-- AlethZero&#45;&gt;natspec -->
<g id="edge13" class="edge"><title>AlethZero&#45;&gt;natspec</title>
<path fill="none" stroke="black" d="M488.139,-773.995C494.086,-770.757 500.574,-767.816 507,-766 532.035,-758.925 717.439,-769.03 741,-758 751.364,-753.148 760.27,-744.417 767.179,-735.785"/>
<polygon fill="black" stroke="black" points="770.047,-737.794 773.173,-727.671 764.416,-733.634 770.047,-737.794"/>
</g>
<!-- web3jsonrpc -->
<g id="node38" class="node"><title>web3jsonrpc</title>
<ellipse fill="none" stroke="black" cx="233" cy="-710" rx="47.0244" ry="18"/>
<text text-anchor="middle" x="233" y="-707" font-family="Courier,monospace" font-size="10.00">web3jsonrpc</text>
</g>
<!-- AlethZero&#45;&gt;web3jsonrpc -->
<g id="edge12" class="edge"><title>AlethZero&#45;&gt;web3jsonrpc</title>
<path fill="none" stroke="black" d="M433.083,-773.964C427.497,-771.107 421.641,-768.321 416,-766 371.834,-747.824 319.468,-732.697 282.093,-722.938"/>
<polygon fill="black" stroke="black" points="282.525,-719.435 271.968,-720.33 280.779,-726.214 282.525,-719.435"/>
</g>
<!-- AlethZero&#45;&gt;Qt* -->
<g id="edge11" class="edge"><title>AlethZero&#45;&gt;Qt*</title>
<path fill="none" stroke="black" d="M480.359,-773.641C492.421,-761.579 508.579,-745.421 521.463,-732.537"/>
<polygon fill="black" stroke="black" points="524.019,-734.931 528.615,-725.385 519.069,-729.981 524.019,-734.931"/>
</g>
<!-- aleth -->
<g id="node9" class="node"><title>aleth</title>
<ellipse fill="none" stroke="black" cx="543" cy="-792" rx="27" ry="18"/>
<text text-anchor="middle" x="543" y="-789" font-family="Courier,monospace" font-size="10.00">aleth</text>
</g>
<!-- aleth&#45;&gt;natspec -->
<g id="edge16" class="edge"><title>aleth&#45;&gt;natspec</title>
<path fill="none" stroke="black" d="M558.788,-777.196C564.728,-772.804 571.797,-768.453 579,-766 613.12,-754.383 708.473,-773.529 741,-758 751.327,-753.069 760.226,-744.324 767.14,-735.703"/>
<polygon fill="black" stroke="black" points="769.999,-737.723 773.142,-727.605 764.376,-733.554 769.999,-737.723"/>
</g>
<!-- aleth&#45;&gt;web3jsonrpc -->
<g id="edge15" class="edge"><title>aleth&#45;&gt;web3jsonrpc</title>
<path fill="none" stroke="black" d="M526.628,-777.524C520.745,-773.27 513.861,-768.921 507,-766 435.348,-735.491 345.832,-721.618 289.021,-715.514"/>
<polygon fill="black" stroke="black" points="289.111,-712.005 278.805,-714.462 288.394,-718.968 289.111,-712.005"/>
</g>
<!-- aleth&#45;&gt;Qt* -->
<g id="edge14" class="edge"><title>aleth&#45;&gt;Qt*</title>
<path fill="none" stroke="black" d="M543,-773.641C543,-763.297 543,-749.941 543,-738.221"/>
<polygon fill="black" stroke="black" points="546.5,-738.05 543,-728.05 539.5,-738.05 546.5,-738.05"/>
</g>
<!-- evm -->
<g id="node20" class="node"><title>evm</title>
<ellipse fill="none" stroke="black" cx="731" cy="-410" rx="27" ry="18"/>
<text text-anchor="middle" x="731" y="-407" font-family="Courier,monospace" font-size="10.00">evm</text>
</g>
<!-- ethereum&#45;&gt;evm -->
<g id="edge18" class="edge"><title>ethereum&#45;&gt;evm</title>
<path fill="none" stroke="black" d="M681.739,-474.921C685.974,-469.552 690.704,-463.529 695,-458 700.892,-450.416 707.279,-442.107 713.014,-434.612"/>
<polygon fill="black" stroke="black" points="716.089,-436.352 719.379,-426.281 710.527,-432.102 716.089,-436.352"/>
</g>
<!-- lll -->
<g id="node23" class="node"><title>lll</title>
<ellipse fill="none" stroke="black" cx="659" cy="-410" rx="27" ry="18"/>
<text text-anchor="middle" x="659" y="-407" font-family="Courier,monospace" font-size="10.00">lll</text>
</g>
<!-- ethereum&#45;&gt;lll -->
<g id="edge19" class="edge"><title>ethereum&#45;&gt;lll</title>
<path fill="none" stroke="black" d="M666.83,-473.641C665.537,-463.297 663.868,-449.941 662.403,-438.221"/>
<polygon fill="black" stroke="black" points="665.845,-437.539 661.131,-428.05 658.899,-438.407 665.845,-437.539"/>
</g>
<!-- p2p -->
<g id="node27" class="node"><title>p2p</title>
<ellipse fill="none" stroke="black" cx="219" cy="-338" rx="27" ry="18"/>
<text text-anchor="middle" x="219" y="-335" font-family="Courier,monospace" font-size="10.00">p2p</text>
</g>
<!-- ethereum&#45;&gt;p2p -->
<g id="edge17" class="edge"><title>ethereum&#45;&gt;p2p</title>
<path fill="none" stroke="black" d="M648.779,-476.926C611.193,-450.876 533.093,-397.296 519,-392 408.149,-350.345 368.53,-389.675 255,-356 253.062,-355.425 251.096,-354.76 249.136,-354.032"/>
<polygon fill="black" stroke="black" points="250.09,-350.637 239.514,-350.004 247.387,-357.094 250.09,-350.637"/>
</g>
<!-- JsonRpc* -->
<g id="node53" class="node"><title>JsonRpc*</title>
<ellipse fill="none" stroke="black" cx="474" cy="-410" rx="36.433" ry="18"/>
<text text-anchor="middle" x="474" y="-407" font-family="Courier,monospace" font-size="10.00">JsonRpc*</text>
</g>
<!-- ethereum&#45;&gt;JsonRpc* -->
<g id="edge20" class="edge"><title>ethereum&#45;&gt;JsonRpc*</title>
<path fill="none" stroke="black" d="M634.697,-485.779C608.008,-480.887 570.508,-472.163 540,-458 525.626,-451.327 511.122,-441.425 499.386,-432.429"/>
<polygon fill="black" stroke="black" points="501.387,-429.55 491.37,-426.097 497.048,-435.042 501.387,-429.55"/>
</g>
<!-- ethashseal&#45;&gt;ethereum -->
<g id="edge21" class="edge"><title>ethashseal&#45;&gt;ethereum</title>
<path fill="none" stroke="black" d="M729.689,-547.465C719.041,-537.909 705.23,-525.514 693.474,-514.963"/>
<polygon fill="black" stroke="black" points="695.507,-512.086 685.727,-508.011 690.832,-517.295 695.507,-512.086"/>
</g>
<!-- ethash&#45;cl -->
<g id="node19" class="node"><title>ethash&#45;cl</title>
<ellipse fill="none" stroke="black" cx="867" cy="-492" rx="40.13" ry="18"/>
<text text-anchor="middle" x="867" y="-489" font-family="Courier,monospace" font-size="10.00">ethash&#45;cl</text>
</g>
<!-- ethashseal&#45;&gt;ethash&#45;cl -->
<g id="edge22" class="edge"><title>ethashseal&#45;&gt;ethash&#45;cl</title>
<path fill="none" stroke="black" stroke-dasharray="1,5" d="M771.284,-548.834C789.576,-538.164 814.831,-523.432 834.807,-511.78"/>
<polygon fill="black" stroke="black" points="836.695,-514.73 843.569,-506.668 833.168,-508.684 836.695,-514.73"/>
</g>
<!-- Cpuid -->
<g id="node54" class="node"><title>Cpuid</title>
<ellipse fill="none" stroke="black" cx="952" cy="-492" rx="27" ry="18"/>
<text text-anchor="middle" x="952" y="-489" font-family="Courier,monospace" font-size="10.00">Cpuid</text>
</g>
<!-- ethashseal&#45;&gt;Cpuid -->
<g id="edge23" class="edge"><title>ethashseal&#45;&gt;Cpuid</title>
<path fill="none" stroke="black" stroke-dasharray="1,5" d="M783.489,-553.998C818.995,-544.734 874.148,-528.998 920,-510 920.864,-509.642 921.737,-509.268 922.612,-508.881"/>
<polygon fill="black" stroke="black" points="924.468,-511.873 931.968,-504.39 921.438,-505.562 924.468,-511.873"/>
</g>
<!-- ethcore -->
<g id="node13" class="node"><title>ethcore</title>
<ellipse fill="none" stroke="black" cx="835" cy="-338" rx="33.2355" ry="18"/>
<text text-anchor="middle" x="835" y="-335" font-family="Courier,monospace" font-size="10.00">ethcore</text>
</g>
<!-- ethcore&#45;&gt;buildinfo -->
<g id="edge29" class="edge"><title>ethcore&#45;&gt;buildinfo</title>
<path fill="none" stroke="black" d="M822.63,-320.89C792.827,-282.077 716.906,-183.204 681.59,-137.211"/>
<polygon fill="black" stroke="black" points="684.355,-135.064 675.489,-129.265 678.803,-139.328 684.355,-135.064"/>
</g>
<!-- devcrypto -->
<g id="node28" class="node"><title>devcrypto</title>
<ellipse fill="none" stroke="black" cx="291" cy="-266" rx="40.13" ry="18"/>
<text text-anchor="middle" x="291" y="-263" font-family="Courier,monospace" font-size="10.00">devcrypto</text>
</g>
<!-- ethcore&#45;&gt;devcrypto -->
<g id="edge30" class="edge"><title>ethcore&#45;&gt;devcrypto</title>
<path fill="none" stroke="black" d="M806.825,-328.263C796.297,-325.266 784.183,-322.134 773,-320 616.856,-290.202 428.824,-275.527 340.894,-269.878"/>
<polygon fill="black" stroke="black" points="340.877,-266.37 330.676,-269.233 340.436,-273.356 340.877,-266.37"/>
</g>
<!-- ethkey -->
<g id="node14" class="node"><title>ethkey</title>
<polygon fill="none" stroke="black" stroke-width="2" points="830,-428 776,-428 776,-392 830,-392 830,-428"/>
<text text-anchor="middle" x="803" y="-407" font-family="Courier,monospace" font-size="10.00">ethkey</text>
</g>
<!-- ethkey&#45;&gt;ethcore -->
<g id="edge37" class="edge"><title>ethkey&#45;&gt;ethcore</title>
<path fill="none" stroke="black" d="M810.91,-391.697C814.607,-383.609 819.086,-373.812 823.174,-364.869"/>
<polygon fill="black" stroke="black" points="826.427,-366.172 827.401,-355.622 820.06,-363.262 826.427,-366.172"/>
</g>
<!-- ethminer -->
<g id="node15" class="node"><title>ethminer</title>
<polygon fill="none" stroke="black" stroke-width="2" points="810.006,-656 745.994,-656 745.994,-620 810.006,-620 810.006,-656"/>
<text text-anchor="middle" x="778" y="-635" font-family="Courier,monospace" font-size="10.00">ethminer</text>
</g>
<!-- ethminer&#45;&gt;ethashseal -->
<g id="edge38" class="edge"><title>ethminer&#45;&gt;ethashseal</title>
<path fill="none" stroke="black" d="M770.653,-619.937C766.986,-611.419 762.467,-600.923 758.365,-591.395"/>
<polygon fill="black" stroke="black" points="761.463,-589.741 754.294,-581.941 755.034,-592.509 761.463,-589.741"/>
</g>
<!-- ethvm -->
<g id="node16" class="node"><title>ethvm</title>
<polygon fill="none" stroke="black" stroke-width="2" points="728,-656 674,-656 674,-620 728,-620 728,-656"/>
<text text-anchor="middle" x="701" y="-635" font-family="Courier,monospace" font-size="10.00">ethvm</text>
</g>
<!-- ethvm&#45;&gt;ethashseal -->
<g id="edge39" class="edge"><title>ethvm&#45;&gt;ethashseal</title>
<path fill="none" stroke="black" d="M711.901,-619.937C717.516,-611.15 724.474,-600.258 730.711,-590.496"/>
<polygon fill="black" stroke="black" points="733.742,-592.252 736.177,-581.941 727.844,-588.483 733.742,-592.252"/>
</g>
<!-- evmjit -->
<g id="node17" class="node"><title>evmjit</title>
<polygon fill="none" stroke="black" stroke-width="2" points="764,-356 710,-356 710,-320 764,-320 764,-356"/>
<text text-anchor="middle" x="737" y="-335" font-family="Courier,monospace" font-size="10.00">evmjit</text>
</g>
<!-- ethash -->
<g id="node18" class="node"><title>ethash</title>
<ellipse fill="none" stroke="black" cx="878" cy="-410" rx="30.0384" ry="18"/>
<text text-anchor="middle" x="878" y="-407" font-family="Courier,monospace" font-size="10.00">ethash</text>
</g>
<!-- ethash&#45;cl&#45;&gt;ethash -->
<g id="edge40" class="edge"><title>ethash&#45;cl&#45;&gt;ethash</title>
<path fill="none" stroke="black" d="M869.387,-473.641C870.809,-463.297 872.646,-449.941 874.257,-438.221"/>
<polygon fill="black" stroke="black" points="877.761,-438.434 875.656,-428.05 870.826,-437.48 877.761,-438.434"/>
</g>
<!-- OpenCL -->
<g id="node57" class="node"><title>OpenCL</title>
<ellipse fill="none" stroke="black" cx="994" cy="-410" rx="30.0384" ry="18"/>
<text text-anchor="middle" x="994" y="-407" font-family="Courier,monospace" font-size="10.00">OpenCL</text>
</g>
<!-- ethash&#45;cl&#45;&gt;OpenCL -->
<g id="edge41" class="edge"><title>ethash&#45;cl&#45;&gt;OpenCL</title>
<path fill="none" stroke="black" d="M890.907,-477.349C898.726,-473.282 907.572,-469.09 916,-466 930.575,-460.656 936.565,-465.777 950,-458 960.116,-452.144 969.31,-443.229 976.647,-434.732"/>
<polygon fill="black" stroke="black" points="979.484,-436.791 983.082,-426.826 974.055,-432.373 979.484,-436.791"/>
</g>
<!-- evm&#45;&gt;ethcore -->
<g id="edge42" class="edge"><title>evm&#45;&gt;ethcore</title>
<path fill="none" stroke="black" d="M749.593,-396.485C765.359,-385.874 788.23,-370.48 806.337,-358.292"/>
<polygon fill="black" stroke="black" points="808.45,-361.089 814.792,-352.602 804.541,-355.282 808.45,-361.089"/>
</g>
<!-- evm&#45;&gt;evmjit -->
<g id="edge43" class="edge"><title>evm&#45;&gt;evmjit</title>
<path fill="none" stroke="black" stroke-dasharray="1,5" d="M732.483,-391.697C733.144,-383.983 733.939,-374.712 734.676,-366.112"/>
<polygon fill="black" stroke="black" points="738.167,-366.367 735.534,-356.104 731.193,-365.769 738.167,-366.367"/>
</g>
<!-- evmcore -->
<g id="node22" class="node"><title>evmcore</title>
<ellipse fill="none" stroke="black" cx="665" cy="-266" rx="33.2355" ry="18"/>
<text text-anchor="middle" x="665" y="-263" font-family="Courier,monospace" font-size="10.00">evmcore</text>
</g>
<!-- evm&#45;&gt;evmcore -->
<g id="edge44" class="edge"><title>evm&#45;&gt;evmcore</title>
<path fill="none" stroke="black" d="M746.312,-394.911C763.956,-376.911 788.633,-345.086 773,-320 758.291,-296.397 729.665,-283.009 705.579,-275.595"/>
<polygon fill="black" stroke="black" points="706.506,-272.22 695.93,-272.86 704.596,-278.955 706.506,-272.22"/>
</g>
<!-- evmasm -->
<g id="node21" class="node"><title>evmasm</title>
<ellipse fill="none" stroke="black" cx="662" cy="-338" rx="30.0384" ry="18"/>
<text text-anchor="middle" x="662" y="-335" font-family="Courier,monospace" font-size="10.00">evmasm</text>
</g>
<!-- evmasm&#45;&gt;evmcore -->
<g id="edge45" class="edge"><title>evmasm&#45;&gt;evmcore</title>
<path fill="none" stroke="black" d="M662.742,-319.697C663.072,-311.983 663.469,-302.712 663.838,-294.112"/>
<polygon fill="black" stroke="black" points="667.335,-294.245 664.267,-284.104 660.342,-293.945 667.335,-294.245"/>
</g>
<!-- devcore -->
<g id="node29" class="node"><title>devcore</title>
<ellipse fill="none" stroke="black" cx="355" cy="-194" rx="33.2355" ry="18"/>
<text text-anchor="middle" x="355" y="-191" font-family="Courier,monospace" font-size="10.00">devcore</text>
</g>
<!-- evmcore&#45;&gt;devcore -->
<g id="edge46" class="edge"><title>evmcore&#45;&gt;devcore</title>
<path fill="none" stroke="black" d="M634.994,-258.225C578.859,-245.549 457.958,-218.249 394.98,-204.028"/>
<polygon fill="black" stroke="black" points="395.548,-200.568 385.022,-201.779 394.006,-207.396 395.548,-200.568"/>
</g>
<!-- lll&#45;&gt;evmasm -->
<g id="edge47" class="edge"><title>lll&#45;&gt;evmasm</title>
<path fill="none" stroke="black" d="M659.742,-391.697C660.072,-383.983 660.469,-374.712 660.838,-366.112"/>
<polygon fill="black" stroke="black" points="664.335,-366.245 661.267,-356.104 657.342,-365.945 664.335,-366.245"/>
</g>
<!-- testutils -->
<g id="node24" class="node"><title>testutils</title>
<ellipse fill="none" stroke="black" cx="868" cy="-638" rx="40.13" ry="18"/>
<text text-anchor="middle" x="868" y="-635" font-family="Courier,monospace" font-size="10.00">testutils</text>
</g>
<!-- testutils&#45;&gt;ethashseal -->
<g id="edge48" class="edge"><title>testutils&#45;&gt;ethashseal</title>
<path fill="none" stroke="black" d="M844.67,-623.118C826.245,-612.154 800.31,-596.722 779.796,-584.515"/>
<polygon fill="black" stroke="black" points="781.47,-581.438 771.087,-579.333 777.891,-587.454 781.47,-581.438"/>
</g>
<!-- lllc -->
<g id="node25" class="node"><title>lllc</title>
<polygon fill="none" stroke="black" stroke-width="2" points="794,-510 740,-510 740,-474 794,-474 794,-510"/>
<text text-anchor="middle" x="767" y="-489" font-family="Courier,monospace" font-size="10.00">lllc</text>
</g>
<!-- lllc&#45;&gt;buildinfo -->
<g id="edge49" class="edge"><title>lllc&#45;&gt;buildinfo</title>
<path fill="none" stroke="black" d="M794.048,-475.411C801.581,-471.723 809.918,-468.221 818,-466 839.283,-460.151 900.799,-472.989 917,-458 956.314,-421.628 936,-392.559 936,-339 936,-339 936,-339 936,-265 936,-163.634 790.549,-129.263 711.983,-118.091"/>
<polygon fill="black" stroke="black" points="712.202,-114.589 701.824,-116.723 711.268,-121.527 712.202,-114.589"/>
</g>
<!-- lllc&#45;&gt;lll -->
<g id="edge50" class="edge"><title>lllc&#45;&gt;lll</title>
<path fill="none" stroke="black" d="M739.867,-477.932C731.596,-474.021 722.455,-469.772 714,-466 705.633,-462.267 702.25,-463.602 695,-458 686.996,-451.816 679.826,-443.441 674.032,-435.474"/>
<polygon fill="black" stroke="black" points="676.845,-433.388 668.31,-427.111 671.068,-437.341 676.845,-433.388"/>
</g>
<!-- testeth -->
<g id="node26" class="node"><title>testeth</title>
<polygon fill="none" stroke="black" stroke-width="2" points="732.005,-728 673.995,-728 673.995,-692 732.005,-692 732.005,-728"/>
<text text-anchor="middle" x="703" y="-707" font-family="Courier,monospace" font-size="10.00">testeth</text>
</g>
<!-- testeth&#45;&gt;testutils -->
<g id="edge51" class="edge"><title>testeth&#45;&gt;testutils</title>
<path fill="none" stroke="black" d="M732.013,-695.93C735.043,-694.592 738.081,-693.262 741,-692 770.718,-679.154 804.56,-665.057 829.833,-654.633"/>
<polygon fill="black" stroke="black" points="831.5,-657.732 839.414,-650.688 828.835,-651.259 831.5,-657.732"/>
</g>
<!-- p2p&#45;&gt;devcrypto -->
<g id="edge31" class="edge"><title>p2p&#45;&gt;devcrypto</title>
<path fill="none" stroke="black" d="M233.57,-322.834C243.319,-313.356 256.364,-300.673 267.558,-289.791"/>
<polygon fill="black" stroke="black" points="270.218,-292.086 274.948,-282.606 265.338,-287.067 270.218,-292.086"/>
</g>
<!-- Miniupnpc -->
<g id="node55" class="node"><title>Miniupnpc</title>
<ellipse fill="none" stroke="black" cx="136" cy="-266" rx="40.13" ry="18"/>
<text text-anchor="middle" x="136" y="-263" font-family="Courier,monospace" font-size="10.00">Miniupnpc</text>
</g>
<!-- p2p&#45;&gt;Miniupnpc -->
<g id="edge32" class="edge"><title>p2p&#45;&gt;Miniupnpc</title>
<path fill="none" stroke="black" stroke-dasharray="1,5" d="M202.602,-323.17C191.021,-313.403 175.263,-300.114 161.983,-288.913"/>
<polygon fill="black" stroke="black" points="163.994,-286.031 154.093,-282.259 159.481,-291.382 163.994,-286.031"/>
</g>
<!-- devcrypto&#45;&gt;scrypt -->
<g id="edge33" class="edge"><title>devcrypto&#45;&gt;scrypt</title>
<path fill="none" stroke="black" d="M291,-247.859C291,-221.745 291,-171.743 291,-140.507"/>
<polygon fill="black" stroke="black" points="294.5,-140.311 291,-130.311 287.5,-140.311 294.5,-140.311"/>
</g>
<!-- devcrypto&#45;&gt;secp256k1 -->
<g id="edge34" class="edge"><title>devcrypto&#45;&gt;secp256k1</title>
<path fill="none" stroke="black" d="M256.261,-256.857C200.828,-243.702 98.051,-218.581 93,-212 81.0934,-196.487 79.3041,-181.959 93,-168 109.384,-151.302 492.335,-168.823 514,-160 525.947,-155.134 536.733,-145.976 545.203,-137.027"/>
<polygon fill="black" stroke="black" points="548.01,-139.137 552.02,-129.33 542.77,-134.495 548.01,-139.137"/>
</g>
<!-- devcrypto&#45;&gt;devcore -->
<g id="edge35" class="edge"><title>devcrypto&#45;&gt;devcore</title>
<path fill="none" stroke="black" d="M305.523,-249.116C313.987,-239.858 324.804,-228.027 334.164,-217.789"/>
<polygon fill="black" stroke="black" points="336.81,-220.082 340.975,-210.34 331.644,-215.359 336.81,-220.082"/>
</g>
<!-- Cryptopp -->
<g id="node56" class="node"><title>Cryptopp</title>
<ellipse fill="none" stroke="black" cx="139" cy="-194" rx="36.433" ry="18"/>
<text text-anchor="middle" x="139" y="-191" font-family="Courier,monospace" font-size="10.00">Cryptopp</text>
</g>
<!-- devcrypto&#45;&gt;Cryptopp -->
<g id="edge36" class="edge"><title>devcrypto&#45;&gt;Cryptopp</title>
<path fill="none" stroke="black" d="M263.825,-252.485C238.771,-240.947 201.44,-223.755 174.13,-211.178"/>
<polygon fill="black" stroke="black" points="175.472,-207.943 164.925,-206.939 172.544,-214.301 175.472,-207.943"/>
</g>
<!-- devcore&#45;&gt;base -->
<g id="edge52" class="edge"><title>devcore&#45;&gt;base</title>
<path fill="none" stroke="black" d="M357.333,-176.034C358.777,-165.534 360.662,-151.821 362.306,-139.868"/>
<polygon fill="black" stroke="black" points="365.776,-140.325 363.671,-129.941 358.841,-139.371 365.776,-140.325"/>
</g>
<!-- bench -->
<g id="node30" class="node"><title>bench</title>
<polygon fill="none" stroke="black" stroke-width="2" points="390,-356 336,-356 336,-320 390,-320 390,-356"/>
<text text-anchor="middle" x="363" y="-335" font-family="Courier,monospace" font-size="10.00">bench</text>
</g>
<!-- bench&#45;&gt;devcrypto -->
<g id="edge53" class="edge"><title>bench&#45;&gt;devcrypto</title>
<path fill="none" stroke="black" d="M345.202,-319.697C335.911,-310.663 324.424,-299.495 314.419,-289.769"/>
<polygon fill="black" stroke="black" points="316.729,-287.133 307.119,-282.671 311.849,-292.152 316.729,-287.133"/>
</g>
<!-- rlp -->
<g id="node31" class="node"><title>rlp</title>
<polygon fill="none" stroke="black" stroke-width="2" points="318,-356 264,-356 264,-320 318,-320 318,-356"/>
<text text-anchor="middle" x="291" y="-335" font-family="Courier,monospace" font-size="10.00">rlp</text>
</g>
<!-- rlp&#45;&gt;devcrypto -->
<g id="edge54" class="edge"><title>rlp&#45;&gt;devcrypto</title>
<path fill="none" stroke="black" d="M291,-319.697C291,-311.983 291,-302.712 291,-294.112"/>
<polygon fill="black" stroke="black" points="294.5,-294.104 291,-284.104 287.5,-294.104 294.5,-294.104"/>
</g>
<!-- testweb3core -->
<g id="node32" class="node"><title>testweb3core</title>
<polygon fill="none" stroke="black" stroke-width="2" points="280.009,-428 191.991,-428 191.991,-392 280.009,-392 280.009,-428"/>
<text text-anchor="middle" x="236" y="-407" font-family="Courier,monospace" font-size="10.00">testweb3core</text>
</g>
<!-- testweb3core&#45;&gt;p2p -->
<g id="edge55" class="edge"><title>testweb3core&#45;&gt;p2p</title>
<path fill="none" stroke="black" d="M231.798,-391.697C229.904,-383.898 227.623,-374.509 225.516,-365.829"/>
<polygon fill="black" stroke="black" points="228.915,-364.996 223.154,-356.104 222.113,-366.648 228.915,-364.996"/>
</g>
<!-- Mix -->
<g id="node33" class="node"><title>Mix</title>
<ellipse fill="none" stroke="black" cx="354" cy="-792" rx="27" ry="18"/>
<text text-anchor="middle" x="354" y="-789" font-family="Courier,monospace" font-size="10.00">Mix</text>
</g>
<!-- Mix&#45;&gt;web3jsonrpc -->
<g id="edge57" class="edge"><title>Mix&#45;&gt;web3jsonrpc</title>
<path fill="none" stroke="black" d="M335.359,-778.675C316.397,-766.139 286.676,-746.488 264.135,-731.585"/>
<polygon fill="black" stroke="black" points="265.852,-728.524 255.58,-725.929 261.991,-734.363 265.852,-728.524"/>
</g>
<!-- Mix&#45;&gt;Qt* -->
<g id="edge56" class="edge"><title>Mix&#45;&gt;Qt*</title>
<path fill="none" stroke="black" d="M376.423,-781.509C409.904,-767.337 473.102,-740.586 511.297,-724.419"/>
<polygon fill="black" stroke="black" points="513.054,-727.476 520.899,-720.355 510.325,-721.03 513.054,-727.476"/>
</g>
<!-- soljson -->
<g id="node34" class="node"><title>soljson</title>
<ellipse fill="none" stroke="black" cx="435" cy="-564" rx="33.2355" ry="18"/>
<text text-anchor="middle" x="435" y="-561" font-family="Courier,monospace" font-size="10.00">soljson</text>
</g>
<!-- solidity -->
<g id="node35" class="node"><title>solidity</title>
<ellipse fill="none" stroke="black" cx="435" cy="-492" rx="36.433" ry="18"/>
<text text-anchor="middle" x="435" y="-489" font-family="Courier,monospace" font-size="10.00">solidity</text>
</g>
<!-- soljson&#45;&gt;solidity -->
<g id="edge1" class="edge"><title>soljson&#45;&gt;solidity</title>
<path fill="none" stroke="black" d="M435,-545.697C435,-537.983 435,-528.712 435,-520.112"/>
<polygon fill="black" stroke="black" points="438.5,-520.104 435,-510.104 431.5,-520.104 438.5,-520.104"/>
</g>
<!-- solidity&#45;&gt;evmasm -->
<g id="edge26" class="edge"><title>solidity&#45;&gt;evmasm</title>
<path fill="none" stroke="black" d="M465.234,-481.754C481.721,-476.073 502.143,-467.972 519,-458 566.06,-430.161 613.413,-387.103 640.093,-361.127"/>
<polygon fill="black" stroke="black" points="642.697,-363.475 647.369,-353.966 637.787,-358.486 642.697,-363.475"/>
</g>
<!-- solc -->
<g id="node36" class="node"><title>solc</title>
<polygon fill="none" stroke="black" stroke-width="2" points="384,-582 330,-582 330,-546 384,-546 384,-582"/>
<text text-anchor="middle" x="357" y="-561" font-family="Courier,monospace" font-size="10.00">solc</text>
</g>
<!-- solc&#45;&gt;solidity -->
<g id="edge58" class="edge"><title>solc&#45;&gt;solidity</title>
<path fill="none" stroke="black" d="M376.281,-545.697C386.591,-536.444 399.395,-524.953 410.414,-515.064"/>
<polygon fill="black" stroke="black" points="412.955,-517.486 418.06,-508.202 408.28,-512.277 412.955,-517.486"/>
</g>
<!-- soltest -->
<g id="node37" class="node"><title>soltest</title>
<polygon fill="none" stroke="black" stroke-width="2" points="544.005,-582 485.995,-582 485.995,-546 544.005,-546 544.005,-582"/>
<text text-anchor="middle" x="515" y="-561" font-family="Courier,monospace" font-size="10.00">soltest</text>
</g>
<!-- soltest&#45;&gt;ethereum -->
<g id="edge59" class="edge"><title>soltest&#45;&gt;ethereum</title>
<path fill="none" stroke="black" d="M539.482,-545.814C543.887,-543.036 548.508,-540.316 553,-538 577.586,-525.326 606.599,-514.072 629.459,-505.988"/>
<polygon fill="black" stroke="black" points="630.873,-509.203 639.169,-502.614 628.575,-502.591 630.873,-509.203"/>
</g>
<!-- soltest&#45;&gt;solidity -->
<g id="edge60" class="edge"><title>soltest&#45;&gt;solidity</title>
<path fill="none" stroke="black" d="M495.225,-545.697C484.473,-536.289 471.075,-524.566 459.648,-514.567"/>
<polygon fill="black" stroke="black" points="461.939,-511.921 452.108,-507.97 457.329,-517.189 461.939,-511.921"/>
</g>
<!-- web3jsonrpc&#45;&gt;solidity -->
<g id="edge24" class="edge"><title>web3jsonrpc&#45;&gt;solidity</title>
<path fill="none" stroke="black" stroke-dasharray="1,5" d="M278.929,-705.659C312.47,-700.535 355.807,-687.741 378,-656 387.168,-642.887 388.498,-632.074 378,-620 361.215,-600.695 337.785,-631.305 321,-612 299.421,-587.18 302.5,-565.192 321,-538 336.359,-515.426 364.963,-504.176 389.675,-498.569"/>
<polygon fill="black" stroke="black" points="390.515,-501.97 399.623,-496.559 389.128,-495.109 390.515,-501.97"/>
</g>
<!-- webthree -->
<g id="node39" class="node"><title>webthree</title>
<ellipse fill="none" stroke="black" cx="241" cy="-638" rx="36.433" ry="18"/>
<text text-anchor="middle" x="241" y="-635" font-family="Courier,monospace" font-size="10.00">webthree</text>
</g>
<!-- web3jsonrpc&#45;&gt;webthree -->
<g id="edge25" class="edge"><title>web3jsonrpc&#45;&gt;webthree</title>
<path fill="none" stroke="black" d="M234.978,-691.697C235.859,-683.983 236.919,-674.712 237.901,-666.112"/>
<polygon fill="black" stroke="black" points="241.387,-666.437 239.045,-656.104 234.432,-665.642 241.387,-666.437"/>
</g>
<!-- webthree&#45;&gt;ethashseal -->
<g id="edge27" class="edge"><title>webthree&#45;&gt;ethashseal</title>
<path fill="none" stroke="black" d="M267.818,-625.407C274.008,-623.206 280.644,-621.215 287,-620 360.797,-605.897 551.302,-626.609 625,-612 654.94,-606.065 687.089,-593.397 710.864,-582.707"/>
<polygon fill="black" stroke="black" points="712.562,-585.779 720.187,-578.423 709.639,-579.418 712.562,-585.779"/>
</g>
<!-- whisper -->
<g id="node45" class="node"><title>whisper</title>
<ellipse fill="none" stroke="black" cx="241" cy="-564" rx="33.2355" ry="18"/>
<text text-anchor="middle" x="241" y="-561" font-family="Courier,monospace" font-size="10.00">whisper</text>
</g>
<!-- webthree&#45;&gt;whisper -->
<g id="edge28" class="edge"><title>webthree&#45;&gt;whisper</title>
<path fill="none" stroke="black" d="M241,-619.937C241,-611.807 241,-601.876 241,-592.705"/>
<polygon fill="black" stroke="black" points="244.5,-592.441 241,-582.441 237.5,-592.441 244.5,-592.441"/>
</g>
<!-- eth -->
<g id="node40" class="node"><title>eth</title>
<polygon fill="none" stroke="black" stroke-width="2" points="90,-810 36,-810 36,-774 90,-774 90,-810"/>
<text text-anchor="middle" x="63" y="-789" font-family="Courier,monospace" font-size="10.00">eth</text>
</g>
<!-- eth&#45;&gt;web3jsonrpc -->
<g id="edge61" class="edge"><title>eth&#45;&gt;web3jsonrpc</title>
<path fill="none" stroke="black" d="M88.5608,-773.846C94.1132,-770.784 100.097,-767.952 106,-766 136.149,-756.028 147.816,-770.519 177,-758 189.702,-752.551 201.73,-743.234 211.359,-734.326"/>
<polygon fill="black" stroke="black" points="213.804,-736.83 218.535,-727.35 208.925,-731.811 213.804,-736.83"/>
</g>
<!-- jsconsole -->
<g id="node43" class="node"><title>jsconsole</title>
<ellipse fill="none" stroke="black" cx="56" cy="-710" rx="40.13" ry="18"/>
<text text-anchor="middle" x="56" y="-707" font-family="Courier,monospace" font-size="10.00">jsconsole</text>
</g>
<!-- eth&#45;&gt;jsconsole -->
<g id="edge62" class="edge"><title>eth&#45;&gt;jsconsole</title>
<path fill="none" stroke="black" d="M61.4811,-773.641C60.576,-763.297 59.4073,-749.941 58.3818,-738.221"/>
<polygon fill="black" stroke="black" points="61.8503,-737.707 57.4919,-728.05 54.877,-738.317 61.8503,-737.707"/>
</g>
<!-- exp -->
<g id="node41" class="node"><title>exp</title>
<polygon fill="none" stroke="black" stroke-width="2" points="168,-728 114,-728 114,-692 168,-692 168,-728"/>
<text text-anchor="middle" x="141" y="-707" font-family="Courier,monospace" font-size="10.00">exp</text>
</g>
<!-- exp&#45;&gt;webthree -->
<g id="edge63" class="edge"><title>exp&#45;&gt;webthree</title>
<path fill="none" stroke="black" d="M165.463,-691.876C179.673,-681.929 197.646,-669.348 212.495,-658.954"/>
<polygon fill="black" stroke="black" points="214.639,-661.725 220.825,-653.123 210.625,-655.99 214.639,-661.725"/>
</g>
<!-- flu -->
<g id="node42" class="node"><title>flu</title>
<polygon fill="none" stroke="black" stroke-width="2" points="169,-810 115,-810 115,-774 169,-774 169,-810"/>
<text text-anchor="middle" x="142" y="-789" font-family="Courier,monospace" font-size="10.00">flu</text>
</g>
<!-- flu&#45;&gt;web3jsonrpc -->
<g id="edge64" class="edge"><title>flu&#45;&gt;web3jsonrpc</title>
<path fill="none" stroke="black" d="M161.746,-773.641C175.154,-761.854 193.011,-746.155 207.494,-733.423"/>
<polygon fill="black" stroke="black" points="209.944,-735.929 215.143,-726.698 205.322,-730.672 209.944,-735.929"/>
</g>
<!-- flu&#45;&gt;jsconsole -->
<g id="edge65" class="edge"><title>flu&#45;&gt;jsconsole</title>
<path fill="none" stroke="black" d="M122.295,-773.662C116.67,-768.65 110.56,-763.143 105,-758 96.6927,-750.316 87.7253,-741.786 79.761,-734.124"/>
<polygon fill="black" stroke="black" points="81.8176,-731.245 72.1927,-726.816 76.9551,-736.28 81.8176,-731.245"/>
</g>
<!-- jsconsole&#45;&gt;devcore -->
<g id="edge66" class="edge"><title>jsconsole&#45;&gt;devcore</title>
<path fill="none" stroke="black" d="M54.0243,-691.737C51.11,-664.739 46,-610.86 46,-565 46,-565 46,-565 46,-337 46,-290.196 50.2741,-269.014 87,-240 104.466,-226.201 241.822,-208.292 312.815,-199.832"/>
<polygon fill="black" stroke="black" points="313.265,-203.303 322.786,-198.654 312.444,-196.351 313.265,-203.303"/>
</g>
<!-- jsengine -->
<g id="node44" class="node"><title>jsengine</title>
<ellipse fill="none" stroke="black" cx="149" cy="-638" rx="36.433" ry="18"/>
<text text-anchor="middle" x="149" y="-635" font-family="Courier,monospace" font-size="10.00">jsengine</text>
</g>
<!-- jsconsole&#45;&gt;jsengine -->
<g id="edge68" class="edge"><title>jsconsole&#45;&gt;jsengine</title>
<path fill="none" stroke="black" d="M75.7229,-694.155C89.0052,-684.157 106.709,-670.832 121.388,-659.783"/>
<polygon fill="black" stroke="black" points="123.74,-662.394 129.624,-653.584 119.53,-656.801 123.74,-662.394"/>
</g>
<!-- jsconsole&#45;&gt;JsonRpc* -->
<g id="edge67" class="edge"><title>jsconsole&#45;&gt;JsonRpc*</title>
<path fill="none" stroke="black" d="M62.6228,-692.132C70.4951,-673.346 84.8769,-642.648 103,-620 176.439,-528.227 206.41,-502.922 318,-466 353.604,-454.22 366.603,-470.388 402,-458 418.643,-452.175 435.257,-441.719 448.325,-432.146"/>
<polygon fill="black" stroke="black" points="450.518,-434.875 456.365,-426.04 446.285,-429.3 450.518,-434.875"/>
</g>
<!-- Readline -->
<g id="node58" class="node"><title>Readline</title>
<ellipse fill="none" stroke="black" cx="333" cy="-638" rx="36.433" ry="18"/>
<text text-anchor="middle" x="333" y="-635" font-family="Courier,monospace" font-size="10.00">Readline</text>
</g>
<!-- jsconsole&#45;&gt;Readline -->
<g id="edge69" class="edge"><title>jsconsole&#45;&gt;Readline</title>
<path fill="none" stroke="black" stroke-dasharray="1,5" d="M85.8477,-697.881C92.1227,-695.759 98.7382,-693.68 105,-692 186.747,-670.072 210.936,-680.334 292,-656 293.674,-655.497 295.374,-654.95 297.081,-654.371"/>
<polygon fill="black" stroke="black" points="298.65,-657.522 306.82,-650.776 296.226,-650.955 298.65,-657.522"/>
</g>
<!-- V8 -->
<g id="node59" class="node"><title>V8</title>
<ellipse fill="none" stroke="black" cx="589" cy="-564" rx="27" ry="18"/>
<text text-anchor="middle" x="589" y="-561" font-family="Courier,monospace" font-size="10.00">V8</text>
</g>
<!-- jsengine&#45;&gt;V8 -->
<g id="edge70" class="edge"><title>jsengine&#45;&gt;V8</title>
<path fill="none" stroke="black" d="M175.817,-625.4C182.007,-623.2 188.643,-621.21 195,-620 214.707,-616.249 538.304,-621.448 556,-612 564.913,-607.241 571.941,-598.884 577.18,-590.524"/>
<polygon fill="black" stroke="black" points="580.333,-592.056 582.166,-581.621 574.226,-588.636 580.333,-592.056"/>
</g>
<!-- whisper&#45;&gt;p2p -->
<g id="edge71" class="edge"><title>whisper&#45;&gt;p2p</title>
<path fill="none" stroke="black" d="M253.104,-546.711C274.758,-515.42 315.493,-445.289 289,-392 280.739,-375.384 264.506,-362.586 249.751,-353.732"/>
<polygon fill="black" stroke="black" points="251.272,-350.573 240.839,-348.73 247.846,-356.677 251.272,-350.573"/>
</g>
<!-- testweb3 -->
<g id="node46" class="node"><title>testweb3</title>
<polygon fill="none" stroke="black" stroke-width="2" points="265.006,-810 200.994,-810 200.994,-774 265.006,-774 265.006,-810"/>
<text text-anchor="middle" x="233" y="-789" font-family="Courier,monospace" font-size="10.00">testweb3</text>
</g>
<!-- testweb3&#45;&gt;web3jsonrpc -->
<g id="edge72" class="edge"><title>testweb3&#45;&gt;web3jsonrpc</title>
<path fill="none" stroke="black" d="M233,-773.641C233,-763.297 233,-749.941 233,-738.221"/>
<polygon fill="black" stroke="black" points="236.5,-738.05 233,-728.05 229.5,-738.05 236.5,-738.05"/>
</g>
</g>
</svg>
