<?xml version="1.0" encoding="UTF-8" standalone="no"?>
<!DOCTYPE svg PUBLIC "-//W3C//DTD SVG 1.1//EN"
 "http://www.w3.org/Graphics/SVG/1.1/DTD/svg11.dtd">
<!-- Generated by graphviz version 2.36.0 (20140111.2315)
 -->
<!-- Title: webthree Pages: 1 -->
<svg width="978pt" height="936pt"
 viewBox="0.00 0.00 978.37 936.00" xmlns="http://www.w3.org/2000/svg" xmlns:xlink="http://www.w3.org/1999/xlink">
<g id="graph0" class="graph" transform="scale(1 1) rotate(0) translate(4 932)">
<title>webthree</title>
<polygon fill="white" stroke="none" points="-4,4 -4,-932 974.367,-932 974.367,4 -4,4"/>
<text text-anchor="middle" x="485.184" y="-6.8" font-family="Times,serif" font-size="14.00">webthree dependencies</text>
<g id="clust1" class="cluster"><title>cluster_webthree_helpers</title>
<polygon fill="LemonChiffon" stroke="black" points="124,-30 124,-176 468,-176 468,-30 124,-30"/>
<text text-anchor="start" x="208.35" y="-160.8" font-family="Times,serif" font-size="14.00">webthree&#45;helpers dependencies</text>
</g>
<g id="clust3" class="cluster"><title>cluster_alethzero</title>
<polygon fill="LightGray" stroke="black" points="352,-772 352,-920 498,-920 498,-772 352,-772"/>
<text text-anchor="start" x="359.898" y="-904.8" font-family="Times,serif" font-size="14.00">alethzero dependencies</text>
</g>
<g id="clust7" class="cluster"><title>cluster_libethereum</title>
<polygon fill="LavenderBlush" stroke="black" points="310,-328 310,-764 560,-764 560,-328 310,-328"/>
<text text-anchor="start" x="362.115" y="-748.8" font-family="Times,serif" font-size="14.00">libethereum dependencies</text>
</g>
<g id="clust8" class="cluster"><title>cluster_libweb3core</title>
<polygon fill="AliceBlue" stroke="black" points="88,-184 88,-474 302,-474 302,-184 88,-184"/>
<text text-anchor="start" x="120.95" y="-458.8" font-family="Times,serif" font-size="14.00">libweb3core dependencies</text>
</g>
<g id="clust9" class="cluster"><title>cluster_mix</title>
<polygon fill="LightGray" stroke="black" points="506,-772 506,-846 622,-846 622,-772 506,-772"/>
<text text-anchor="start" x="513.657" y="-830.8" font-family="Times,serif" font-size="14.00">mix dependencies</text>
</g>
<g id="clust11" class="cluster"><title>cluster_solidity</title>
<polygon fill="WhiteSmoke" stroke="black" points="630,-618 630,-846 932,-846 932,-618 630,-618"/>
<text text-anchor="start" x="720.543" y="-830.8" font-family="Times,serif" font-size="14.00">solidity dependencies</text>
</g>
<g id="clust13" class="cluster"><title>cluster_webthree</title>
<polygon fill="Honeydew" stroke="black" points="68,-546 68,-846 220,-846 220,-546 68,-546"/>
<text text-anchor="middle" x="144" y="-830.8" font-family="Times,serif" font-size="14.00">webthree dependencies</text>
</g>
<!-- buildinfo -->
<g id="node1" class="node"><title>buildinfo</title>
<ellipse fill="none" stroke="black" cx="420" cy="-128" rx="40.13" ry="18"/>
<text text-anchor="middle" x="420" y="-125" font-family="Courier,monospace" font-size="10.00">buildinfo</text>
</g>
<!-- base -->
<g id="node2" class="node"><title>base</title>
<ellipse fill="none" stroke="black" cx="335" cy="-128" rx="27" ry="18"/>
<text text-anchor="middle" x="335" y="-125" font-family="Courier,monospace" font-size="10.00">base</text>
</g>
<!-- json_spirit -->
<g id="node3" class="node"><title>json_spirit</title>
<ellipse fill="none" stroke="black" cx="335" cy="-56" rx="47.0244" ry="18"/>
<text text-anchor="middle" x="335" y="-53" font-family="Courier,monospace" font-size="10.00">json_spirit</text>
</g>
<!-- base&#45;&gt;json_spirit -->
<g id="edge2" class="edge"><title>base&#45;&gt;json_spirit</title>
<path fill="none" stroke="black" d="M335,-109.697C335,-101.983 335,-92.7125 335,-84.1124"/>
<polygon fill="black" stroke="black" points="338.5,-84.1043 335,-74.1043 331.5,-84.1044 338.5,-84.1043"/>
</g>
<!-- boost -->
<g id="node41" class="node"><title>boost</title>
<ellipse fill="none" stroke="black" cx="751" cy="-56" rx="27" ry="18"/>
<text text-anchor="middle" x="751" y="-53" font-family="Courier,monospace" font-size="10.00">boost</text>
</g>
<!-- base&#45;&gt;boost -->
<g id="edge3" class="edge"><title>base&#45;&gt;boost</title>
<path fill="none" stroke="black" d="M355.48,-115.88C360.438,-113.599 365.808,-111.453 371,-110 518.61,-68.6902 566.175,-114.535 714,-74 716.301,-73.3691 718.638,-72.609 720.962,-71.7649"/>
<polygon fill="black" stroke="black" points="722.386,-74.9639 730.315,-67.9365 719.735,-68.4856 722.386,-74.9639"/>
</g>
<!-- Jsoncpp -->
<g id="node42" class="node"><title>Jsoncpp</title>
<ellipse fill="none" stroke="black" cx="829" cy="-56" rx="33.2355" ry="18"/>
<text text-anchor="middle" x="829" y="-53" font-family="Courier,monospace" font-size="10.00">Jsoncpp</text>
</g>
<!-- base&#45;&gt;Jsoncpp -->
<g id="edge4" class="edge"><title>base&#45;&gt;Jsoncpp</title>
<path fill="none" stroke="black" d="M355.462,-115.811C360.42,-113.533 365.795,-111.406 371,-110 550.162,-61.6186 606.541,-117.295 787,-74 789.634,-73.368 792.32,-72.5984 794.995,-71.7397"/>
<polygon fill="black" stroke="black" points="796.294,-74.9922 804.529,-68.3261 793.935,-68.4018 796.294,-74.9922"/>
</g>
<!-- LevelDB -->
<g id="node43" class="node"><title>LevelDB</title>
<ellipse fill="none" stroke="black" cx="581" cy="-56" rx="33.2355" ry="18"/>
<text text-anchor="middle" x="581" y="-53" font-family="Courier,monospace" font-size="10.00">LevelDB</text>
</g>
<!-- base&#45;&gt;LevelDB -->
<g id="edge5" class="edge"><title>base&#45;&gt;LevelDB</title>
<path fill="none" stroke="black" d="M355.603,-116.278C360.556,-113.98 365.893,-111.727 371,-110 443.336,-85.5348 466,-96.4095 539,-74 541.435,-73.2526 543.925,-72.4224 546.419,-71.5422"/>
<polygon fill="black" stroke="black" points="547.805,-74.7604 555.937,-67.9695 545.345,-68.2068 547.805,-74.7604"/>
</g>
<!-- pthreads -->
<g id="node44" class="node"><title>pthreads</title>
<ellipse fill="none" stroke="black" cx="669" cy="-56" rx="36.433" ry="18"/>
<text text-anchor="middle" x="669" y="-53" font-family="Courier,monospace" font-size="10.00">pthreads</text>
</g>
<!-- base&#45;&gt;pthreads -->
<g id="edge6" class="edge"><title>base&#45;&gt;pthreads</title>
<path fill="none" stroke="black" d="M355.521,-116.02C360.477,-113.733 365.836,-111.55 371,-110 479.363,-77.4815 513.323,-101.765 623,-74 625.958,-73.2511 628.99,-72.3786 632.017,-71.4318"/>
<polygon fill="black" stroke="black" points="633.21,-74.7234 641.57,-68.2153 630.976,-68.0893 633.21,-74.7234"/>
</g>
<!-- scrypt -->
<g id="node4" class="node"><title>scrypt</title>
<ellipse fill="none" stroke="black" cx="162" cy="-128" rx="30.0384" ry="18"/>
<text text-anchor="middle" x="162" y="-125" font-family="Courier,monospace" font-size="10.00">scrypt</text>
</g>
<!-- secp256k1 -->
<g id="node5" class="node"><title>secp256k1</title>
<ellipse fill="none" stroke="black" cx="250" cy="-128" rx="40.13" ry="18"/>
<text text-anchor="middle" x="250" y="-125" font-family="Courier,monospace" font-size="10.00">secp256k1</text>
</g>
<!-- gmp -->
<g id="node45" class="node"><title>gmp</title>
<ellipse fill="none" stroke="black" cx="503" cy="-56" rx="27" ry="18"/>
<text text-anchor="middle" x="503" y="-53" font-family="Courier,monospace" font-size="10.00">gmp</text>
</g>
<!-- secp256k1&#45;&gt;gmp -->
<g id="edge7" class="edge"><title>secp256k1&#45;&gt;gmp</title>
<path fill="none" stroke="black" d="M280.129,-115.865C286.325,-113.768 292.838,-111.702 299,-110 374.7,-89.0857 398.317,-101.179 472,-74 472.857,-73.684 473.718,-73.3474 474.582,-72.9935"/>
<polygon fill="black" stroke="black" points="476.167,-76.1159 483.736,-68.7018 473.195,-69.7779 476.167,-76.1159"/>
</g>
<!-- AlethZero -->
<g id="node6" class="node"><title>AlethZero</title>
<polygon fill="none" stroke="black" stroke-width="2" points="490.007,-890 419.993,-890 419.993,-854 490.007,-854 490.007,-890"/>
<text text-anchor="middle" x="455" y="-869" font-family="Courier,monospace" font-size="10.00">AlethZero</text>
</g>
<!-- aleth -->
<g id="node7" class="node"><title>aleth</title>
<ellipse fill="none" stroke="black" cx="459" cy="-798" rx="27" ry="18"/>
<text text-anchor="middle" x="459" y="-795" font-family="Courier,monospace" font-size="10.00">aleth</text>
</g>
<!-- AlethZero&#45;&gt;aleth -->
<g id="edge8" class="edge"><title>AlethZero&#45;&gt;aleth</title>
<path fill="none" stroke="black" d="M455.948,-853.937C456.4,-845.807 456.951,-835.876 457.461,-826.705"/>
<polygon fill="black" stroke="black" points="460.971,-826.619 458.031,-816.441 453.982,-826.231 460.971,-826.619"/>
</g>
<!-- lll -->
<g id="node29" class="node"><title>lll</title>
<ellipse fill="none" stroke="black" cx="842" cy="-716" rx="27" ry="18"/>
<text text-anchor="middle" x="842" y="-713" font-family="Courier,monospace" font-size="10.00">lll</text>
</g>
<!-- AlethZero&#45;&gt;lll -->
<g id="edge9" class="edge"><title>AlethZero&#45;&gt;lll</title>
<path fill="none" stroke="black" d="M490.054,-870.557C601.137,-868.983 938.995,-862.826 955,-846 977.668,-822.17 972.44,-799.884 955,-772 938.249,-745.218 904.303,-731.137 877.968,-723.958"/>
<polygon fill="black" stroke="black" points="878.491,-720.481 867.941,-721.45 876.793,-727.272 878.491,-720.481"/>
</g>
<!-- solidity -->
<g id="node31" class="node"><title>solidity</title>
<ellipse fill="none" stroke="black" cx="741" cy="-716" rx="36.433" ry="18"/>
<text text-anchor="middle" x="741" y="-713" font-family="Courier,monospace" font-size="10.00">solidity</text>
</g>
<!-- AlethZero&#45;&gt;solidity -->
<g id="edge10" class="edge"><title>AlethZero&#45;&gt;solidity</title>
<path fill="none" stroke="black" stroke-dasharray="1,5" d="M490.017,-870.473C597.728,-868.682 917.787,-862.029 933,-846 955.64,-822.144 955.513,-795.976 933,-772 923.322,-761.693 819.308,-768.775 806,-764 790.917,-758.588 776.261,-748.546 764.695,-739.129"/>
<polygon fill="black" stroke="black" points="766.741,-736.274 756.857,-732.457 762.203,-741.604 766.741,-736.274"/>
</g>
<!-- natspec -->
<g id="node9" class="node"><title>natspec</title>
<ellipse fill="none" stroke="black" cx="490" cy="-716" rx="33.2355" ry="18"/>
<text text-anchor="middle" x="490" y="-713" font-family="Courier,monospace" font-size="10.00">natspec</text>
</g>
<!-- aleth&#45;&gt;natspec -->
<g id="edge13" class="edge"><title>aleth&#45;&gt;natspec</title>
<path fill="none" stroke="black" d="M465.423,-780.424C469.552,-769.769 475.008,-755.69 479.73,-743.504"/>
<polygon fill="black" stroke="black" points="483.129,-744.419 483.478,-733.83 476.602,-741.89 483.129,-744.419"/>
</g>
<!-- web3jsonrpc -->
<g id="node36" class="node"><title>web3jsonrpc</title>
<ellipse fill="none" stroke="black" cx="165" cy="-716" rx="47.0244" ry="18"/>
<text text-anchor="middle" x="165" y="-713" font-family="Courier,monospace" font-size="10.00">web3jsonrpc</text>
</g>
<!-- aleth&#45;&gt;web3jsonrpc -->
<g id="edge12" class="edge"><title>aleth&#45;&gt;web3jsonrpc</title>
<path fill="none" stroke="black" d="M433.346,-792.356C402.785,-786.62 350.295,-776.12 306,-764 272.382,-754.801 234.986,-742.225 207.158,-732.396"/>
<polygon fill="black" stroke="black" points="208.33,-729.098 197.736,-729.044 205.984,-735.694 208.33,-729.098"/>
</g>
<!-- Qt* -->
<g id="node46" class="node"><title>Qt*</title>
<ellipse fill="none" stroke="black" cx="595" cy="-716" rx="27" ry="18"/>
<text text-anchor="middle" x="595" y="-713" font-family="Courier,monospace" font-size="10.00">Qt*</text>
</g>
<!-- aleth&#45;&gt;Qt* -->
<g id="edge11" class="edge"><title>aleth&#45;&gt;Qt*</title>
<path fill="none" stroke="black" d="M477.062,-784.342C484.471,-779.736 493.333,-774.944 502,-772 528.307,-763.063 540.431,-778.712 564,-764 572.194,-758.886 578.68,-750.717 583.557,-742.614"/>
<polygon fill="black" stroke="black" points="586.72,-744.123 588.385,-733.66 580.559,-740.801 586.72,-744.123"/>
</g>
<!-- ethereum -->
<g id="node8" class="node"><title>ethereum</title>
<ellipse fill="none" stroke="black" cx="368" cy="-500" rx="36.433" ry="18"/>
<text text-anchor="middle" x="368" y="-497" font-family="Courier,monospace" font-size="10.00">ethereum</text>
</g>
<!-- evm -->
<g id="node18" class="node"><title>evm</title>
<ellipse fill="none" stroke="black" cx="369" cy="-426" rx="27" ry="18"/>
<text text-anchor="middle" x="369" y="-423" font-family="Courier,monospace" font-size="10.00">evm</text>
</g>
<!-- ethereum&#45;&gt;evm -->
<g id="edge15" class="edge"><title>ethereum&#45;&gt;evm</title>
<path fill="none" stroke="black" d="M368.237,-481.937C368.35,-473.807 368.488,-463.876 368.615,-454.705"/>
<polygon fill="black" stroke="black" points="372.118,-454.488 368.758,-444.441 365.119,-454.391 372.118,-454.488"/>
</g>
<!-- p2p -->
<g id="node22" class="node"><title>p2p</title>
<ellipse fill="none" stroke="black" cx="123" cy="-354" rx="27" ry="18"/>
<text text-anchor="middle" x="123" y="-351" font-family="Courier,monospace" font-size="10.00">p2p</text>
</g>
<!-- ethereum&#45;&gt;p2p -->
<g id="edge14" class="edge"><title>ethereum&#45;&gt;p2p</title>
<path fill="none" stroke="black" d="M339.018,-488.961C330.13,-486.262 320.253,-483.64 311,-482 296.641,-479.455 192.097,-482.144 180,-474 163.625,-462.976 143.464,-412.859 132.036,-381.284"/>
<polygon fill="black" stroke="black" points="135.296,-380.006 128.648,-371.756 128.701,-382.351 135.296,-380.006"/>
</g>
<!-- ethashseal -->
<g id="node10" class="node"><title>ethashseal</title>
<ellipse fill="none" stroke="black" cx="368" cy="-572" rx="43.3279" ry="18"/>
<text text-anchor="middle" x="368" y="-569" font-family="Courier,monospace" font-size="10.00">ethashseal</text>
</g>
<!-- ethashseal&#45;&gt;ethereum -->
<g id="edge18" class="edge"><title>ethashseal&#45;&gt;ethereum</title>
<path fill="none" stroke="black" d="M368,-553.697C368,-545.983 368,-536.712 368,-528.112"/>
<polygon fill="black" stroke="black" points="371.5,-528.104 368,-518.104 364.5,-528.104 371.5,-528.104"/>
</g>
<!-- ethash&#45;cl -->
<g id="node17" class="node"><title>ethash&#45;cl</title>
<ellipse fill="none" stroke="black" cx="463" cy="-500" rx="40.13" ry="18"/>
<text text-anchor="middle" x="463" y="-497" font-family="Courier,monospace" font-size="10.00">ethash&#45;cl</text>
</g>
<!-- ethashseal&#45;&gt;ethash&#45;cl -->
<g id="edge19" class="edge"><title>ethashseal&#45;&gt;ethash&#45;cl</title>
<path fill="none" stroke="black" stroke-dasharray="1,5" d="M388.614,-555.811C402.116,-545.862 419.941,-532.727 434.757,-521.81"/>
<polygon fill="black" stroke="black" points="437.103,-524.429 443.078,-515.68 432.951,-518.794 437.103,-524.429"/>
</g>
<!-- Cpuid -->
<g id="node48" class="node"><title>Cpuid</title>
<ellipse fill="none" stroke="black" cx="275" cy="-500" rx="27" ry="18"/>
<text text-anchor="middle" x="275" y="-497" font-family="Courier,monospace" font-size="10.00">Cpuid</text>
</g>
<!-- ethashseal&#45;&gt;Cpuid -->
<g id="edge20" class="edge"><title>ethashseal&#45;&gt;Cpuid</title>
<path fill="none" stroke="black" stroke-dasharray="1,5" d="M347.82,-555.811C333.977,-545.391 315.492,-531.478 300.611,-520.277"/>
<polygon fill="black" stroke="black" points="302.422,-517.259 292.327,-514.042 298.212,-522.852 302.422,-517.259"/>
</g>
<!-- ethcore -->
<g id="node11" class="node"><title>ethcore</title>
<ellipse fill="none" stroke="black" cx="423" cy="-354" rx="33.2355" ry="18"/>
<text text-anchor="middle" x="423" y="-351" font-family="Courier,monospace" font-size="10.00">ethcore</text>
</g>
<!-- ethcore&#45;&gt;buildinfo -->
<g id="edge25" class="edge"><title>ethcore&#45;&gt;buildinfo</title>
<path fill="none" stroke="black" d="M422.77,-335.795C422.252,-297.113 420.991,-203.015 420.365,-156.275"/>
<polygon fill="black" stroke="black" points="423.865,-156.216 420.231,-146.264 416.866,-156.31 423.865,-156.216"/>
</g>
<!-- devcrypto -->
<g id="node23" class="node"><title>devcrypto</title>
<ellipse fill="none" stroke="black" cx="197" cy="-282" rx="40.13" ry="18"/>
<text text-anchor="middle" x="197" y="-279" font-family="Courier,monospace" font-size="10.00">devcrypto</text>
</g>
<!-- ethcore&#45;&gt;devcrypto -->
<g id="edge26" class="edge"><title>ethcore&#45;&gt;devcrypto</title>
<path fill="none" stroke="black" d="M403.124,-339.525C396.331,-335.372 388.54,-331.085 381,-328 336.347,-309.73 282.445,-297.621 244.559,-290.612"/>
<polygon fill="black" stroke="black" points="244.781,-287.096 234.319,-288.77 243.541,-293.986 244.781,-287.096"/>
</g>
<!-- ethkey -->
<g id="node12" class="node"><title>ethkey</title>
<polygon fill="none" stroke="black" stroke-width="2" points="548,-444 494,-444 494,-408 548,-408 548,-444"/>
<text text-anchor="middle" x="521" y="-423" font-family="Courier,monospace" font-size="10.00">ethkey</text>
</g>
<!-- ethkey&#45;&gt;ethcore -->
<g id="edge33" class="edge"><title>ethkey&#45;&gt;ethcore</title>
<path fill="none" stroke="black" d="M497.027,-407.876C483.005,-397.861 465.247,-385.176 450.638,-374.742"/>
<polygon fill="black" stroke="black" points="452.625,-371.859 442.453,-368.895 448.556,-377.556 452.625,-371.859"/>
</g>
<!-- ethminer -->
<g id="node13" class="node"><title>ethminer</title>
<polygon fill="none" stroke="black" stroke-width="2" points="382.006,-662 317.994,-662 317.994,-626 382.006,-626 382.006,-662"/>
<text text-anchor="middle" x="350" y="-641" font-family="Courier,monospace" font-size="10.00">ethminer</text>
</g>
<!-- ethminer&#45;&gt;ethashseal -->
<g id="edge34" class="edge"><title>ethminer&#45;&gt;ethashseal</title>
<path fill="none" stroke="black" d="M354.449,-625.697C356.455,-617.898 358.869,-608.509 361.101,-599.829"/>
<polygon fill="black" stroke="black" points="364.501,-600.661 363.602,-590.104 357.722,-598.918 364.501,-600.661"/>
</g>
<!-- JsonRpc* -->
<g id="node47" class="node"><title>JsonRpc*</title>
<ellipse fill="none" stroke="black" cx="265" cy="-572" rx="36.433" ry="18"/>
<text text-anchor="middle" x="265" y="-569" font-family="Courier,monospace" font-size="10.00">JsonRpc*</text>
</g>
<!-- ethminer&#45;&gt;JsonRpc* -->
<g id="edge35" class="edge"><title>ethminer&#45;&gt;JsonRpc*</title>
<path fill="none" stroke="black" d="M328.989,-625.697C317.485,-616.223 303.13,-604.402 290.934,-594.357"/>
<polygon fill="black" stroke="black" points="292.841,-591.394 282.897,-587.738 288.391,-596.797 292.841,-591.394"/>
</g>
<!-- ethvm -->
<g id="node14" class="node"><title>ethvm</title>
<polygon fill="none" stroke="black" stroke-width="2" points="552,-662 498,-662 498,-626 552,-626 552,-662"/>
<text text-anchor="middle" x="525" y="-641" font-family="Courier,monospace" font-size="10.00">ethvm</text>
</g>
<!-- ethvm&#45;&gt;ethashseal -->
<g id="edge36" class="edge"><title>ethvm&#45;&gt;ethashseal</title>
<path fill="none" stroke="black" d="M502.3,-625.972C498,-623.114 493.451,-620.326 489,-618 464.493,-605.194 435.504,-594.279 412.045,-586.408"/>
<polygon fill="black" stroke="black" points="412.952,-583.022 402.359,-583.224 410.766,-589.672 412.952,-583.022"/>
</g>
<!-- evmjit -->
<g id="node15" class="node"><title>evmjit</title>
<polygon fill="none" stroke="black" stroke-width="2" points="372,-372 318,-372 318,-336 372,-336 372,-372"/>
<text text-anchor="middle" x="345" y="-351" font-family="Courier,monospace" font-size="10.00">evmjit</text>
</g>
<!-- ethash -->
<g id="node16" class="node"><title>ethash</title>
<ellipse fill="none" stroke="black" cx="446" cy="-426" rx="30.0384" ry="18"/>
<text text-anchor="middle" x="446" y="-423" font-family="Courier,monospace" font-size="10.00">ethash</text>
</g>
<!-- ethash&#45;cl&#45;&gt;ethash -->
<g id="edge37" class="edge"><title>ethash&#45;cl&#45;&gt;ethash</title>
<path fill="none" stroke="black" d="M458.971,-481.937C456.981,-473.508 454.534,-463.143 452.303,-453.696"/>
<polygon fill="black" stroke="black" points="455.704,-452.869 450,-443.941 448.892,-454.477 455.704,-452.869"/>
</g>
<!-- OpenCL -->
<g id="node51" class="node"><title>OpenCL</title>
<ellipse fill="none" stroke="black" cx="598" cy="-426" rx="30.0384" ry="18"/>
<text text-anchor="middle" x="598" y="-423" font-family="Courier,monospace" font-size="10.00">OpenCL</text>
</g>
<!-- ethash&#45;cl&#45;&gt;OpenCL -->
<g id="edge38" class="edge"><title>ethash&#45;cl&#45;&gt;OpenCL</title>
<path fill="none" stroke="black" d="M502.523,-495.675C522.327,-492.479 545.882,-486.226 564,-474 572.128,-468.516 578.991,-460.405 584.376,-452.459"/>
<polygon fill="black" stroke="black" points="587.51,-454.047 589.816,-443.706 581.565,-450.351 587.51,-454.047"/>
</g>
<!-- evm&#45;&gt;ethcore -->
<g id="edge39" class="edge"><title>evm&#45;&gt;ethcore</title>
<path fill="none" stroke="black" d="M380.984,-409.465C387.878,-400.528 396.688,-389.109 404.457,-379.037"/>
<polygon fill="black" stroke="black" points="407.338,-381.033 410.675,-370.977 401.795,-376.757 407.338,-381.033"/>
</g>
<!-- evm&#45;&gt;evmjit -->
<g id="edge40" class="edge"><title>evm&#45;&gt;evmjit</title>
<path fill="none" stroke="black" stroke-dasharray="1,5" d="M363.19,-408.055C360.489,-400.176 357.211,-390.617 354.187,-381.794"/>
<polygon fill="black" stroke="black" points="357.477,-380.6 350.923,-372.275 350.855,-382.87 357.477,-380.6"/>
</g>
<!-- evmcore -->
<g id="node19" class="node"><title>evmcore</title>
<ellipse fill="none" stroke="black" cx="508" cy="-354" rx="33.2355" ry="18"/>
<text text-anchor="middle" x="508" y="-351" font-family="Courier,monospace" font-size="10.00">evmcore</text>
</g>
<!-- evm&#45;&gt;evmcore -->
<g id="edge41" class="edge"><title>evm&#45;&gt;evmcore</title>
<path fill="none" stroke="black" d="M389.81,-414.52C412.339,-403.175 448.585,-384.921 475.004,-371.617"/>
<polygon fill="black" stroke="black" points="476.892,-374.585 484.249,-366.961 473.744,-368.333 476.892,-374.585"/>
</g>
<!-- devcore -->
<g id="node24" class="node"><title>devcore</title>
<ellipse fill="none" stroke="black" cx="261" cy="-210" rx="33.2355" ry="18"/>
<text text-anchor="middle" x="261" y="-207" font-family="Courier,monospace" font-size="10.00">devcore</text>
</g>
<!-- evmcore&#45;&gt;devcore -->
<g id="edge42" class="edge"><title>evmcore&#45;&gt;devcore</title>
<path fill="none" stroke="black" d="M486.139,-340.257C479.368,-336.319 471.88,-331.973 465,-328 403.661,-292.58 331.771,-251.434 291.801,-228.59"/>
<polygon fill="black" stroke="black" points="293.48,-225.519 283.062,-223.596 290.008,-231.597 293.48,-225.519"/>
</g>
<!-- testutils -->
<g id="node20" class="node"><title>testutils</title>
<ellipse fill="none" stroke="black" cx="440" cy="-644" rx="40.13" ry="18"/>
<text text-anchor="middle" x="440" y="-641" font-family="Courier,monospace" font-size="10.00">testutils</text>
</g>
<!-- testutils&#45;&gt;ethashseal -->
<g id="edge43" class="edge"><title>testutils&#45;&gt;ethashseal</title>
<path fill="none" stroke="black" d="M424.021,-627.465C414.486,-618.195 402.204,-606.254 391.572,-595.917"/>
<polygon fill="black" stroke="black" points="393.793,-593.195 384.183,-588.734 388.914,-598.214 393.793,-593.195"/>
</g>
<!-- testeth -->
<g id="node21" class="node"><title>testeth</title>
<polygon fill="none" stroke="black" stroke-width="2" points="439.005,-734 380.995,-734 380.995,-698 439.005,-698 439.005,-734"/>
<text text-anchor="middle" x="410" y="-713" font-family="Courier,monospace" font-size="10.00">testeth</text>
</g>
<!-- testeth&#45;&gt;testutils -->
<g id="edge44" class="edge"><title>testeth&#45;&gt;testutils</title>
<path fill="none" stroke="black" d="M417.416,-697.697C420.794,-689.813 424.87,-680.304 428.623,-671.546"/>
<polygon fill="black" stroke="black" points="431.947,-672.675 432.67,-662.104 425.513,-669.917 431.947,-672.675"/>
</g>
<!-- p2p&#45;&gt;devcrypto -->
<g id="edge27" class="edge"><title>p2p&#45;&gt;devcrypto</title>
<path fill="none" stroke="black" d="M137.975,-338.834C147.995,-329.356 161.402,-316.673 172.907,-305.791"/>
<polygon fill="black" stroke="black" points="175.643,-308.021 180.502,-298.606 170.832,-302.935 175.643,-308.021"/>
</g>
<!-- Miniupnpc -->
<g id="node49" class="node"><title>Miniupnpc</title>
<ellipse fill="none" stroke="black" cx="40" cy="-282" rx="40.13" ry="18"/>
<text text-anchor="middle" x="40" y="-279" font-family="Courier,monospace" font-size="10.00">Miniupnpc</text>
</g>
<!-- p2p&#45;&gt;Miniupnpc -->
<g id="edge28" class="edge"><title>p2p&#45;&gt;Miniupnpc</title>
<path fill="none" stroke="black" stroke-dasharray="1,5" d="M106.602,-339.17C95.0213,-329.403 79.2635,-316.114 65.9826,-304.913"/>
<polygon fill="black" stroke="black" points="67.9938,-302.031 58.0929,-298.259 63.4808,-307.382 67.9938,-302.031"/>
</g>
<!-- devcrypto&#45;&gt;scrypt -->
<g id="edge29" class="edge"><title>devcrypto&#45;&gt;scrypt</title>
<path fill="none" stroke="black" d="M193.053,-263.859C187.014,-237.631 175.426,-187.306 168.24,-156.099"/>
<polygon fill="black" stroke="black" points="171.641,-155.271 165.986,-146.311 164.819,-156.842 171.641,-155.271"/>
</g>
<!-- devcrypto&#45;&gt;secp256k1 -->
<g id="edge30" class="edge"><title>devcrypto&#45;&gt;secp256k1</title>
<path fill="none" stroke="black" d="M199.365,-263.736C202.422,-243.986 208.622,-210.905 219,-184 222.865,-173.981 228.311,-163.576 233.563,-154.547"/>
<polygon fill="black" stroke="black" points="236.725,-156.081 238.891,-145.71 230.73,-152.467 236.725,-156.081"/>
</g>
<!-- devcrypto&#45;&gt;devcore -->
<g id="edge31" class="edge"><title>devcrypto&#45;&gt;devcore</title>
<path fill="none" stroke="black" d="M211.523,-265.116C219.987,-255.858 230.804,-244.027 240.164,-233.789"/>
<polygon fill="black" stroke="black" points="242.81,-236.082 246.975,-226.34 237.644,-231.359 242.81,-236.082"/>
</g>
<!-- Cryptopp -->
<g id="node50" class="node"><title>Cryptopp</title>
<ellipse fill="none" stroke="black" cx="43" cy="-210" rx="36.433" ry="18"/>
<text text-anchor="middle" x="43" y="-207" font-family="Courier,monospace" font-size="10.00">Cryptopp</text>
</g>
<!-- devcrypto&#45;&gt;Cryptopp -->
<g id="edge32" class="edge"><title>devcrypto&#45;&gt;Cryptopp</title>
<path fill="none" stroke="black" d="M169.822,-268.647C144.333,-257.06 106.078,-239.672 78.2506,-227.023"/>
<polygon fill="black" stroke="black" points="79.4326,-223.716 68.8806,-222.764 76.5359,-230.088 79.4326,-223.716"/>
</g>
<!-- devcore&#45;&gt;base -->
<g id="edge45" class="edge"><title>devcore&#45;&gt;base</title>
<path fill="none" stroke="black" d="M279.081,-194.59C285.622,-189.05 292.895,-182.493 299,-176 305.579,-169.004 312.151,-160.853 317.845,-153.323"/>
<polygon fill="black" stroke="black" points="320.957,-155.001 324.074,-144.875 315.323,-150.847 320.957,-155.001"/>
</g>
<!-- bench -->
<g id="node25" class="node"><title>bench</title>
<polygon fill="none" stroke="black" stroke-width="2" points="294,-372 240,-372 240,-336 294,-336 294,-372"/>
<text text-anchor="middle" x="267" y="-351" font-family="Courier,monospace" font-size="10.00">bench</text>
</g>
<!-- bench&#45;&gt;devcrypto -->
<g id="edge46" class="edge"><title>bench&#45;&gt;devcrypto</title>
<path fill="none" stroke="black" d="M249.697,-335.697C240.663,-326.663 229.495,-315.495 219.769,-305.769"/>
<polygon fill="black" stroke="black" points="222.217,-303.267 212.671,-298.671 217.267,-308.217 222.217,-303.267"/>
</g>
<!-- rlp -->
<g id="node26" class="node"><title>rlp</title>
<polygon fill="none" stroke="black" stroke-width="2" points="222,-372 168,-372 168,-336 222,-336 222,-372"/>
<text text-anchor="middle" x="195" y="-351" font-family="Courier,monospace" font-size="10.00">rlp</text>
</g>
<!-- rlp&#45;&gt;devcrypto -->
<g id="edge47" class="edge"><title>rlp&#45;&gt;devcrypto</title>
<path fill="none" stroke="black" d="M195.494,-335.697C195.715,-327.983 195.98,-318.712 196.225,-310.112"/>
<polygon fill="black" stroke="black" points="199.724,-310.2 196.511,-300.104 192.727,-310 199.724,-310.2"/>
</g>
<!-- testweb3core -->
<g id="node27" class="node"><title>testweb3core</title>
<polygon fill="none" stroke="black" stroke-width="2" points="277.009,-444 188.991,-444 188.991,-408 277.009,-408 277.009,-444"/>
<text text-anchor="middle" x="233" y="-423" font-family="Courier,monospace" font-size="10.00">testweb3core</text>
</g>
<!-- testweb3core&#45;&gt;p2p -->
<g id="edge48" class="edge"><title>testweb3core&#45;&gt;p2p</title>
<path fill="none" stroke="black" d="M206.091,-407.876C189.347,-397.221 167.855,-383.544 150.924,-372.77"/>
<polygon fill="black" stroke="black" points="152.362,-369.537 142.047,-367.121 148.604,-375.442 152.362,-369.537"/>
</g>
<!-- Mix -->
<g id="node28" class="node"><title>Mix</title>
<ellipse fill="none" stroke="black" cx="587" cy="-798" rx="27" ry="18"/>
<text text-anchor="middle" x="587" y="-795" font-family="Courier,monospace" font-size="10.00">Mix</text>
</g>
<!-- Mix&#45;&gt;solidity -->
<g id="edge51" class="edge"><title>Mix&#45;&gt;solidity</title>
<path fill="none" stroke="black" stroke-dasharray="1,5" d="M605.361,-784.568C611.785,-780.397 619.114,-775.834 626,-772 651.886,-757.586 682.147,-743.206 705.129,-732.767"/>
<polygon fill="black" stroke="black" points="706.819,-735.845 714.498,-728.546 703.943,-729.463 706.819,-735.845"/>
</g>
<!-- Mix&#45;&gt;web3jsonrpc -->
<g id="edge50" class="edge"><title>Mix&#45;&gt;web3jsonrpc</title>
<path fill="none" stroke="black" d="M563.908,-788.534C547.012,-782.754 523.4,-775.529 502,-772 415.978,-757.816 391.755,-779.718 306,-764 270.923,-757.571 232.625,-744.385 204.807,-733.612"/>
<polygon fill="black" stroke="black" points="206.013,-730.326 195.426,-729.917 203.448,-736.839 206.013,-730.326"/>
</g>
<!-- Mix&#45;&gt;Qt* -->
<g id="edge49" class="edge"><title>Mix&#45;&gt;Qt*</title>
<path fill="none" stroke="black" d="M588.697,-780.034C589.729,-769.71 591.072,-756.28 592.253,-744.471"/>
<polygon fill="black" stroke="black" points="595.766,-744.516 593.278,-734.217 588.801,-743.819 595.766,-744.516"/>
</g>
<!-- evmasm -->
<g id="node32" class="node"><title>evmasm</title>
<ellipse fill="none" stroke="black" cx="741" cy="-644" rx="30.0384" ry="18"/>
<text text-anchor="middle" x="741" y="-641" font-family="Courier,monospace" font-size="10.00">evmasm</text>
</g>
<!-- lll&#45;&gt;evmasm -->
<g id="edge21" class="edge"><title>lll&#45;&gt;evmasm</title>
<path fill="none" stroke="black" d="M823.943,-702.485C808.437,-691.739 785.854,-676.087 768.166,-663.828"/>
<polygon fill="black" stroke="black" points="770.142,-660.939 759.929,-658.119 766.154,-666.692 770.142,-660.939"/>
</g>
<!-- soljson -->
<g id="node30" class="node"><title>soljson</title>
<ellipse fill="none" stroke="black" cx="819" cy="-798" rx="33.2355" ry="18"/>
<text text-anchor="middle" x="819" y="-795" font-family="Courier,monospace" font-size="10.00">soljson</text>
</g>
<!-- soljson&#45;&gt;solidity -->
<g id="edge1" class="edge"><title>soljson&#45;&gt;solidity</title>
<path fill="none" stroke="black" d="M803.961,-781.575C792.489,-769.809 776.501,-753.411 763.507,-740.084"/>
<polygon fill="black" stroke="black" points="765.746,-737.367 756.259,-732.65 760.734,-742.254 765.746,-737.367"/>
</g>
<!-- solidity&#45;&gt;evmasm -->
<g id="edge22" class="edge"><title>solidity&#45;&gt;evmasm</title>
<path fill="none" stroke="black" d="M741,-697.697C741,-689.983 741,-680.712 741,-672.112"/>
<polygon fill="black" stroke="black" points="744.5,-672.104 741,-662.104 737.5,-672.104 744.5,-672.104"/>
</g>
<!-- evmasm&#45;&gt;evmcore -->
<g id="edge52" class="edge"><title>evmasm&#45;&gt;evmcore</title>
<path fill="none" stroke="black" d="M738.004,-626.022C729.668,-583.567 702.375,-471.644 637,-408 612.819,-384.459 576.728,-370.841 548.865,-363.319"/>
<polygon fill="black" stroke="black" points="549.563,-359.885 539.009,-360.817 547.84,-366.67 549.563,-359.885"/>
</g>
<!-- lllc -->
<g id="node33" class="node"><title>lllc</title>
<polygon fill="none" stroke="black" stroke-width="2" points="924,-816 870,-816 870,-780 924,-780 924,-816"/>
<text text-anchor="middle" x="897" y="-795" font-family="Courier,monospace" font-size="10.00">lllc</text>
</g>
<!-- lllc&#45;&gt;buildinfo -->
<g id="edge53" class="edge"><title>lllc&#45;&gt;buildinfo</title>
<path fill="none" stroke="black" d="M897,-779.675C897,-751.459 897,-693.819 897,-645 897,-645 897,-645 897,-281 897,-191.901 591.051,-148.023 469.207,-134.082"/>
<polygon fill="black" stroke="black" points="469.363,-130.578 459.035,-132.939 468.581,-137.534 469.363,-130.578"/>
</g>
<!-- lllc&#45;&gt;lll -->
<g id="edge54" class="edge"><title>lllc&#45;&gt;lll</title>
<path fill="none" stroke="black" d="M885.066,-779.641C877.337,-768.4 867.163,-753.601 858.644,-741.21"/>
<polygon fill="black" stroke="black" points="861.342,-738.956 852.792,-732.698 855.574,-742.921 861.342,-738.956"/>
</g>
<!-- solc -->
<g id="node34" class="node"><title>solc</title>
<polygon fill="none" stroke="black" stroke-width="2" points="768,-816 714,-816 714,-780 768,-780 768,-816"/>
<text text-anchor="middle" x="741" y="-795" font-family="Courier,monospace" font-size="10.00">solc</text>
</g>
<!-- solc&#45;&gt;solidity -->
<g id="edge55" class="edge"><title>solc&#45;&gt;solidity</title>
<path fill="none" stroke="black" d="M741,-779.641C741,-769.297 741,-755.941 741,-744.221"/>
<polygon fill="black" stroke="black" points="744.5,-744.05 741,-734.05 737.5,-744.05 744.5,-744.05"/>
</g>
<!-- soltest -->
<g id="node35" class="node"><title>soltest</title>
<polygon fill="none" stroke="black" stroke-width="2" points="696.005,-816 637.995,-816 637.995,-780 696.005,-780 696.005,-816"/>
<text text-anchor="middle" x="667" y="-795" font-family="Courier,monospace" font-size="10.00">soltest</text>
</g>
<!-- soltest&#45;&gt;ethereum -->
<g id="edge56" class="edge"><title>soltest&#45;&gt;ethereum</title>
<path fill="none" stroke="black" d="M662.801,-779.689C657.378,-759.23 646.726,-724.608 631,-698 576.97,-606.584 462.469,-543.956 403.998,-516.582"/>
<polygon fill="black" stroke="black" points="405.322,-513.339 394.774,-512.339 402.396,-519.698 405.322,-513.339"/>
</g>
<!-- soltest&#45;&gt;solidity -->
<g id="edge57" class="edge"><title>soltest&#45;&gt;solidity</title>
<path fill="none" stroke="black" d="M683.057,-779.641C693.758,-768.072 707.945,-752.735 719.602,-740.133"/>
<polygon fill="black" stroke="black" points="722.258,-742.416 726.479,-732.698 717.119,-737.662 722.258,-742.416"/>
</g>
<!-- webthree -->
<g id="node37" class="node"><title>webthree</title>
<ellipse fill="none" stroke="black" cx="165" cy="-644" rx="36.433" ry="18"/>
<text text-anchor="middle" x="165" y="-641" font-family="Courier,monospace" font-size="10.00">webthree</text>
</g>
<!-- web3jsonrpc&#45;&gt;webthree -->
<g id="edge16" class="edge"><title>web3jsonrpc&#45;&gt;webthree</title>
<path fill="none" stroke="black" d="M165,-697.697C165,-689.983 165,-680.712 165,-672.112"/>
<polygon fill="black" stroke="black" points="168.5,-672.104 165,-662.104 161.5,-672.104 168.5,-672.104"/>
</g>
<!-- web3jsonrpc&#45;&gt;JsonRpc* -->
<g id="edge17" class="edge"><title>web3jsonrpc&#45;&gt;JsonRpc*</title>
<path fill="none" stroke="black" d="M179.85,-698.812C188.958,-688.575 200.629,-674.886 210,-662 225.01,-641.359 240.112,-616.565 250.683,-598.395"/>
<polygon fill="black" stroke="black" points="253.817,-599.967 255.773,-589.554 247.75,-596.474 253.817,-599.967"/>
</g>
<!-- webthree&#45;&gt;ethashseal -->
<g id="edge23" class="edge"><title>webthree&#45;&gt;ethashseal</title>
<path fill="none" stroke="black" d="M194.085,-632.971C228.65,-621.052 286.592,-601.072 326.015,-587.478"/>
<polygon fill="black" stroke="black" points="327.3,-590.737 335.613,-584.168 325.018,-584.119 327.3,-590.737"/>
</g>
<!-- whisper -->
<g id="node39" class="node"><title>whisper</title>
<ellipse fill="none" stroke="black" cx="144" cy="-572" rx="33.2355" ry="18"/>
<text text-anchor="middle" x="144" y="-569" font-family="Courier,monospace" font-size="10.00">whisper</text>
</g>
<!-- webthree&#45;&gt;whisper -->
<g id="edge24" class="edge"><title>webthree&#45;&gt;whisper</title>
<path fill="none" stroke="black" d="M159.916,-626.055C157.578,-618.261 154.747,-608.822 152.124,-600.079"/>
<polygon fill="black" stroke="black" points="155.409,-598.848 149.183,-590.275 148.704,-600.859 155.409,-598.848"/>
</g>
<!-- eth -->
<g id="node38" class="node"><title>eth</title>
<polygon fill="none" stroke="black" stroke-width="2" points="212,-816 158,-816 158,-780 212,-780 212,-816"/>
<text text-anchor="middle" x="185" y="-795" font-family="Courier,monospace" font-size="10.00">eth</text>
</g>
<!-- eth&#45;&gt;web3jsonrpc -->
<g id="edge58" class="edge"><title>eth&#45;&gt;web3jsonrpc</title>
<path fill="none" stroke="black" d="M180.66,-779.641C178.048,-769.192 174.667,-755.668 171.716,-743.862"/>
<polygon fill="black" stroke="black" points="175.083,-742.903 169.263,-734.05 168.292,-744.6 175.083,-742.903"/>
</g>
<!-- whisper&#45;&gt;p2p -->
<g id="edge59" class="edge"><title>whisper&#45;&gt;p2p</title>
<path fill="none" stroke="black" d="M142.317,-553.689C138.675,-516.233 130.041,-427.417 125.655,-382.307"/>
<polygon fill="black" stroke="black" points="129.113,-381.708 124.662,-372.094 122.146,-382.385 129.113,-381.708"/>
</g>
<!-- testweb3 -->
<g id="node40" class="node"><title>testweb3</title>
<polygon fill="none" stroke="black" stroke-width="2" points="140.006,-816 75.9941,-816 75.9941,-780 140.006,-780 140.006,-816"/>
<text text-anchor="middle" x="108" y="-795" font-family="Courier,monospace" font-size="10.00">testweb3</text>
</g>
<!-- testweb3&#45;&gt;web3jsonrpc -->
<g id="edge60" class="edge"><title>testweb3&#45;&gt;web3jsonrpc</title>
<path fill="none" stroke="black" d="M120.368,-779.641C128.22,-768.621 138.507,-754.183 147.226,-741.946"/>
<polygon fill="black" stroke="black" points="150.288,-743.68 153.24,-733.505 144.587,-739.618 150.288,-743.68"/>
</g>
</g>
</svg>
