<?xml version="1.0" encoding="UTF-8" standalone="no"?>
<!DOCTYPE svg PUBLIC "-//W3C//DTD SVG 1.1//EN"
 "http://www.w3.org/Graphics/SVG/1.1/DTD/svg11.dtd">
<!-- Generated by graphviz version 2.38.0 (20140413.2041)
 -->
<!-- Title: webthree Pages: 1 -->
<svg width="1184pt" height="856pt"
 viewBox="0.00 0.00 1184.03 856.00" xmlns="http://www.w3.org/2000/svg" xmlns:xlink="http://www.w3.org/1999/xlink">
<g id="graph0" class="graph" transform="scale(1 1) rotate(0) translate(4 852)">
<title>webthree</title>
<polygon fill="white" stroke="none" points="-4,4 -4,-852 1180.03,-852 1180.03,4 -4,4"/>
<text text-anchor="middle" x="588.013" y="-6.8" font-family="Times,serif" font-size="14.00">webthree dependencies</text>
<g id="clust1" class="cluster"><title>cluster_webthree_helpers</title>
<polygon fill="LemonChiffon" stroke="black" points="518,-86 518,-160 976,-160 976,-86 518,-86"/>
<text text-anchor="start" x="659.35" y="-144.8" font-family="Times,serif" font-size="14.00">webthree&#45;helpers dependencies</text>
</g>
<g id="clust2" class="cluster"><title>cluster_alethzero</title>
<polygon fill="LightGray" stroke="black" points="571,-766 571,-840 899,-840 899,-766 571,-766"/>
<text text-anchor="start" x="669.898" y="-824.8" font-family="Times,serif" font-size="14.00">alethzero dependencies</text>
</g>
<g id="clust5" class="cluster"><title>cluster_libethereum</title>
<polygon fill="LavenderBlush" stroke="black" points="776,-240 776,-758 1068,-758 1068,-240 776,-240"/>
<text text-anchor="start" x="849.115" y="-742.8" font-family="Times,serif" font-size="14.00">libethereum dependencies</text>
</g>
<g id="clust6" class="cluster"><title>cluster_libweb3core</title>
<polygon fill="AliceBlue" stroke="black" points="524,-168 524,-458 738,-458 738,-168 524,-168"/>
<text text-anchor="start" x="556.95" y="-442.8" font-family="Times,serif" font-size="14.00">libweb3core dependencies</text>
</g>
<g id="clust9" class="cluster"><title>cluster_solidity</title>
<polygon fill="WhiteSmoke" stroke="black" points="538,-466 538,-612 768,-612 768,-466 538,-466"/>
<text text-anchor="start" x="592.543" y="-596.8" font-family="Times,serif" font-size="14.00">solidity dependencies</text>
</g>
<g id="clust11" class="cluster"><title>cluster_webthree</title>
<polygon fill="Honeydew" stroke="black" points="148,-538 148,-840 428,-840 428,-538 148,-538"/>
<text text-anchor="middle" x="288" y="-824.8" font-family="Times,serif" font-size="14.00">webthree dependencies</text>
</g>
<!-- buildinfo -->
<g id="node1" class="node"><title>buildinfo</title>
<ellipse fill="none" stroke="black" cx="928" cy="-112" rx="40.3393" ry="18"/>
<text text-anchor="middle" x="928" y="-109" font-family="Courier,monospace" font-size="10.00">buildinfo</text>
</g>
<!-- base -->
<g id="node2" class="node"><title>base</title>
<ellipse fill="none" stroke="black" cx="631" cy="-112" rx="27" ry="18"/>
<text text-anchor="middle" x="631" y="-109" font-family="Courier,monospace" font-size="10.00">base</text>
</g>
<!-- boost -->
<g id="node46" class="node"><title>boost</title>
<ellipse fill="none" stroke="black" cx="571" cy="-40" rx="27" ry="18"/>
<text text-anchor="middle" x="571" y="-37" font-family="Courier,monospace" font-size="10.00">boost</text>
</g>
<!-- base&#45;&gt;boost -->
<g id="edge2" class="edge"><title>base&#45;&gt;boost</title>
<path fill="none" stroke="black" d="M617.981,-95.811C609.961,-86.4547 599.527,-74.2819 590.53,-63.7851"/>
<polygon fill="black" stroke="black" points="593.159,-61.4741 583.994,-56.1593 587.844,-66.0297 593.159,-61.4741"/>
</g>
<!-- Jsoncpp -->
<g id="node47" class="node"><title>Jsoncpp</title>
<ellipse fill="none" stroke="black" cx="649" cy="-40" rx="33.4805" ry="18"/>
<text text-anchor="middle" x="649" y="-37" font-family="Courier,monospace" font-size="10.00">Jsoncpp</text>
</g>
<!-- base&#45;&gt;Jsoncpp -->
<g id="edge3" class="edge"><title>base&#45;&gt;Jsoncpp</title>
<path fill="none" stroke="black" d="M635.357,-94.055C637.361,-86.2609 639.789,-76.8219 642.037,-68.0789"/>
<polygon fill="black" stroke="black" points="645.457,-68.8319 644.558,-58.2753 638.678,-67.0886 645.457,-68.8319"/>
</g>
<!-- LevelDB -->
<g id="node48" class="node"><title>LevelDB</title>
<ellipse fill="none" stroke="black" cx="734" cy="-40" rx="33.4805" ry="18"/>
<text text-anchor="middle" x="734" y="-37" font-family="Courier,monospace" font-size="10.00">LevelDB</text>
</g>
<!-- base&#45;&gt;LevelDB -->
<g id="edge4" class="edge"><title>base&#45;&gt;LevelDB</title>
<path fill="none" stroke="black" d="M648.907,-98.483C654.671,-94.4763 661.093,-90.0341 667,-86 679.448,-77.4984 693.265,-68.1955 705.103,-60.2659"/>
<polygon fill="black" stroke="black" points="707.348,-62.975 713.714,-54.5059 703.457,-57.1566 707.348,-62.975"/>
</g>
<!-- pthreads -->
<g id="node49" class="node"><title>pthreads</title>
<ellipse fill="none" stroke="black" cx="489" cy="-40" rx="36.9099" ry="18"/>
<text text-anchor="middle" x="489" y="-37" font-family="Courier,monospace" font-size="10.00">pthreads</text>
</g>
<!-- base&#45;&gt;pthreads -->
<g id="edge5" class="edge"><title>base&#45;&gt;pthreads</title>
<path fill="none" stroke="black" d="M613.886,-98.046C608.057,-93.9272 601.396,-89.5292 595,-86 573.391,-74.076 547.974,-63.1878 527.446,-55.1092"/>
<polygon fill="black" stroke="black" points="528.684,-51.8356 518.095,-51.4894 526.157,-58.3636 528.684,-51.8356"/>
</g>
<!-- json_spirit -->
<g id="node3" class="node"><title>json_spirit</title>
<ellipse fill="none" stroke="black" cx="723" cy="-112" rx="47.1983" ry="18"/>
<text text-anchor="middle" x="723" y="-109" font-family="Courier,monospace" font-size="10.00">json_spirit</text>
</g>
<!-- scrypt -->
<g id="node4" class="node"><title>scrypt</title>
<ellipse fill="none" stroke="black" cx="556" cy="-112" rx="30.0512" ry="18"/>
<text text-anchor="middle" x="556" y="-109" font-family="Courier,monospace" font-size="10.00">scrypt</text>
</g>
<!-- secp256k1 -->
<g id="node5" class="node"><title>secp256k1</title>
<ellipse fill="none" stroke="black" cx="829" cy="-112" rx="40.3393" ry="18"/>
<text text-anchor="middle" x="829" y="-109" font-family="Courier,monospace" font-size="10.00">secp256k1</text>
</g>
<!-- gmp -->
<g id="node50" class="node"><title>gmp</title>
<ellipse fill="none" stroke="black" cx="829" cy="-40" rx="27" ry="18"/>
<text text-anchor="middle" x="829" y="-37" font-family="Courier,monospace" font-size="10.00">gmp</text>
</g>
<!-- secp256k1&#45;&gt;gmp -->
<g id="edge6" class="edge"><title>secp256k1&#45;&gt;gmp</title>
<path fill="none" stroke="black" d="M829,-93.6966C829,-85.9827 829,-76.7125 829,-68.1124"/>
<polygon fill="black" stroke="black" points="832.5,-68.1043 829,-58.1043 825.5,-68.1044 832.5,-68.1043"/>
</g>
<!-- AlethFive -->
<g id="node6" class="node"><title>AlethFive</title>
<polygon fill="none" stroke="black" stroke-width="2" points="809.009,-810 738.991,-810 738.991,-774 809.009,-774 809.009,-810"/>
<text text-anchor="middle" x="774" y="-789" font-family="Courier,monospace" font-size="10.00">AlethFive</text>
</g>
<!-- ethereum -->
<g id="node10" class="node"><title>ethereum</title>
<ellipse fill="none" stroke="black" cx="821" cy="-492" rx="36.9099" ry="18"/>
<text text-anchor="middle" x="821" y="-489" font-family="Courier,monospace" font-size="10.00">ethereum</text>
</g>
<!-- AlethFive&#45;&gt;ethereum -->
<g id="edge8" class="edge"><title>AlethFive&#45;&gt;ethereum</title>
<path fill="none" stroke="black" d="M775.206,-773.95C778.329,-732.926 787.805,-625.621 807,-538 808.324,-531.958 810.086,-525.561 811.913,-519.545"/>
<polygon fill="black" stroke="black" points="815.282,-520.5 814.982,-509.91 808.612,-518.376 815.282,-520.5"/>
</g>
<!-- Qt* -->
<g id="node51" class="node"><title>Qt*</title>
<ellipse fill="none" stroke="black" cx="709" cy="-710" rx="27" ry="18"/>
<text text-anchor="middle" x="709" y="-707" font-family="Courier,monospace" font-size="10.00">Qt*</text>
</g>
<!-- AlethFive&#45;&gt;Qt* -->
<g id="edge7" class="edge"><title>AlethFive&#45;&gt;Qt*</title>
<path fill="none" stroke="black" d="M759.896,-773.641C750.462,-762.031 737.945,-746.625 727.685,-733.997"/>
<polygon fill="black" stroke="black" points="730.346,-731.722 721.324,-726.168 724.913,-736.136 730.346,-731.722"/>
</g>
<!-- AlethOne -->
<g id="node7" class="node"><title>AlethOne</title>
<polygon fill="none" stroke="black" stroke-width="2" points="891.008,-810 826.992,-810 826.992,-774 891.008,-774 891.008,-810"/>
<text text-anchor="middle" x="859" y="-789" font-family="Courier,monospace" font-size="10.00">AlethOne</text>
</g>
<!-- ethashseal -->
<g id="node11" class="node"><title>ethashseal</title>
<ellipse fill="none" stroke="black" cx="932" cy="-564" rx="43.7688" ry="18"/>
<text text-anchor="middle" x="932" y="-561" font-family="Courier,monospace" font-size="10.00">ethashseal</text>
</g>
<!-- AlethOne&#45;&gt;ethashseal -->
<g id="edge10" class="edge"><title>AlethOne&#45;&gt;ethashseal</title>
<path fill="none" stroke="black" d="M854.271,-773.88C846.291,-741.17 833.793,-668.716 864,-620 867.982,-613.579 872.797,-616.314 879,-612 889.308,-604.831 899.823,-595.905 908.741,-587.763"/>
<polygon fill="black" stroke="black" points="911.2,-590.256 916.122,-580.875 906.424,-585.139 911.2,-590.256"/>
</g>
<!-- AlethOne&#45;&gt;Qt* -->
<g id="edge9" class="edge"><title>AlethOne&#45;&gt;Qt*</title>
<path fill="none" stroke="black" d="M834.17,-773.84C829.002,-770.856 823.462,-768.055 818,-766 798.578,-758.692 791.06,-766.206 772,-758 757.275,-751.66 742.797,-741.24 731.44,-731.821"/>
<polygon fill="black" stroke="black" points="733.625,-729.084 723.764,-725.212 729.058,-734.389 733.625,-729.084"/>
</g>
<!-- AlethZero -->
<g id="node8" class="node"><title>AlethZero</title>
<polygon fill="none" stroke="black" stroke-width="2" points="721.009,-810 650.991,-810 650.991,-774 721.009,-774 721.009,-810"/>
<text text-anchor="middle" x="686" y="-789" font-family="Courier,monospace" font-size="10.00">AlethZero</text>
</g>
<!-- natspec -->
<g id="node12" class="node"><title>natspec</title>
<ellipse fill="none" stroke="black" cx="982" cy="-710" rx="33.4805" ry="18"/>
<text text-anchor="middle" x="982" y="-707" font-family="Courier,monospace" font-size="10.00">natspec</text>
</g>
<!-- AlethZero&#45;&gt;natspec -->
<g id="edge13" class="edge"><title>AlethZero&#45;&gt;natspec</title>
<path fill="none" stroke="black" d="M711.615,-773.759C717.433,-770.62 723.747,-767.78 730,-766 752.458,-759.606 918.872,-767.942 940,-758 950.355,-753.128 959.259,-744.393 966.169,-735.764"/>
<polygon fill="black" stroke="black" points="969.035,-737.775 972.165,-727.654 963.406,-733.614 969.035,-737.775"/>
</g>
<!-- web3jsonrpc -->
<g id="node37" class="node"><title>web3jsonrpc</title>
<ellipse fill="none" stroke="black" cx="373" cy="-710" rx="47.1983" ry="18"/>
<text text-anchor="middle" x="373" y="-707" font-family="Courier,monospace" font-size="10.00">web3jsonrpc</text>
</g>
<!-- AlethZero&#45;&gt;web3jsonrpc -->
<g id="edge12" class="edge"><title>AlethZero&#45;&gt;web3jsonrpc</title>
<path fill="none" stroke="black" d="M658.713,-773.752C653.319,-770.848 647.593,-768.1 642,-766 570.582,-739.184 483.329,-724.401 427.95,-717.087"/>
<polygon fill="black" stroke="black" points="428.357,-713.61 417.992,-715.807 427.464,-720.553 428.357,-713.61"/>
</g>
<!-- AlethZero&#45;&gt;Qt* -->
<g id="edge11" class="edge"><title>AlethZero&#45;&gt;Qt*</title>
<path fill="none" stroke="black" d="M690.991,-773.641C694.015,-763.121 697.936,-749.484 701.346,-737.622"/>
<polygon fill="black" stroke="black" points="704.777,-738.355 704.177,-727.777 698.05,-736.42 704.777,-738.355"/>
</g>
<!-- aleth -->
<g id="node9" class="node"><title>aleth</title>
<ellipse fill="none" stroke="black" cx="606" cy="-792" rx="27" ry="18"/>
<text text-anchor="middle" x="606" y="-789" font-family="Courier,monospace" font-size="10.00">aleth</text>
</g>
<!-- aleth&#45;&gt;natspec -->
<g id="edge16" class="edge"><title>aleth&#45;&gt;natspec</title>
<path fill="none" stroke="black" d="M621.757,-777.106C627.695,-772.705 634.77,-768.371 642,-766 673.474,-755.678 909.95,-771.934 940,-758 950.382,-753.186 959.291,-744.462 966.197,-735.825"/>
<polygon fill="black" stroke="black" points="969.069,-737.828 972.188,-727.703 963.436,-733.673 969.069,-737.828"/>
</g>
<!-- aleth&#45;&gt;web3jsonrpc -->
<g id="edge15" class="edge"><title>aleth&#45;&gt;web3jsonrpc</title>
<path fill="none" stroke="black" d="M582.376,-782.889C543.628,-769.585 465.979,-742.924 416.904,-726.074"/>
<polygon fill="black" stroke="black" points="417.785,-722.676 407.19,-722.739 415.512,-729.297 417.785,-722.676"/>
</g>
<!-- aleth&#45;&gt;Qt* -->
<g id="edge14" class="edge"><title>aleth&#45;&gt;Qt*</title>
<path fill="none" stroke="black" d="M623.008,-777.79C639.633,-764.878 665.131,-745.073 684.05,-730.379"/>
<polygon fill="black" stroke="black" points="686.216,-733.128 691.966,-724.23 681.922,-727.6 686.216,-733.128"/>
</g>
<!-- evm -->
<g id="node20" class="node"><title>evm</title>
<ellipse fill="none" stroke="black" cx="883" cy="-410" rx="27" ry="18"/>
<text text-anchor="middle" x="883" y="-407" font-family="Courier,monospace" font-size="10.00">evm</text>
</g>
<!-- ethereum&#45;&gt;evm -->
<g id="edge18" class="edge"><title>ethereum&#45;&gt;evm</title>
<path fill="none" stroke="black" d="M833.739,-474.921C837.974,-469.552 842.704,-463.529 847,-458 852.892,-450.416 859.279,-442.107 865.014,-434.612"/>
<polygon fill="black" stroke="black" points="868.089,-436.352 871.379,-426.281 862.527,-432.102 868.089,-436.352"/>
</g>
<!-- lll -->
<g id="node23" class="node"><title>lll</title>
<ellipse fill="none" stroke="black" cx="811" cy="-410" rx="27" ry="18"/>
<text text-anchor="middle" x="811" y="-407" font-family="Courier,monospace" font-size="10.00">lll</text>
</g>
<!-- ethereum&#45;&gt;lll -->
<g id="edge19" class="edge"><title>ethereum&#45;&gt;lll</title>
<path fill="none" stroke="black" d="M818.83,-473.641C817.537,-463.297 815.868,-449.941 814.403,-438.221"/>
<polygon fill="black" stroke="black" points="817.845,-437.539 813.131,-428.05 810.899,-438.407 817.845,-437.539"/>
</g>
<!-- p2p -->
<g id="node27" class="node"><title>p2p</title>
<ellipse fill="none" stroke="black" cx="559" cy="-338" rx="27" ry="18"/>
<text text-anchor="middle" x="559" y="-335" font-family="Courier,monospace" font-size="10.00">p2p</text>
</g>
<!-- ethereum&#45;&gt;p2p -->
<g id="edge17" class="edge"><title>ethereum&#45;&gt;p2p</title>
<path fill="none" stroke="black" d="M798.208,-477.777C750.407,-450.045 639.78,-385.865 587.434,-355.496"/>
<polygon fill="black" stroke="black" points="589.068,-352.398 578.662,-350.407 585.555,-358.452 589.068,-352.398"/>
</g>
<!-- JsonRpc* -->
<g id="node52" class="node"><title>JsonRpc*</title>
<ellipse fill="none" stroke="black" cx="470" cy="-410" rx="36.9099" ry="18"/>
<text text-anchor="middle" x="470" y="-407" font-family="Courier,monospace" font-size="10.00">JsonRpc*</text>
</g>
<!-- ethereum&#45;&gt;JsonRpc* -->
<g id="edge20" class="edge"><title>ethereum&#45;&gt;JsonRpc*</title>
<path fill="none" stroke="black" d="M799.38,-477.378C791.129,-472.888 781.434,-468.427 772,-466 744.869,-459.022 545.877,-468.731 520,-458 508.084,-453.058 497.303,-443.889 488.828,-434.951"/>
<polygon fill="black" stroke="black" points="491.263,-432.421 482.005,-427.27 486.029,-437.07 491.263,-432.421"/>
</g>
<!-- ethashseal&#45;&gt;ethereum -->
<g id="edge21" class="edge"><title>ethashseal&#45;&gt;ethereum</title>
<path fill="none" stroke="black" d="M909.001,-548.496C892.302,-537.965 869.542,-523.612 851.353,-512.141"/>
<polygon fill="black" stroke="black" points="853.162,-509.145 842.837,-506.771 849.428,-515.066 853.162,-509.145"/>
</g>
<!-- ethash&#45;cl -->
<g id="node19" class="node"><title>ethash&#45;cl</title>
<ellipse fill="none" stroke="black" cx="1019" cy="-492" rx="40.3393" ry="18"/>
<text text-anchor="middle" x="1019" y="-489" font-family="Courier,monospace" font-size="10.00">ethash&#45;cl</text>
</g>
<!-- ethashseal&#45;&gt;ethash&#45;cl -->
<g id="edge22" class="edge"><title>ethashseal&#45;&gt;ethash&#45;cl</title>
<path fill="none" stroke="black" stroke-dasharray="1,5" d="M951.308,-547.465C963.413,-537.725 979.183,-525.036 992.456,-514.357"/>
<polygon fill="black" stroke="black" points="994.746,-517.007 1000.34,-508.011 990.358,-511.553 994.746,-517.007"/>
</g>
<!-- Cpuid -->
<g id="node53" class="node"><title>Cpuid</title>
<ellipse fill="none" stroke="black" cx="1104" cy="-492" rx="27" ry="18"/>
<text text-anchor="middle" x="1104" y="-489" font-family="Courier,monospace" font-size="10.00">Cpuid</text>
</g>
<!-- ethashseal&#45;&gt;Cpuid -->
<g id="edge23" class="edge"><title>ethashseal&#45;&gt;Cpuid</title>
<path fill="none" stroke="black" stroke-dasharray="1,5" d="M964.725,-551.932C993.405,-541.922 1036.01,-526.292 1072,-510 1072.85,-509.614 1073.71,-509.216 1074.58,-508.807"/>
<polygon fill="black" stroke="black" points="1076.48,-511.77 1083.88,-504.184 1073.37,-505.502 1076.48,-511.77"/>
</g>
<!-- ethcore -->
<g id="node13" class="node"><title>ethcore</title>
<ellipse fill="none" stroke="black" cx="987" cy="-338" rx="33.4805" ry="18"/>
<text text-anchor="middle" x="987" y="-335" font-family="Courier,monospace" font-size="10.00">ethcore</text>
</g>
<!-- ethcore&#45;&gt;buildinfo -->
<g id="edge29" class="edge"><title>ethcore&#45;&gt;buildinfo</title>
<path fill="none" stroke="black" d="M982.468,-319.795C972.233,-280.936 947.268,-186.154 935.016,-139.638"/>
<polygon fill="black" stroke="black" points="938.398,-138.736 932.466,-129.957 931.629,-140.519 938.398,-138.736"/>
</g>
<!-- devcrypto -->
<g id="node28" class="node"><title>devcrypto</title>
<ellipse fill="none" stroke="black" cx="631" cy="-266" rx="40.3393" ry="18"/>
<text text-anchor="middle" x="631" y="-263" font-family="Courier,monospace" font-size="10.00">devcrypto</text>
</g>
<!-- ethcore&#45;&gt;devcrypto -->
<g id="edge30" class="edge"><title>ethcore&#45;&gt;devcrypto</title>
<path fill="none" stroke="black" d="M961.992,-325.845C956.473,-323.675 950.601,-321.586 945,-320 853.292,-294.035 742.697,-279.005 680.245,-271.958"/>
<polygon fill="black" stroke="black" points="680.599,-268.475 670.274,-270.854 679.829,-275.433 680.599,-268.475"/>
</g>
<!-- ethkey -->
<g id="node14" class="node"><title>ethkey</title>
<polygon fill="none" stroke="black" stroke-width="2" points="982,-428 928,-428 928,-392 982,-392 982,-428"/>
<text text-anchor="middle" x="955" y="-407" font-family="Courier,monospace" font-size="10.00">ethkey</text>
</g>
<!-- ethkey&#45;&gt;ethcore -->
<g id="edge37" class="edge"><title>ethkey&#45;&gt;ethcore</title>
<path fill="none" stroke="black" d="M962.91,-391.697C966.607,-383.609 971.086,-373.812 975.174,-364.869"/>
<polygon fill="black" stroke="black" points="978.427,-366.172 979.401,-355.622 972.06,-363.262 978.427,-366.172"/>
</g>
<!-- ethminer -->
<g id="node15" class="node"><title>ethminer</title>
<polygon fill="none" stroke="black" stroke-width="2" points="1035.01,-656 970.992,-656 970.992,-620 1035.01,-620 1035.01,-656"/>
<text text-anchor="middle" x="1003" y="-635" font-family="Courier,monospace" font-size="10.00">ethminer</text>
</g>
<!-- ethminer&#45;&gt;ethashseal -->
<g id="edge38" class="edge"><title>ethminer&#45;&gt;ethashseal</title>
<path fill="none" stroke="black" d="M986.174,-619.937C976.803,-610.434 965.004,-598.469 954.812,-588.133"/>
<polygon fill="black" stroke="black" points="957.246,-585.617 947.732,-580.954 952.262,-590.532 957.246,-585.617"/>
</g>
<!-- ethvm -->
<g id="node16" class="node"><title>ethvm</title>
<polygon fill="none" stroke="black" stroke-width="2" points="870,-582 816,-582 816,-546 870,-546 870,-582"/>
<text text-anchor="middle" x="843" y="-561" font-family="Courier,monospace" font-size="10.00">ethvm</text>
</g>
<!-- ethvm&#45;&gt;ethereum -->
<g id="edge39" class="edge"><title>ethvm&#45;&gt;ethereum</title>
<path fill="none" stroke="black" d="M837.562,-545.697C835.111,-537.898 832.16,-528.509 829.432,-519.829"/>
<polygon fill="black" stroke="black" points="832.713,-518.595 826.376,-510.104 826.035,-520.694 832.713,-518.595"/>
</g>
<!-- evmjit -->
<g id="node17" class="node"><title>evmjit</title>
<polygon fill="none" stroke="black" stroke-width="2" points="936,-356 882,-356 882,-320 936,-320 936,-356"/>
<text text-anchor="middle" x="909" y="-335" font-family="Courier,monospace" font-size="10.00">evmjit</text>
</g>
<!-- ethash -->
<g id="node18" class="node"><title>ethash</title>
<ellipse fill="none" stroke="black" cx="1030" cy="-410" rx="30.0512" ry="18"/>
<text text-anchor="middle" x="1030" y="-407" font-family="Courier,monospace" font-size="10.00">ethash</text>
</g>
<!-- ethash&#45;cl&#45;&gt;ethash -->
<g id="edge40" class="edge"><title>ethash&#45;cl&#45;&gt;ethash</title>
<path fill="none" stroke="black" d="M1021.39,-473.641C1022.81,-463.297 1024.65,-449.941 1026.26,-438.221"/>
<polygon fill="black" stroke="black" points="1029.76,-438.434 1027.66,-428.05 1022.83,-437.48 1029.76,-438.434"/>
</g>
<!-- OpenCL -->
<g id="node56" class="node"><title>OpenCL</title>
<ellipse fill="none" stroke="black" cx="1146" cy="-410" rx="30.0512" ry="18"/>
<text text-anchor="middle" x="1146" y="-407" font-family="Courier,monospace" font-size="10.00">OpenCL</text>
</g>
<!-- ethash&#45;cl&#45;&gt;OpenCL -->
<g id="edge41" class="edge"><title>ethash&#45;cl&#45;&gt;OpenCL</title>
<path fill="none" stroke="black" d="M1042.91,-477.349C1050.73,-473.282 1059.57,-469.09 1068,-466 1082.57,-460.656 1088.56,-465.777 1102,-458 1112.12,-452.144 1121.31,-443.229 1128.65,-434.732"/>
<polygon fill="black" stroke="black" points="1131.48,-436.791 1135.08,-426.826 1126.05,-432.373 1131.48,-436.791"/>
</g>
<!-- evm&#45;&gt;ethcore -->
<g id="edge42" class="edge"><title>evm&#45;&gt;ethcore</title>
<path fill="none" stroke="black" d="M901.593,-396.485C917.359,-385.874 940.23,-370.48 958.337,-358.292"/>
<polygon fill="black" stroke="black" points="960.45,-361.089 966.792,-352.602 956.541,-355.282 960.45,-361.089"/>
</g>
<!-- evm&#45;&gt;evmjit -->
<g id="edge43" class="edge"><title>evm&#45;&gt;evmjit</title>
<path fill="none" stroke="black" stroke-dasharray="1,5" d="M889.162,-392.411C892.086,-384.539 895.655,-374.929 898.956,-366.042"/>
<polygon fill="black" stroke="black" points="902.319,-367.04 902.52,-356.447 895.757,-364.602 902.319,-367.04"/>
</g>
<!-- evmcore -->
<g id="node22" class="node"><title>evmcore</title>
<ellipse fill="none" stroke="black" cx="817" cy="-266" rx="33.4805" ry="18"/>
<text text-anchor="middle" x="817" y="-263" font-family="Courier,monospace" font-size="10.00">evmcore</text>
</g>
<!-- evm&#45;&gt;evmcore -->
<g id="edge44" class="edge"><title>evm&#45;&gt;evmcore</title>
<path fill="none" stroke="black" d="M878.769,-392.058C873.86,-373.74 864.893,-343.951 853,-320 848.102,-310.137 841.609,-299.976 835.486,-291.223"/>
<polygon fill="black" stroke="black" points="838.247,-289.067 829.56,-283.002 832.569,-293.161 838.247,-289.067"/>
</g>
<!-- evmasm -->
<g id="node21" class="node"><title>evmasm</title>
<ellipse fill="none" stroke="black" cx="814" cy="-338" rx="30.0512" ry="18"/>
<text text-anchor="middle" x="814" y="-335" font-family="Courier,monospace" font-size="10.00">evmasm</text>
</g>
<!-- evmasm&#45;&gt;evmcore -->
<g id="edge45" class="edge"><title>evmasm&#45;&gt;evmcore</title>
<path fill="none" stroke="black" d="M814.742,-319.697C815.072,-311.983 815.469,-302.712 815.838,-294.112"/>
<polygon fill="black" stroke="black" points="819.335,-294.245 816.267,-284.104 812.342,-293.945 819.335,-294.245"/>
</g>
<!-- devcore -->
<g id="node29" class="node"><title>devcore</title>
<ellipse fill="none" stroke="black" cx="631" cy="-194" rx="33.4805" ry="18"/>
<text text-anchor="middle" x="631" y="-191" font-family="Courier,monospace" font-size="10.00">devcore</text>
</g>
<!-- evmcore&#45;&gt;devcore -->
<g id="edge46" class="edge"><title>evmcore&#45;&gt;devcore</title>
<path fill="none" stroke="black" d="M790.351,-254.971C758.031,-242.807 703.403,-222.248 667.267,-208.649"/>
<polygon fill="black" stroke="black" points="668.192,-205.257 657.6,-205.011 665.726,-211.809 668.192,-205.257"/>
</g>
<!-- lll&#45;&gt;evmasm -->
<g id="edge47" class="edge"><title>lll&#45;&gt;evmasm</title>
<path fill="none" stroke="black" d="M811.742,-391.697C812.072,-383.983 812.469,-374.712 812.838,-366.112"/>
<polygon fill="black" stroke="black" points="816.335,-366.245 813.267,-356.104 809.342,-365.945 816.335,-366.245"/>
</g>
<!-- testutils -->
<g id="node24" class="node"><title>testutils</title>
<ellipse fill="none" stroke="black" cx="913" cy="-638" rx="40.3393" ry="18"/>
<text text-anchor="middle" x="913" y="-635" font-family="Courier,monospace" font-size="10.00">testutils</text>
</g>
<!-- testutils&#45;&gt;ethashseal -->
<g id="edge48" class="edge"><title>testutils&#45;&gt;ethashseal</title>
<path fill="none" stroke="black" d="M917.503,-619.937C919.727,-611.508 922.462,-601.143 924.955,-591.696"/>
<polygon fill="black" stroke="black" points="928.362,-592.503 927.53,-581.941 921.594,-590.716 928.362,-592.503"/>
</g>
<!-- lllc -->
<g id="node25" class="node"><title>lllc</title>
<polygon fill="none" stroke="black" stroke-width="2" points="946,-510 892,-510 892,-474 946,-474 946,-510"/>
<text text-anchor="middle" x="919" y="-489" font-family="Courier,monospace" font-size="10.00">lllc</text>
</g>
<!-- lllc&#45;&gt;buildinfo -->
<g id="edge49" class="edge"><title>lllc&#45;&gt;buildinfo</title>
<path fill="none" stroke="black" d="M946.048,-475.411C953.581,-471.723 961.918,-468.221 970,-466 991.283,-460.151 1052.8,-472.989 1069,-458 1108.31,-421.628 1088,-392.559 1088,-339 1088,-339 1088,-339 1088,-265 1088,-198.01 1013.37,-151.623 966.045,-128.945"/>
<polygon fill="black" stroke="black" points="967.518,-125.77 956.975,-124.726 964.566,-132.117 967.518,-125.77"/>
</g>
<!-- lllc&#45;&gt;lll -->
<g id="edge50" class="edge"><title>lllc&#45;&gt;lll</title>
<path fill="none" stroke="black" d="M891.903,-477.546C883.932,-473.704 875.161,-469.589 867,-466 858.236,-462.146 854.628,-463.785 847,-458 838.941,-451.888 831.758,-443.53 825.969,-435.556"/>
<polygon fill="black" stroke="black" points="828.783,-433.47 820.258,-427.179 822.999,-437.413 828.783,-433.47"/>
</g>
<!-- testeth -->
<g id="node26" class="node"><title>testeth</title>
<polygon fill="none" stroke="black" stroke-width="2" points="931.007,-728 872.993,-728 872.993,-692 931.007,-692 931.007,-728"/>
<text text-anchor="middle" x="902" y="-707" font-family="Courier,monospace" font-size="10.00">testeth</text>
</g>
<!-- testeth&#45;&gt;testutils -->
<g id="edge51" class="edge"><title>testeth&#45;&gt;testutils</title>
<path fill="none" stroke="black" d="M904.719,-691.697C905.931,-683.983 907.388,-674.712 908.739,-666.112"/>
<polygon fill="black" stroke="black" points="912.217,-666.526 910.312,-656.104 905.302,-665.44 912.217,-666.526"/>
</g>
<!-- p2p&#45;&gt;devcrypto -->
<g id="edge31" class="edge"><title>p2p&#45;&gt;devcrypto</title>
<path fill="none" stroke="black" d="M573.57,-322.834C583.319,-313.356 596.364,-300.673 607.558,-289.791"/>
<polygon fill="black" stroke="black" points="610.218,-292.086 614.948,-282.606 605.338,-287.067 610.218,-292.086"/>
</g>
<!-- Miniupnpc -->
<g id="node54" class="node"><title>Miniupnpc</title>
<ellipse fill="none" stroke="black" cx="476" cy="-266" rx="40.3393" ry="18"/>
<text text-anchor="middle" x="476" y="-263" font-family="Courier,monospace" font-size="10.00">Miniupnpc</text>
</g>
<!-- p2p&#45;&gt;Miniupnpc -->
<g id="edge32" class="edge"><title>p2p&#45;&gt;Miniupnpc</title>
<path fill="none" stroke="black" stroke-dasharray="1,5" d="M542.602,-323.17C531.021,-313.403 515.263,-300.114 501.983,-288.913"/>
<polygon fill="black" stroke="black" points="503.994,-286.031 494.093,-282.259 499.481,-291.382 503.994,-286.031"/>
</g>
<!-- devcrypto&#45;&gt;scrypt -->
<g id="edge33" class="edge"><title>devcrypto&#45;&gt;scrypt</title>
<path fill="none" stroke="black" d="M595.814,-256.751C540.278,-243.568 438.037,-218.563 433,-212 421.093,-196.487 422.362,-184.409 433,-168 451.415,-139.593 488.321,-125.726 516.924,-119.039"/>
<polygon fill="black" stroke="black" points="517.985,-122.392 527.037,-116.887 516.527,-115.545 517.985,-122.392"/>
</g>
<!-- devcrypto&#45;&gt;secp256k1 -->
<g id="edge34" class="edge"><title>devcrypto&#45;&gt;secp256k1</title>
<path fill="none" stroke="black" d="M653.006,-250.768C682.532,-231.367 736.209,-195.013 779,-160 788.177,-152.491 797.776,-143.716 806.082,-135.795"/>
<polygon fill="black" stroke="black" points="808.539,-138.288 813.297,-128.822 803.674,-133.255 808.539,-138.288"/>
</g>
<!-- devcrypto&#45;&gt;devcore -->
<g id="edge35" class="edge"><title>devcrypto&#45;&gt;devcore</title>
<path fill="none" stroke="black" d="M631,-247.697C631,-239.983 631,-230.712 631,-222.112"/>
<polygon fill="black" stroke="black" points="634.5,-222.104 631,-212.104 627.5,-222.104 634.5,-222.104"/>
</g>
<!-- Cryptopp -->
<g id="node55" class="node"><title>Cryptopp</title>
<ellipse fill="none" stroke="black" cx="479" cy="-194" rx="36.9099" ry="18"/>
<text text-anchor="middle" x="479" y="-191" font-family="Courier,monospace" font-size="10.00">Cryptopp</text>
</g>
<!-- devcrypto&#45;&gt;Cryptopp -->
<g id="edge36" class="edge"><title>devcrypto&#45;&gt;Cryptopp</title>
<path fill="none" stroke="black" d="M603.825,-252.485C578.771,-240.947 541.44,-223.755 514.13,-211.178"/>
<polygon fill="black" stroke="black" points="515.472,-207.943 504.925,-206.939 512.544,-214.301 515.472,-207.943"/>
</g>
<!-- devcore&#45;&gt;base -->
<g id="edge52" class="edge"><title>devcore&#45;&gt;base</title>
<path fill="none" stroke="black" d="M631,-175.641C631,-165.297 631,-151.941 631,-140.221"/>
<polygon fill="black" stroke="black" points="634.5,-140.05 631,-130.05 627.5,-140.05 634.5,-140.05"/>
</g>
<!-- bench -->
<g id="node30" class="node"><title>bench</title>
<polygon fill="none" stroke="black" stroke-width="2" points="658,-356 604,-356 604,-320 658,-320 658,-356"/>
<text text-anchor="middle" x="631" y="-335" font-family="Courier,monospace" font-size="10.00">bench</text>
</g>
<!-- bench&#45;&gt;devcrypto -->
<g id="edge53" class="edge"><title>bench&#45;&gt;devcrypto</title>
<path fill="none" stroke="black" d="M631,-319.697C631,-311.983 631,-302.712 631,-294.112"/>
<polygon fill="black" stroke="black" points="634.5,-294.104 631,-284.104 627.5,-294.104 634.5,-294.104"/>
</g>
<!-- rlp -->
<g id="node31" class="node"><title>rlp</title>
<polygon fill="none" stroke="black" stroke-width="2" points="730,-356 676,-356 676,-320 730,-320 730,-356"/>
<text text-anchor="middle" x="703" y="-335" font-family="Courier,monospace" font-size="10.00">rlp</text>
</g>
<!-- rlp&#45;&gt;devcrypto -->
<g id="edge54" class="edge"><title>rlp&#45;&gt;devcrypto</title>
<path fill="none" stroke="black" d="M685.202,-319.697C675.911,-310.663 664.424,-299.495 654.419,-289.769"/>
<polygon fill="black" stroke="black" points="656.729,-287.133 647.119,-282.671 651.849,-292.152 656.729,-287.133"/>
</g>
<!-- testweb3core -->
<g id="node32" class="node"><title>testweb3core</title>
<polygon fill="none" stroke="black" stroke-width="2" points="620.012,-428 531.988,-428 531.988,-392 620.012,-392 620.012,-428"/>
<text text-anchor="middle" x="576" y="-407" font-family="Courier,monospace" font-size="10.00">testweb3core</text>
</g>
<!-- testweb3core&#45;&gt;p2p -->
<g id="edge55" class="edge"><title>testweb3core&#45;&gt;p2p</title>
<path fill="none" stroke="black" d="M571.798,-391.697C569.904,-383.898 567.623,-374.509 565.516,-365.829"/>
<polygon fill="black" stroke="black" points="568.915,-364.996 563.154,-356.104 562.113,-366.648 568.915,-364.996"/>
</g>
<!-- soljson -->
<g id="node33" class="node"><title>soljson</title>
<ellipse fill="none" stroke="black" cx="579" cy="-564" rx="33.4805" ry="18"/>
<text text-anchor="middle" x="579" y="-561" font-family="Courier,monospace" font-size="10.00">soljson</text>
</g>
<!-- solidity -->
<g id="node34" class="node"><title>solidity</title>
<ellipse fill="none" stroke="black" cx="657" cy="-492" rx="36.9099" ry="18"/>
<text text-anchor="middle" x="657" y="-489" font-family="Courier,monospace" font-size="10.00">solidity</text>
</g>
<!-- soljson&#45;&gt;solidity -->
<g id="edge1" class="edge"><title>soljson&#45;&gt;solidity</title>
<path fill="none" stroke="black" d="M595.542,-548.155C606.327,-538.476 620.588,-525.678 632.657,-514.846"/>
<polygon fill="black" stroke="black" points="635.108,-517.349 640.213,-508.065 630.433,-512.139 635.108,-517.349"/>
</g>
<!-- solidity&#45;&gt;evmasm -->
<g id="edge26" class="edge"><title>solidity&#45;&gt;evmasm</title>
<path fill="none" stroke="black" d="M690.333,-484.15C707.42,-479.241 727.605,-471.111 742,-458 766.246,-435.917 757.886,-419.976 775,-392 781.054,-382.104 788.441,-371.72 795.152,-362.791"/>
<polygon fill="black" stroke="black" points="798.015,-364.809 801.313,-354.741 792.456,-360.555 798.015,-364.809"/>
</g>
<!-- solc -->
<g id="node35" class="node"><title>solc</title>
<polygon fill="none" stroke="black" stroke-width="2" points="684,-582 630,-582 630,-546 684,-546 684,-582"/>
<text text-anchor="middle" x="657" y="-561" font-family="Courier,monospace" font-size="10.00">solc</text>
</g>
<!-- solc&#45;&gt;solidity -->
<g id="edge56" class="edge"><title>solc&#45;&gt;solidity</title>
<path fill="none" stroke="black" d="M657,-545.697C657,-537.983 657,-528.712 657,-520.112"/>
<polygon fill="black" stroke="black" points="660.5,-520.104 657,-510.104 653.5,-520.104 660.5,-520.104"/>
</g>
<!-- soltest -->
<g id="node36" class="node"><title>soltest</title>
<polygon fill="none" stroke="black" stroke-width="2" points="760.007,-582 701.993,-582 701.993,-546 760.007,-546 760.007,-582"/>
<text text-anchor="middle" x="731" y="-561" font-family="Courier,monospace" font-size="10.00">soltest</text>
</g>
<!-- soltest&#45;&gt;ethereum -->
<g id="edge57" class="edge"><title>soltest&#45;&gt;ethereum</title>
<path fill="none" stroke="black" d="M753.247,-545.697C765.545,-536.132 780.919,-524.174 793.912,-514.068"/>
<polygon fill="black" stroke="black" points="796.306,-516.64 802.051,-507.738 792.008,-511.115 796.306,-516.64"/>
</g>
<!-- soltest&#45;&gt;solidity -->
<g id="edge58" class="edge"><title>soltest&#45;&gt;solidity</title>
<path fill="none" stroke="black" d="M712.708,-545.697C703.158,-536.663 691.352,-525.495 681.07,-515.769"/>
<polygon fill="black" stroke="black" points="683.237,-513.001 673.567,-508.671 678.426,-518.086 683.237,-513.001"/>
</g>
<!-- web3jsonrpc&#45;&gt;solidity -->
<g id="edge24" class="edge"><title>web3jsonrpc&#45;&gt;solidity</title>
<path fill="none" stroke="black" stroke-dasharray="1,5" d="M397.894,-694.519C425.397,-677.543 469.669,-647.21 499,-612 522.664,-583.593 509.39,-562.589 537,-538 558.249,-519.077 588.213,-507.83 612.882,-501.312"/>
<polygon fill="black" stroke="black" points="613.871,-504.674 622.741,-498.88 612.194,-497.877 613.871,-504.674"/>
</g>
<!-- webthree -->
<g id="node38" class="node"><title>webthree</title>
<ellipse fill="none" stroke="black" cx="378" cy="-638" rx="36.9099" ry="18"/>
<text text-anchor="middle" x="378" y="-635" font-family="Courier,monospace" font-size="10.00">webthree</text>
</g>
<!-- web3jsonrpc&#45;&gt;webthree -->
<g id="edge25" class="edge"><title>web3jsonrpc&#45;&gt;webthree</title>
<path fill="none" stroke="black" d="M374.236,-691.697C374.787,-683.983 375.449,-674.712 376.063,-666.112"/>
<polygon fill="black" stroke="black" points="379.557,-666.328 376.778,-656.104 372.575,-665.83 379.557,-666.328"/>
</g>
<!-- webthree&#45;&gt;ethashseal -->
<g id="edge27" class="edge"><title>webthree&#45;&gt;ethashseal</title>
<path fill="none" stroke="black" d="M414.748,-635.492C528.564,-630.779 868.267,-616.383 879,-612 891.275,-606.988 902.611,-597.861 911.622,-588.975"/>
<polygon fill="black" stroke="black" points="914.233,-591.309 918.614,-581.662 909.173,-586.471 914.233,-591.309"/>
</g>
<!-- whisper -->
<g id="node44" class="node"><title>whisper</title>
<ellipse fill="none" stroke="black" cx="384" cy="-564" rx="33.4805" ry="18"/>
<text text-anchor="middle" x="384" y="-561" font-family="Courier,monospace" font-size="10.00">whisper</text>
</g>
<!-- webthree&#45;&gt;whisper -->
<g id="edge28" class="edge"><title>webthree&#45;&gt;whisper</title>
<path fill="none" stroke="black" d="M379.422,-619.937C380.099,-611.807 380.927,-601.876 381.691,-592.705"/>
<polygon fill="black" stroke="black" points="385.204,-592.697 382.547,-582.441 378.228,-592.115 385.204,-592.697"/>
</g>
<!-- eth -->
<g id="node39" class="node"><title>eth</title>
<polygon fill="none" stroke="black" stroke-width="2" points="309,-810 255,-810 255,-774 309,-774 309,-810"/>
<text text-anchor="middle" x="282" y="-789" font-family="Courier,monospace" font-size="10.00">eth</text>
</g>
<!-- eth&#45;&gt;web3jsonrpc -->
<g id="edge59" class="edge"><title>eth&#45;&gt;web3jsonrpc</title>
<path fill="none" stroke="black" d="M301.746,-773.641C315.154,-761.854 333.011,-746.155 347.494,-733.423"/>
<polygon fill="black" stroke="black" points="349.944,-735.929 355.143,-726.698 345.322,-730.672 349.944,-735.929"/>
</g>
<!-- jsconsole -->
<g id="node42" class="node"><title>jsconsole</title>
<ellipse fill="none" stroke="black" cx="196" cy="-710" rx="40.3393" ry="18"/>
<text text-anchor="middle" x="196" y="-707" font-family="Courier,monospace" font-size="10.00">jsconsole</text>
</g>
<!-- eth&#45;&gt;jsconsole -->
<g id="edge60" class="edge"><title>eth&#45;&gt;jsconsole</title>
<path fill="none" stroke="black" d="M262.295,-773.662C256.67,-768.65 250.56,-763.143 245,-758 236.693,-750.316 227.725,-741.786 219.761,-734.124"/>
<polygon fill="black" stroke="black" points="221.818,-731.245 212.193,-726.816 216.955,-736.28 221.818,-731.245"/>
</g>
<!-- exp -->
<g id="node40" class="node"><title>exp</title>
<polygon fill="none" stroke="black" stroke-width="2" points="308,-728 254,-728 254,-692 308,-692 308,-728"/>
<text text-anchor="middle" x="281" y="-707" font-family="Courier,monospace" font-size="10.00">exp</text>
</g>
<!-- exp&#45;&gt;webthree -->
<g id="edge61" class="edge"><title>exp&#45;&gt;webthree</title>
<path fill="none" stroke="black" d="M304.978,-691.697C318.544,-681.907 335.584,-669.61 349.79,-659.357"/>
<polygon fill="black" stroke="black" points="352.153,-661.969 358.213,-653.279 348.056,-656.293 352.153,-661.969"/>
</g>
<!-- flu -->
<g id="node41" class="node"><title>flu</title>
<polygon fill="none" stroke="black" stroke-width="2" points="230,-810 176,-810 176,-774 230,-774 230,-810"/>
<text text-anchor="middle" x="203" y="-789" font-family="Courier,monospace" font-size="10.00">flu</text>
</g>
<!-- flu&#45;&gt;web3jsonrpc -->
<g id="edge62" class="edge"><title>flu&#45;&gt;web3jsonrpc</title>
<path fill="none" stroke="black" d="M228.561,-773.846C234.113,-770.784 240.097,-767.952 246,-766 276.149,-756.028 287.816,-770.519 317,-758 329.702,-752.551 341.73,-743.234 351.359,-734.326"/>
<polygon fill="black" stroke="black" points="353.804,-736.83 358.535,-727.35 348.925,-731.811 353.804,-736.83"/>
</g>
<!-- flu&#45;&gt;jsconsole -->
<g id="edge63" class="edge"><title>flu&#45;&gt;jsconsole</title>
<path fill="none" stroke="black" d="M201.481,-773.641C200.576,-763.297 199.407,-749.941 198.382,-738.221"/>
<polygon fill="black" stroke="black" points="201.85,-737.707 197.492,-728.05 194.877,-738.317 201.85,-737.707"/>
</g>
<!-- jsconsole&#45;&gt;devcore -->
<g id="edge64" class="edge"><title>jsconsole&#45;&gt;devcore</title>
<path fill="none" stroke="black" d="M158.093,-703.521C125.374,-697.078 78.5361,-683.542 47,-656 12.7146,-626.057 0,-610.52 0,-565 0,-565 0,-565 0,-337 0,-306.703 448.587,-226.547 589.302,-202.148"/>
<polygon fill="black" stroke="black" points="590.019,-205.576 599.276,-200.422 588.826,-198.678 590.019,-205.576"/>
</g>
<!-- jsengine -->
<g id="node43" class="node"><title>jsengine</title>
<ellipse fill="none" stroke="black" cx="241" cy="-638" rx="36.9099" ry="18"/>
<text text-anchor="middle" x="241" y="-635" font-family="Courier,monospace" font-size="10.00">jsengine</text>
</g>
<!-- jsconsole&#45;&gt;jsengine -->
<g id="edge66" class="edge"><title>jsconsole&#45;&gt;jsengine</title>
<path fill="none" stroke="black" d="M206.664,-692.411C212.1,-683.955 218.825,-673.494 224.878,-664.078"/>
<polygon fill="black" stroke="black" points="227.949,-665.774 230.412,-655.47 222.06,-661.989 227.949,-665.774"/>
</g>
<!-- jsconsole&#45;&gt;JsonRpc* -->
<g id="edge65" class="edge"><title>jsconsole&#45;&gt;JsonRpc*</title>
<path fill="none" stroke="black" d="M156.521,-705.823C123.804,-700.867 79.1981,-688.221 57,-656 47.9227,-642.824 48.6212,-633.631 57,-620 139.174,-486.319 336.278,-434.974 425.172,-418.136"/>
<polygon fill="black" stroke="black" points="426.004,-421.542 435.208,-416.295 424.741,-414.657 426.004,-421.542"/>
</g>
<!-- Readline -->
<g id="node57" class="node"><title>Readline</title>
<ellipse fill="none" stroke="black" cx="103" cy="-638" rx="36.9099" ry="18"/>
<text text-anchor="middle" x="103" y="-635" font-family="Courier,monospace" font-size="10.00">Readline</text>
</g>
<!-- jsconsole&#45;&gt;Readline -->
<g id="edge67" class="edge"><title>jsconsole&#45;&gt;Readline</title>
<path fill="none" stroke="black" stroke-dasharray="1,5" d="M176.277,-694.155C162.995,-684.157 145.291,-670.832 130.612,-659.783"/>
<polygon fill="black" stroke="black" points="132.47,-656.801 122.376,-653.584 128.26,-662.394 132.47,-656.801"/>
</g>
<!-- V8 -->
<g id="node58" class="node"><title>V8</title>
<ellipse fill="none" stroke="black" cx="463" cy="-564" rx="27" ry="18"/>
<text text-anchor="middle" x="463" y="-561" font-family="Courier,monospace" font-size="10.00">V8</text>
</g>
<!-- jsengine&#45;&gt;V8 -->
<g id="edge68" class="edge"><title>jsengine&#45;&gt;V8</title>
<path fill="none" stroke="black" d="M274.146,-629.943C291.339,-626.503 312.723,-622.565 332,-620 354.099,-617.06 412.808,-623.342 432,-612 440.315,-607.086 446.83,-598.963 451.695,-590.84"/>
<polygon fill="black" stroke="black" points="454.877,-592.312 456.495,-581.841 448.701,-589.017 454.877,-592.312"/>
</g>
<!-- whisper&#45;&gt;p2p -->
<g id="edge69" class="edge"><title>whisper&#45;&gt;p2p</title>
<path fill="none" stroke="black" d="M383.099,-545.9C382.268,-512.256 385.2,-436.846 424,-392 449.014,-363.088 491.846,-349.828 522.561,-343.823"/>
<polygon fill="black" stroke="black" points="523.241,-347.257 532.469,-342.053 522.009,-340.367 523.241,-347.257"/>
</g>
<!-- testweb3 -->
<g id="node45" class="node"><title>testweb3</title>
<polygon fill="none" stroke="black" stroke-width="2" points="405.008,-810 340.992,-810 340.992,-774 405.008,-774 405.008,-810"/>
<text text-anchor="middle" x="373" y="-789" font-family="Courier,monospace" font-size="10.00">testweb3</text>
</g>
<!-- testweb3&#45;&gt;web3jsonrpc -->
<g id="edge70" class="edge"><title>testweb3&#45;&gt;web3jsonrpc</title>
<path fill="none" stroke="black" d="M373,-773.641C373,-763.297 373,-749.941 373,-738.221"/>
<polygon fill="black" stroke="black" points="376.5,-738.05 373,-728.05 369.5,-738.05 376.5,-738.05"/>
</g>
</g>
</svg>
