<?xml version="1.0" encoding="UTF-8" standalone="no"?>
<!DOCTYPE svg PUBLIC "-//W3C//DTD SVG 1.1//EN"
 "http://www.w3.org/Graphics/SVG/1.1/DTD/svg11.dtd">
<!-- Generated by graphviz version 2.38.0 (20140413.2041)
 -->
<!-- Title: webthree Pages: 1 -->
<svg width="1738pt" height="764pt"
 viewBox="0.00 0.00 1737.63 764.00" xmlns="http://www.w3.org/2000/svg" xmlns:xlink="http://www.w3.org/1999/xlink">
<g id="graph0" class="graph" transform="scale(1 1) rotate(0) translate(4 760)">
<title>webthree</title>
<polygon fill="white" stroke="none" points="-4,4 -4,-760 1733.63,-760 1733.63,4 -4,4"/>
<text text-anchor="middle" x="864.815" y="-6.8" font-family="Times,serif" font-size="14.00">webthree dependencies</text>
<g id="clust1" class="cluster"><title>cluster_alethzero</title>
<polygon fill="LightGray" stroke="black" points="600.63,-674 600.63,-748 928.63,-748 928.63,-674 600.63,-674"/>
<text text-anchor="start" x="699.528" y="-732.8" font-family="Times,serif" font-size="14.00">alethzero dependencies</text>
</g>
<g id="clust4" class="cluster"><title>cluster_libethereum</title>
<polygon fill="LavenderBlush" stroke="black" points="321.63,-158 321.63,-666 613.63,-666 613.63,-158 321.63,-158"/>
<text text-anchor="start" x="394.745" y="-650.8" font-family="Times,serif" font-size="14.00">libethereum dependencies</text>
</g>
<g id="clust5" class="cluster"><title>cluster_libweb3core</title>
<polygon fill="AliceBlue" stroke="black" points="1171.63,-86 1171.63,-376 1335.63,-376 1335.63,-86 1171.63,-86"/>
<text text-anchor="start" x="1179.58" y="-360.8" font-family="Times,serif" font-size="14.00">libweb3core dependencies</text>
</g>
<g id="clust8" class="cluster"><title>cluster_solidity</title>
<polygon fill="WhiteSmoke" stroke="black" points="1052.63,-520 1052.63,-666 1198.63,-666 1198.63,-520 1052.63,-520"/>
<text text-anchor="start" x="1065.17" y="-650.8" font-family="Times,serif" font-size="14.00">solidity dependencies</text>
</g>
<g id="clust10" class="cluster"><title>cluster_webthree</title>
<polygon fill="Honeydew" stroke="black" points="1440.63,-448 1440.63,-748 1721.63,-748 1721.63,-448 1440.63,-448"/>
<text text-anchor="middle" x="1581.13" y="-732.8" font-family="Times,serif" font-size="14.00">webthree dependencies</text>
</g>
<!-- AlethFive -->
<g id="node1" class="node"><title>AlethFive</title>
<polygon fill="none" stroke="black" stroke-width="2" points="760.639,-718 690.621,-718 690.621,-682 760.639,-682 760.639,-718"/>
<text text-anchor="middle" x="725.63" y="-697" font-family="Courier,monospace" font-size="10.00">AlethFive</text>
</g>
<!-- ethereum -->
<g id="node5" class="node"><title>ethereum</title>
<ellipse fill="none" stroke="black" cx="568.63" cy="-402" rx="36.9099" ry="18"/>
<text text-anchor="middle" x="568.63" y="-399" font-family="Courier,monospace" font-size="10.00">ethereum</text>
</g>
<!-- AlethFive&#45;&gt;ethereum -->
<g id="edge5" class="edge"><title>AlethFive&#45;&gt;ethereum</title>
<path fill="none" stroke="black" d="M750.748,-681.92C756.697,-678.686 763.191,-675.765 769.63,-674 781.232,-670.819 1194.2,-674.585 1202.63,-666 1248.09,-619.695 1237.86,-574.491 1202.63,-520 1138.74,-421.181 752.071,-405.762 615.974,-403.407"/>
<polygon fill="black" stroke="black" points="615.912,-399.905 605.858,-403.248 615.802,-406.904 615.912,-399.905"/>
</g>
<!-- Qt::Core -->
<g id="node39" class="node"><title>Qt::Core</title>
<ellipse fill="none" stroke="black" cx="893.63" cy="-618" rx="36.9099" ry="18"/>
<text text-anchor="middle" x="893.63" y="-615" font-family="Courier,monospace" font-size="10.00">Qt::Core</text>
</g>
<!-- AlethFive&#45;&gt;Qt::Core -->
<g id="edge1" class="edge"><title>AlethFive&#45;&gt;Qt::Core</title>
<path fill="none" stroke="black" d="M751.809,-681.806C757.488,-678.747 763.605,-675.926 769.63,-674 802.824,-663.387 816.239,-681.132 847.63,-666 858.497,-660.762 868.229,-651.842 875.913,-643.171"/>
<polygon fill="black" stroke="black" points="878.676,-645.322 882.367,-635.391 873.288,-640.853 878.676,-645.322"/>
</g>
<!-- Qt::Widgets -->
<g id="node40" class="node"><title>Qt::Widgets</title>
<ellipse fill="none" stroke="black" cx="791.63" cy="-618" rx="47.1983" ry="18"/>
<text text-anchor="middle" x="791.63" y="-615" font-family="Courier,monospace" font-size="10.00">Qt::Widgets</text>
</g>
<!-- AlethFive&#45;&gt;Qt::Widgets -->
<g id="edge2" class="edge"><title>AlethFive&#45;&gt;Qt::Widgets</title>
<path fill="none" stroke="black" d="M739.951,-681.641C749.219,-670.407 761.418,-655.621 771.636,-643.236"/>
<polygon fill="black" stroke="black" points="774.35,-645.446 778.014,-635.505 768.95,-640.991 774.35,-645.446"/>
</g>
<!-- Qt::WebEngine -->
<g id="node41" class="node"><title>Qt::WebEngine</title>
<ellipse fill="none" stroke="black" cx="83.6303" cy="-618" rx="54.0574" ry="18"/>
<text text-anchor="middle" x="83.6303" y="-615" font-family="Courier,monospace" font-size="10.00">Qt::WebEngine</text>
</g>
<!-- AlethFive&#45;&gt;Qt::WebEngine -->
<g id="edge3" class="edge"><title>AlethFive&#45;&gt;Qt::WebEngine</title>
<path fill="none" stroke="black" d="M700.517,-681.904C694.568,-678.67 688.073,-675.754 681.63,-674 624.267,-658.382 202.913,-685.15 146.63,-666 132.077,-661.048 118.132,-651.353 107.078,-642.048"/>
<polygon fill="black" stroke="black" points="109.384,-639.415 99.5732,-635.415 104.748,-644.66 109.384,-639.415"/>
</g>
<!-- Qt::WebEngineWidgets -->
<g id="node42" class="node"><title>Qt::WebEngineWidgets</title>
<ellipse fill="none" stroke="black" cx="234.63" cy="-618" rx="78.5618" ry="18"/>
<text text-anchor="middle" x="234.63" y="-615" font-family="Courier,monospace" font-size="10.00">Qt::WebEngineWidgets</text>
</g>
<!-- AlethFive&#45;&gt;Qt::WebEngineWidgets -->
<g id="edge4" class="edge"><title>AlethFive&#45;&gt;Qt::WebEngineWidgets</title>
<path fill="none" stroke="black" d="M700.508,-681.937C694.56,-678.702 688.067,-675.777 681.63,-674 603.639,-652.471 395.637,-687.472 317.63,-666 298.945,-660.857 279.998,-650.594 264.933,-640.966"/>
<polygon fill="black" stroke="black" points="266.814,-638.014 256.543,-635.415 262.952,-643.852 266.814,-638.014"/>
</g>
<!-- AlethOne -->
<g id="node2" class="node"><title>AlethOne</title>
<polygon fill="none" stroke="black" stroke-width="2" points="672.638,-718 608.622,-718 608.622,-682 672.638,-682 672.638,-718"/>
<text text-anchor="middle" x="640.63" y="-697" font-family="Courier,monospace" font-size="10.00">AlethOne</text>
</g>
<!-- ethashseal -->
<g id="node6" class="node"><title>ethashseal</title>
<ellipse fill="none" stroke="black" cx="373.63" cy="-474" rx="43.7688" ry="18"/>
<text text-anchor="middle" x="373.63" y="-471" font-family="Courier,monospace" font-size="10.00">ethashseal</text>
</g>
<!-- AlethOne&#45;&gt;ethashseal -->
<g id="edge8" class="edge"><title>AlethOne&#45;&gt;ethashseal</title>
<path fill="none" stroke="black" d="M608.506,-698.502C484.252,-696.421 41.0261,-687.51 20.6303,-666 -76.9685,-563.068 203.858,-503.063 322.988,-482.801"/>
<polygon fill="black" stroke="black" points="323.694,-486.232 332.979,-481.131 322.539,-479.328 323.694,-486.232"/>
</g>
<!-- AlethOne&#45;&gt;Qt::Core -->
<g id="edge6" class="edge"><title>AlethOne&#45;&gt;Qt::Core</title>
<path fill="none" stroke="black" d="M664.391,-681.804C669.819,-678.663 675.733,-675.811 681.63,-674 716.936,-663.162 813.941,-681.132 847.63,-666 858.635,-661.057 868.391,-652.189 876.055,-643.477"/>
<polygon fill="black" stroke="black" points="878.849,-645.59 882.481,-635.637 873.435,-641.152 878.849,-645.59"/>
</g>
<!-- AlethOne&#45;&gt;Qt::Widgets -->
<g id="edge7" class="edge"><title>AlethOne&#45;&gt;Qt::Widgets</title>
<path fill="none" stroke="black" d="M664.982,-681.999C670.278,-678.926 675.989,-676.051 681.63,-674 704.019,-665.861 712.875,-675.707 734.63,-666 747.385,-660.309 759.602,-650.956 769.431,-642.086"/>
<polygon fill="black" stroke="black" points="771.901,-644.567 776.766,-635.155 767.094,-639.479 771.901,-644.567"/>
</g>
<!-- AlethZero -->
<g id="node3" class="node"><title>AlethZero</title>
<polygon fill="none" stroke="black" stroke-width="2" points="848.639,-718 778.621,-718 778.621,-682 848.639,-682 848.639,-718"/>
<text text-anchor="middle" x="813.63" y="-697" font-family="Courier,monospace" font-size="10.00">AlethZero</text>
</g>
<!-- natspec -->
<g id="node7" class="node"><title>natspec</title>
<ellipse fill="none" stroke="black" cx="570.63" cy="-618" rx="33.4805" ry="18"/>
<text text-anchor="middle" x="570.63" y="-615" font-family="Courier,monospace" font-size="10.00">natspec</text>
</g>
<!-- AlethZero&#45;&gt;natspec -->
<g id="edge13" class="edge"><title>AlethZero&#45;&gt;natspec</title>
<path fill="none" stroke="black" d="M787.996,-681.827C782.179,-678.685 775.87,-675.826 769.63,-674 737.167,-664.502 648.529,-679.761 617.63,-666 606.331,-660.968 596.254,-651.91 588.357,-643.08"/>
<polygon fill="black" stroke="black" points="590.839,-640.592 581.745,-635.156 585.465,-645.077 590.839,-640.592"/>
</g>
<!-- web3jsonrpc -->
<g id="node30" class="node"><title>web3jsonrpc</title>
<ellipse fill="none" stroke="black" cx="1495.63" cy="-618" rx="47.1983" ry="18"/>
<text text-anchor="middle" x="1495.63" y="-615" font-family="Courier,monospace" font-size="10.00">web3jsonrpc</text>
</g>
<!-- AlethZero&#45;&gt;web3jsonrpc -->
<g id="edge12" class="edge"><title>AlethZero&#45;&gt;web3jsonrpc</title>
<path fill="none" stroke="black" d="M838.752,-681.934C844.7,-678.699 851.193,-675.775 857.63,-674 897.807,-662.923 1191.16,-670.123 1232.63,-666 1307.71,-658.537 1393.55,-641.583 1446.17,-630.212"/>
<polygon fill="black" stroke="black" points="1447.22,-633.567 1456.24,-628.017 1445.73,-626.728 1447.22,-633.567"/>
</g>
<!-- AlethZero&#45;&gt;Qt::Core -->
<g id="edge9" class="edge"><title>AlethZero&#45;&gt;Qt::Core</title>
<path fill="none" stroke="black" d="M831.361,-681.958C836.625,-676.854 842.384,-671.224 847.63,-666 855.397,-658.266 863.807,-649.723 871.286,-642.065"/>
<polygon fill="black" stroke="black" points="873.926,-644.371 878.397,-634.766 868.912,-639.487 873.926,-644.371"/>
</g>
<!-- AlethZero&#45;&gt;Qt::Widgets -->
<g id="edge10" class="edge"><title>AlethZero&#45;&gt;Qt::Widgets</title>
<path fill="none" stroke="black" d="M808.857,-681.641C805.983,-671.192 802.264,-657.668 799.017,-645.862"/>
<polygon fill="black" stroke="black" points="802.345,-644.764 796.319,-636.05 795.596,-646.62 802.345,-644.764"/>
</g>
<!-- AlethZero&#45;&gt;Qt::WebEngineWidgets -->
<g id="edge11" class="edge"><title>AlethZero&#45;&gt;Qt::WebEngineWidgets</title>
<path fill="none" stroke="black" d="M788.513,-681.917C782.565,-678.683 776.071,-675.763 769.63,-674 721.183,-660.738 366.088,-679.227 317.63,-666 298.934,-660.897 279.986,-650.637 264.924,-641.002"/>
<polygon fill="black" stroke="black" points="266.805,-638.05 256.535,-635.445 262.939,-643.885 266.805,-638.05"/>
</g>
<!-- Solidity -->
<g id="node43" class="node"><title>Solidity</title>
<ellipse fill="none" stroke="black" cx="831.63" cy="-546" rx="36.9099" ry="18"/>
<text text-anchor="middle" x="831.63" y="-543" font-family="Courier,monospace" font-size="10.00">Solidity</text>
</g>
<!-- AlethZero&#45;&gt;Solidity -->
<g id="edge14" class="edge"><title>AlethZero&#45;&gt;Solidity</title>
<path fill="none" stroke="black" stroke-dasharray="1,5" d="M787.975,-681.896C782.16,-678.749 775.857,-675.871 769.63,-674 756.939,-670.186 659.681,-675.68 650.63,-666 630.596,-644.574 633.043,-623.476 650.63,-600 666.988,-578.165 738.749,-562.299 786.85,-553.883"/>
<polygon fill="black" stroke="black" points="787.456,-557.33 796.726,-552.201 786.281,-550.43 787.456,-557.33"/>
</g>
<!-- aleth -->
<g id="node4" class="node"><title>aleth</title>
<ellipse fill="none" stroke="black" cx="893.63" cy="-700" rx="27" ry="18"/>
<text text-anchor="middle" x="893.63" y="-697" font-family="Courier,monospace" font-size="10.00">aleth</text>
</g>
<!-- aleth&#45;&gt;natspec -->
<g id="edge18" class="edge"><title>aleth&#45;&gt;natspec</title>
<path fill="none" stroke="black" d="M877.857,-685.153C871.918,-680.757 864.846,-676.414 857.63,-674 813.974,-659.396 694.809,-678.939 650.63,-666 631.375,-660.361 611.919,-649.083 597.016,-638.988"/>
<polygon fill="black" stroke="black" points="599.001,-636.106 588.803,-633.233 594.984,-641.838 599.001,-636.106"/>
</g>
<!-- aleth&#45;&gt;web3jsonrpc -->
<g id="edge17" class="edge"><title>aleth&#45;&gt;web3jsonrpc</title>
<path fill="none" stroke="black" d="M920.523,-697.115C977.986,-692.928 1116.94,-681.943 1232.63,-666 1306.72,-655.79 1391.82,-639.795 1444.67,-629.353"/>
<polygon fill="black" stroke="black" points="1445.66,-632.723 1454.79,-627.342 1444.3,-625.857 1445.66,-632.723"/>
</g>
<!-- aleth&#45;&gt;Qt::Core -->
<g id="edge15" class="edge"><title>aleth&#45;&gt;Qt::Core</title>
<path fill="none" stroke="black" d="M893.63,-681.641C893.63,-671.297 893.63,-657.941 893.63,-646.221"/>
<polygon fill="black" stroke="black" points="897.13,-646.05 893.63,-636.05 890.13,-646.05 897.13,-646.05"/>
</g>
<!-- aleth&#45;&gt;Qt::Widgets -->
<g id="edge16" class="edge"><title>aleth&#45;&gt;Qt::Widgets</title>
<path fill="none" stroke="black" d="M875.485,-686.46C866.924,-680.424 856.635,-672.993 847.63,-666 837.706,-658.293 827.082,-649.518 817.785,-641.654"/>
<polygon fill="black" stroke="black" points="819.888,-638.848 810.006,-635.027 815.348,-644.176 819.888,-638.848"/>
</g>
<!-- Qt::Network -->
<g id="node44" class="node"><title>Qt::Network</title>
<ellipse fill="none" stroke="black" cx="995.63" cy="-618" rx="47.1983" ry="18"/>
<text text-anchor="middle" x="995.63" y="-615" font-family="Courier,monospace" font-size="10.00">Qt::Network</text>
</g>
<!-- aleth&#45;&gt;Qt::Network -->
<g id="edge19" class="edge"><title>aleth&#45;&gt;Qt::Network</title>
<path fill="none" stroke="black" d="M911.776,-686.46C920.336,-680.424 930.625,-672.993 939.63,-666 949.555,-658.293 960.178,-649.518 969.476,-641.654"/>
<polygon fill="black" stroke="black" points="971.912,-644.176 977.254,-635.027 967.372,-638.848 971.912,-644.176"/>
</g>
<!-- evm -->
<g id="node15" class="node"><title>evm</title>
<ellipse fill="none" stroke="black" cx="434.63" cy="-328" rx="27" ry="18"/>
<text text-anchor="middle" x="434.63" y="-325" font-family="Courier,monospace" font-size="10.00">evm</text>
</g>
<!-- ethereum&#45;&gt;evm -->
<g id="edge21" class="edge"><title>ethereum&#45;&gt;evm</title>
<path fill="none" stroke="black" d="M537.691,-391.997C528.089,-389.306 517.449,-386.427 507.63,-384 491.298,-379.962 484.84,-385.009 470.63,-376 461.96,-370.503 454.576,-362.142 448.794,-353.987"/>
<polygon fill="black" stroke="black" points="451.561,-351.825 443.163,-345.366 445.701,-355.652 451.561,-351.825"/>
</g>
<!-- lll -->
<g id="node18" class="node"><title>lll</title>
<ellipse fill="none" stroke="black" cx="578.63" cy="-328" rx="27" ry="18"/>
<text text-anchor="middle" x="578.63" y="-325" font-family="Courier,monospace" font-size="10.00">lll</text>
</g>
<!-- ethereum&#45;&gt;lll -->
<g id="edge22" class="edge"><title>ethereum&#45;&gt;lll</title>
<path fill="none" stroke="black" d="M571,-383.937C572.158,-375.598 573.58,-365.364 574.881,-355.998"/>
<polygon fill="black" stroke="black" points="578.368,-356.327 576.277,-345.941 571.435,-355.364 578.368,-356.327"/>
</g>
<!-- p2p -->
<g id="node22" class="node"><title>p2p</title>
<ellipse fill="none" stroke="black" cx="1300.63" cy="-256" rx="27" ry="18"/>
<text text-anchor="middle" x="1300.63" y="-253" font-family="Courier,monospace" font-size="10.00">p2p</text>
</g>
<!-- ethereum&#45;&gt;p2p -->
<g id="edge20" class="edge"><title>ethereum&#45;&gt;p2p</title>
<path fill="none" stroke="black" d="M605.931,-401.13C751.446,-401.46 1274.16,-400.901 1298.63,-376 1322.13,-352.086 1316.64,-310.676 1309.47,-283.558"/>
<polygon fill="black" stroke="black" points="1312.83,-282.572 1306.7,-273.932 1306.11,-284.51 1312.83,-282.572"/>
</g>
<!-- JsonRpc::Client -->
<g id="node45" class="node"><title>JsonRpc::Client</title>
<ellipse fill="none" stroke="black" cx="865.63" cy="-328" rx="61.4159" ry="18"/>
<text text-anchor="middle" x="865.63" y="-325" font-family="Courier,monospace" font-size="10.00">JsonRpc::Client</text>
</g>
<!-- ethereum&#45;&gt;JsonRpc::Client -->
<g id="edge23" class="edge"><title>ethereum&#45;&gt;JsonRpc::Client</title>
<path fill="none" stroke="black" d="M600.98,-393.158C651.181,-380.988 748.466,-357.404 810.069,-342.469"/>
<polygon fill="black" stroke="black" points="811.117,-345.817 820.011,-340.059 809.468,-339.014 811.117,-345.817"/>
</g>
<!-- JsonRpc::Server -->
<g id="node46" class="node"><title>JsonRpc::Server</title>
<ellipse fill="none" stroke="black" cx="1406.63" cy="-328" rx="61.4159" ry="18"/>
<text text-anchor="middle" x="1406.63" y="-325" font-family="Courier,monospace" font-size="10.00">JsonRpc::Server</text>
</g>
<!-- ethereum&#45;&gt;JsonRpc::Server -->
<g id="edge24" class="edge"><title>ethereum&#45;&gt;JsonRpc::Server</title>
<path fill="none" stroke="black" d="M605.937,-401.039C750.576,-401.021 1269.76,-399.315 1339.63,-376 1354.81,-370.933 1369.61,-361.224 1381.42,-351.94"/>
<polygon fill="black" stroke="black" points="1383.95,-354.385 1389.45,-345.327 1379.51,-348.98 1383.95,-354.385"/>
</g>
<!-- ethashseal&#45;&gt;ethereum -->
<g id="edge25" class="edge"><title>ethashseal&#45;&gt;ethereum</title>
<path fill="none" stroke="black" d="M405.831,-461.441C439.944,-449.195 493.794,-429.864 530.128,-416.821"/>
<polygon fill="black" stroke="black" points="531.651,-419.993 539.88,-413.321 529.286,-413.405 531.651,-419.993"/>
</g>
<!-- ethash&#45;cl -->
<g id="node14" class="node"><title>ethash&#45;cl</title>
<ellipse fill="none" stroke="black" cx="370.63" cy="-402" rx="40.3393" ry="18"/>
<text text-anchor="middle" x="370.63" y="-399" font-family="Courier,monospace" font-size="10.00">ethash&#45;cl</text>
</g>
<!-- ethashseal&#45;&gt;ethash&#45;cl -->
<g id="edge26" class="edge"><title>ethashseal&#45;&gt;ethash&#45;cl</title>
<path fill="none" stroke="black" stroke-dasharray="1,5" d="M372.889,-455.697C372.558,-447.983 372.161,-438.712 371.792,-430.112"/>
<polygon fill="black" stroke="black" points="375.288,-429.945 371.363,-420.104 368.295,-430.245 375.288,-429.945"/>
</g>
<!-- Cpuid -->
<g id="node47" class="node"><title>Cpuid</title>
<ellipse fill="none" stroke="black" cx="285.63" cy="-402" rx="27" ry="18"/>
<text text-anchor="middle" x="285.63" y="-399" font-family="Courier,monospace" font-size="10.00">Cpuid</text>
</g>
<!-- ethashseal&#45;&gt;Cpuid -->
<g id="edge27" class="edge"><title>ethashseal&#45;&gt;Cpuid</title>
<path fill="none" stroke="black" stroke-dasharray="1,5" d="M354.1,-457.465C341.269,-447.258 324.366,-433.813 310.566,-422.835"/>
<polygon fill="black" stroke="black" points="312.443,-419.856 302.438,-416.37 308.085,-425.334 312.443,-419.856"/>
</g>
<!-- ethcore -->
<g id="node8" class="node"><title>ethcore</title>
<ellipse fill="none" stroke="black" cx="493.63" cy="-256" rx="33.4805" ry="18"/>
<text text-anchor="middle" x="493.63" y="-253" font-family="Courier,monospace" font-size="10.00">ethcore</text>
</g>
<!-- devcrypto -->
<g id="node23" class="node"><title>devcrypto</title>
<ellipse fill="none" stroke="black" cx="1285.63" cy="-184" rx="40.3393" ry="18"/>
<text text-anchor="middle" x="1285.63" y="-181" font-family="Courier,monospace" font-size="10.00">devcrypto</text>
</g>
<!-- ethcore&#45;&gt;devcrypto -->
<g id="edge32" class="edge"><title>ethcore&#45;&gt;devcrypto</title>
<path fill="none" stroke="black" d="M518.232,-243.786C524.148,-241.509 530.525,-239.388 536.63,-238 670.232,-207.623 1089.43,-191.398 1235.13,-186.565"/>
<polygon fill="black" stroke="black" points="1235.26,-190.063 1245.14,-186.237 1235.03,-183.067 1235.26,-190.063"/>
</g>
<!-- buildinfo -->
<g id="node48" class="node"><title>buildinfo</title>
<ellipse fill="none" stroke="black" cx="273.63" cy="-184" rx="40.3393" ry="18"/>
<text text-anchor="middle" x="273.63" y="-181" font-family="Courier,monospace" font-size="10.00">buildinfo</text>
</g>
<!-- ethcore&#45;&gt;buildinfo -->
<g id="edge33" class="edge"><title>ethcore&#45;&gt;buildinfo</title>
<path fill="none" stroke="black" d="M468.051,-244.068C462.672,-241.933 457,-239.801 451.63,-238 393.162,-218.395 376.252,-221.139 317.63,-202 315.971,-201.458 314.283,-200.889 312.583,-200.3"/>
<polygon fill="black" stroke="black" points="313.417,-196.88 302.822,-196.777 311.04,-203.464 313.417,-196.88"/>
</g>
<!-- ethkey -->
<g id="node9" class="node"><title>ethkey</title>
<polygon fill="none" stroke="black" stroke-width="2" points="533.63,-346 479.63,-346 479.63,-310 533.63,-310 533.63,-346"/>
<text text-anchor="middle" x="506.63" y="-325" font-family="Courier,monospace" font-size="10.00">ethkey</text>
</g>
<!-- ethkey&#45;&gt;ethcore -->
<g id="edge40" class="edge"><title>ethkey&#45;&gt;ethcore</title>
<path fill="none" stroke="black" d="M503.417,-309.697C501.984,-301.983 500.263,-292.712 498.665,-284.112"/>
<polygon fill="black" stroke="black" points="502.074,-283.297 496.807,-274.104 495.192,-284.575 502.074,-283.297"/>
</g>
<!-- ethminer -->
<g id="node10" class="node"><title>ethminer</title>
<polygon fill="none" stroke="black" stroke-width="2" points="493.638,-564 429.622,-564 429.622,-528 493.638,-528 493.638,-564"/>
<text text-anchor="middle" x="461.63" y="-543" font-family="Courier,monospace" font-size="10.00">ethminer</text>
</g>
<!-- ethminer&#45;&gt;ethashseal -->
<g id="edge41" class="edge"><title>ethminer&#45;&gt;ethashseal</title>
<path fill="none" stroke="black" d="M439.877,-527.697C428.104,-518.331 413.445,-506.671 400.913,-496.702"/>
<polygon fill="black" stroke="black" points="403.041,-493.922 393.036,-490.436 398.683,-499.401 403.041,-493.922"/>
</g>
<!-- ethvm -->
<g id="node11" class="node"><title>ethvm</title>
<polygon fill="none" stroke="black" stroke-width="2" points="595.63,-492 541.63,-492 541.63,-456 595.63,-456 595.63,-492"/>
<text text-anchor="middle" x="568.63" y="-471" font-family="Courier,monospace" font-size="10.00">ethvm</text>
</g>
<!-- ethvm&#45;&gt;ethereum -->
<g id="edge42" class="edge"><title>ethvm&#45;&gt;ethereum</title>
<path fill="none" stroke="black" d="M568.63,-455.697C568.63,-447.983 568.63,-438.712 568.63,-430.112"/>
<polygon fill="black" stroke="black" points="572.13,-430.104 568.63,-420.104 565.13,-430.104 572.13,-430.104"/>
</g>
<!-- evmjit -->
<g id="node12" class="node"><title>evmjit</title>
<polygon fill="none" stroke="black" stroke-width="2" points="442.63,-274 388.63,-274 388.63,-238 442.63,-238 442.63,-274"/>
<text text-anchor="middle" x="415.63" y="-253" font-family="Courier,monospace" font-size="10.00">evmjit</text>
</g>
<!-- ethash -->
<g id="node13" class="node"><title>ethash</title>
<ellipse fill="none" stroke="black" cx="359.63" cy="-328" rx="30.0512" ry="18"/>
<text text-anchor="middle" x="359.63" y="-325" font-family="Courier,monospace" font-size="10.00">ethash</text>
</g>
<!-- ethash&#45;cl&#45;&gt;ethash -->
<g id="edge43" class="edge"><title>ethash&#45;cl&#45;&gt;ethash</title>
<path fill="none" stroke="black" d="M368.023,-383.937C366.749,-375.598 365.186,-365.364 363.755,-355.998"/>
<polygon fill="black" stroke="black" points="367.189,-355.297 362.218,-345.941 360.269,-356.354 367.189,-355.297"/>
</g>
<!-- OpenCL -->
<g id="node53" class="node"><title>OpenCL</title>
<ellipse fill="none" stroke="black" cx="243.63" cy="-328" rx="30.0512" ry="18"/>
<text text-anchor="middle" x="243.63" y="-325" font-family="Courier,monospace" font-size="10.00">OpenCL</text>
</g>
<!-- ethash&#45;cl&#45;&gt;OpenCL -->
<g id="edge44" class="edge"><title>ethash&#45;cl&#45;&gt;OpenCL</title>
<path fill="none" stroke="black" d="M340.466,-389.99C334.273,-387.884 327.77,-385.782 321.63,-384 306.722,-379.672 301.066,-383.777 287.63,-376 277.514,-370.144 268.32,-361.229 260.983,-352.732"/>
<polygon fill="black" stroke="black" points="263.576,-350.373 254.548,-344.826 258.147,-354.791 263.576,-350.373"/>
</g>
<!-- evm&#45;&gt;ethcore -->
<g id="edge45" class="edge"><title>evm&#45;&gt;ethcore</title>
<path fill="none" stroke="black" d="M447.432,-311.811C455.134,-302.673 465.1,-290.849 473.803,-280.524"/>
<polygon fill="black" stroke="black" points="476.676,-282.546 480.445,-272.644 471.324,-278.035 476.676,-282.546"/>
</g>
<!-- evm&#45;&gt;evmjit -->
<g id="edge46" class="edge"><title>evm&#45;&gt;evmjit</title>
<path fill="none" stroke="black" stroke-dasharray="1,5" d="M430.031,-310.055C427.915,-302.261 425.353,-292.822 422.98,-284.079"/>
<polygon fill="black" stroke="black" points="426.317,-283.009 420.319,-274.275 419.561,-284.843 426.317,-283.009"/>
</g>
<!-- evmcore -->
<g id="node17" class="node"><title>evmcore</title>
<ellipse fill="none" stroke="black" cx="572.63" cy="-184" rx="33.4805" ry="18"/>
<text text-anchor="middle" x="572.63" y="-181" font-family="Courier,monospace" font-size="10.00">evmcore</text>
</g>
<!-- evm&#45;&gt;evmcore -->
<g id="edge47" class="edge"><title>evm&#45;&gt;evmcore</title>
<path fill="none" stroke="black" d="M416.581,-314.109C393.892,-296.325 360.138,-263.567 379.63,-238 397.812,-214.152 479.216,-198.369 530.322,-190.616"/>
<polygon fill="black" stroke="black" points="531.039,-194.048 540.422,-189.128 530.019,-187.123 531.039,-194.048"/>
</g>
<!-- evmasm -->
<g id="node16" class="node"><title>evmasm</title>
<ellipse fill="none" stroke="black" cx="575.63" cy="-256" rx="30.0512" ry="18"/>
<text text-anchor="middle" x="575.63" y="-253" font-family="Courier,monospace" font-size="10.00">evmasm</text>
</g>
<!-- evmasm&#45;&gt;evmcore -->
<g id="edge48" class="edge"><title>evmasm&#45;&gt;evmcore</title>
<path fill="none" stroke="black" d="M574.889,-237.697C574.558,-229.983 574.161,-220.712 573.792,-212.112"/>
<polygon fill="black" stroke="black" points="577.288,-211.945 573.363,-202.104 570.295,-212.245 577.288,-211.945"/>
</g>
<!-- devcore -->
<g id="node24" class="node"><title>devcore</title>
<ellipse fill="none" stroke="black" cx="1212.63" cy="-112" rx="33.4805" ry="18"/>
<text text-anchor="middle" x="1212.63" y="-109" font-family="Courier,monospace" font-size="10.00">devcore</text>
</g>
<!-- evmcore&#45;&gt;devcore -->
<g id="edge49" class="edge"><title>evmcore&#45;&gt;devcore</title>
<path fill="none" stroke="black" d="M605.248,-179.432C711.818,-167.776 1049.78,-130.812 1169.82,-117.683"/>
<polygon fill="black" stroke="black" points="1170.52,-121.127 1180.08,-116.56 1169.76,-114.168 1170.52,-121.127"/>
</g>
<!-- lll&#45;&gt;evmasm -->
<g id="edge50" class="edge"><title>lll&#45;&gt;evmasm</title>
<path fill="none" stroke="black" d="M577.889,-309.697C577.558,-301.983 577.161,-292.712 576.792,-284.112"/>
<polygon fill="black" stroke="black" points="580.288,-283.945 576.363,-274.104 573.295,-284.245 580.288,-283.945"/>
</g>
<!-- testutils -->
<g id="node19" class="node"><title>testutils</title>
<ellipse fill="none" stroke="black" cx="371.63" cy="-546" rx="40.3393" ry="18"/>
<text text-anchor="middle" x="371.63" y="-543" font-family="Courier,monospace" font-size="10.00">testutils</text>
</g>
<!-- testutils&#45;&gt;ethashseal -->
<g id="edge51" class="edge"><title>testutils&#45;&gt;ethashseal</title>
<path fill="none" stroke="black" d="M372.125,-527.697C372.345,-519.983 372.61,-510.712 372.856,-502.112"/>
<polygon fill="black" stroke="black" points="376.354,-502.2 373.142,-492.104 369.357,-502 376.354,-502.2"/>
</g>
<!-- lllc -->
<g id="node20" class="node"><title>lllc</title>
<polygon fill="none" stroke="black" stroke-width="2" points="498.63,-420 444.63,-420 444.63,-384 498.63,-384 498.63,-420"/>
<text text-anchor="middle" x="471.63" y="-399" font-family="Courier,monospace" font-size="10.00">lllc</text>
</g>
<!-- lllc&#45;&gt;lll -->
<g id="edge52" class="edge"><title>lllc&#45;&gt;lll</title>
<path fill="none" stroke="black" d="M499.018,-391.76C518.19,-385.227 540.713,-377.391 542.63,-376 550.816,-370.059 558.028,-361.74 563.805,-353.75"/>
<polygon fill="black" stroke="black" points="566.791,-355.582 569.489,-345.337 560.991,-351.663 566.791,-355.582"/>
</g>
<!-- lllc&#45;&gt;buildinfo -->
<g id="edge53" class="edge"><title>lllc&#45;&gt;buildinfo</title>
<path fill="none" stroke="black" d="M444.427,-390.773C436.53,-388.17 427.825,-385.647 419.63,-384 397.991,-379.652 337.439,-390.304 320.63,-376 295.9,-354.954 281.974,-259.762 276.449,-212.208"/>
<polygon fill="black" stroke="black" points="279.899,-211.569 275.309,-202.02 272.943,-212.347 279.899,-211.569"/>
</g>
<!-- testeth -->
<g id="node21" class="node"><title>testeth</title>
<polygon fill="none" stroke="black" stroke-width="2" points="400.637,-636 342.623,-636 342.623,-600 400.637,-600 400.637,-636"/>
<text text-anchor="middle" x="371.63" y="-615" font-family="Courier,monospace" font-size="10.00">testeth</text>
</g>
<!-- testeth&#45;&gt;testutils -->
<g id="edge54" class="edge"><title>testeth&#45;&gt;testutils</title>
<path fill="none" stroke="black" d="M371.63,-599.697C371.63,-591.983 371.63,-582.712 371.63,-574.112"/>
<polygon fill="black" stroke="black" points="375.13,-574.104 371.63,-564.104 368.13,-574.104 375.13,-574.104"/>
</g>
<!-- p2p&#45;&gt;devcrypto -->
<g id="edge34" class="edge"><title>p2p&#45;&gt;devcrypto</title>
<path fill="none" stroke="black" d="M1297,-238.055C1295.33,-230.261 1293.31,-220.822 1291.43,-212.079"/>
<polygon fill="black" stroke="black" points="1294.85,-211.32 1289.33,-202.275 1288.01,-212.787 1294.85,-211.32"/>
</g>
<!-- Miniupnpc -->
<g id="node49" class="node"><title>Miniupnpc</title>
<ellipse fill="none" stroke="black" cx="1384.63" cy="-184" rx="40.3393" ry="18"/>
<text text-anchor="middle" x="1384.63" y="-181" font-family="Courier,monospace" font-size="10.00">Miniupnpc</text>
</g>
<!-- p2p&#45;&gt;Miniupnpc -->
<g id="edge35" class="edge"><title>p2p&#45;&gt;Miniupnpc</title>
<path fill="none" stroke="black" stroke-dasharray="1,5" d="M1316.83,-241.503C1328.7,-231.606 1345.07,-217.964 1358.75,-206.564"/>
<polygon fill="black" stroke="black" points="1361,-209.247 1366.44,-200.157 1356.52,-203.87 1361,-209.247"/>
</g>
<!-- devcrypto&#45;&gt;devcore -->
<g id="edge36" class="edge"><title>devcrypto&#45;&gt;devcore</title>
<path fill="none" stroke="black" d="M1269.43,-167.465C1259.46,-157.909 1246.54,-145.514 1235.54,-134.963"/>
<polygon fill="black" stroke="black" points="1237.93,-132.406 1228.28,-128.011 1233.08,-137.459 1237.93,-132.406"/>
</g>
<!-- scrypt -->
<g id="node50" class="node"><title>scrypt</title>
<ellipse fill="none" stroke="black" cx="1471.63" cy="-112" rx="30.0512" ry="18"/>
<text text-anchor="middle" x="1471.63" y="-109" font-family="Courier,monospace" font-size="10.00">scrypt</text>
</g>
<!-- devcrypto&#45;&gt;scrypt -->
<g id="edge37" class="edge"><title>devcrypto&#45;&gt;scrypt</title>
<path fill="none" stroke="black" d="M1310.15,-169.624C1318.13,-165.571 1327.13,-161.319 1335.63,-158 1377.43,-141.676 1390.42,-145.219 1432.63,-130 1434.72,-129.247 1436.86,-128.436 1439,-127.592"/>
<polygon fill="black" stroke="black" points="1440.41,-130.797 1448.32,-123.749 1437.74,-124.325 1440.41,-130.797"/>
</g>
<!-- Cryptopp -->
<g id="node51" class="node"><title>Cryptopp</title>
<ellipse fill="none" stroke="black" cx="1556.63" cy="-112" rx="36.9099" ry="18"/>
<text text-anchor="middle" x="1556.63" y="-109" font-family="Courier,monospace" font-size="10.00">Cryptopp</text>
</g>
<!-- devcrypto&#45;&gt;Cryptopp -->
<g id="edge38" class="edge"><title>devcrypto&#45;&gt;Cryptopp</title>
<path fill="none" stroke="black" d="M1309.42,-169.253C1317.51,-165.081 1326.76,-160.852 1335.63,-158 1410.62,-133.885 1434.44,-149.97 1510.63,-130 1513.58,-129.226 1516.61,-128.336 1519.63,-127.377"/>
<polygon fill="black" stroke="black" points="1520.83,-130.665 1529.18,-124.138 1518.59,-124.036 1520.83,-130.665"/>
</g>
<!-- secp256k1 -->
<g id="node52" class="node"><title>secp256k1</title>
<ellipse fill="none" stroke="black" cx="1383.63" cy="-112" rx="40.3393" ry="18"/>
<text text-anchor="middle" x="1383.63" y="-109" font-family="Courier,monospace" font-size="10.00">secp256k1</text>
</g>
<!-- devcrypto&#45;&gt;secp256k1 -->
<g id="edge39" class="edge"><title>devcrypto&#45;&gt;secp256k1</title>
<path fill="none" stroke="black" d="M1306.41,-168.155C1320.54,-158.064 1339.41,-144.583 1354.97,-133.474"/>
<polygon fill="black" stroke="black" points="1357.11,-136.244 1363.21,-127.584 1353.04,-130.548 1357.11,-136.244"/>
</g>
<!-- Jsoncpp -->
<g id="node54" class="node"><title>Jsoncpp</title>
<ellipse fill="none" stroke="black" cx="1173.63" cy="-40" rx="33.4805" ry="18"/>
<text text-anchor="middle" x="1173.63" y="-37" font-family="Courier,monospace" font-size="10.00">Jsoncpp</text>
</g>
<!-- devcore&#45;&gt;Jsoncpp -->
<g id="edge55" class="edge"><title>devcore&#45;&gt;Jsoncpp</title>
<path fill="none" stroke="black" d="M1203.39,-94.411C1198.73,-86.0421 1192.97,-75.7098 1187.76,-66.3698"/>
<polygon fill="black" stroke="black" points="1190.73,-64.5022 1182.81,-57.4699 1184.62,-67.9091 1190.73,-64.5022"/>
</g>
<!-- base -->
<g id="node55" class="node"><title>base</title>
<ellipse fill="none" stroke="black" cx="1251.63" cy="-40" rx="27" ry="18"/>
<text text-anchor="middle" x="1251.63" y="-37" font-family="Courier,monospace" font-size="10.00">base</text>
</g>
<!-- devcore&#45;&gt;base -->
<g id="edge56" class="edge"><title>devcore&#45;&gt;base</title>
<path fill="none" stroke="black" d="M1221.87,-94.411C1226.54,-86.0421 1232.29,-75.7098 1237.5,-66.3698"/>
<polygon fill="black" stroke="black" points="1240.64,-67.9091 1242.45,-57.4699 1234.53,-64.5022 1240.64,-67.9091"/>
</g>
<!-- rlp -->
<g id="node25" class="node"><title>rlp</title>
<polygon fill="none" stroke="black" stroke-width="2" points="1255.63,-274 1201.63,-274 1201.63,-238 1255.63,-238 1255.63,-274"/>
<text text-anchor="middle" x="1228.63" y="-253" font-family="Courier,monospace" font-size="10.00">rlp</text>
</g>
<!-- rlp&#45;&gt;devcrypto -->
<g id="edge57" class="edge"><title>rlp&#45;&gt;devcrypto</title>
<path fill="none" stroke="black" d="M1242.72,-237.697C1249.76,-229.054 1258.39,-218.458 1266.06,-209.039"/>
<polygon fill="black" stroke="black" points="1268.88,-211.109 1272.48,-201.145 1263.46,-206.689 1268.88,-211.109"/>
</g>
<!-- testweb3core -->
<g id="node26" class="node"><title>testweb3core</title>
<polygon fill="none" stroke="black" stroke-width="2" points="1289.64,-346 1201.62,-346 1201.62,-310 1289.64,-310 1289.64,-346"/>
<text text-anchor="middle" x="1245.63" y="-325" font-family="Courier,monospace" font-size="10.00">testweb3core</text>
</g>
<!-- testweb3core&#45;&gt;p2p -->
<g id="edge58" class="edge"><title>testweb3core&#45;&gt;p2p</title>
<path fill="none" stroke="black" d="M1259.23,-309.697C1266.21,-300.804 1274.83,-289.842 1282.38,-280.224"/>
<polygon fill="black" stroke="black" points="1285.26,-282.228 1288.69,-272.202 1279.76,-277.903 1285.26,-282.228"/>
</g>
<!-- solidity -->
<g id="node27" class="node"><title>solidity</title>
<ellipse fill="none" stroke="black" cx="1097.63" cy="-546" rx="36.9099" ry="18"/>
<text text-anchor="middle" x="1097.63" y="-543" font-family="Courier,monospace" font-size="10.00">solidity</text>
</g>
<!-- solidity&#45;&gt;evmasm -->
<g id="edge59" class="edge"><title>solidity&#45;&gt;evmasm</title>
<path fill="none" stroke="black" d="M1091.55,-528.104C1074.64,-483.817 1022.51,-364.07 935.63,-310 882.771,-277.102 697.888,-263.444 615.625,-258.901"/>
<polygon fill="black" stroke="black" points="615.592,-255.394 605.419,-258.355 615.218,-262.384 615.592,-255.394"/>
</g>
<!-- solc -->
<g id="node28" class="node"><title>solc</title>
<polygon fill="none" stroke="black" stroke-width="2" points="1114.63,-636 1060.63,-636 1060.63,-600 1114.63,-600 1114.63,-636"/>
<text text-anchor="middle" x="1087.63" y="-615" font-family="Courier,monospace" font-size="10.00">solc</text>
</g>
<!-- solc&#45;&gt;solidity -->
<g id="edge60" class="edge"><title>solc&#45;&gt;solidity</title>
<path fill="none" stroke="black" d="M1090.1,-599.697C1091.2,-591.983 1092.53,-582.712 1093.76,-574.112"/>
<polygon fill="black" stroke="black" points="1097.24,-574.499 1095.19,-564.104 1090.31,-573.509 1097.24,-574.499"/>
</g>
<!-- soltest -->
<g id="node29" class="node"><title>soltest</title>
<polygon fill="none" stroke="black" stroke-width="2" points="1190.64,-636 1132.62,-636 1132.62,-600 1190.64,-600 1190.64,-636"/>
<text text-anchor="middle" x="1161.63" y="-615" font-family="Courier,monospace" font-size="10.00">soltest</text>
</g>
<!-- soltest&#45;&gt;ethereum -->
<g id="edge61" class="edge"><title>soltest&#45;&gt;ethereum</title>
<path fill="none" stroke="black" d="M1163.73,-599.687C1165.32,-578.001 1164.4,-541.132 1143.63,-520 1069.65,-444.727 738.715,-414.655 615.263,-405.927"/>
<polygon fill="black" stroke="black" points="615.227,-402.416 605.009,-405.218 614.744,-409.4 615.227,-402.416"/>
</g>
<!-- soltest&#45;&gt;Solidity -->
<g id="edge62" class="edge"><title>soltest&#45;&gt;Solidity</title>
<path fill="none" stroke="black" d="M1132.44,-603.104C1129.5,-601.958 1126.53,-600.897 1123.63,-600 1038.66,-573.705 935.501,-558.773 877.326,-551.835"/>
<polygon fill="black" stroke="black" points="877.686,-548.354 867.348,-550.672 876.875,-555.307 877.686,-548.354"/>
</g>
<!-- web3jsonrpc&#45;&gt;solidity -->
<g id="edge29" class="edge"><title>web3jsonrpc&#45;&gt;solidity</title>
<path fill="none" stroke="black" stroke-dasharray="1,5" d="M1453.41,-609.575C1377.59,-596.24 1219.08,-568.361 1141.84,-554.776"/>
<polygon fill="black" stroke="black" points="1142.4,-551.32 1131.94,-553.035 1141.19,-558.214 1142.4,-551.32"/>
</g>
<!-- webthree -->
<g id="node31" class="node"><title>webthree</title>
<ellipse fill="none" stroke="black" cx="1495.63" cy="-546" rx="36.9099" ry="18"/>
<text text-anchor="middle" x="1495.63" y="-543" font-family="Courier,monospace" font-size="10.00">webthree</text>
</g>
<!-- web3jsonrpc&#45;&gt;webthree -->
<g id="edge28" class="edge"><title>web3jsonrpc&#45;&gt;webthree</title>
<path fill="none" stroke="black" d="M1495.63,-599.697C1495.63,-591.983 1495.63,-582.712 1495.63,-574.112"/>
<polygon fill="black" stroke="black" points="1499.13,-574.104 1495.63,-564.104 1492.13,-574.104 1499.13,-574.104"/>
</g>
<!-- webthree&#45;&gt;ethashseal -->
<g id="edge30" class="edge"><title>webthree&#45;&gt;ethashseal</title>
<path fill="none" stroke="black" d="M1472.45,-531.772C1463.17,-527.15 1452.19,-522.496 1441.63,-520 1244.96,-473.496 734.25,-505.864 532.63,-492 496.674,-489.528 456.295,-485.191 425.227,-481.516"/>
<polygon fill="black" stroke="black" points="425.413,-478.014 415.067,-480.299 424.58,-484.964 425.413,-478.014"/>
</g>
<!-- whisper -->
<g id="node37" class="node"><title>whisper</title>
<ellipse fill="none" stroke="black" cx="1495.63" cy="-474" rx="33.4805" ry="18"/>
<text text-anchor="middle" x="1495.63" y="-471" font-family="Courier,monospace" font-size="10.00">whisper</text>
</g>
<!-- webthree&#45;&gt;whisper -->
<g id="edge31" class="edge"><title>webthree&#45;&gt;whisper</title>
<path fill="none" stroke="black" d="M1495.63,-527.697C1495.63,-519.983 1495.63,-510.712 1495.63,-502.112"/>
<polygon fill="black" stroke="black" points="1499.13,-502.104 1495.63,-492.104 1492.13,-502.104 1499.13,-502.104"/>
</g>
<!-- eth -->
<g id="node32" class="node"><title>eth</title>
<polygon fill="none" stroke="black" stroke-width="2" points="1584.63,-718 1530.63,-718 1530.63,-682 1584.63,-682 1584.63,-718"/>
<text text-anchor="middle" x="1557.63" y="-697" font-family="Courier,monospace" font-size="10.00">eth</text>
</g>
<!-- eth&#45;&gt;web3jsonrpc -->
<g id="edge64" class="edge"><title>eth&#45;&gt;web3jsonrpc</title>
<path fill="none" stroke="black" d="M1544.18,-681.641C1535.55,-670.514 1524.23,-655.903 1514.69,-643.59"/>
<polygon fill="black" stroke="black" points="1517.31,-641.265 1508.42,-635.505 1511.78,-645.553 1517.31,-641.265"/>
</g>
<!-- jsconsole -->
<g id="node35" class="node"><title>jsconsole</title>
<ellipse fill="none" stroke="black" cx="1601.63" cy="-618" rx="40.3393" ry="18"/>
<text text-anchor="middle" x="1601.63" y="-615" font-family="Courier,monospace" font-size="10.00">jsconsole</text>
</g>
<!-- eth&#45;&gt;jsconsole -->
<g id="edge65" class="edge"><title>eth&#45;&gt;jsconsole</title>
<path fill="none" stroke="black" d="M1567.18,-681.641C1573.14,-670.802 1580.92,-656.655 1587.58,-644.548"/>
<polygon fill="black" stroke="black" points="1590.65,-646.226 1592.4,-635.777 1584.52,-642.852 1590.65,-646.226"/>
</g>
<!-- exp -->
<g id="node33" class="node"><title>exp</title>
<polygon fill="none" stroke="black" stroke-width="2" points="1713.63,-636 1659.63,-636 1659.63,-600 1713.63,-600 1713.63,-636"/>
<text text-anchor="middle" x="1686.63" y="-615" font-family="Courier,monospace" font-size="10.00">exp</text>
</g>
<!-- exp&#45;&gt;webthree -->
<g id="edge66" class="edge"><title>exp&#45;&gt;webthree</title>
<path fill="none" stroke="black" d="M1659.25,-603.686C1656.36,-602.395 1653.45,-601.143 1650.63,-600 1629.46,-591.414 1573.83,-572.734 1535.31,-560.008"/>
<polygon fill="black" stroke="black" points="1536.03,-556.559 1525.44,-556.751 1533.84,-563.207 1536.03,-556.559"/>
</g>
<!-- flu -->
<g id="node34" class="node"><title>flu</title>
<polygon fill="none" stroke="black" stroke-width="2" points="1656.63,-718 1602.63,-718 1602.63,-682 1656.63,-682 1656.63,-718"/>
<text text-anchor="middle" x="1629.63" y="-697" font-family="Courier,monospace" font-size="10.00">flu</text>
</g>
<!-- flu&#45;&gt;web3jsonrpc -->
<g id="edge67" class="edge"><title>flu&#45;&gt;web3jsonrpc</title>
<path fill="none" stroke="black" d="M1608,-681.869C1603.45,-678.882 1598.54,-676.073 1593.63,-674 1576.53,-666.773 1569.42,-673.927 1552.63,-666 1540.31,-660.182 1528.39,-651.097 1518.67,-642.459"/>
<polygon fill="black" stroke="black" points="1520.77,-639.632 1511.06,-635.39 1516.01,-644.761 1520.77,-639.632"/>
</g>
<!-- flu&#45;&gt;jsconsole -->
<g id="edge68" class="edge"><title>flu&#45;&gt;jsconsole</title>
<path fill="none" stroke="black" d="M1623.55,-681.641C1619.86,-671.086 1615.07,-657.395 1610.91,-645.505"/>
<polygon fill="black" stroke="black" points="1614.2,-644.332 1607.6,-636.05 1607.6,-646.645 1614.2,-644.332"/>
</g>
<!-- jsconsole&#45;&gt;devcore -->
<g id="edge69" class="edge"><title>jsconsole&#45;&gt;devcore</title>
<path fill="none" stroke="black" d="M1571.47,-605.829C1564.98,-603.687 1558.13,-601.612 1551.63,-600 1453.34,-575.613 1412.7,-617.374 1326.63,-564 1283.03,-536.961 1208.26,-424.864 1192.63,-376 1166.05,-292.906 1190.11,-187.826 1204.16,-139.508"/>
<polygon fill="black" stroke="black" points="1207.54,-140.404 1207.06,-129.82 1200.84,-138.392 1207.54,-140.404"/>
</g>
<!-- jsengine -->
<g id="node36" class="node"><title>jsengine</title>
<ellipse fill="none" stroke="black" cx="1594.63" cy="-546" rx="36.9099" ry="18"/>
<text text-anchor="middle" x="1594.63" y="-543" font-family="Courier,monospace" font-size="10.00">jsengine</text>
</g>
<!-- jsconsole&#45;&gt;jsengine -->
<g id="edge72" class="edge"><title>jsconsole&#45;&gt;jsengine</title>
<path fill="none" stroke="black" d="M1599.9,-599.697C1599.13,-591.983 1598.2,-582.712 1597.34,-574.112"/>
<polygon fill="black" stroke="black" points="1600.82,-573.706 1596.34,-564.104 1593.85,-574.403 1600.82,-573.706"/>
</g>
<!-- jsconsole&#45;&gt;JsonRpc::Client -->
<g id="edge70" class="edge"><title>jsconsole&#45;&gt;JsonRpc::Client</title>
<path fill="none" stroke="black" d="M1571.77,-605.78C1565.2,-603.614 1558.24,-601.543 1551.63,-600 1432.45,-572.168 1390.06,-614.616 1278.63,-564 1251.68,-551.757 1251.55,-538.73 1228.63,-520 1187.61,-486.478 1179.25,-474.929 1133.63,-448 1059.81,-404.427 967.147,-366.689 912.372,-345.962"/>
<polygon fill="black" stroke="black" points="913.52,-342.655 902.928,-342.415 911.059,-349.208 913.52,-342.655"/>
</g>
<!-- jsconsole&#45;&gt;JsonRpc::Server -->
<g id="edge71" class="edge"><title>jsconsole&#45;&gt;JsonRpc::Server</title>
<path fill="none" stroke="black" d="M1571.44,-605.918C1564.96,-603.769 1558.11,-601.669 1551.63,-600 1507.47,-588.629 1378.91,-598.956 1349.63,-564 1297.84,-502.168 1355.89,-400.791 1388.08,-354.046"/>
<polygon fill="black" stroke="black" points="1391.05,-355.906 1393.95,-345.714 1385.33,-351.876 1391.05,-355.906"/>
</g>
<!-- Readline -->
<g id="node57" class="node"><title>Readline</title>
<ellipse fill="none" stroke="black" cx="1395.63" cy="-546" rx="36.9099" ry="18"/>
<text text-anchor="middle" x="1395.63" y="-543" font-family="Courier,monospace" font-size="10.00">Readline</text>
</g>
<!-- jsconsole&#45;&gt;Readline -->
<g id="edge73" class="edge"><title>jsconsole&#45;&gt;Readline</title>
<path fill="none" stroke="black" stroke-dasharray="1,5" d="M1570.73,-606.363C1564.42,-604.228 1557.82,-602.02 1551.63,-600 1500.72,-583.379 1486.97,-582.275 1436.63,-564 1435.04,-563.422 1433.41,-562.817 1431.78,-562.195"/>
<polygon fill="black" stroke="black" points="1432.99,-558.909 1422.4,-558.504 1430.42,-565.423 1432.99,-558.909"/>
</g>
<!-- V8 -->
<g id="node58" class="node"><title>V8</title>
<ellipse fill="none" stroke="black" cx="1405.63" cy="-474" rx="27" ry="18"/>
<text text-anchor="middle" x="1405.63" y="-471" font-family="Courier,monospace" font-size="10.00">V8</text>
</g>
<!-- jsengine&#45;&gt;V8 -->
<g id="edge74" class="edge"><title>jsengine&#45;&gt;V8</title>
<path fill="none" stroke="black" d="M1570.22,-532.357C1561.36,-528.074 1551.18,-523.495 1541.63,-520 1496.27,-503.408 1481.46,-509.964 1436.63,-492 1435.93,-491.717 1435.22,-491.423 1434.5,-491.117"/>
<polygon fill="black" stroke="black" points="1435.83,-487.87 1425.3,-486.703 1432.8,-494.182 1435.83,-487.87"/>
</g>
<!-- whisper&#45;&gt;p2p -->
<g id="edge75" class="edge"><title>whisper&#45;&gt;p2p</title>
<path fill="none" stroke="black" d="M1499.16,-455.903C1504.81,-423.394 1511.93,-352.156 1476.63,-310 1442.61,-269.377 1378.68,-259.154 1337.95,-256.986"/>
<polygon fill="black" stroke="black" points="1338.01,-253.485 1327.88,-256.588 1337.73,-260.48 1338.01,-253.485"/>
</g>
<!-- testweb3 -->
<g id="node38" class="node"><title>testweb3</title>
<polygon fill="none" stroke="black" stroke-width="2" points="1512.64,-718 1448.62,-718 1448.62,-682 1512.64,-682 1512.64,-718"/>
<text text-anchor="middle" x="1480.63" y="-697" font-family="Courier,monospace" font-size="10.00">testweb3</text>
</g>
<!-- testweb3&#45;&gt;web3jsonrpc -->
<g id="edge76" class="edge"><title>testweb3&#45;&gt;web3jsonrpc</title>
<path fill="none" stroke="black" d="M1483.89,-681.641C1485.82,-671.297 1488.33,-657.941 1490.53,-646.221"/>
<polygon fill="black" stroke="black" points="1494.03,-646.524 1492.43,-636.05 1487.15,-645.234 1494.03,-646.524"/>
</g>
<!-- soljson -->
<g id="node56" class="node"><title>soljson</title>
<ellipse fill="none" stroke="black" cx="692.63" cy="-618" rx="33.4805" ry="18"/>
<text text-anchor="middle" x="692.63" y="-615" font-family="Courier,monospace" font-size="10.00">soljson</text>
</g>
<!-- soljson&#45;&gt;solidity -->
<g id="edge63" class="edge"><title>soljson&#45;&gt;solidity</title>
<path fill="none" stroke="black" d="M717.769,-605.94C723.551,-603.712 729.736,-601.574 735.63,-600 846.681,-570.347 981.615,-556.133 1051.18,-550.348"/>
<polygon fill="black" stroke="black" points="1051.68,-553.819 1061.36,-549.523 1051.11,-546.842 1051.68,-553.819"/>
</g>
</g>
</svg>
