<?xml version="1.0" encoding="UTF-8" standalone="no"?>
<!DOCTYPE svg PUBLIC "-//W3C//DTD SVG 1.1//EN"
 "http://www.w3.org/Graphics/SVG/1.1/DTD/svg11.dtd">
<!-- Generated by graphviz version 2.38.0 (20140413.2041)
 -->
<!-- Title: webthree Pages: 1 -->
<svg width="1486pt" height="774pt"
 viewBox="0.00 0.00 1486.30 774.00" xmlns="http://www.w3.org/2000/svg" xmlns:xlink="http://www.w3.org/1999/xlink">
<g id="graph0" class="graph" transform="scale(1 1) rotate(0) translate(4 770)">
<title>webthree</title>
<polygon fill="white" stroke="none" points="-4,4 -4,-770 1482.3,-770 1482.3,4 -4,4"/>
<text text-anchor="middle" x="739.152" y="-6.8" font-family="Times,serif" font-size="14.00">webthree dependencies</text>
<g id="clust1" class="cluster"><title>cluster_alethzero</title>
<polygon fill="LightGray" stroke="black" points="517.278,-684 517.278,-758 845.278,-758 845.278,-684 517.278,-684"/>
<text text-anchor="start" x="616.176" y="-742.8" font-family="Times,serif" font-size="14.00">alethzero dependencies</text>
</g>
<g id="clust4" class="cluster"><title>cluster_libethereum</title>
<polygon fill="LavenderBlush" stroke="black" points="330.278,-158 330.278,-676 622.278,-676 622.278,-158 330.278,-158"/>
<text text-anchor="start" x="403.393" y="-660.8" font-family="Times,serif" font-size="14.00">libethereum dependencies</text>
</g>
<g id="clust5" class="cluster"><title>cluster_libweb3core</title>
<polygon fill="AliceBlue" stroke="black" points="1056.28,-86 1056.28,-376 1220.28,-376 1220.28,-86 1056.28,-86"/>
<text text-anchor="start" x="1064.23" y="-360.8" font-family="Times,serif" font-size="14.00">libweb3core dependencies</text>
</g>
<g id="clust8" class="cluster"><title>cluster_solidity</title>
<polygon fill="WhiteSmoke" stroke="black" points="732.278,-384 732.278,-530 878.278,-530 878.278,-384 732.278,-384"/>
<text text-anchor="start" x="744.821" y="-514.8" font-family="Times,serif" font-size="14.00">solidity dependencies</text>
</g>
<g id="clust10" class="cluster"><title>cluster_webthree</title>
<polygon fill="Honeydew" stroke="black" points="962.278,-456 962.278,-758 1242.28,-758 1242.28,-456 962.278,-456"/>
<text text-anchor="middle" x="1102.28" y="-742.8" font-family="Times,serif" font-size="14.00">webthree dependencies</text>
</g>
<!-- AlethFive -->
<g id="node1" class="node"><title>AlethFive</title>
<polygon fill="none" stroke="black" stroke-width="2" points="595.287,-728 525.269,-728 525.269,-692 595.287,-692 595.287,-728"/>
<text text-anchor="middle" x="560.278" y="-707" font-family="Courier,monospace" font-size="10.00">AlethFive</text>
</g>
<!-- ethereum -->
<g id="node5" class="node"><title>ethereum</title>
<ellipse fill="none" stroke="black" cx="577.278" cy="-410" rx="36.9099" ry="18"/>
<text text-anchor="middle" x="577.278" y="-407" font-family="Courier,monospace" font-size="10.00">ethereum</text>
</g>
<!-- AlethFive&#45;&gt;ethereum -->
<g id="edge5" class="edge"><title>AlethFive&#45;&gt;ethereum</title>
<path fill="none" stroke="black" d="M575.094,-691.906C578.44,-687.073 581.52,-681.596 583.278,-676 609.497,-592.529 593.463,-486.88 583.475,-438.032"/>
<polygon fill="black" stroke="black" points="586.836,-437.012 581.333,-427.958 579.989,-438.467 586.836,-437.012"/>
</g>
<!-- Qt::Core -->
<g id="node39" class="node"><title>Qt::Core</title>
<ellipse fill="none" stroke="black" cx="779.278" cy="-628" rx="36.9099" ry="18"/>
<text text-anchor="middle" x="779.278" y="-625" font-family="Courier,monospace" font-size="10.00">Qt::Core</text>
</g>
<!-- AlethFive&#45;&gt;Qt::Core -->
<g id="edge1" class="edge"><title>AlethFive&#45;&gt;Qt::Core</title>
<path fill="none" stroke="black" d="M585.926,-691.872C591.742,-688.726 598.047,-685.855 604.278,-684 631.806,-675.806 707.16,-687.948 733.278,-676 744.248,-670.982 753.999,-662.1 761.668,-653.398"/>
<polygon fill="black" stroke="black" points="764.453,-655.521 768.101,-645.574 759.046,-651.076 764.453,-655.521"/>
</g>
<!-- Qt::Widgets -->
<g id="node40" class="node"><title>Qt::Widgets</title>
<ellipse fill="none" stroke="black" cx="677.278" cy="-628" rx="47.1983" ry="18"/>
<text text-anchor="middle" x="677.278" y="-625" font-family="Courier,monospace" font-size="10.00">Qt::Widgets</text>
</g>
<!-- AlethFive&#45;&gt;Qt::Widgets -->
<g id="edge2" class="edge"><title>AlethFive&#45;&gt;Qt::Widgets</title>
<path fill="none" stroke="black" d="M588.789,-691.885C593.871,-689.099 599.174,-686.358 604.278,-684 613.723,-679.637 617.39,-681.409 626.278,-676 636.673,-669.674 646.809,-661.018 655.27,-652.857"/>
<polygon fill="black" stroke="black" points="657.943,-655.134 662.53,-645.583 652.988,-650.189 657.943,-655.134"/>
</g>
<!-- Qt::WebEngine -->
<g id="node41" class="node"><title>Qt::WebEngine</title>
<ellipse fill="none" stroke="black" cx="54.2783" cy="-628" rx="54.0574" ry="18"/>
<text text-anchor="middle" x="54.2783" y="-625" font-family="Courier,monospace" font-size="10.00">Qt::WebEngine</text>
</g>
<!-- AlethFive&#45;&gt;Qt::WebEngine -->
<g id="edge3" class="edge"><title>AlethFive&#45;&gt;Qt::WebEngine</title>
<path fill="none" stroke="black" d="M525.154,-708.713C434.818,-707.6 196.327,-702.193 122.278,-676 106.888,-670.556 91.7495,-660.671 79.6771,-651.366"/>
<polygon fill="black" stroke="black" points="81.8332,-648.608 71.8438,-645.078 77.4514,-654.067 81.8332,-648.608"/>
</g>
<!-- Qt::WebEngineWidgets -->
<g id="node42" class="node"><title>Qt::WebEngineWidgets</title>
<ellipse fill="none" stroke="black" cx="243.278" cy="-628" rx="78.5618" ry="18"/>
<text text-anchor="middle" x="243.278" y="-625" font-family="Courier,monospace" font-size="10.00">Qt::WebEngineWidgets</text>
</g>
<!-- AlethFive&#45;&gt;Qt::WebEngineWidgets -->
<g id="edge4" class="edge"><title>AlethFive&#45;&gt;Qt::WebEngineWidgets</title>
<path fill="none" stroke="black" d="M525.24,-708.119C478.643,-706.043 394.255,-699.107 326.278,-676 308.49,-669.953 290.167,-660.035 275.277,-650.865"/>
<polygon fill="black" stroke="black" points="276.805,-647.689 266.485,-645.292 273.058,-653.602 276.805,-647.689"/>
</g>
<!-- AlethOne -->
<g id="node2" class="node"><title>AlethOne</title>
<polygon fill="none" stroke="black" stroke-width="2" points="677.286,-728 613.27,-728 613.27,-692 677.286,-692 677.286,-728"/>
<text text-anchor="middle" x="645.278" y="-707" font-family="Courier,monospace" font-size="10.00">AlethOne</text>
</g>
<!-- ethashseal -->
<g id="node6" class="node"><title>ethashseal</title>
<ellipse fill="none" stroke="black" cx="456.278" cy="-482" rx="43.7688" ry="18"/>
<text text-anchor="middle" x="456.278" y="-479" font-family="Courier,monospace" font-size="10.00">ethashseal</text>
</g>
<!-- AlethOne&#45;&gt;ethashseal -->
<g id="edge8" class="edge"><title>AlethOne&#45;&gt;ethashseal</title>
<path fill="none" stroke="black" d="M621.998,-691.923C616.448,-688.689 610.363,-685.767 604.278,-684 592.299,-680.52 164.02,-684.899 155.278,-676 67.8324,-586.982 303.301,-518.764 408.484,-493.566"/>
<polygon fill="black" stroke="black" points="409.313,-496.967 418.241,-491.263 407.705,-490.154 409.313,-496.967"/>
</g>
<!-- AlethOne&#45;&gt;Qt::Core -->
<g id="edge6" class="edge"><title>AlethOne&#45;&gt;Qt::Core</title>
<path fill="none" stroke="black" d="M670.102,-691.825C675.27,-688.841 680.813,-686.045 686.278,-684 706.124,-676.574 714.507,-685.829 733.278,-676 743.703,-670.541 753.189,-661.86 760.803,-653.436"/>
<polygon fill="black" stroke="black" points="763.694,-655.439 767.499,-645.552 758.358,-650.908 763.694,-655.439"/>
</g>
<!-- AlethOne&#45;&gt;Qt::Widgets -->
<g id="edge7" class="edge"><title>AlethOne&#45;&gt;Qt::Widgets</title>
<path fill="none" stroke="black" d="M652.222,-691.641C656.444,-681.086 661.92,-667.395 666.676,-655.505"/>
<polygon fill="black" stroke="black" points="669.994,-656.635 670.458,-646.05 663.495,-654.035 669.994,-656.635"/>
</g>
<!-- AlethZero -->
<g id="node3" class="node"><title>AlethZero</title>
<polygon fill="none" stroke="black" stroke-width="2" points="765.287,-728 695.269,-728 695.269,-692 765.287,-692 765.287,-728"/>
<text text-anchor="middle" x="730.278" y="-707" font-family="Courier,monospace" font-size="10.00">AlethZero</text>
</g>
<!-- natspec -->
<g id="node7" class="node"><title>natspec</title>
<ellipse fill="none" stroke="black" cx="541.278" cy="-628" rx="33.4805" ry="18"/>
<text text-anchor="middle" x="541.278" y="-625" font-family="Courier,monospace" font-size="10.00">natspec</text>
</g>
<!-- AlethZero&#45;&gt;natspec -->
<g id="edge13" class="edge"><title>AlethZero&#45;&gt;natspec</title>
<path fill="none" stroke="black" d="M704.069,-691.9C698.392,-688.834 692.284,-685.987 686.278,-684 658.645,-674.856 648.844,-685.344 621.278,-676 602.707,-669.705 583.708,-658.769 568.887,-649.029"/>
<polygon fill="black" stroke="black" points="570.483,-645.882 560.241,-643.172 566.557,-651.678 570.483,-645.882"/>
</g>
<!-- web3jsonrpc -->
<g id="node30" class="node"><title>web3jsonrpc</title>
<ellipse fill="none" stroke="black" cx="1017.28" cy="-628" rx="47.1983" ry="18"/>
<text text-anchor="middle" x="1017.28" y="-625" font-family="Courier,monospace" font-size="10.00">web3jsonrpc</text>
</g>
<!-- AlethZero&#45;&gt;web3jsonrpc -->
<g id="edge12" class="edge"><title>AlethZero&#45;&gt;web3jsonrpc</title>
<path fill="none" stroke="black" d="M755.908,-691.811C761.725,-688.669 768.035,-685.815 774.278,-684 843.927,-663.756 867.778,-696.748 937.278,-676 955.557,-670.543 974.044,-660.078 988.634,-650.405"/>
<polygon fill="black" stroke="black" points="990.917,-653.083 997.179,-644.536 986.954,-647.313 990.917,-653.083"/>
</g>
<!-- AlethZero&#45;&gt;Qt::Core -->
<g id="edge9" class="edge"><title>AlethZero&#45;&gt;Qt::Core</title>
<path fill="none" stroke="black" d="M740.911,-691.641C747.595,-680.728 756.332,-666.463 763.78,-654.303"/>
<polygon fill="black" stroke="black" points="766.931,-655.86 769.169,-645.505 760.961,-652.204 766.931,-655.86"/>
</g>
<!-- AlethZero&#45;&gt;Qt::Widgets -->
<g id="edge10" class="edge"><title>AlethZero&#45;&gt;Qt::Widgets</title>
<path fill="none" stroke="black" d="M718.778,-691.641C711.526,-680.695 702.041,-666.377 693.968,-654.193"/>
<polygon fill="black" stroke="black" points="696.834,-652.18 688.393,-645.777 690.998,-656.046 696.834,-652.18"/>
</g>
<!-- AlethZero&#45;&gt;Qt::WebEngineWidgets -->
<g id="edge11" class="edge"><title>AlethZero&#45;&gt;Qt::WebEngineWidgets</title>
<path fill="none" stroke="black" d="M705.156,-691.938C699.207,-688.703 692.715,-685.778 686.278,-684 609.146,-662.698 403.426,-697.246 326.278,-676 307.594,-670.854 288.647,-660.591 273.582,-650.964"/>
<polygon fill="black" stroke="black" points="275.463,-648.012 265.192,-645.413 271.6,-653.85 275.463,-648.012"/>
</g>
<!-- aleth -->
<g id="node4" class="node"><title>aleth</title>
<ellipse fill="none" stroke="black" cx="810.278" cy="-710" rx="27" ry="18"/>
<text text-anchor="middle" x="810.278" y="-707" font-family="Courier,monospace" font-size="10.00">aleth</text>
</g>
<!-- aleth&#45;&gt;natspec -->
<g id="edge17" class="edge"><title>aleth&#45;&gt;natspec</title>
<path fill="none" stroke="black" d="M794.487,-695.208C788.546,-690.816 781.478,-686.463 774.278,-684 709.851,-661.96 686.494,-695.583 621.278,-676 602.062,-670.23 582.607,-658.949 567.694,-648.885"/>
<polygon fill="black" stroke="black" points="569.679,-646.002 559.475,-643.151 565.674,-651.743 569.679,-646.002"/>
</g>
<!-- aleth&#45;&gt;web3jsonrpc -->
<g id="edge16" class="edge"><title>aleth&#45;&gt;web3jsonrpc</title>
<path fill="none" stroke="black" d="M836.255,-704.443C862.413,-699.352 903.604,-689.949 937.278,-676 954.409,-668.904 972.309,-658.687 986.823,-649.59"/>
<polygon fill="black" stroke="black" points="988.85,-652.448 995.385,-644.109 985.075,-646.553 988.85,-652.448"/>
</g>
<!-- aleth&#45;&gt;Qt::Core -->
<g id="edge14" class="edge"><title>aleth&#45;&gt;Qt::Core</title>
<path fill="none" stroke="black" d="M803.855,-692.424C799.726,-681.769 794.271,-667.69 789.549,-655.504"/>
<polygon fill="black" stroke="black" points="792.677,-653.89 785.8,-645.83 786.15,-656.419 792.677,-653.89"/>
</g>
<!-- aleth&#45;&gt;Qt::Widgets -->
<g id="edge15" class="edge"><title>aleth&#45;&gt;Qt::Widgets</title>
<path fill="none" stroke="black" d="M793.915,-695.503C788.033,-691.247 781.147,-686.903 774.278,-684 757.177,-676.773 750.032,-684 733.278,-676 721.108,-670.189 709.394,-661.106 699.854,-652.467"/>
<polygon fill="black" stroke="black" points="702.056,-649.732 692.388,-645.397 697.242,-654.814 702.056,-649.732"/>
</g>
<!-- Qt::Network -->
<g id="node43" class="node"><title>Qt::Network</title>
<ellipse fill="none" stroke="black" cx="881.278" cy="-628" rx="47.1983" ry="18"/>
<text text-anchor="middle" x="881.278" y="-625" font-family="Courier,monospace" font-size="10.00">Qt::Network</text>
</g>
<!-- aleth&#45;&gt;Qt::Network -->
<g id="edge18" class="edge"><title>aleth&#45;&gt;Qt::Network</title>
<path fill="none" stroke="black" d="M823.633,-693.953C833.812,-682.483 848.036,-666.456 859.807,-653.192"/>
<polygon fill="black" stroke="black" points="862.742,-655.159 866.762,-645.357 857.506,-650.513 862.742,-655.159"/>
</g>
<!-- evm -->
<g id="node15" class="node"><title>evm</title>
<ellipse fill="none" stroke="black" cx="515.278" cy="-328" rx="27" ry="18"/>
<text text-anchor="middle" x="515.278" y="-325" font-family="Courier,monospace" font-size="10.00">evm</text>
</g>
<!-- ethereum&#45;&gt;evm -->
<g id="edge20" class="edge"><title>ethereum&#45;&gt;evm</title>
<path fill="none" stroke="black" d="M564.539,-392.921C560.304,-387.552 555.574,-381.529 551.278,-376 545.386,-368.416 539,-360.107 533.264,-352.612"/>
<polygon fill="black" stroke="black" points="535.751,-350.102 526.899,-344.281 530.189,-354.352 535.751,-350.102"/>
</g>
<!-- lll -->
<g id="node18" class="node"><title>lll</title>
<ellipse fill="none" stroke="black" cx="587.278" cy="-328" rx="27" ry="18"/>
<text text-anchor="middle" x="587.278" y="-325" font-family="Courier,monospace" font-size="10.00">lll</text>
</g>
<!-- ethereum&#45;&gt;lll -->
<g id="edge21" class="edge"><title>ethereum&#45;&gt;lll</title>
<path fill="none" stroke="black" d="M579.448,-391.641C580.741,-381.297 582.411,-367.941 583.876,-356.221"/>
<polygon fill="black" stroke="black" points="587.38,-356.407 585.147,-346.05 580.434,-355.539 587.38,-356.407"/>
</g>
<!-- p2p -->
<g id="node22" class="node"><title>p2p</title>
<ellipse fill="none" stroke="black" cx="1177.28" cy="-256" rx="27" ry="18"/>
<text text-anchor="middle" x="1177.28" y="-253" font-family="Courier,monospace" font-size="10.00">p2p</text>
</g>
<!-- ethereum&#45;&gt;p2p -->
<g id="edge19" class="edge"><title>ethereum&#45;&gt;p2p</title>
<path fill="none" stroke="black" d="M613.654,-406.719C640.271,-403.412 676,-395.386 701.278,-376 728.137,-355.401 710.761,-328.233 739.278,-310 814.844,-261.687 1054.72,-297.512 1141.28,-274 1143.23,-273.47 1145.2,-272.839 1147.17,-272.138"/>
<polygon fill="black" stroke="black" points="1148.89,-275.215 1156.81,-268.177 1146.23,-268.739 1148.89,-275.215"/>
</g>
<!-- JsonRpc::Client -->
<g id="node44" class="node"><title>JsonRpc::Client</title>
<ellipse fill="none" stroke="black" cx="987.278" cy="-328" rx="61.4159" ry="18"/>
<text text-anchor="middle" x="987.278" y="-325" font-family="Courier,monospace" font-size="10.00">JsonRpc::Client</text>
</g>
<!-- ethereum&#45;&gt;JsonRpc::Client -->
<g id="edge22" class="edge"><title>ethereum&#45;&gt;JsonRpc::Client</title>
<path fill="none" stroke="black" d="M611.014,-402.31C641.519,-396.525 687.73,-388.417 728.278,-384 795.088,-376.722 813.869,-391.432 879.278,-376 904.131,-370.136 930.436,-358.81 950.862,-348.745"/>
<polygon fill="black" stroke="black" points="952.454,-351.862 959.807,-344.234 949.302,-345.612 952.454,-351.862"/>
</g>
<!-- JsonRpc::Server -->
<g id="node45" class="node"><title>JsonRpc::Server</title>
<ellipse fill="none" stroke="black" cx="809.278" cy="-328" rx="61.4159" ry="18"/>
<text text-anchor="middle" x="809.278" y="-325" font-family="Courier,monospace" font-size="10.00">JsonRpc::Server</text>
</g>
<!-- ethereum&#45;&gt;JsonRpc::Server -->
<g id="edge23" class="edge"><title>ethereum&#45;&gt;JsonRpc::Server</title>
<path fill="none" stroke="black" d="M612.929,-405.144C645.449,-400.787 694.372,-392.101 734.278,-376 750.293,-369.539 766.701,-359.693 780.07,-350.679"/>
<polygon fill="black" stroke="black" points="782.156,-353.492 788.382,-344.92 778.169,-347.738 782.156,-353.492"/>
</g>
<!-- ethashseal&#45;&gt;ethereum -->
<g id="edge24" class="edge"><title>ethashseal&#45;&gt;ethereum</title>
<path fill="none" stroke="black" d="M480.764,-466.834C499.448,-456.026 525.337,-441.049 545.599,-429.327"/>
<polygon fill="black" stroke="black" points="547.563,-432.234 554.466,-424.197 544.057,-426.175 547.563,-432.234"/>
</g>
<!-- ethash&#45;cl -->
<g id="node14" class="node"><title>ethash&#45;cl</title>
<ellipse fill="none" stroke="black" cx="456.278" cy="-410" rx="40.3393" ry="18"/>
<text text-anchor="middle" x="456.278" y="-407" font-family="Courier,monospace" font-size="10.00">ethash&#45;cl</text>
</g>
<!-- ethashseal&#45;&gt;ethash&#45;cl -->
<g id="edge25" class="edge"><title>ethashseal&#45;&gt;ethash&#45;cl</title>
<path fill="none" stroke="black" stroke-dasharray="1,5" d="M456.278,-463.697C456.278,-455.983 456.278,-446.712 456.278,-438.112"/>
<polygon fill="black" stroke="black" points="459.778,-438.104 456.278,-428.104 452.778,-438.104 459.778,-438.104"/>
</g>
<!-- Cpuid -->
<g id="node46" class="node"><title>Cpuid</title>
<ellipse fill="none" stroke="black" cx="295.278" cy="-410" rx="27" ry="18"/>
<text text-anchor="middle" x="295.278" y="-407" font-family="Courier,monospace" font-size="10.00">Cpuid</text>
</g>
<!-- ethashseal&#45;&gt;Cpuid -->
<g id="edge26" class="edge"><title>ethashseal&#45;&gt;Cpuid</title>
<path fill="none" stroke="black" stroke-dasharray="1,5" d="M424.849,-469.348C398.246,-459.211 359.287,-443.716 326.278,-428 325.592,-427.673 324.9,-427.339 324.205,-426.997"/>
<polygon fill="black" stroke="black" points="325.607,-423.783 315.115,-422.315 322.402,-430.006 325.607,-423.783"/>
</g>
<!-- ethcore -->
<g id="node8" class="node"><title>ethcore</title>
<ellipse fill="none" stroke="black" cx="391.278" cy="-256" rx="33.4805" ry="18"/>
<text text-anchor="middle" x="391.278" y="-253" font-family="Courier,monospace" font-size="10.00">ethcore</text>
</g>
<!-- devcrypto -->
<g id="node23" class="node"><title>devcrypto</title>
<ellipse fill="none" stroke="black" cx="1172.28" cy="-184" rx="40.3393" ry="18"/>
<text text-anchor="middle" x="1172.28" y="-181" font-family="Courier,monospace" font-size="10.00">devcrypto</text>
</g>
<!-- ethcore&#45;&gt;devcrypto -->
<g id="edge32" class="edge"><title>ethcore&#45;&gt;devcrypto</title>
<path fill="none" stroke="black" d="M421.49,-247.766C436.905,-244.323 456.002,-240.435 473.278,-238 714.6,-203.98 1006.08,-190.753 1121.6,-186.606"/>
<polygon fill="black" stroke="black" points="1122.02,-190.093 1131.89,-186.243 1121.78,-183.097 1122.02,-190.093"/>
</g>
<!-- buildinfo -->
<g id="node47" class="node"><title>buildinfo</title>
<ellipse fill="none" stroke="black" cx="282.278" cy="-184" rx="40.3393" ry="18"/>
<text text-anchor="middle" x="282.278" y="-181" font-family="Courier,monospace" font-size="10.00">buildinfo</text>
</g>
<!-- ethcore&#45;&gt;buildinfo -->
<g id="edge33" class="edge"><title>ethcore&#45;&gt;buildinfo</title>
<path fill="none" stroke="black" d="M370.52,-241.669C354.277,-231.237 331.441,-216.572 313.07,-204.774"/>
<polygon fill="black" stroke="black" points="314.764,-201.703 304.458,-199.244 310.981,-207.593 314.764,-201.703"/>
</g>
<!-- ethkey -->
<g id="node9" class="node"><title>ethkey</title>
<polygon fill="none" stroke="black" stroke-width="2" points="392.278,-346 338.278,-346 338.278,-310 392.278,-310 392.278,-346"/>
<text text-anchor="middle" x="365.278" y="-325" font-family="Courier,monospace" font-size="10.00">ethkey</text>
</g>
<!-- ethkey&#45;&gt;ethcore -->
<g id="edge40" class="edge"><title>ethkey&#45;&gt;ethcore</title>
<path fill="none" stroke="black" d="M371.705,-309.697C374.633,-301.813 378.165,-292.304 381.418,-283.546"/>
<polygon fill="black" stroke="black" points="384.724,-284.697 384.925,-274.104 378.162,-282.26 384.724,-284.697"/>
</g>
<!-- ethminer -->
<g id="node10" class="node"><title>ethminer</title>
<polygon fill="none" stroke="black" stroke-width="2" points="403.286,-574 339.27,-574 339.27,-538 403.286,-538 403.286,-574"/>
<text text-anchor="middle" x="371.278" y="-553" font-family="Courier,monospace" font-size="10.00">ethminer</text>
</g>
<!-- ethminer&#45;&gt;ethashseal -->
<g id="edge41" class="edge"><title>ethminer&#45;&gt;ethashseal</title>
<path fill="none" stroke="black" d="M391.422,-537.937C403.02,-528.113 417.724,-515.658 430.198,-505.092"/>
<polygon fill="black" stroke="black" points="432.649,-507.602 438.018,-498.468 428.125,-502.261 432.649,-507.602"/>
</g>
<!-- ethvm -->
<g id="node11" class="node"><title>ethvm</title>
<polygon fill="none" stroke="black" stroke-width="2" points="574.278,-500 520.278,-500 520.278,-464 574.278,-464 574.278,-500"/>
<text text-anchor="middle" x="547.278" y="-479" font-family="Courier,monospace" font-size="10.00">ethvm</text>
</g>
<!-- ethvm&#45;&gt;ethereum -->
<g id="edge42" class="edge"><title>ethvm&#45;&gt;ethereum</title>
<path fill="none" stroke="black" d="M554.694,-463.697C558.073,-455.813 562.148,-446.304 565.901,-437.546"/>
<polygon fill="black" stroke="black" points="569.226,-438.675 569.948,-428.104 562.792,-435.917 569.226,-438.675"/>
</g>
<!-- evmjit -->
<g id="node12" class="node"><title>evmjit</title>
<polygon fill="none" stroke="black" stroke-width="2" points="536.278,-274 482.278,-274 482.278,-238 536.278,-238 536.278,-274"/>
<text text-anchor="middle" x="509.278" y="-253" font-family="Courier,monospace" font-size="10.00">evmjit</text>
</g>
<!-- ethash -->
<g id="node13" class="node"><title>ethash</title>
<ellipse fill="none" stroke="black" cx="440.278" cy="-328" rx="30.0512" ry="18"/>
<text text-anchor="middle" x="440.278" y="-325" font-family="Courier,monospace" font-size="10.00">ethash</text>
</g>
<!-- ethash&#45;cl&#45;&gt;ethash -->
<g id="edge43" class="edge"><title>ethash&#45;cl&#45;&gt;ethash</title>
<path fill="none" stroke="black" d="M452.885,-392.034C450.785,-381.534 448.042,-367.821 445.652,-355.868"/>
<polygon fill="black" stroke="black" points="449.06,-355.061 443.667,-345.941 442.196,-356.434 449.06,-355.061"/>
</g>
<!-- OpenCL -->
<g id="node52" class="node"><title>OpenCL</title>
<ellipse fill="none" stroke="black" cx="662.278" cy="-328" rx="30.0512" ry="18"/>
<text text-anchor="middle" x="662.278" y="-325" font-family="Courier,monospace" font-size="10.00">OpenCL</text>
</g>
<!-- ethash&#45;cl&#45;&gt;OpenCL -->
<g id="edge44" class="edge"><title>ethash&#45;cl&#45;&gt;OpenCL</title>
<path fill="none" stroke="black" d="M485.401,-397.497C499.113,-392.548 515.818,-387.18 531.278,-384 552.03,-379.731 607.692,-386.168 626.278,-376 635.514,-370.948 643.122,-362.415 648.926,-353.995"/>
<polygon fill="black" stroke="black" points="651.962,-355.743 654.315,-345.413 646.033,-352.021 651.962,-355.743"/>
</g>
<!-- evm&#45;&gt;ethcore -->
<g id="edge45" class="edge"><title>evm&#45;&gt;ethcore</title>
<path fill="none" stroke="black" d="M495.356,-315.753C475.74,-304.68 445.485,-287.6 422.641,-274.705"/>
<polygon fill="black" stroke="black" points="424.097,-271.508 413.669,-269.64 420.656,-277.604 424.097,-271.508"/>
</g>
<!-- evm&#45;&gt;evmjit -->
<g id="edge46" class="edge"><title>evm&#45;&gt;evmjit</title>
<path fill="none" stroke="black" stroke-dasharray="1,5" d="M513.795,-309.697C513.134,-301.983 512.339,-292.712 511.602,-284.112"/>
<polygon fill="black" stroke="black" points="515.086,-283.769 510.744,-274.104 508.111,-284.367 515.086,-283.769"/>
</g>
<!-- evmcore -->
<g id="node17" class="node"><title>evmcore</title>
<ellipse fill="none" stroke="black" cx="581.278" cy="-184" rx="33.4805" ry="18"/>
<text text-anchor="middle" x="581.278" y="-181" font-family="Courier,monospace" font-size="10.00">evmcore</text>
</g>
<!-- evm&#45;&gt;evmcore -->
<g id="edge47" class="edge"><title>evm&#45;&gt;evmcore</title>
<path fill="none" stroke="black" d="M499.966,-312.911C482.322,-294.911 457.645,-263.086 473.278,-238 487.939,-214.475 516.424,-201.098 540.461,-193.669"/>
<polygon fill="black" stroke="black" points="541.435,-197.03 550.094,-190.926 539.518,-190.298 541.435,-197.03"/>
</g>
<!-- evmasm -->
<g id="node16" class="node"><title>evmasm</title>
<ellipse fill="none" stroke="black" cx="584.278" cy="-256" rx="30.0512" ry="18"/>
<text text-anchor="middle" x="584.278" y="-253" font-family="Courier,monospace" font-size="10.00">evmasm</text>
</g>
<!-- evmasm&#45;&gt;evmcore -->
<g id="edge48" class="edge"><title>evmasm&#45;&gt;evmcore</title>
<path fill="none" stroke="black" d="M583.537,-237.697C583.206,-229.983 582.809,-220.712 582.44,-212.112"/>
<polygon fill="black" stroke="black" points="585.936,-211.945 582.011,-202.104 578.943,-212.245 585.936,-211.945"/>
</g>
<!-- devcore -->
<g id="node24" class="node"><title>devcore</title>
<ellipse fill="none" stroke="black" cx="1172.28" cy="-112" rx="33.4805" ry="18"/>
<text text-anchor="middle" x="1172.28" y="-109" font-family="Courier,monospace" font-size="10.00">devcore</text>
</g>
<!-- evmcore&#45;&gt;devcore -->
<g id="edge49" class="edge"><title>evmcore&#45;&gt;devcore</title>
<path fill="none" stroke="black" d="M613.895,-179.137C714.095,-167.269 1017.44,-131.34 1129.81,-118.03"/>
<polygon fill="black" stroke="black" points="1130.24,-121.503 1139.76,-116.851 1129.42,-114.552 1130.24,-121.503"/>
</g>
<!-- lll&#45;&gt;evmasm -->
<g id="edge50" class="edge"><title>lll&#45;&gt;evmasm</title>
<path fill="none" stroke="black" d="M586.537,-309.697C586.206,-301.983 585.809,-292.712 585.44,-284.112"/>
<polygon fill="black" stroke="black" points="588.936,-283.945 585.011,-274.104 581.943,-284.245 588.936,-283.945"/>
</g>
<!-- testutils -->
<g id="node19" class="node"><title>testutils</title>
<ellipse fill="none" stroke="black" cx="461.278" cy="-556" rx="40.3393" ry="18"/>
<text text-anchor="middle" x="461.278" y="-553" font-family="Courier,monospace" font-size="10.00">testutils</text>
</g>
<!-- testutils&#45;&gt;ethashseal -->
<g id="edge51" class="edge"><title>testutils&#45;&gt;ethashseal</title>
<path fill="none" stroke="black" d="M460.093,-537.937C459.529,-529.807 458.839,-519.876 458.202,-510.705"/>
<polygon fill="black" stroke="black" points="461.674,-510.174 457.489,-500.441 454.691,-510.659 461.674,-510.174"/>
</g>
<!-- lllc -->
<g id="node20" class="node"><title>lllc</title>
<polygon fill="none" stroke="black" stroke-width="2" points="395.278,-428 341.278,-428 341.278,-392 395.278,-392 395.278,-428"/>
<text text-anchor="middle" x="368.278" y="-407" font-family="Courier,monospace" font-size="10.00">lllc</text>
</g>
<!-- lllc&#45;&gt;lll -->
<g id="edge52" class="edge"><title>lllc&#45;&gt;lll</title>
<path fill="none" stroke="black" d="M390.8,-391.836C395.968,-388.693 401.616,-385.831 407.278,-384 437.773,-374.139 522.945,-390.979 551.278,-376 560.585,-371.08 568.207,-362.573 574.003,-354.138"/>
<polygon fill="black" stroke="black" points="577.052,-355.863 579.376,-345.526 571.113,-352.158 577.052,-355.863"/>
</g>
<!-- lllc&#45;&gt;buildinfo -->
<g id="edge53" class="edge"><title>lllc&#45;&gt;buildinfo</title>
<path fill="none" stroke="black" d="M343.22,-391.852C337.968,-387.241 332.923,-381.88 329.278,-376 297.045,-324 286.908,-251.238 283.727,-212.241"/>
<polygon fill="black" stroke="black" points="287.212,-211.905 283.002,-202.183 280.23,-212.409 287.212,-211.905"/>
</g>
<!-- testeth -->
<g id="node21" class="node"><title>testeth</title>
<polygon fill="none" stroke="black" stroke-width="2" points="490.285,-646 432.271,-646 432.271,-610 490.285,-610 490.285,-646"/>
<text text-anchor="middle" x="461.278" y="-625" font-family="Courier,monospace" font-size="10.00">testeth</text>
</g>
<!-- testeth&#45;&gt;testutils -->
<g id="edge54" class="edge"><title>testeth&#45;&gt;testutils</title>
<path fill="none" stroke="black" d="M461.278,-609.697C461.278,-601.983 461.278,-592.712 461.278,-584.112"/>
<polygon fill="black" stroke="black" points="464.778,-584.104 461.278,-574.104 457.778,-584.104 464.778,-584.104"/>
</g>
<!-- p2p&#45;&gt;devcrypto -->
<g id="edge34" class="edge"><title>p2p&#45;&gt;devcrypto</title>
<path fill="none" stroke="black" d="M1176.04,-237.697C1175.49,-229.983 1174.83,-220.712 1174.21,-212.112"/>
<polygon fill="black" stroke="black" points="1177.7,-211.83 1173.5,-202.104 1170.72,-212.328 1177.7,-211.83"/>
</g>
<!-- Miniupnpc -->
<g id="node48" class="node"><title>Miniupnpc</title>
<ellipse fill="none" stroke="black" cx="1271.28" cy="-184" rx="40.3393" ry="18"/>
<text text-anchor="middle" x="1271.28" y="-181" font-family="Courier,monospace" font-size="10.00">Miniupnpc</text>
</g>
<!-- p2p&#45;&gt;Miniupnpc -->
<g id="edge35" class="edge"><title>p2p&#45;&gt;Miniupnpc</title>
<path fill="none" stroke="black" stroke-dasharray="1,5" d="M1194.96,-241.834C1208.51,-231.742 1227.48,-217.618 1243.11,-205.975"/>
<polygon fill="black" stroke="black" points="1245.47,-208.584 1251.4,-199.804 1241.29,-202.969 1245.47,-208.584"/>
</g>
<!-- devcrypto&#45;&gt;devcore -->
<g id="edge36" class="edge"><title>devcrypto&#45;&gt;devcore</title>
<path fill="none" stroke="black" d="M1172.28,-165.697C1172.28,-157.983 1172.28,-148.712 1172.28,-140.112"/>
<polygon fill="black" stroke="black" points="1175.78,-140.104 1172.28,-130.104 1168.78,-140.104 1175.78,-140.104"/>
</g>
<!-- scrypt -->
<g id="node49" class="node"><title>scrypt</title>
<ellipse fill="none" stroke="black" cx="1448.28" cy="-112" rx="30.0512" ry="18"/>
<text text-anchor="middle" x="1448.28" y="-109" font-family="Courier,monospace" font-size="10.00">scrypt</text>
</g>
<!-- devcrypto&#45;&gt;scrypt -->
<g id="edge37" class="edge"><title>devcrypto&#45;&gt;scrypt</title>
<path fill="none" stroke="black" d="M1195.79,-169.331C1203.95,-165.114 1213.3,-160.837 1222.28,-158 1302.41,-132.673 1328.51,-153.212 1409.28,-130 1411.55,-129.346 1413.87,-128.589 1416.19,-127.765"/>
<polygon fill="black" stroke="black" points="1417.52,-131.002 1425.55,-124.095 1414.96,-124.485 1417.52,-131.002"/>
</g>
<!-- Cryptopp -->
<g id="node50" class="node"><title>Cryptopp</title>
<ellipse fill="none" stroke="black" cx="1265.28" cy="-112" rx="36.9099" ry="18"/>
<text text-anchor="middle" x="1265.28" y="-109" font-family="Courier,monospace" font-size="10.00">Cryptopp</text>
</g>
<!-- devcrypto&#45;&gt;Cryptopp -->
<g id="edge38" class="edge"><title>devcrypto&#45;&gt;Cryptopp</title>
<path fill="none" stroke="black" d="M1192,-168.155C1205.28,-158.157 1222.99,-144.832 1237.67,-133.783"/>
<polygon fill="black" stroke="black" points="1240.02,-136.394 1245.9,-127.584 1235.81,-130.801 1240.02,-136.394"/>
</g>
<!-- secp256k1 -->
<g id="node51" class="node"><title>secp256k1</title>
<ellipse fill="none" stroke="black" cx="1360.28" cy="-112" rx="40.3393" ry="18"/>
<text text-anchor="middle" x="1360.28" y="-109" font-family="Courier,monospace" font-size="10.00">secp256k1</text>
</g>
<!-- devcrypto&#45;&gt;secp256k1 -->
<g id="edge39" class="edge"><title>devcrypto&#45;&gt;secp256k1</title>
<path fill="none" stroke="black" d="M1197.1,-169.616C1205.02,-165.608 1213.91,-161.383 1222.28,-158 1260.72,-142.456 1271.91,-143.019 1311.28,-130 1314.04,-129.086 1316.89,-128.131 1319.76,-127.161"/>
<polygon fill="black" stroke="black" points="1321.15,-130.384 1329.48,-123.838 1318.89,-123.76 1321.15,-130.384"/>
</g>
<!-- Jsoncpp -->
<g id="node53" class="node"><title>Jsoncpp</title>
<ellipse fill="none" stroke="black" cx="1133.28" cy="-40" rx="33.4805" ry="18"/>
<text text-anchor="middle" x="1133.28" y="-37" font-family="Courier,monospace" font-size="10.00">Jsoncpp</text>
</g>
<!-- devcore&#45;&gt;Jsoncpp -->
<g id="edge55" class="edge"><title>devcore&#45;&gt;Jsoncpp</title>
<path fill="none" stroke="black" d="M1163.04,-94.411C1158.37,-86.0421 1152.62,-75.7098 1147.41,-66.3698"/>
<polygon fill="black" stroke="black" points="1150.38,-64.5022 1142.45,-57.4699 1144.26,-67.9091 1150.38,-64.5022"/>
</g>
<!-- base -->
<g id="node54" class="node"><title>base</title>
<ellipse fill="none" stroke="black" cx="1211.28" cy="-40" rx="27" ry="18"/>
<text text-anchor="middle" x="1211.28" y="-37" font-family="Courier,monospace" font-size="10.00">base</text>
</g>
<!-- devcore&#45;&gt;base -->
<g id="edge56" class="edge"><title>devcore&#45;&gt;base</title>
<path fill="none" stroke="black" d="M1181.52,-94.411C1186.18,-86.0421 1191.94,-75.7098 1197.14,-66.3698"/>
<polygon fill="black" stroke="black" points="1200.29,-67.9091 1202.1,-57.4699 1194.18,-64.5022 1200.29,-67.9091"/>
</g>
<!-- rlp -->
<g id="node25" class="node"><title>rlp</title>
<polygon fill="none" stroke="black" stroke-width="2" points="1132.28,-274 1078.28,-274 1078.28,-238 1132.28,-238 1132.28,-274"/>
<text text-anchor="middle" x="1105.28" y="-253" font-family="Courier,monospace" font-size="10.00">rlp</text>
</g>
<!-- rlp&#45;&gt;devcrypto -->
<g id="edge57" class="edge"><title>rlp&#45;&gt;devcrypto</title>
<path fill="none" stroke="black" d="M1121.84,-237.697C1130.28,-228.879 1140.66,-218.029 1149.81,-208.47"/>
<polygon fill="black" stroke="black" points="1152.44,-210.789 1156.83,-201.145 1147.38,-205.949 1152.44,-210.789"/>
</g>
<!-- testweb3core -->
<g id="node26" class="node"><title>testweb3core</title>
<polygon fill="none" stroke="black" stroke-width="2" points="1154.29,-346 1066.27,-346 1066.27,-310 1154.29,-310 1154.29,-346"/>
<text text-anchor="middle" x="1110.28" y="-325" font-family="Courier,monospace" font-size="10.00">testweb3core</text>
</g>
<!-- testweb3core&#45;&gt;p2p -->
<g id="edge58" class="edge"><title>testweb3core&#45;&gt;p2p</title>
<path fill="none" stroke="black" d="M1126.84,-309.697C1135.65,-300.496 1146.57,-289.082 1156,-279.231"/>
<polygon fill="black" stroke="black" points="1158.79,-281.383 1163.17,-271.738 1153.73,-276.542 1158.79,-281.383"/>
</g>
<!-- Solidity -->
<g id="node27" class="node"><title>Solidity</title>
<ellipse fill="none" stroke="black" cx="777.278" cy="-410" rx="36.9099" ry="18"/>
<text text-anchor="middle" x="777.278" y="-407" font-family="Courier,monospace" font-size="10.00">Solidity</text>
</g>
<!-- Solidity&#45;&gt;evmasm -->
<g id="edge29" class="edge"><title>Solidity&#45;&gt;evmasm</title>
<path fill="none" stroke="black" d="M813.939,-407.504C836.735,-404.444 864.442,-396.394 879.278,-376 896.535,-352.28 898.097,-332.501 879.278,-310 847.261,-271.718 697.603,-261.049 624.573,-258.105"/>
<polygon fill="black" stroke="black" points="624.5,-254.6 614.377,-257.724 624.239,-261.595 624.5,-254.6"/>
</g>
<!-- solc -->
<g id="node28" class="node"><title>solc</title>
<polygon fill="none" stroke="black" stroke-width="2" points="870.278,-500 816.278,-500 816.278,-464 870.278,-464 870.278,-500"/>
<text text-anchor="middle" x="843.278" y="-479" font-family="Courier,monospace" font-size="10.00">solc</text>
</g>
<!-- solidity -->
<g id="node55" class="node"><title>solidity</title>
<ellipse fill="none" stroke="black" cx="923.278" cy="-410" rx="36.9099" ry="18"/>
<text text-anchor="middle" x="923.278" y="-407" font-family="Courier,monospace" font-size="10.00">solidity</text>
</g>
<!-- solc&#45;&gt;solidity -->
<g id="edge59" class="edge"><title>solc&#45;&gt;solidity</title>
<path fill="none" stroke="black" d="M863.054,-463.697C873.806,-454.289 887.203,-442.566 898.63,-432.567"/>
<polygon fill="black" stroke="black" points="900.949,-435.189 906.17,-425.97 896.339,-429.921 900.949,-435.189"/>
</g>
<!-- soltest -->
<g id="node29" class="node"><title>soltest</title>
<polygon fill="none" stroke="black" stroke-width="2" points="798.285,-500 740.271,-500 740.271,-464 798.285,-464 798.285,-500"/>
<text text-anchor="middle" x="769.278" y="-479" font-family="Courier,monospace" font-size="10.00">soltest</text>
</g>
<!-- soltest&#45;&gt;ethereum -->
<g id="edge60" class="edge"><title>soltest&#45;&gt;ethereum</title>
<path fill="none" stroke="black" d="M745.371,-463.743C740.826,-460.909 736.009,-458.187 731.278,-456 695.461,-439.439 652.125,-427.427 620.56,-420"/>
<polygon fill="black" stroke="black" points="621.279,-416.574 610.749,-417.75 619.714,-423.397 621.279,-416.574"/>
</g>
<!-- soltest&#45;&gt;Solidity -->
<g id="edge61" class="edge"><title>soltest&#45;&gt;Solidity</title>
<path fill="none" stroke="black" d="M771.256,-463.697C772.137,-455.983 773.197,-446.712 774.18,-438.112"/>
<polygon fill="black" stroke="black" points="777.665,-438.437 775.323,-428.104 770.711,-437.642 777.665,-438.437"/>
</g>
<!-- web3jsonrpc&#45;&gt;Solidity -->
<g id="edge27" class="edge"><title>web3jsonrpc&#45;&gt;Solidity</title>
<path fill="none" stroke="black" stroke-dasharray="1,5" d="M978.205,-617.758C887.421,-596.104 669.183,-542.945 659.278,-530 639.293,-503.88 640.62,-483.084 659.278,-456 675.42,-432.569 705.519,-421.329 731.277,-415.943"/>
<polygon fill="black" stroke="black" points="732.068,-419.356 741.263,-414.092 730.792,-412.473 732.068,-419.356"/>
</g>
<!-- webthree -->
<g id="node31" class="node"><title>webthree</title>
<ellipse fill="none" stroke="black" cx="1039.28" cy="-556" rx="36.9099" ry="18"/>
<text text-anchor="middle" x="1039.28" y="-553" font-family="Courier,monospace" font-size="10.00">webthree</text>
</g>
<!-- web3jsonrpc&#45;&gt;webthree -->
<g id="edge28" class="edge"><title>web3jsonrpc&#45;&gt;webthree</title>
<path fill="none" stroke="black" d="M1022.6,-610.055C1025.05,-602.261 1028.02,-592.822 1030.77,-584.079"/>
<polygon fill="black" stroke="black" points="1034.19,-584.865 1033.85,-574.275 1027.51,-582.766 1034.19,-584.865"/>
</g>
<!-- webthree&#45;&gt;ethashseal -->
<g id="edge30" class="edge"><title>webthree&#45;&gt;ethashseal</title>
<path fill="none" stroke="black" d="M1002.64,-553.583C884.829,-548.987 522.703,-534.526 511.278,-530 498.379,-524.889 486.371,-515.438 476.886,-506.343"/>
<polygon fill="black" stroke="black" points="479.368,-503.875 469.853,-499.215 474.386,-508.792 479.368,-503.875"/>
</g>
<!-- whisper -->
<g id="node37" class="node"><title>whisper</title>
<ellipse fill="none" stroke="black" cx="1111.28" cy="-482" rx="33.4805" ry="18"/>
<text text-anchor="middle" x="1111.28" y="-479" font-family="Courier,monospace" font-size="10.00">whisper</text>
</g>
<!-- webthree&#45;&gt;whisper -->
<g id="edge31" class="edge"><title>webthree&#45;&gt;whisper</title>
<path fill="none" stroke="black" d="M1054.9,-539.377C1064.85,-529.43 1077.89,-516.389 1088.92,-505.355"/>
<polygon fill="black" stroke="black" points="1091.58,-507.645 1096.18,-498.099 1086.63,-502.695 1091.58,-507.645"/>
</g>
<!-- eth -->
<g id="node32" class="node"><title>eth</title>
<polygon fill="none" stroke="black" stroke-width="2" points="1214.28,-728 1160.28,-728 1160.28,-692 1214.28,-692 1214.28,-728"/>
<text text-anchor="middle" x="1187.28" y="-707" font-family="Courier,monospace" font-size="10.00">eth</text>
</g>
<!-- eth&#45;&gt;web3jsonrpc -->
<g id="edge63" class="edge"><title>eth&#45;&gt;web3jsonrpc</title>
<path fill="none" stroke="black" d="M1161.72,-691.846C1156.17,-688.784 1150.18,-685.952 1144.28,-684 1114.13,-674.028 1102.46,-688.519 1073.28,-676 1060.58,-670.551 1048.55,-661.234 1038.92,-652.326"/>
<polygon fill="black" stroke="black" points="1041.35,-649.811 1031.74,-645.35 1036.47,-654.83 1041.35,-649.811"/>
</g>
<!-- jsconsole -->
<g id="node35" class="node"><title>jsconsole</title>
<ellipse fill="none" stroke="black" cx="1194.28" cy="-628" rx="40.3393" ry="18"/>
<text text-anchor="middle" x="1194.28" y="-625" font-family="Courier,monospace" font-size="10.00">jsconsole</text>
</g>
<!-- eth&#45;&gt;jsconsole -->
<g id="edge64" class="edge"><title>eth&#45;&gt;jsconsole</title>
<path fill="none" stroke="black" d="M1188.8,-691.641C1189.7,-681.297 1190.87,-667.941 1191.9,-656.221"/>
<polygon fill="black" stroke="black" points="1195.4,-656.317 1192.79,-646.05 1188.43,-655.707 1195.4,-656.317"/>
</g>
<!-- exp -->
<g id="node33" class="node"><title>exp</title>
<polygon fill="none" stroke="black" stroke-width="2" points="1136.28,-646 1082.28,-646 1082.28,-610 1136.28,-610 1136.28,-646"/>
<text text-anchor="middle" x="1109.28" y="-625" font-family="Courier,monospace" font-size="10.00">exp</text>
</g>
<!-- exp&#45;&gt;webthree -->
<g id="edge65" class="edge"><title>exp&#45;&gt;webthree</title>
<path fill="none" stroke="black" d="M1091.97,-609.697C1082.94,-600.663 1071.77,-589.495 1062.05,-579.769"/>
<polygon fill="black" stroke="black" points="1064.5,-577.267 1054.95,-572.671 1059.55,-582.217 1064.5,-577.267"/>
</g>
<!-- flu -->
<g id="node34" class="node"><title>flu</title>
<polygon fill="none" stroke="black" stroke-width="2" points="1135.28,-728 1081.28,-728 1081.28,-692 1135.28,-692 1135.28,-728"/>
<text text-anchor="middle" x="1108.28" y="-707" font-family="Courier,monospace" font-size="10.00">flu</text>
</g>
<!-- flu&#45;&gt;web3jsonrpc -->
<g id="edge66" class="edge"><title>flu&#45;&gt;web3jsonrpc</title>
<path fill="none" stroke="black" d="M1088.53,-691.641C1075.12,-679.854 1057.27,-664.155 1042.78,-651.423"/>
<polygon fill="black" stroke="black" points="1044.96,-648.672 1035.13,-644.698 1040.33,-653.929 1044.96,-648.672"/>
</g>
<!-- flu&#45;&gt;jsconsole -->
<g id="edge67" class="edge"><title>flu&#45;&gt;jsconsole</title>
<path fill="none" stroke="black" d="M1127.98,-691.662C1133.61,-686.65 1139.72,-681.143 1145.28,-676 1153.59,-668.316 1162.55,-659.786 1170.52,-652.124"/>
<polygon fill="black" stroke="black" points="1173.32,-654.28 1178.09,-644.816 1168.46,-649.245 1173.32,-654.28"/>
</g>
<!-- jsconsole&#45;&gt;devcore -->
<g id="edge68" class="edge"><title>jsconsole&#45;&gt;devcore</title>
<path fill="none" stroke="black" d="M1234.5,-625.654C1277.68,-622.233 1346.16,-610.86 1391.28,-574 1425.09,-546.378 1428.28,-526.66 1428.28,-483 1428.28,-483 1428.28,-483 1428.28,-255 1428.28,-146.765 1322.4,-162.889 1219.28,-130 1215.76,-128.879 1212.12,-127.662 1208.49,-126.412"/>
<polygon fill="black" stroke="black" points="1209.59,-123.09 1199,-123.066 1207.27,-129.692 1209.59,-123.09"/>
</g>
<!-- jsengine -->
<g id="node36" class="node"><title>jsengine</title>
<ellipse fill="none" stroke="black" cx="1173.28" cy="-556" rx="36.9099" ry="18"/>
<text text-anchor="middle" x="1173.28" y="-553" font-family="Courier,monospace" font-size="10.00">jsengine</text>
</g>
<!-- jsconsole&#45;&gt;jsengine -->
<g id="edge71" class="edge"><title>jsconsole&#45;&gt;jsengine</title>
<path fill="none" stroke="black" d="M1189.19,-610.055C1186.86,-602.261 1184.02,-592.822 1181.4,-584.079"/>
<polygon fill="black" stroke="black" points="1184.69,-582.848 1178.46,-574.275 1177.98,-584.859 1184.69,-582.848"/>
</g>
<!-- jsconsole&#45;&gt;JsonRpc::Client -->
<g id="edge69" class="edge"><title>jsconsole&#45;&gt;JsonRpc::Client</title>
<path fill="none" stroke="black" d="M1235.03,-627.262C1275.7,-625.066 1336.31,-614.598 1366.28,-574 1416.43,-506.064 1425.22,-444.467 1366.28,-384 1354.1,-371.505 1068.81,-381.585 1052.28,-376 1037.42,-370.979 1023.05,-361.276 1011.61,-351.983"/>
<polygon fill="black" stroke="black" points="1013.73,-349.184 1003.84,-345.362 1009.19,-354.512 1013.73,-349.184"/>
</g>
<!-- jsconsole&#45;&gt;JsonRpc::Server -->
<g id="edge70" class="edge"><title>jsconsole&#45;&gt;JsonRpc::Server</title>
<path fill="none" stroke="black" d="M1233.76,-623.823C1266.47,-618.867 1311.08,-606.221 1333.28,-574 1342.36,-560.824 1341.93,-551.456 1333.28,-538 1238.24,-390.269 1138.91,-429.637 969.278,-384 946.698,-377.925 939.741,-382.497 917.278,-376 893.368,-369.084 867.779,-358.119 847.513,-348.519"/>
<polygon fill="black" stroke="black" points="848.84,-345.274 838.312,-344.082 845.799,-351.579 848.84,-345.274"/>
</g>
<!-- Readline -->
<g id="node57" class="node"><title>Readline</title>
<ellipse fill="none" stroke="black" cx="1287.28" cy="-556" rx="36.9099" ry="18"/>
<text text-anchor="middle" x="1287.28" y="-553" font-family="Courier,monospace" font-size="10.00">Readline</text>
</g>
<!-- jsconsole&#45;&gt;Readline -->
<g id="edge72" class="edge"><title>jsconsole&#45;&gt;Readline</title>
<path fill="none" stroke="black" stroke-dasharray="1,5" d="M1214,-612.155C1227.28,-602.157 1244.99,-588.832 1259.67,-577.783"/>
<polygon fill="black" stroke="black" points="1262.02,-580.394 1267.9,-571.584 1257.81,-574.801 1262.02,-580.394"/>
</g>
<!-- V8 -->
<g id="node58" class="node"><title>V8</title>
<ellipse fill="none" stroke="black" cx="695.278" cy="-482" rx="27" ry="18"/>
<text text-anchor="middle" x="695.278" y="-479" font-family="Courier,monospace" font-size="10.00">V8</text>
</g>
<!-- jsengine&#45;&gt;V8 -->
<g id="edge73" class="edge"><title>jsengine&#45;&gt;V8</title>
<path fill="none" stroke="black" d="M1140.46,-547.298C1124,-543.782 1103.69,-539.97 1085.28,-538 1065.55,-535.889 745.777,-539.346 728.278,-530 719.366,-525.24 712.338,-516.883 707.099,-508.523"/>
<polygon fill="black" stroke="black" points="710.053,-506.635 702.113,-499.62 703.946,-510.055 710.053,-506.635"/>
</g>
<!-- whisper&#45;&gt;p2p -->
<g id="edge74" class="edge"><title>whisper&#45;&gt;p2p</title>
<path fill="none" stroke="black" d="M1121.61,-464.637C1133.74,-444.577 1153.44,-409.153 1163.28,-376 1172.35,-345.425 1175.58,-308.792 1176.71,-284.322"/>
<polygon fill="black" stroke="black" points="1180.2,-284.441 1177.08,-274.317 1173.21,-284.179 1180.2,-284.441"/>
</g>
<!-- testweb3 -->
<g id="node38" class="node"><title>testweb3</title>
<polygon fill="none" stroke="black" stroke-width="2" points="1049.29,-728 985.27,-728 985.27,-692 1049.29,-692 1049.29,-728"/>
<text text-anchor="middle" x="1017.28" y="-707" font-family="Courier,monospace" font-size="10.00">testweb3</text>
</g>
<!-- testweb3&#45;&gt;web3jsonrpc -->
<g id="edge75" class="edge"><title>testweb3&#45;&gt;web3jsonrpc</title>
<path fill="none" stroke="black" d="M1017.28,-691.641C1017.28,-681.297 1017.28,-667.941 1017.28,-656.221"/>
<polygon fill="black" stroke="black" points="1020.78,-656.05 1017.28,-646.05 1013.78,-656.05 1020.78,-656.05"/>
</g>
<!-- soljson -->
<g id="node56" class="node"><title>soljson</title>
<ellipse fill="none" stroke="black" cx="921.278" cy="-482" rx="33.4805" ry="18"/>
<text text-anchor="middle" x="921.278" y="-479" font-family="Courier,monospace" font-size="10.00">soljson</text>
</g>
<!-- soljson&#45;&gt;solidity -->
<g id="edge62" class="edge"><title>soljson&#45;&gt;solidity</title>
<path fill="none" stroke="black" d="M921.773,-463.697C921.993,-455.983 922.258,-446.712 922.504,-438.112"/>
<polygon fill="black" stroke="black" points="926.002,-438.2 922.79,-428.104 919.005,-438 926.002,-438.2"/>
</g>
</g>
</svg>
