<?xml version="1.0" encoding="UTF-8" standalone="no"?>
<!DOCTYPE svg PUBLIC "-//W3C//DTD SVG 1.1//EN"
 "http://www.w3.org/Graphics/SVG/1.1/DTD/svg11.dtd">
<!-- Generated by graphviz version 2.36.0 (20140111.2315)
 -->
<!-- Title: webthree Pages: 1 -->
<svg width="1192pt" height="856pt"
 viewBox="0.00 0.00 1191.95 856.00" xmlns="http://www.w3.org/2000/svg" xmlns:xlink="http://www.w3.org/1999/xlink">
<g id="graph0" class="graph" transform="scale(1 1) rotate(0) translate(4 852)">
<title>webthree</title>
<polygon fill="white" stroke="none" points="-4,4 -4,-852 1187.95,-852 1187.95,4 -4,4"/>
<text text-anchor="middle" x="591.976" y="-6.8" font-family="Times,serif" font-size="14.00">webthree dependencies</text>
<g id="clust8" class="cluster"><title>cluster_libethereum</title>
<polygon fill="LavenderBlush" stroke="black" points="783.953,-240 783.953,-758 1075.95,-758 1075.95,-240 783.953,-240"/>
<text text-anchor="start" x="857.068" y="-742.8" font-family="Times,serif" font-size="14.00">libethereum dependencies</text>
</g>
<g id="clust9" class="cluster"><title>cluster_libweb3core</title>
<polygon fill="AliceBlue" stroke="black" points="493.953,-168 493.953,-458 707.953,-458 707.953,-168 493.953,-168"/>
<text text-anchor="start" x="526.903" y="-442.8" font-family="Times,serif" font-size="14.00">libweb3core dependencies</text>
</g>
<g id="clust10" class="cluster"><title>cluster_mix</title>
<polygon fill="LightGray" stroke="black" points="454.953,-766 454.953,-840 570.953,-840 570.953,-766 454.953,-766"/>
<text text-anchor="start" x="462.61" y="-824.8" font-family="Times,serif" font-size="14.00">mix dependencies</text>
</g>
<g id="clust12" class="cluster"><title>cluster_solidity</title>
<polygon fill="WhiteSmoke" stroke="black" points="483.953,-466 483.953,-612 713.953,-612 713.953,-466 483.953,-466"/>
<text text-anchor="start" x="538.496" y="-596.8" font-family="Times,serif" font-size="14.00">solidity dependencies</text>
</g>
<g id="clust2" class="cluster"><title>cluster_webthree</title>
<polygon fill="Honeydew" stroke="black" points="111.953,-538 111.953,-840 391.953,-840 391.953,-538 111.953,-538"/>
<text text-anchor="middle" x="251.953" y="-824.8" font-family="Times,serif" font-size="14.00">webthree dependencies</text>
</g>
<g id="clust3" class="cluster"><title>cluster_webthree_helpers</title>
<polygon fill="LemonChiffon" stroke="black" points="562.953,-86 562.953,-160 1020.95,-160 1020.95,-86 562.953,-86"/>
<text text-anchor="start" x="704.302" y="-144.8" font-family="Times,serif" font-size="14.00">webthree&#45;helpers dependencies</text>
</g>
<g id="clust4" class="cluster"><title>cluster_alethzero</title>
<polygon fill="LightGray" stroke="black" points="672.953,-766 672.953,-840 1000.95,-840 1000.95,-766 672.953,-766"/>
<text text-anchor="start" x="771.851" y="-824.8" font-family="Times,serif" font-size="14.00">alethzero dependencies</text>
</g>
<!-- web3jsonrpc -->
<g id="node1" class="node"><title>web3jsonrpc</title>
<ellipse fill="none" stroke="black" cx="336.953" cy="-710" rx="47.0244" ry="18"/>
<text text-anchor="middle" x="336.953" y="-707" font-family="Courier,monospace" font-size="10.00">web3jsonrpc</text>
</g>
<!-- webthree -->
<g id="node2" class="node"><title>webthree</title>
<ellipse fill="none" stroke="black" cx="300.953" cy="-638" rx="36.433" ry="18"/>
<text text-anchor="middle" x="300.953" y="-635" font-family="Courier,monospace" font-size="10.00">webthree</text>
</g>
<!-- web3jsonrpc&#45;&gt;webthree -->
<g id="edge24" class="edge"><title>web3jsonrpc&#45;&gt;webthree</title>
<path fill="none" stroke="black" d="M328.238,-692.055C324.037,-683.887 318.907,-673.912 314.234,-664.824"/>
<polygon fill="black" stroke="black" points="317.273,-663.081 309.587,-655.789 311.048,-666.283 317.273,-663.081"/>
</g>
<!-- solidity -->
<g id="node44" class="node"><title>solidity</title>
<ellipse fill="none" stroke="black" cx="596.953" cy="-492" rx="36.433" ry="18"/>
<text text-anchor="middle" x="596.953" y="-489" font-family="Courier,monospace" font-size="10.00">solidity</text>
</g>
<!-- web3jsonrpc&#45;&gt;solidity -->
<g id="edge23" class="edge"><title>web3jsonrpc&#45;&gt;solidity</title>
<path fill="none" stroke="black" stroke-dasharray="1,5" d="M340.104,-691.925C347.635,-652.947 367.79,-559.15 390.953,-538 414.016,-516.942 497.847,-503.964 551.196,-497.65"/>
<polygon fill="black" stroke="black" points="551.896,-501.093 561.432,-496.476 551.099,-494.138 551.896,-501.093"/>
</g>
<!-- JsonRpc* -->
<g id="node54" class="node"><title>JsonRpc*</title>
<ellipse fill="none" stroke="black" cx="436.953" cy="-564" rx="36.433" ry="18"/>
<text text-anchor="middle" x="436.953" y="-561" font-family="Courier,monospace" font-size="10.00">JsonRpc*</text>
</g>
<!-- web3jsonrpc&#45;&gt;JsonRpc* -->
<g id="edge25" class="edge"><title>web3jsonrpc&#45;&gt;JsonRpc*</title>
<path fill="none" stroke="black" d="M367.557,-696.237C384.947,-687.433 405.642,-674.048 417.953,-656 430.708,-637.3 435.19,-611.776 436.635,-592.518"/>
<polygon fill="black" stroke="black" points="440.144,-592.443 437.167,-582.275 433.153,-592.08 440.144,-592.443"/>
</g>
<!-- whisper -->
<g id="node8" class="node"><title>whisper</title>
<ellipse fill="none" stroke="black" cx="302.953" cy="-564" rx="33.2355" ry="18"/>
<text text-anchor="middle" x="302.953" y="-561" font-family="Courier,monospace" font-size="10.00">whisper</text>
</g>
<!-- webthree&#45;&gt;whisper -->
<g id="edge28" class="edge"><title>webthree&#45;&gt;whisper</title>
<path fill="none" stroke="black" d="M301.427,-619.937C301.653,-611.807 301.929,-601.876 302.183,-592.705"/>
<polygon fill="black" stroke="black" points="305.689,-592.534 302.468,-582.441 298.692,-592.34 305.689,-592.534"/>
</g>
<!-- ethashseal -->
<g id="node20" class="node"><title>ethashseal</title>
<ellipse fill="none" stroke="black" cx="887.953" cy="-564" rx="43.3279" ry="18"/>
<text text-anchor="middle" x="887.953" y="-561" font-family="Courier,monospace" font-size="10.00">ethashseal</text>
</g>
<!-- webthree&#45;&gt;ethashseal -->
<g id="edge27" class="edge"><title>webthree&#45;&gt;ethashseal</title>
<path fill="none" stroke="black" d="M337.496,-637.372C410.384,-637.551 578.802,-635.143 717.953,-612 762.353,-604.616 811.812,-590.216 845.882,-579.292"/>
<polygon fill="black" stroke="black" points="847.072,-582.585 855.502,-576.168 844.91,-575.928 847.072,-582.585"/>
</g>
<!-- eth -->
<g id="node3" class="node"><title>eth</title>
<polygon fill="none" stroke="black" stroke-width="2" points="272.953,-810 218.953,-810 218.953,-774 272.953,-774 272.953,-810"/>
<text text-anchor="middle" x="245.953" y="-789" font-family="Courier,monospace" font-size="10.00">eth</text>
</g>
<!-- eth&#45;&gt;web3jsonrpc -->
<g id="edge62" class="edge"><title>eth&#45;&gt;web3jsonrpc</title>
<path fill="none" stroke="black" d="M265.699,-773.641C279.107,-761.854 296.964,-746.155 311.447,-733.423"/>
<polygon fill="black" stroke="black" points="313.897,-735.929 319.096,-726.698 309.275,-730.672 313.897,-735.929"/>
</g>
<!-- jsconsole -->
<g id="node6" class="node"><title>jsconsole</title>
<ellipse fill="none" stroke="black" cx="159.953" cy="-710" rx="40.13" ry="18"/>
<text text-anchor="middle" x="159.953" y="-707" font-family="Courier,monospace" font-size="10.00">jsconsole</text>
</g>
<!-- eth&#45;&gt;jsconsole -->
<g id="edge63" class="edge"><title>eth&#45;&gt;jsconsole</title>
<path fill="none" stroke="black" d="M226.247,-773.662C220.623,-768.65 214.513,-763.143 208.953,-758 200.646,-750.316 191.678,-741.786 183.714,-734.124"/>
<polygon fill="black" stroke="black" points="185.77,-731.245 176.146,-726.816 180.908,-736.28 185.77,-731.245"/>
</g>
<!-- exp -->
<g id="node4" class="node"><title>exp</title>
<polygon fill="none" stroke="black" stroke-width="2" points="271.953,-728 217.953,-728 217.953,-692 271.953,-692 271.953,-728"/>
<text text-anchor="middle" x="244.953" y="-707" font-family="Courier,monospace" font-size="10.00">exp</text>
</g>
<!-- exp&#45;&gt;webthree -->
<g id="edge64" class="edge"><title>exp&#45;&gt;webthree</title>
<path fill="none" stroke="black" d="M258.796,-691.697C265.71,-683.054 274.187,-672.458 281.721,-663.039"/>
<polygon fill="black" stroke="black" points="284.523,-665.14 288.037,-655.145 279.057,-660.767 284.523,-665.14"/>
</g>
<!-- flu -->
<g id="node5" class="node"><title>flu</title>
<polygon fill="none" stroke="black" stroke-width="2" points="193.953,-810 139.953,-810 139.953,-774 193.953,-774 193.953,-810"/>
<text text-anchor="middle" x="166.953" y="-789" font-family="Courier,monospace" font-size="10.00">flu</text>
</g>
<!-- flu&#45;&gt;web3jsonrpc -->
<g id="edge65" class="edge"><title>flu&#45;&gt;web3jsonrpc</title>
<path fill="none" stroke="black" d="M192.514,-773.846C198.066,-770.784 204.05,-767.952 209.953,-766 240.102,-756.028 251.769,-770.519 280.953,-758 293.655,-752.551 305.683,-743.234 315.312,-734.326"/>
<polygon fill="black" stroke="black" points="317.757,-736.83 322.488,-727.35 312.878,-731.811 317.757,-736.83"/>
</g>
<!-- flu&#45;&gt;jsconsole -->
<g id="edge66" class="edge"><title>flu&#45;&gt;jsconsole</title>
<path fill="none" stroke="black" d="M165.434,-773.641C164.529,-763.297 163.36,-749.941 162.335,-738.221"/>
<polygon fill="black" stroke="black" points="165.803,-737.707 161.445,-728.05 158.83,-738.317 165.803,-737.707"/>
</g>
<!-- jsengine -->
<g id="node7" class="node"><title>jsengine</title>
<ellipse fill="none" stroke="black" cx="159.953" cy="-638" rx="36.433" ry="18"/>
<text text-anchor="middle" x="159.953" y="-635" font-family="Courier,monospace" font-size="10.00">jsengine</text>
</g>
<!-- jsconsole&#45;&gt;jsengine -->
<g id="edge69" class="edge"><title>jsconsole&#45;&gt;jsengine</title>
<path fill="none" stroke="black" d="M159.953,-691.697C159.953,-683.983 159.953,-674.712 159.953,-666.112"/>
<polygon fill="black" stroke="black" points="163.453,-666.104 159.953,-656.104 156.453,-666.104 163.453,-666.104"/>
</g>
<!-- devcore -->
<g id="node38" class="node"><title>devcore</title>
<ellipse fill="none" stroke="black" cx="664.953" cy="-194" rx="33.2355" ry="18"/>
<text text-anchor="middle" x="664.953" y="-191" font-family="Courier,monospace" font-size="10.00">devcore</text>
</g>
<!-- jsconsole&#45;&gt;devcore -->
<g id="edge67" class="edge"><title>jsconsole&#45;&gt;devcore</title>
<path fill="none" stroke="black" d="M121.441,-704.483C89.7829,-698.693 46.1762,-685.574 20.9529,-656 -5.85866,-624.564 1.95289,-606.317 1.95289,-565 1.95289,-565 1.95289,-565 1.95289,-337 1.95289,-273.271 476.371,-215.75 622.578,-199.536"/>
<polygon fill="black" stroke="black" points="622.969,-203.014 632.526,-198.441 622.203,-196.057 622.969,-203.014"/>
</g>
<!-- jsconsole&#45;&gt;JsonRpc* -->
<g id="edge68" class="edge"><title>jsconsole&#45;&gt;JsonRpc*</title>
<path fill="none" stroke="black" d="M190.154,-698.114C196.344,-695.998 202.837,-693.862 208.953,-692 269.181,-673.669 290.384,-685.59 345.953,-656 376.112,-639.94 402.713,-610.593 419.244,-589.566"/>
<polygon fill="black" stroke="black" points="422.191,-591.474 425.486,-581.404 416.631,-587.221 422.191,-591.474"/>
</g>
<!-- Readline -->
<g id="node58" class="node"><title>Readline</title>
<ellipse fill="none" stroke="black" cx="66.9529" cy="-638" rx="36.433" ry="18"/>
<text text-anchor="middle" x="66.9529" y="-635" font-family="Courier,monospace" font-size="10.00">Readline</text>
</g>
<!-- jsconsole&#45;&gt;Readline -->
<g id="edge70" class="edge"><title>jsconsole&#45;&gt;Readline</title>
<path fill="none" stroke="black" stroke-dasharray="1,5" d="M140.23,-694.155C126.948,-684.157 109.244,-670.832 94.5652,-659.783"/>
<polygon fill="black" stroke="black" points="96.423,-656.801 86.3285,-653.584 92.2133,-662.394 96.423,-656.801"/>
</g>
<!-- V8 -->
<g id="node59" class="node"><title>V8</title>
<ellipse fill="none" stroke="black" cx="76.9529" cy="-564" rx="27" ry="18"/>
<text text-anchor="middle" x="76.9529" y="-561" font-family="Courier,monospace" font-size="10.00">V8</text>
</g>
<!-- jsengine&#45;&gt;V8 -->
<g id="edge71" class="edge"><title>jsengine&#45;&gt;V8</title>
<path fill="none" stroke="black" d="M131.55,-626.704C123.373,-622.889 114.818,-617.996 107.953,-612 100.968,-605.899 94.9028,-597.865 90.0347,-590.169"/>
<polygon fill="black" stroke="black" points="92.9762,-588.266 84.8865,-581.425 86.944,-591.818 92.9762,-588.266"/>
</g>
<!-- p2p -->
<g id="node36" class="node"><title>p2p</title>
<ellipse fill="none" stroke="black" cx="528.953" cy="-338" rx="27" ry="18"/>
<text text-anchor="middle" x="528.953" y="-335" font-family="Courier,monospace" font-size="10.00">p2p</text>
</g>
<!-- whisper&#45;&gt;p2p -->
<g id="edge72" class="edge"><title>whisper&#45;&gt;p2p</title>
<path fill="none" stroke="black" d="M318.132,-547.955C357.239,-509.194 461.551,-405.805 507.13,-360.629"/>
<polygon fill="black" stroke="black" points="509.789,-362.923 514.427,-353.397 504.861,-357.951 509.789,-362.923"/>
</g>
<!-- testweb3 -->
<g id="node9" class="node"><title>testweb3</title>
<polygon fill="none" stroke="black" stroke-width="2" points="368.959,-810 304.947,-810 304.947,-774 368.959,-774 368.959,-810"/>
<text text-anchor="middle" x="336.953" y="-789" font-family="Courier,monospace" font-size="10.00">testweb3</text>
</g>
<!-- testweb3&#45;&gt;web3jsonrpc -->
<g id="edge73" class="edge"><title>testweb3&#45;&gt;web3jsonrpc</title>
<path fill="none" stroke="black" d="M336.953,-773.641C336.953,-763.297 336.953,-749.941 336.953,-738.221"/>
<polygon fill="black" stroke="black" points="340.453,-738.05 336.953,-728.05 333.453,-738.05 340.453,-738.05"/>
</g>
<!-- buildinfo -->
<g id="node10" class="node"><title>buildinfo</title>
<ellipse fill="none" stroke="black" cx="972.953" cy="-112" rx="40.13" ry="18"/>
<text text-anchor="middle" x="972.953" y="-109" font-family="Courier,monospace" font-size="10.00">buildinfo</text>
</g>
<!-- base -->
<g id="node11" class="node"><title>base</title>
<ellipse fill="none" stroke="black" cx="675.953" cy="-112" rx="27" ry="18"/>
<text text-anchor="middle" x="675.953" y="-109" font-family="Courier,monospace" font-size="10.00">base</text>
</g>
<!-- boost -->
<g id="node47" class="node"><title>boost</title>
<ellipse fill="none" stroke="black" cx="696.953" cy="-40" rx="27" ry="18"/>
<text text-anchor="middle" x="696.953" y="-37" font-family="Courier,monospace" font-size="10.00">boost</text>
</g>
<!-- base&#45;&gt;boost -->
<g id="edge2" class="edge"><title>base&#45;&gt;boost</title>
<path fill="none" stroke="black" d="M681.036,-94.055C683.435,-86.0586 686.354,-76.3308 689.033,-67.3995"/>
<polygon fill="black" stroke="black" points="692.395,-68.373 691.916,-57.789 685.69,-66.3615 692.395,-68.373"/>
</g>
<!-- Jsoncpp -->
<g id="node48" class="node"><title>Jsoncpp</title>
<ellipse fill="none" stroke="black" cx="774.953" cy="-40" rx="33.2355" ry="18"/>
<text text-anchor="middle" x="774.953" y="-37" font-family="Courier,monospace" font-size="10.00">Jsoncpp</text>
</g>
<!-- base&#45;&gt;Jsoncpp -->
<g id="edge3" class="edge"><title>base&#45;&gt;Jsoncpp</title>
<path fill="none" stroke="black" d="M694.111,-98.1609C708.942,-87.6744 730.15,-72.679 747.123,-60.678"/>
<polygon fill="black" stroke="black" points="749.412,-63.3461 755.556,-54.715 745.37,-57.6305 749.412,-63.3461"/>
</g>
<!-- LevelDB -->
<g id="node49" class="node"><title>LevelDB</title>
<ellipse fill="none" stroke="black" cx="526.953" cy="-40" rx="33.2355" ry="18"/>
<text text-anchor="middle" x="526.953" y="-37" font-family="Courier,monospace" font-size="10.00">LevelDB</text>
</g>
<!-- base&#45;&gt;LevelDB -->
<g id="edge4" class="edge"><title>base&#45;&gt;LevelDB</title>
<path fill="none" stroke="black" d="M658.891,-97.9488C653.066,-93.8235 646.394,-89.4463 639.953,-86 610.044,-69.9967 600.452,-70.5858 568.953,-58 566.734,-57.1135 564.45,-56.198 562.149,-55.2729"/>
<polygon fill="black" stroke="black" points="563.287,-51.9581 552.704,-51.4654 560.67,-58.4505 563.287,-51.9581"/>
</g>
<!-- pthreads -->
<g id="node50" class="node"><title>pthreads</title>
<ellipse fill="none" stroke="black" cx="614.953" cy="-40" rx="36.433" ry="18"/>
<text text-anchor="middle" x="614.953" y="-37" font-family="Courier,monospace" font-size="10.00">pthreads</text>
</g>
<!-- base&#45;&gt;pthreads -->
<g id="edge5" class="edge"><title>base&#45;&gt;pthreads</title>
<path fill="none" stroke="black" d="M663.016,-96.1548C654.99,-86.9444 644.502,-74.9092 635.372,-64.4322"/>
<polygon fill="black" stroke="black" points="637.927,-62.0363 628.719,-56.7966 632.65,-66.6352 637.927,-62.0363"/>
</g>
<!-- json_spirit -->
<g id="node12" class="node"><title>json_spirit</title>
<ellipse fill="none" stroke="black" cx="767.953" cy="-112" rx="47.0244" ry="18"/>
<text text-anchor="middle" x="767.953" y="-109" font-family="Courier,monospace" font-size="10.00">json_spirit</text>
</g>
<!-- scrypt -->
<g id="node13" class="node"><title>scrypt</title>
<ellipse fill="none" stroke="black" cx="600.953" cy="-112" rx="30.0384" ry="18"/>
<text text-anchor="middle" x="600.953" y="-109" font-family="Courier,monospace" font-size="10.00">scrypt</text>
</g>
<!-- secp256k1 -->
<g id="node14" class="node"><title>secp256k1</title>
<ellipse fill="none" stroke="black" cx="873.953" cy="-112" rx="40.13" ry="18"/>
<text text-anchor="middle" x="873.953" y="-109" font-family="Courier,monospace" font-size="10.00">secp256k1</text>
</g>
<!-- gmp -->
<g id="node51" class="node"><title>gmp</title>
<ellipse fill="none" stroke="black" cx="873.953" cy="-40" rx="27" ry="18"/>
<text text-anchor="middle" x="873.953" y="-37" font-family="Courier,monospace" font-size="10.00">gmp</text>
</g>
<!-- secp256k1&#45;&gt;gmp -->
<g id="edge6" class="edge"><title>secp256k1&#45;&gt;gmp</title>
<path fill="none" stroke="black" d="M873.953,-93.6966C873.953,-85.9827 873.953,-76.7125 873.953,-68.1124"/>
<polygon fill="black" stroke="black" points="877.453,-68.1043 873.953,-58.1043 870.453,-68.1044 877.453,-68.1043"/>
</g>
<!-- AlethFive -->
<g id="node15" class="node"><title>AlethFive</title>
<polygon fill="none" stroke="black" stroke-width="2" points="992.959,-810 922.946,-810 922.946,-774 992.959,-774 992.959,-810"/>
<text text-anchor="middle" x="957.953" y="-789" font-family="Courier,monospace" font-size="10.00">AlethFive</text>
</g>
<!-- ethereum -->
<g id="node19" class="node"><title>ethereum</title>
<ellipse fill="none" stroke="black" cx="838.953" cy="-492" rx="36.433" ry="18"/>
<text text-anchor="middle" x="838.953" y="-489" font-family="Courier,monospace" font-size="10.00">ethereum</text>
</g>
<!-- AlethFive&#45;&gt;ethereum -->
<g id="edge8" class="edge"><title>AlethFive&#45;&gt;ethereum</title>
<path fill="none" stroke="black" d="M979.565,-773.969C1015.53,-743.444 1080.99,-677.254 1051.95,-620 1024.05,-564.98 993.32,-568.951 939.953,-538 919.781,-526.301 896.011,-515.572 876.6,-507.527"/>
<polygon fill="black" stroke="black" points="877.754,-504.218 867.173,-503.688 875.114,-510.701 877.754,-504.218"/>
</g>
<!-- Qt* -->
<g id="node52" class="node"><title>Qt*</title>
<ellipse fill="none" stroke="black" cx="747.953" cy="-710" rx="27" ry="18"/>
<text text-anchor="middle" x="747.953" y="-707" font-family="Courier,monospace" font-size="10.00">Qt*</text>
</g>
<!-- AlethFive&#45;&gt;Qt* -->
<g id="edge7" class="edge"><title>AlethFive&#45;&gt;Qt*</title>
<path fill="none" stroke="black" d="M932.309,-773.861C926.493,-770.716 920.186,-767.848 913.953,-766 885.352,-757.522 805.895,-772.727 779.953,-758 771.253,-753.061 764.426,-744.667 759.353,-736.327"/>
<polygon fill="black" stroke="black" points="762.385,-734.576 754.531,-727.465 756.236,-737.922 762.385,-734.576"/>
</g>
<!-- AlethOne -->
<g id="node16" class="node"><title>AlethOne</title>
<polygon fill="none" stroke="black" stroke-width="2" points="904.959,-810 840.947,-810 840.947,-774 904.959,-774 904.959,-810"/>
<text text-anchor="middle" x="872.953" y="-789" font-family="Courier,monospace" font-size="10.00">AlethOne</text>
</g>
<!-- AlethOne&#45;&gt;ethashseal -->
<g id="edge10" class="edge"><title>AlethOne&#45;&gt;ethashseal</title>
<path fill="none" stroke="black" d="M898.378,-773.961C903.404,-771.038 908.74,-768.229 913.953,-766 926.641,-760.574 932.199,-765.23 943.953,-758 995.699,-726.17 1013.31,-712.767 1034.95,-656 1040.65,-641.05 1044.07,-633.147 1034.95,-620 1013.77,-589.461 973.435,-575.851 940.365,-569.8"/>
<polygon fill="black" stroke="black" points="940.801,-566.325 930.365,-568.155 939.664,-573.232 940.801,-566.325"/>
</g>
<!-- AlethOne&#45;&gt;Qt* -->
<g id="edge9" class="edge"><title>AlethOne&#45;&gt;Qt*</title>
<path fill="none" stroke="black" d="M848.154,-773.755C842.984,-770.778 837.435,-768.002 831.953,-766 809.988,-757.98 799.729,-770.477 779.953,-758 771.703,-752.795 765.055,-744.606 760,-736.512"/>
<polygon fill="black" stroke="black" points="762.926,-734.575 754.97,-727.578 756.826,-738.009 762.926,-734.575"/>
</g>
<!-- AlethZero -->
<g id="node17" class="node"><title>AlethZero</title>
<polygon fill="none" stroke="black" stroke-width="2" points="822.959,-810 752.946,-810 752.946,-774 822.959,-774 822.959,-810"/>
<text text-anchor="middle" x="787.953" y="-789" font-family="Courier,monospace" font-size="10.00">AlethZero</text>
</g>
<!-- AlethZero&#45;&gt;web3jsonrpc -->
<g id="edge12" class="edge"><title>AlethZero&#45;&gt;web3jsonrpc</title>
<path fill="none" stroke="black" d="M761.725,-773.955C756.049,-770.885 749.947,-768.023 743.953,-766 711.255,-754.964 495.241,-729.164 391.879,-717.243"/>
<polygon fill="black" stroke="black" points="391.975,-713.731 381.64,-716.065 391.175,-720.685 391.975,-713.731"/>
</g>
<!-- natspec -->
<g id="node21" class="node"><title>natspec</title>
<ellipse fill="none" stroke="black" cx="901.953" cy="-710" rx="33.2355" ry="18"/>
<text text-anchor="middle" x="901.953" y="-707" font-family="Courier,monospace" font-size="10.00">natspec</text>
</g>
<!-- AlethZero&#45;&gt;natspec -->
<g id="edge13" class="edge"><title>AlethZero&#45;&gt;natspec</title>
<path fill="none" stroke="black" d="M815.852,-773.838C821.092,-770.994 826.606,-768.245 831.953,-766 843.886,-760.99 848.987,-764.874 859.953,-758 869.41,-752.072 877.999,-743.406 884.91,-735.126"/>
<polygon fill="black" stroke="black" points="887.8,-737.113 891.231,-727.089 882.298,-732.785 887.8,-737.113"/>
</g>
<!-- AlethZero&#45;&gt;Qt* -->
<g id="edge11" class="edge"><title>AlethZero&#45;&gt;Qt*</title>
<path fill="none" stroke="black" d="M779.273,-773.641C773.834,-762.763 766.73,-748.553 760.662,-736.418"/>
<polygon fill="black" stroke="black" points="763.673,-734.613 756.07,-727.234 757.412,-737.744 763.673,-734.613"/>
</g>
<!-- aleth -->
<g id="node18" class="node"><title>aleth</title>
<ellipse fill="none" stroke="black" cx="707.953" cy="-792" rx="27" ry="18"/>
<text text-anchor="middle" x="707.953" y="-789" font-family="Courier,monospace" font-size="10.00">aleth</text>
</g>
<!-- aleth&#45;&gt;web3jsonrpc -->
<g id="edge15" class="edge"><title>aleth&#45;&gt;web3jsonrpc</title>
<path fill="none" stroke="black" d="M682.453,-785.501C621.617,-772.383 467.088,-739.062 386.917,-721.774"/>
<polygon fill="black" stroke="black" points="387.565,-718.333 377.052,-719.647 386.089,-725.176 387.565,-718.333"/>
</g>
<!-- aleth&#45;&gt;natspec -->
<g id="edge16" class="edge"><title>aleth&#45;&gt;natspec</title>
<path fill="none" stroke="black" d="M723.768,-777.274C729.71,-772.889 736.774,-768.523 743.953,-766 768.331,-757.434 836.745,-769.36 859.953,-758 870.232,-752.969 879.121,-744.205 886.042,-735.598"/>
<polygon fill="black" stroke="black" points="888.891,-737.632 892.054,-727.52 883.276,-733.452 888.891,-737.632"/>
</g>
<!-- aleth&#45;&gt;Qt* -->
<g id="edge14" class="edge"><title>aleth&#45;&gt;Qt*</title>
<path fill="none" stroke="black" d="M716.047,-774.811C721.541,-763.823 728.919,-749.067 735.197,-736.512"/>
<polygon fill="black" stroke="black" points="738.391,-737.949 739.733,-727.44 732.13,-734.819 738.391,-737.949"/>
</g>
<!-- evm -->
<g id="node29" class="node"><title>evm</title>
<ellipse fill="none" stroke="black" cx="890.953" cy="-410" rx="27" ry="18"/>
<text text-anchor="middle" x="890.953" y="-407" font-family="Courier,monospace" font-size="10.00">evm</text>
</g>
<!-- ethereum&#45;&gt;evm -->
<g id="edge18" class="edge"><title>ethereum&#45;&gt;evm</title>
<path fill="none" stroke="black" d="M849.727,-474.424C857.052,-463.155 866.867,-448.055 875.082,-435.417"/>
<polygon fill="black" stroke="black" points="878.208,-437.03 880.723,-426.738 872.339,-433.215 878.208,-437.03"/>
</g>
<!-- lll -->
<g id="node32" class="node"><title>lll</title>
<ellipse fill="none" stroke="black" cx="818.953" cy="-410" rx="27" ry="18"/>
<text text-anchor="middle" x="818.953" y="-407" font-family="Courier,monospace" font-size="10.00">lll</text>
</g>
<!-- ethereum&#45;&gt;lll -->
<g id="edge19" class="edge"><title>ethereum&#45;&gt;lll</title>
<path fill="none" stroke="black" d="M834.711,-474.034C832.086,-463.534 828.658,-449.821 825.67,-437.868"/>
<polygon fill="black" stroke="black" points="829.009,-436.794 823.188,-427.941 822.218,-438.492 829.009,-436.794"/>
</g>
<!-- ethereum&#45;&gt;p2p -->
<g id="edge17" class="edge"><title>ethereum&#45;&gt;p2p</title>
<path fill="none" stroke="black" d="M814.108,-478.818C757.784,-451.201 620.536,-383.905 559.308,-353.884"/>
<polygon fill="black" stroke="black" points="560.678,-350.658 550.158,-349.398 557.596,-356.943 560.678,-350.658"/>
</g>
<!-- ethashseal&#45;&gt;ethereum -->
<g id="edge20" class="edge"><title>ethashseal&#45;&gt;ethereum</title>
<path fill="none" stroke="black" d="M876.341,-546.411C870.36,-537.868 862.948,-527.278 856.304,-517.787"/>
<polygon fill="black" stroke="black" points="859.084,-515.655 850.482,-509.47 853.349,-519.669 859.084,-515.655"/>
</g>
<!-- ethash&#45;cl -->
<g id="node28" class="node"><title>ethash&#45;cl</title>
<ellipse fill="none" stroke="black" cx="1027.95" cy="-492" rx="40.13" ry="18"/>
<text text-anchor="middle" x="1027.95" y="-489" font-family="Courier,monospace" font-size="10.00">ethash&#45;cl</text>
</g>
<!-- ethashseal&#45;&gt;ethash&#45;cl -->
<g id="edge21" class="edge"><title>ethashseal&#45;&gt;ethash&#45;cl</title>
<path fill="none" stroke="black" stroke-dasharray="1,5" d="M914.615,-549.669C936.747,-538.603 968.409,-522.772 992.644,-510.654"/>
<polygon fill="black" stroke="black" points="994.485,-513.647 1001.86,-506.045 991.354,-507.386 994.485,-513.647"/>
</g>
<!-- Cpuid -->
<g id="node53" class="node"><title>Cpuid</title>
<ellipse fill="none" stroke="black" cx="748.953" cy="-492" rx="27" ry="18"/>
<text text-anchor="middle" x="748.953" y="-489" font-family="Courier,monospace" font-size="10.00">Cpuid</text>
</g>
<!-- ethashseal&#45;&gt;Cpuid -->
<g id="edge22" class="edge"><title>ethashseal&#45;&gt;Cpuid</title>
<path fill="none" stroke="black" stroke-dasharray="1,5" d="M860.259,-549.836C838.338,-539.314 807.016,-524.052 779.953,-510 779.408,-509.717 778.859,-509.43 778.306,-509.141"/>
<polygon fill="black" stroke="black" points="779.695,-505.915 769.226,-504.289 776.396,-512.089 779.695,-505.915"/>
</g>
<!-- ethcore -->
<g id="node22" class="node"><title>ethcore</title>
<ellipse fill="none" stroke="black" cx="994.953" cy="-338" rx="33.2355" ry="18"/>
<text text-anchor="middle" x="994.953" y="-335" font-family="Courier,monospace" font-size="10.00">ethcore</text>
</g>
<!-- ethcore&#45;&gt;buildinfo -->
<g id="edge29" class="edge"><title>ethcore&#45;&gt;buildinfo</title>
<path fill="none" stroke="black" d="M993.263,-319.795C989.464,-281.113 980.222,-187.015 975.632,-140.275"/>
<polygon fill="black" stroke="black" points="979.109,-139.874 974.648,-130.264 972.143,-140.558 979.109,-139.874"/>
</g>
<!-- devcrypto -->
<g id="node37" class="node"><title>devcrypto</title>
<ellipse fill="none" stroke="black" cx="600.953" cy="-266" rx="40.13" ry="18"/>
<text text-anchor="middle" x="600.953" y="-263" font-family="Courier,monospace" font-size="10.00">devcrypto</text>
</g>
<!-- ethcore&#45;&gt;devcrypto -->
<g id="edge30" class="edge"><title>ethcore&#45;&gt;devcrypto</title>
<path fill="none" stroke="black" d="M969.966,-325.769C964.446,-323.604 958.568,-321.536 952.953,-320 847.351,-291.112 719.338,-276.825 650.502,-270.765"/>
<polygon fill="black" stroke="black" points="650.643,-267.264 640.38,-269.896 650.044,-274.238 650.643,-267.264"/>
</g>
<!-- ethkey -->
<g id="node23" class="node"><title>ethkey</title>
<polygon fill="none" stroke="black" stroke-width="2" points="989.953,-428 935.953,-428 935.953,-392 989.953,-392 989.953,-428"/>
<text text-anchor="middle" x="962.953" y="-407" font-family="Courier,monospace" font-size="10.00">ethkey</text>
</g>
<!-- ethkey&#45;&gt;ethcore -->
<g id="edge37" class="edge"><title>ethkey&#45;&gt;ethcore</title>
<path fill="none" stroke="black" d="M970.863,-391.697C974.56,-383.609 979.039,-373.812 983.127,-364.869"/>
<polygon fill="black" stroke="black" points="986.38,-366.172 987.354,-355.622 980.013,-363.262 986.38,-366.172"/>
</g>
<!-- ethminer -->
<g id="node24" class="node"><title>ethminer</title>
<polygon fill="none" stroke="black" stroke-width="2" points="855.959,-656 791.947,-656 791.947,-620 855.959,-620 855.959,-656"/>
<text text-anchor="middle" x="823.953" y="-635" font-family="Courier,monospace" font-size="10.00">ethminer</text>
</g>
<!-- ethminer&#45;&gt;ethashseal -->
<g id="edge38" class="edge"><title>ethminer&#45;&gt;ethashseal</title>
<path fill="none" stroke="black" d="M839.12,-619.937C847.287,-610.749 857.498,-599.261 866.469,-589.169"/>
<polygon fill="black" stroke="black" points="869.307,-591.244 873.335,-581.445 864.076,-586.594 869.307,-591.244"/>
</g>
<!-- ethminer&#45;&gt;JsonRpc* -->
<g id="edge39" class="edge"><title>ethminer&#45;&gt;JsonRpc*</title>
<path fill="none" stroke="black" d="M791.757,-637.652C717.095,-638.69 534.38,-638.37 479.953,-612 469.544,-606.957 460.464,-598.191 453.364,-589.585"/>
<polygon fill="black" stroke="black" points="456.041,-587.324 447.184,-581.51 450.482,-591.579 456.041,-587.324"/>
</g>
<!-- ethvm -->
<g id="node25" class="node"><title>ethvm</title>
<polygon fill="none" stroke="black" stroke-width="2" points="1025.95,-656 971.953,-656 971.953,-620 1025.95,-620 1025.95,-656"/>
<text text-anchor="middle" x="998.953" y="-635" font-family="Courier,monospace" font-size="10.00">ethvm</text>
</g>
<!-- ethvm&#45;&gt;ethashseal -->
<g id="edge40" class="edge"><title>ethvm&#45;&gt;ethashseal</title>
<path fill="none" stroke="black" d="M972.647,-619.937C956.488,-609.455 935.712,-595.979 918.782,-584.997"/>
<polygon fill="black" stroke="black" points="920.618,-582.016 910.324,-579.511 916.809,-587.889 920.618,-582.016"/>
</g>
<!-- evmjit -->
<g id="node26" class="node"><title>evmjit</title>
<polygon fill="none" stroke="black" stroke-width="2" points="943.953,-356 889.953,-356 889.953,-320 943.953,-320 943.953,-356"/>
<text text-anchor="middle" x="916.953" y="-335" font-family="Courier,monospace" font-size="10.00">evmjit</text>
</g>
<!-- ethash -->
<g id="node27" class="node"><title>ethash</title>
<ellipse fill="none" stroke="black" cx="1037.95" cy="-410" rx="30.0384" ry="18"/>
<text text-anchor="middle" x="1037.95" y="-407" font-family="Courier,monospace" font-size="10.00">ethash</text>
</g>
<!-- ethash&#45;cl&#45;&gt;ethash -->
<g id="edge41" class="edge"><title>ethash&#45;cl&#45;&gt;ethash</title>
<path fill="none" stroke="black" d="M1030.12,-473.641C1031.42,-463.297 1033.09,-449.941 1034.55,-438.221"/>
<polygon fill="black" stroke="black" points="1038.05,-438.407 1035.82,-428.05 1031.11,-437.539 1038.05,-438.407"/>
</g>
<!-- OpenCL -->
<g id="node57" class="node"><title>OpenCL</title>
<ellipse fill="none" stroke="black" cx="1153.95" cy="-410" rx="30.0384" ry="18"/>
<text text-anchor="middle" x="1153.95" y="-407" font-family="Courier,monospace" font-size="10.00">OpenCL</text>
</g>
<!-- ethash&#45;cl&#45;&gt;OpenCL -->
<g id="edge42" class="edge"><title>ethash&#45;cl&#45;&gt;OpenCL</title>
<path fill="none" stroke="black" d="M1060.72,-481.49C1076.42,-476.042 1095.01,-468.232 1109.95,-458 1119.46,-451.491 1128.44,-442.605 1135.78,-434.311"/>
<polygon fill="black" stroke="black" points="1138.49,-436.531 1142.28,-426.638 1133.15,-432.007 1138.49,-436.531"/>
</g>
<!-- evm&#45;&gt;ethcore -->
<g id="edge43" class="edge"><title>evm&#45;&gt;ethcore</title>
<path fill="none" stroke="black" d="M909.546,-396.485C925.312,-385.874 948.183,-370.48 966.29,-358.292"/>
<polygon fill="black" stroke="black" points="968.403,-361.089 974.745,-352.602 964.494,-355.282 968.403,-361.089"/>
</g>
<!-- evm&#45;&gt;evmjit -->
<g id="edge44" class="edge"><title>evm&#45;&gt;evmjit</title>
<path fill="none" stroke="black" stroke-dasharray="1,5" d="M897.115,-392.411C900.039,-384.539 903.608,-374.929 906.909,-366.042"/>
<polygon fill="black" stroke="black" points="910.272,-367.04 910.473,-356.447 903.71,-364.602 910.272,-367.04"/>
</g>
<!-- evmcore -->
<g id="node31" class="node"><title>evmcore</title>
<ellipse fill="none" stroke="black" cx="824.953" cy="-266" rx="33.2355" ry="18"/>
<text text-anchor="middle" x="824.953" y="-263" font-family="Courier,monospace" font-size="10.00">evmcore</text>
</g>
<!-- evm&#45;&gt;evmcore -->
<g id="edge45" class="edge"><title>evm&#45;&gt;evmcore</title>
<path fill="none" stroke="black" d="M886.722,-392.058C881.813,-373.74 872.846,-343.951 860.953,-320 856.055,-310.137 849.562,-299.976 843.439,-291.223"/>
<polygon fill="black" stroke="black" points="846.2,-289.067 837.513,-283.002 840.522,-293.161 846.2,-289.067"/>
</g>
<!-- evmasm -->
<g id="node30" class="node"><title>evmasm</title>
<ellipse fill="none" stroke="black" cx="821.953" cy="-338" rx="30.0384" ry="18"/>
<text text-anchor="middle" x="821.953" y="-335" font-family="Courier,monospace" font-size="10.00">evmasm</text>
</g>
<!-- evmasm&#45;&gt;evmcore -->
<g id="edge46" class="edge"><title>evmasm&#45;&gt;evmcore</title>
<path fill="none" stroke="black" d="M822.694,-319.697C823.025,-311.983 823.422,-302.712 823.791,-294.112"/>
<polygon fill="black" stroke="black" points="827.288,-294.245 824.22,-284.104 820.295,-293.945 827.288,-294.245"/>
</g>
<!-- evmcore&#45;&gt;devcore -->
<g id="edge47" class="edge"><title>evmcore&#45;&gt;devcore</title>
<path fill="none" stroke="black" d="M799.953,-254.062C772.909,-242.231 729.612,-223.289 699.366,-210.056"/>
<polygon fill="black" stroke="black" points="700.605,-206.778 690.041,-205.976 697.8,-213.191 700.605,-206.778"/>
</g>
<!-- lll&#45;&gt;evmasm -->
<g id="edge48" class="edge"><title>lll&#45;&gt;evmasm</title>
<path fill="none" stroke="black" d="M819.694,-391.697C820.025,-383.983 820.422,-374.712 820.791,-366.112"/>
<polygon fill="black" stroke="black" points="824.288,-366.245 821.22,-356.104 817.295,-365.945 824.288,-366.245"/>
</g>
<!-- testutils -->
<g id="node33" class="node"><title>testutils</title>
<ellipse fill="none" stroke="black" cx="913.953" cy="-638" rx="40.13" ry="18"/>
<text text-anchor="middle" x="913.953" y="-635" font-family="Courier,monospace" font-size="10.00">testutils</text>
</g>
<!-- testutils&#45;&gt;ethashseal -->
<g id="edge49" class="edge"><title>testutils&#45;&gt;ethashseal</title>
<path fill="none" stroke="black" d="M907.791,-619.937C904.715,-611.419 900.925,-600.923 897.484,-591.395"/>
<polygon fill="black" stroke="black" points="900.759,-590.157 894.07,-581.941 894.175,-592.535 900.759,-590.157"/>
</g>
<!-- lllc -->
<g id="node34" class="node"><title>lllc</title>
<polygon fill="none" stroke="black" stroke-width="2" points="962.953,-510 908.953,-510 908.953,-474 962.953,-474 962.953,-510"/>
<text text-anchor="middle" x="935.953" y="-489" font-family="Courier,monospace" font-size="10.00">lllc</text>
</g>
<!-- lllc&#45;&gt;buildinfo -->
<g id="edge50" class="edge"><title>lllc&#45;&gt;buildinfo</title>
<path fill="none" stroke="black" d="M961.006,-473.96C966.691,-470.809 972.856,-467.913 978.953,-466 999.801,-459.459 1060.92,-472.845 1076.95,-458 1116.25,-421.612 1095.95,-392.559 1095.95,-339 1095.95,-339 1095.95,-339 1095.95,-265 1095.95,-206.703 1040.6,-158.219 1004.16,-132.616"/>
<polygon fill="black" stroke="black" points="1006.03,-129.656 995.8,-126.907 1002.08,-135.436 1006.03,-129.656"/>
</g>
<!-- lllc&#45;&gt;lll -->
<g id="edge51" class="edge"><title>lllc&#45;&gt;lll</title>
<path fill="none" stroke="black" d="M908.826,-476.829C900.931,-473.015 892.207,-469.094 883.953,-466 871.433,-461.307 866.039,-465.474 854.953,-458 846.441,-452.262 839.091,-443.847 833.292,-435.718"/>
<polygon fill="black" stroke="black" points="836.062,-433.561 827.627,-427.149 830.223,-437.421 836.062,-433.561"/>
</g>
<!-- testeth -->
<g id="node35" class="node"><title>testeth</title>
<polygon fill="none" stroke="black" stroke-width="2" points="850.958,-728 792.948,-728 792.948,-692 850.958,-692 850.958,-728"/>
<text text-anchor="middle" x="821.953" y="-707" font-family="Courier,monospace" font-size="10.00">testeth</text>
</g>
<!-- testeth&#45;&gt;testutils -->
<g id="edge52" class="edge"><title>testeth&#45;&gt;testutils</title>
<path fill="none" stroke="black" d="M844.694,-691.697C857.178,-682.198 872.763,-670.34 885.986,-660.279"/>
<polygon fill="black" stroke="black" points="888.439,-662.81 894.278,-653.97 884.201,-657.24 888.439,-662.81"/>
</g>
<!-- p2p&#45;&gt;devcrypto -->
<g id="edge31" class="edge"><title>p2p&#45;&gt;devcrypto</title>
<path fill="none" stroke="black" d="M543.523,-322.834C553.272,-313.356 566.317,-300.673 577.511,-289.791"/>
<polygon fill="black" stroke="black" points="580.171,-292.086 584.901,-282.606 575.291,-287.067 580.171,-292.086"/>
</g>
<!-- Miniupnpc -->
<g id="node55" class="node"><title>Miniupnpc</title>
<ellipse fill="none" stroke="black" cx="445.953" cy="-266" rx="40.13" ry="18"/>
<text text-anchor="middle" x="445.953" y="-263" font-family="Courier,monospace" font-size="10.00">Miniupnpc</text>
</g>
<!-- p2p&#45;&gt;Miniupnpc -->
<g id="edge32" class="edge"><title>p2p&#45;&gt;Miniupnpc</title>
<path fill="none" stroke="black" stroke-dasharray="1,5" d="M512.555,-323.17C500.974,-313.403 485.216,-300.114 471.935,-288.913"/>
<polygon fill="black" stroke="black" points="473.947,-286.031 464.046,-282.259 469.434,-291.382 473.947,-286.031"/>
</g>
<!-- devcrypto&#45;&gt;scrypt -->
<g id="edge33" class="edge"><title>devcrypto&#45;&gt;scrypt</title>
<path fill="none" stroke="black" d="M600.953,-247.859C600.953,-221.745 600.953,-171.743 600.953,-140.507"/>
<polygon fill="black" stroke="black" points="604.453,-140.311 600.953,-130.311 597.453,-140.311 604.453,-140.311"/>
</g>
<!-- devcrypto&#45;&gt;secp256k1 -->
<g id="edge34" class="edge"><title>devcrypto&#45;&gt;secp256k1</title>
<path fill="none" stroke="black" d="M566.213,-256.857C510.781,-243.702 408.004,-218.581 402.953,-212 391.046,-196.487 389.257,-181.959 402.953,-168 419.336,-151.302 802.288,-168.823 823.953,-160 835.9,-155.134 846.686,-145.976 855.156,-137.027"/>
<polygon fill="black" stroke="black" points="857.963,-139.137 861.973,-129.33 852.723,-134.495 857.963,-139.137"/>
</g>
<!-- devcrypto&#45;&gt;devcore -->
<g id="edge35" class="edge"><title>devcrypto&#45;&gt;devcore</title>
<path fill="none" stroke="black" d="M615.475,-249.116C623.939,-239.858 634.757,-228.027 644.117,-217.789"/>
<polygon fill="black" stroke="black" points="646.763,-220.082 650.928,-210.34 641.597,-215.359 646.763,-220.082"/>
</g>
<!-- Cryptopp -->
<g id="node56" class="node"><title>Cryptopp</title>
<ellipse fill="none" stroke="black" cx="448.953" cy="-194" rx="36.433" ry="18"/>
<text text-anchor="middle" x="448.953" y="-191" font-family="Courier,monospace" font-size="10.00">Cryptopp</text>
</g>
<!-- devcrypto&#45;&gt;Cryptopp -->
<g id="edge36" class="edge"><title>devcrypto&#45;&gt;Cryptopp</title>
<path fill="none" stroke="black" d="M573.778,-252.485C548.724,-240.947 511.393,-223.755 484.083,-211.178"/>
<polygon fill="black" stroke="black" points="485.425,-207.943 474.878,-206.939 482.497,-214.301 485.425,-207.943"/>
</g>
<!-- devcore&#45;&gt;base -->
<g id="edge53" class="edge"><title>devcore&#45;&gt;base</title>
<path fill="none" stroke="black" d="M667.286,-176.034C668.73,-165.534 670.615,-151.821 672.259,-139.868"/>
<polygon fill="black" stroke="black" points="675.729,-140.325 673.623,-129.941 668.794,-139.371 675.729,-140.325"/>
</g>
<!-- bench -->
<g id="node39" class="node"><title>bench</title>
<polygon fill="none" stroke="black" stroke-width="2" points="699.953,-356 645.953,-356 645.953,-320 699.953,-320 699.953,-356"/>
<text text-anchor="middle" x="672.953" y="-335" font-family="Courier,monospace" font-size="10.00">bench</text>
</g>
<!-- bench&#45;&gt;devcrypto -->
<g id="edge54" class="edge"><title>bench&#45;&gt;devcrypto</title>
<path fill="none" stroke="black" d="M655.155,-319.697C645.864,-310.663 634.377,-299.495 624.372,-289.769"/>
<polygon fill="black" stroke="black" points="626.682,-287.133 617.072,-282.671 621.802,-292.152 626.682,-287.133"/>
</g>
<!-- rlp -->
<g id="node40" class="node"><title>rlp</title>
<polygon fill="none" stroke="black" stroke-width="2" points="627.953,-356 573.953,-356 573.953,-320 627.953,-320 627.953,-356"/>
<text text-anchor="middle" x="600.953" y="-335" font-family="Courier,monospace" font-size="10.00">rlp</text>
</g>
<!-- rlp&#45;&gt;devcrypto -->
<g id="edge55" class="edge"><title>rlp&#45;&gt;devcrypto</title>
<path fill="none" stroke="black" d="M600.953,-319.697C600.953,-311.983 600.953,-302.712 600.953,-294.112"/>
<polygon fill="black" stroke="black" points="604.453,-294.104 600.953,-284.104 597.453,-294.104 604.453,-294.104"/>
</g>
<!-- testweb3core -->
<g id="node41" class="node"><title>testweb3core</title>
<polygon fill="none" stroke="black" stroke-width="2" points="589.962,-428 501.944,-428 501.944,-392 589.962,-392 589.962,-428"/>
<text text-anchor="middle" x="545.953" y="-407" font-family="Courier,monospace" font-size="10.00">testweb3core</text>
</g>
<!-- testweb3core&#45;&gt;p2p -->
<g id="edge56" class="edge"><title>testweb3core&#45;&gt;p2p</title>
<path fill="none" stroke="black" d="M541.751,-391.697C539.857,-383.898 537.576,-374.509 535.469,-365.829"/>
<polygon fill="black" stroke="black" points="538.868,-364.996 533.107,-356.104 532.066,-366.648 538.868,-364.996"/>
</g>
<!-- Mix -->
<g id="node42" class="node"><title>Mix</title>
<ellipse fill="none" stroke="black" cx="512.953" cy="-792" rx="27" ry="18"/>
<text text-anchor="middle" x="512.953" y="-789" font-family="Courier,monospace" font-size="10.00">Mix</text>
</g>
<!-- Mix&#45;&gt;web3jsonrpc -->
<g id="edge58" class="edge"><title>Mix&#45;&gt;web3jsonrpc</title>
<path fill="none" stroke="black" d="M491.018,-781.03C462.212,-767.936 411.148,-744.725 375.744,-728.632"/>
<polygon fill="black" stroke="black" points="376.758,-725.248 366.206,-724.297 373.861,-731.621 376.758,-725.248"/>
</g>
<!-- Mix&#45;&gt;Qt* -->
<g id="edge57" class="edge"><title>Mix&#45;&gt;Qt*</title>
<path fill="none" stroke="black" d="M536.779,-782.889C578.938,-768.537 666.754,-738.642 714.796,-722.288"/>
<polygon fill="black" stroke="black" points="716.074,-725.55 724.413,-719.014 713.818,-718.923 716.074,-725.55"/>
</g>
<!-- soljson -->
<g id="node43" class="node"><title>soljson</title>
<ellipse fill="none" stroke="black" cx="596.953" cy="-564" rx="33.2355" ry="18"/>
<text text-anchor="middle" x="596.953" y="-561" font-family="Courier,monospace" font-size="10.00">soljson</text>
</g>
<!-- soljson&#45;&gt;solidity -->
<g id="edge1" class="edge"><title>soljson&#45;&gt;solidity</title>
<path fill="none" stroke="black" d="M596.953,-545.697C596.953,-537.983 596.953,-528.712 596.953,-520.112"/>
<polygon fill="black" stroke="black" points="600.453,-520.104 596.953,-510.104 593.453,-520.104 600.453,-520.104"/>
</g>
<!-- solidity&#45;&gt;evmasm -->
<g id="edge26" class="edge"><title>solidity&#45;&gt;evmasm</title>
<path fill="none" stroke="black" d="M631.655,-486.11C655.579,-481.569 687.37,-473.142 711.953,-458 733.083,-444.985 777.328,-393.397 802.796,-362.579"/>
<polygon fill="black" stroke="black" points="805.801,-364.435 809.446,-354.487 800.393,-359.99 805.801,-364.435"/>
</g>
<!-- solc -->
<g id="node45" class="node"><title>solc</title>
<polygon fill="none" stroke="black" stroke-width="2" points="545.953,-582 491.953,-582 491.953,-546 545.953,-546 545.953,-582"/>
<text text-anchor="middle" x="518.953" y="-561" font-family="Courier,monospace" font-size="10.00">solc</text>
</g>
<!-- solc&#45;&gt;solidity -->
<g id="edge59" class="edge"><title>solc&#45;&gt;solidity</title>
<path fill="none" stroke="black" d="M538.234,-545.697C548.544,-536.444 561.348,-524.953 572.367,-515.064"/>
<polygon fill="black" stroke="black" points="574.908,-517.486 580.013,-508.202 570.233,-512.277 574.908,-517.486"/>
</g>
<!-- soltest -->
<g id="node46" class="node"><title>soltest</title>
<polygon fill="none" stroke="black" stroke-width="2" points="705.958,-582 647.948,-582 647.948,-546 705.958,-546 705.958,-582"/>
<text text-anchor="middle" x="676.953" y="-561" font-family="Courier,monospace" font-size="10.00">soltest</text>
</g>
<!-- soltest&#45;&gt;ethereum -->
<g id="edge60" class="edge"><title>soltest&#45;&gt;ethereum</title>
<path fill="none" stroke="black" d="M706.29,-550.324C733.487,-538.572 774.021,-521.057 803.121,-508.483"/>
<polygon fill="black" stroke="black" points="804.725,-511.603 812.516,-504.423 801.948,-505.177 804.725,-511.603"/>
</g>
<!-- soltest&#45;&gt;solidity -->
<g id="edge61" class="edge"><title>soltest&#45;&gt;solidity</title>
<path fill="none" stroke="black" d="M657.178,-545.697C646.426,-536.289 633.028,-524.566 621.601,-514.567"/>
<polygon fill="black" stroke="black" points="623.892,-511.921 614.061,-507.97 619.282,-517.189 623.892,-511.921"/>
</g>
</g>
</svg>
